<?xml version='1.0' encoding='UTF-8' standalone='no'?>
<!-- Created with Fritzing (http://www.fritzing.org/) -->
<svg xmlns:svg='http://www.w3.org/2000/svg' xmlns='http://www.w3.org/2000/svg' version='1.2' baseProfile='tiny' x='0in' y='0in' width='2.2in' height='0.6in' viewBox='0 0 158.4 43.2' >
<g partID='854121900'><g  id="breadboard">
 <g  id="icon">
  <path  stroke-width="0" stroke="none" d="M0,0L0,19.44A2.16,2.16,0,0,1,0,23.76L0,43.2L158.4,43.2L158.4,0L0,0z" fill="#1F7A34"/>
  <g transform="matrix(1, 0, 0, 1, 60.6331, 3.03307)">
   <g >
    <g transform="matrix(0.5, 0, 0, 0.5, 9.28346, 9.28346)">
     <g >
      <rect  stroke-width="0" connectorname="1" stroke="none" x="0" height="1.41732" stroke-linecap="round" width="4.25197" y="6.51969" fill="#8c8c8c"/>
      <rect  stroke-width="0" connectorname="2" stroke="none" x="0" height="1.41732" stroke-linecap="round" width="4.25197" y="8.78738" fill="#8c8c8c"/>
      <rect  stroke-width="0" connectorname="3" stroke="none" x="0" height="1.41732" stroke-linecap="round" width="4.25197" y="11.0551" fill="#8c8c8c"/>
      <rect  stroke-width="0" connectorname="4" stroke="none" x="0" height="1.41732" stroke-linecap="round" width="4.25197" y="13.3228" fill="#8c8c8c"/>
      <rect  stroke-width="0" connectorname="5" stroke="none" x="0" height="1.41732" stroke-linecap="round" width="4.25197" y="15.5905" fill="#8c8c8c"/>
      <rect  stroke-width="0" connectorname="6" stroke="none" x="0" height="1.41732" stroke-linecap="round" width="4.25197" y="17.8582" fill="#8c8c8c"/>
      <rect  stroke-width="0" connectorname="7" stroke="none" x="0" height="1.41732" stroke-linecap="round" width="4.25197" y="20.126" fill="#8c8c8c"/>
      <rect  stroke-width="0" connectorname="8" stroke="none" x="0" height="1.41732" stroke-linecap="round" width="4.25197" y="22.3937" fill="#8c8c8c"/>
      <rect  stroke-width="0" connectorname="9" stroke="none" x="0" height="1.41732" stroke-linecap="round" width="4.25197" y="24.6614" fill="#8c8c8c"/>
      <rect  stroke-width="0" connectorname="10" stroke="none" x="0" height="1.41732" stroke-linecap="round" width="4.25197" y="26.9292" fill="#8c8c8c"/>
      <rect  stroke-width="0" connectorname="11" stroke="none" x="0" height="1.41732" stroke-linecap="round" width="4.25197" y="29.1969" fill="#8c8c8c"/>
      <rect  stroke-width="0" connectorname="12" stroke="none" x="6.51969" height="4.25197" stroke-linecap="round" width="1.41732" y="32.8819" fill="#8c8c8c"/>
      <rect  stroke-width="0" connectorname="13" stroke="none" x="8.78738" height="4.25197" stroke-linecap="round" width="1.41732" y="32.8819" fill="#8c8c8c"/>
      <rect  stroke-width="0" connectorname="14" stroke="none" x="11.0551" height="4.25197" stroke-linecap="round" width="1.41732" y="32.8819" fill="#8c8c8c"/>
      <rect  stroke-width="0" connectorname="15" stroke="none" x="13.3228" height="4.25197" stroke-linecap="round" width="1.41732" y="32.8819" fill="#8c8c8c"/>
      <rect  stroke-width="0" connectorname="16" stroke="none" x="15.5905" height="4.25197" stroke-linecap="round" width="1.41732" y="32.8819" fill="#8c8c8c"/>
      <rect  stroke-width="0" connectorname="17" stroke="none" x="17.8582" height="4.25197" stroke-linecap="round" width="1.41732" y="32.8819" fill="#8c8c8c"/>
      <rect  stroke-width="0" connectorname="18" stroke="none" x="20.126" height="4.25197" stroke-linecap="round" width="1.41732" y="32.8819" fill="#8c8c8c"/>
      <rect  stroke-width="0" connectorname="19" stroke="none" x="22.3937" height="4.25197" stroke-linecap="round" width="1.41732" y="32.8819" fill="#8c8c8c"/>
      <rect  stroke-width="0" connectorname="20" stroke="none" x="24.6614" height="4.25197" stroke-linecap="round" width="1.41732" y="32.8819" fill="#8c8c8c"/>
      <rect  stroke-width="0" connectorname="21" stroke="none" x="26.9292" height="4.25197" stroke-linecap="round" width="1.41732" y="32.8819" fill="#8c8c8c"/>
      <rect  stroke-width="0" connectorname="22" stroke="none" x="29.1969" height="4.25197" stroke-linecap="round" width="1.41732" y="32.8819" fill="#8c8c8c"/>
      <rect  stroke-width="0" connectorname="23" stroke="none" x="32.8819" height="1.41732" stroke-linecap="round" width="4.25197" y="29.1969" fill="#8c8c8c"/>
      <rect  stroke-width="0" connectorname="24" stroke="none" x="32.8819" height="1.41732" stroke-linecap="round" width="4.25197" y="26.9292" fill="#8c8c8c"/>
      <rect  stroke-width="0" connectorname="25" stroke="none" x="32.8819" height="1.41732" stroke-linecap="round" width="4.25197" y="24.6614" fill="#8c8c8c"/>
      <rect  stroke-width="0" connectorname="26" stroke="none" x="32.8819" height="1.41732" stroke-linecap="round" width="4.25197" y="22.3937" fill="#8c8c8c"/>
      <rect  stroke-width="0" connectorname="27" stroke="none" x="32.8819" height="1.41732" stroke-linecap="round" width="4.25197" y="20.126" fill="#8c8c8c"/>
      <rect  stroke-width="0" connectorname="28" stroke="none" x="32.8819" height="1.41732" stroke-linecap="round" width="4.25197" y="17.8582" fill="#8c8c8c"/>
      <rect  stroke-width="0" connectorname="29" stroke="none" x="32.8819" height="1.41732" stroke-linecap="round" width="4.25197" y="15.5905" fill="#8c8c8c"/>
      <rect  stroke-width="0" connectorname="30" stroke="none" x="32.8819" height="1.41732" stroke-linecap="round" width="4.25197" y="13.3228" fill="#8c8c8c"/>
      <rect  stroke-width="0" connectorname="31" stroke="none" x="32.8819" height="1.41732" stroke-linecap="round" width="4.25197" y="11.0551" fill="#8c8c8c"/>
      <rect  stroke-width="0" connectorname="32" stroke="none" x="32.8819" height="1.41732" stroke-linecap="round" width="4.25197" y="8.78738" fill="#8c8c8c"/>
      <rect  stroke-width="0" connectorname="33" stroke="none" x="32.8819" height="1.41732" stroke-linecap="round" width="4.25197" y="6.51969" fill="#8c8c8c"/>
      <rect  stroke-width="0" connectorname="34" stroke="none" x="29.1969" height="4.25197" stroke-linecap="round" width="1.41732" y="0" fill="#8c8c8c"/>
      <rect  stroke-width="0" connectorname="35" stroke="none" x="26.9292" height="4.25197" stroke-linecap="round" width="1.41732" y="0" fill="#8c8c8c"/>
      <rect  stroke-width="0" connectorname="36" stroke="none" x="24.6614" height="4.25197" stroke-linecap="round" width="1.41732" y="0" fill="#8c8c8c"/>
      <rect  stroke-width="0" connectorname="37" stroke="none" x="22.3937" height="4.25197" stroke-linecap="round" width="1.41732" y="0" fill="#8c8c8c"/>
      <rect  stroke-width="0" connectorname="38" stroke="none" x="20.126" height="4.25197" stroke-linecap="round" width="1.41732" y="0" fill="#8c8c8c"/>
      <rect  stroke-width="0" connectorname="39" stroke="none" x="17.8582" height="4.25197" stroke-linecap="round" width="1.41732" y="0" fill="#8c8c8c"/>
      <rect  stroke-width="0" connectorname="40" stroke="none" x="15.5905" height="4.25197" stroke-linecap="round" width="1.41732" y="0" fill="#8c8c8c"/>
      <rect  stroke-width="0" connectorname="41" stroke="none" x="13.3228" height="4.25197" stroke-linecap="round" width="1.41732" y="0" fill="#8c8c8c"/>
      <rect  stroke-width="0" connectorname="42" stroke="none" x="11.0551" height="4.25197" stroke-linecap="round" width="1.41732" y="0" fill="#8c8c8c"/>
      <rect  stroke-width="0" connectorname="43" stroke="none" x="8.78738" height="4.25197" stroke-linecap="round" width="1.41732" y="0" fill="#8c8c8c"/>
      <rect  stroke-width="0" connectorname="44" stroke="none" x="6.51969" height="4.25197" stroke-linecap="round" width="1.41732" y="0" fill="#8c8c8c"/>
      <rect  stroke-width="0" stroke="none" x="4.67263" height="27.7886" width="27.7886" y="4.67263" fill="#303030"/>
      <polygon  points="4.67263,4.67263,32.4612,4.67263,31.7412,5.39263,5.39263,5.39263" fill="#1f1f1f"/>
      <polygon  points="4.67263,32.4612,32.4612,32.4612,31.7412,31.7412,5.39263,31.7412" fill="#1f1f1f"/>
      <polygon  points="4.67263,4.67263,4.67263,32.4612,5.39263,31.7412,5.39263,5.39263" fill="#000000"/>
      <polygon  points="32.4612,4.67263,32.4612,32.4612,31.7412,31.7412,31.7412,5.39263" fill="#3d3d3d"/>
      <circle  stroke-width="0" cx="6.83263" cy="30.3012" r="0.72" stroke="none" fill="#1f1f1f"/>
     </g>
    </g>
   </g>
  </g>
  <text  stroke-width="0" font-family="OCRA" stroke="none" font-size="4.68" x="3.6" y="23.355" text-anchor="start" fill="white" id="label">TQFP44</text>
  <g transform="matrix(1, 0, 0, 1, 4.572, 37.8756)">
   <g >
    <g transform="rotate(-90)">
     <g >
      <text  stroke-width="0" font-family="OCRA" stroke="none" font-size="3.24" x="0" y="0" text-anchor="start" fill="white">1</text>
     </g>
    </g>
   </g>
  </g>
  <g transform="matrix(1, 0, 0, 1, 4.572, 5.3244)">
   <g >
    <g transform="rotate(-90)">
     <g >
      <text  stroke-width="0" font-family="OCRA" stroke="none" font-size="3.24" x="0" y="0" text-anchor="end" fill="white">44</text>
     </g>
    </g>
   </g>
  </g>
  <g transform="matrix(1, 0, 0, 1, 11.772, 37.8756)">
   <g >
    <g transform="rotate(-90)">
     <g >
      <text  stroke-width="0" font-family="OCRA" stroke="none" font-size="3.24" x="0" y="0" text-anchor="start" fill="white">2</text>
     </g>
    </g>
   </g>
  </g>
  <g transform="matrix(1, 0, 0, 1, 11.772, 5.3244)">
   <g >
    <g transform="rotate(-90)">
     <g >
      <text  stroke-width="0" font-family="OCRA" stroke="none" font-size="3.24" x="0" y="0" text-anchor="end" fill="white">43</text>
     </g>
    </g>
   </g>
  </g>
  <g transform="matrix(1, 0, 0, 1, 18.972, 37.8756)">
   <g >
    <g transform="rotate(-90)">
     <g >
      <text  stroke-width="0" font-family="OCRA" stroke="none" font-size="3.24" x="0" y="0" text-anchor="start" fill="white">3</text>
     </g>
    </g>
   </g>
  </g>
  <g transform="matrix(1, 0, 0, 1, 18.972, 5.3244)">
   <g >
    <g transform="rotate(-90)">
     <g >
      <text  stroke-width="0" font-family="OCRA" stroke="none" font-size="3.24" x="0" y="0" text-anchor="end" fill="white">42</text>
     </g>
    </g>
   </g>
  </g>
  <g transform="matrix(1, 0, 0, 1, 26.172, 37.8756)">
   <g >
    <g transform="rotate(-90)">
     <g >
      <text  stroke-width="0" font-family="OCRA" stroke="none" font-size="3.24" x="0" y="0" text-anchor="start" fill="white">4</text>
     </g>
    </g>
   </g>
  </g>
  <g transform="matrix(1, 0, 0, 1, 26.172, 5.3244)">
   <g >
    <g transform="rotate(-90)">
     <g >
      <text  stroke-width="0" font-family="OCRA" stroke="none" font-size="3.24" x="0" y="0" text-anchor="end" fill="white">41</text>
     </g>
    </g>
   </g>
  </g>
  <g transform="matrix(1, 0, 0, 1, 33.372, 37.8756)">
   <g >
    <g transform="rotate(-90)">
     <g >
      <text  stroke-width="0" font-family="OCRA" stroke="none" font-size="3.24" x="0" y="0" text-anchor="start" fill="white">5</text>
     </g>
    </g>
   </g>
  </g>
  <g transform="matrix(1, 0, 0, 1, 33.372, 5.3244)">
   <g >
    <g transform="rotate(-90)">
     <g >
      <text  stroke-width="0" font-family="OCRA" stroke="none" font-size="3.24" x="0" y="0" text-anchor="end" fill="white">40</text>
     </g>
    </g>
   </g>
  </g>
  <g transform="matrix(1, 0, 0, 1, 40.572, 37.8756)">
   <g >
    <g transform="rotate(-90)">
     <g >
      <text  stroke-width="0" font-family="OCRA" stroke="none" font-size="3.24" x="0" y="0" text-anchor="start" fill="white">6</text>
     </g>
    </g>
   </g>
  </g>
  <g transform="matrix(1, 0, 0, 1, 40.572, 5.3244)">
   <g >
    <g transform="rotate(-90)">
     <g >
      <text  stroke-width="0" font-family="OCRA" stroke="none" font-size="3.24" x="0" y="0" text-anchor="end" fill="white">39</text>
     </g>
    </g>
   </g>
  </g>
  <g transform="matrix(1, 0, 0, 1, 47.772, 37.8756)">
   <g >
    <g transform="rotate(-90)">
     <g >
      <text  stroke-width="0" font-family="OCRA" stroke="none" font-size="3.24" x="0" y="0" text-anchor="start" fill="white">7</text>
     </g>
    </g>
   </g>
  </g>
  <g transform="matrix(1, 0, 0, 1, 47.772, 5.3244)">
   <g >
    <g transform="rotate(-90)">
     <g >
      <text  stroke-width="0" font-family="OCRA" stroke="none" font-size="3.24" x="0" y="0" text-anchor="end" fill="white">38</text>
     </g>
    </g>
   </g>
  </g>
  <g transform="matrix(1, 0, 0, 1, 54.972, 37.8756)">
   <g >
    <g transform="rotate(-90)">
     <g >
      <text  stroke-width="0" font-family="OCRA" stroke="none" font-size="3.24" x="0" y="0" text-anchor="start" fill="white">8</text>
     </g>
    </g>
   </g>
  </g>
  <g transform="matrix(1, 0, 0, 1, 54.972, 5.3244)">
   <g >
    <g transform="rotate(-90)">
     <g >
      <text  stroke-width="0" font-family="OCRA" stroke="none" font-size="3.24" x="0" y="0" text-anchor="end" fill="white">37</text>
     </g>
    </g>
   </g>
  </g>
  <g transform="matrix(1, 0, 0, 1, 62.172, 37.8756)">
   <g >
    <g transform="rotate(-90)">
     <g >
      <text  stroke-width="0" font-family="OCRA" stroke="none" font-size="3.24" x="0" y="0" text-anchor="start" fill="white">9</text>
     </g>
    </g>
   </g>
  </g>
  <g transform="matrix(1, 0, 0, 1, 62.172, 5.3244)">
   <g >
    <g transform="rotate(-90)">
     <g >
      <text  stroke-width="0" font-family="OCRA" stroke="none" font-size="3.24" x="0" y="0" text-anchor="end" fill="white">36</text>
     </g>
    </g>
   </g>
  </g>
  <g transform="matrix(1, 0, 0, 1, 69.372, 37.8756)">
   <g >
    <g transform="rotate(-90)">
     <g >
      <text  stroke-width="0" font-family="OCRA" stroke="none" font-size="3.24" x="0" y="0" text-anchor="start" fill="white">10</text>
     </g>
    </g>
   </g>
  </g>
  <g transform="matrix(1, 0, 0, 1, 69.372, 5.3244)">
   <g >
    <g transform="rotate(-90)">
     <g >
      <text  stroke-width="0" font-family="OCRA" stroke="none" font-size="3.24" x="0" y="0" text-anchor="end" fill="white">35</text>
     </g>
    </g>
   </g>
  </g>
  <g transform="matrix(1, 0, 0, 1, 76.572, 37.8756)">
   <g >
    <g transform="rotate(-90)">
     <g >
      <text  stroke-width="0" font-family="OCRA" stroke="none" font-size="3.24" x="0" y="0" text-anchor="start" fill="white">11</text>
     </g>
    </g>
   </g>
  </g>
  <g transform="matrix(1, 0, 0, 1, 76.572, 5.3244)">
   <g >
    <g transform="rotate(-90)">
     <g >
      <text  stroke-width="0" font-family="OCRA" stroke="none" font-size="3.24" x="0" y="0" text-anchor="end" fill="white">34</text>
     </g>
    </g>
   </g>
  </g>
  <g transform="matrix(1, 0, 0, 1, 83.772, 37.8756)">
   <g >
    <g transform="rotate(-90)">
     <g >
      <text  stroke-width="0" font-family="OCRA" stroke="none" font-size="3.24" x="0" y="0" text-anchor="start" fill="white">12</text>
     </g>
    </g>
   </g>
  </g>
  <g transform="matrix(1, 0, 0, 1, 83.772, 5.3244)">
   <g >
    <g transform="rotate(-90)">
     <g >
      <text  stroke-width="0" font-family="OCRA" stroke="none" font-size="3.24" x="0" y="0" text-anchor="end" fill="white">33</text>
     </g>
    </g>
   </g>
  </g>
  <g transform="matrix(1, 0, 0, 1, 90.972, 37.8756)">
   <g >
    <g transform="rotate(-90)">
     <g >
      <text  stroke-width="0" font-family="OCRA" stroke="none" font-size="3.24" x="0" y="0" text-anchor="start" fill="white">13</text>
     </g>
    </g>
   </g>
  </g>
  <g transform="matrix(1, 0, 0, 1, 90.972, 5.3244)">
   <g >
    <g transform="rotate(-90)">
     <g >
      <text  stroke-width="0" font-family="OCRA" stroke="none" font-size="3.24" x="0" y="0" text-anchor="end" fill="white">32</text>
     </g>
    </g>
   </g>
  </g>
  <g transform="matrix(1, 0, 0, 1, 98.172, 37.8756)">
   <g >
    <g transform="rotate(-90)">
     <g >
      <text  stroke-width="0" font-family="OCRA" stroke="none" font-size="3.24" x="0" y="0" text-anchor="start" fill="white">14</text>
     </g>
    </g>
   </g>
  </g>
  <g transform="matrix(1, 0, 0, 1, 98.172, 5.3244)">
   <g >
    <g transform="rotate(-90)">
     <g >
      <text  stroke-width="0" font-family="OCRA" stroke="none" font-size="3.24" x="0" y="0" text-anchor="end" fill="white">31</text>
     </g>
    </g>
   </g>
  </g>
  <g transform="matrix(1, 0, 0, 1, 105.372, 37.8756)">
   <g >
    <g transform="rotate(-90)">
     <g >
      <text  stroke-width="0" font-family="OCRA" stroke="none" font-size="3.24" x="0" y="0" text-anchor="start" fill="white">15</text>
     </g>
    </g>
   </g>
  </g>
  <g transform="matrix(1, 0, 0, 1, 105.372, 5.3244)">
   <g >
    <g transform="rotate(-90)">
     <g >
      <text  stroke-width="0" font-family="OCRA" stroke="none" font-size="3.24" x="0" y="0" text-anchor="end" fill="white">30</text>
     </g>
    </g>
   </g>
  </g>
  <g transform="matrix(1, 0, 0, 1, 112.572, 37.8756)">
   <g >
    <g transform="rotate(-90)">
     <g >
      <text  stroke-width="0" font-family="OCRA" stroke="none" font-size="3.24" x="0" y="0" text-anchor="start" fill="white">16</text>
     </g>
    </g>
   </g>
  </g>
  <g transform="matrix(1, 0, 0, 1, 112.572, 5.3244)">
   <g >
    <g transform="rotate(-90)">
     <g >
      <text  stroke-width="0" font-family="OCRA" stroke="none" font-size="3.24" x="0" y="0" text-anchor="end" fill="white">29</text>
     </g>
    </g>
   </g>
  </g>
  <g transform="matrix(1, 0, 0, 1, 119.772, 37.8756)">
   <g >
    <g transform="rotate(-90)">
     <g >
      <text  stroke-width="0" font-family="OCRA" stroke="none" font-size="3.24" x="0" y="0" text-anchor="start" fill="white">17</text>
     </g>
    </g>
   </g>
  </g>
  <g transform="matrix(1, 0, 0, 1, 119.772, 5.3244)">
   <g >
    <g transform="rotate(-90)">
     <g >
      <text  stroke-width="0" font-family="OCRA" stroke="none" font-size="3.24" x="0" y="0" text-anchor="end" fill="white">28</text>
     </g>
    </g>
   </g>
  </g>
  <g transform="matrix(1, 0, 0, 1, 126.972, 37.8756)">
   <g >
    <g transform="rotate(-90)">
     <g >
      <text  stroke-width="0" font-family="OCRA" stroke="none" font-size="3.24" x="0" y="0" text-anchor="start" fill="white">18</text>
     </g>
    </g>
   </g>
  </g>
  <g transform="matrix(1, 0, 0, 1, 126.972, 5.3244)">
   <g >
    <g transform="rotate(-90)">
     <g >
      <text  stroke-width="0" font-family="OCRA" stroke="none" font-size="3.24" x="0" y="0" text-anchor="end" fill="white">27</text>
     </g>
    </g>
   </g>
  </g>
  <g transform="matrix(1, 0, 0, 1, 134.172, 37.8756)">
   <g >
    <g transform="rotate(-90)">
     <g >
      <text  stroke-width="0" font-family="OCRA" stroke="none" font-size="3.24" x="0" y="0" text-anchor="start" fill="white">19</text>
     </g>
    </g>
   </g>
  </g>
  <g transform="matrix(1, 0, 0, 1, 134.172, 5.3244)">
   <g >
    <g transform="rotate(-90)">
     <g >
      <text  stroke-width="0" font-family="OCRA" stroke="none" font-size="3.24" x="0" y="0" text-anchor="end" fill="white">26</text>
     </g>
    </g>
   </g>
  </g>
  <g transform="matrix(1, 0, 0, 1, 141.372, 37.8756)">
   <g >
    <g transform="rotate(-90)">
     <g >
      <text  stroke-width="0" font-family="OCRA" stroke="none" font-size="3.24" x="0" y="0" text-anchor="start" fill="white">20</text>
     </g>
    </g>
   </g>
  </g>
  <g transform="matrix(1, 0, 0, 1, 141.372, 5.3244)">
   <g >
    <g transform="rotate(-90)">
     <g >
      <text  stroke-width="0" font-family="OCRA" stroke="none" font-size="3.24" x="0" y="0" text-anchor="end" fill="white">25</text>
     </g>
    </g>
   </g>
  </g>
  <g transform="matrix(1, 0, 0, 1, 148.572, 37.8756)">
   <g >
    <g transform="rotate(-90)">
     <g >
      <text  stroke-width="0" font-family="OCRA" stroke="none" font-size="3.24" x="0" y="0" text-anchor="start" fill="white">21</text>
     </g>
    </g>
   </g>
  </g>
  <g transform="matrix(1, 0, 0, 1, 148.572, 5.3244)">
   <g >
    <g transform="rotate(-90)">
     <g >
      <text  stroke-width="0" font-family="OCRA" stroke="none" font-size="3.24" x="0" y="0" text-anchor="end" fill="white">24</text>
     </g>
    </g>
   </g>
  </g>
  <g transform="matrix(1, 0, 0, 1, 155.772, 37.8756)">
   <g >
    <g transform="rotate(-90)">
     <g >
      <text  stroke-width="0" font-family="OCRA" stroke="none" font-size="3.24" x="0" y="0" text-anchor="start" fill="white">22</text>
     </g>
    </g>
   </g>
  </g>
  <g transform="matrix(1, 0, 0, 1, 155.772, 5.3244)">
   <g >
    <g transform="rotate(-90)">
     <g >
      <text  stroke-width="0" font-family="OCRA" stroke="none" font-size="3.24" x="0" y="0" text-anchor="end" fill="white">23</text>
     </g>
    </g>
   </g>
  </g>
 </g>
 <g transform="matrix(1, 0, 0, 1, 2.45052, 38.4516)">
  <g >
   <rect  x="0" height="2.2968" width="2.29896" y="0" fill="#8D8C8C" id="connector0pin"/>
   <rect  x="0.56099" height="1.18189" width="1.18398" y="0.556952" fill="#8C8663"/>
   <polygon  points="0,2.2968,0.56099,1.73785,0.56099,0.501957,0,0" fill="#B8AF82"/>
   <polygon  points="1.74297,0.558951,0.56899,0.558951,0,0,2.29896,0" fill="#80795B"/>
   <polygon  points="1.74297,1.73785,1.74297,0.558951,2.29896,0,2.29896,2.2968" fill="#5E5B43"/>
   <polygon  points="0,2.2968,0.56699,1.73785,1.74297,1.73785,2.29896,2.2968" fill="#9A916C"/>
  </g>
 </g>
 <g transform="matrix(1, 0, 0, 1, 2.45052, 2.4516)">
  <g >
   <rect  x="0" height="2.2968" width="2.29896" y="0" fill="#8D8C8C" id="connector43pin"/>
   <rect  x="0.56099" height="1.18189" width="1.18398" y="0.556952" fill="#8C8663"/>
   <polygon  points="0,2.2968,0.56099,1.73785,0.56099,0.501957,0,0" fill="#B8AF82"/>
   <polygon  points="1.74297,0.558951,0.56899,0.558951,0,0,2.29896,0" fill="#80795B"/>
   <polygon  points="1.74297,1.73785,1.74297,0.558951,2.29896,0,2.29896,2.2968" fill="#5E5B43"/>
   <polygon  points="0,2.2968,0.56699,1.73785,1.74297,1.73785,2.29896,2.2968" fill="#9A916C"/>
  </g>
 </g>
 <g transform="matrix(1, 0, 0, 1, 9.65052, 38.4516)">
  <g >
   <rect  x="0" height="2.2968" width="2.29896" y="0" fill="#8D8C8C" id="connector1pin"/>
   <rect  x="0.56099" height="1.18189" width="1.18398" y="0.556952" fill="#8C8663"/>
   <polygon  points="0,2.2968,0.56099,1.73785,0.56099,0.501957,0,0" fill="#B8AF82"/>
   <polygon  points="1.74297,0.558951,0.56899,0.558951,0,0,2.29896,0" fill="#80795B"/>
   <polygon  points="1.74297,1.73785,1.74297,0.558951,2.29896,0,2.29896,2.2968" fill="#5E5B43"/>
   <polygon  points="0,2.2968,0.56699,1.73785,1.74297,1.73785,2.29896,2.2968" fill="#9A916C"/>
  </g>
 </g>
 <g transform="matrix(1, 0, 0, 1, 9.65052, 2.4516)">
  <g >
   <rect  x="0" height="2.2968" width="2.29896" y="0" fill="#8D8C8C" id="connector42pin"/>
   <rect  x="0.56099" height="1.18189" width="1.18398" y="0.556952" fill="#8C8663"/>
   <polygon  points="0,2.2968,0.56099,1.73785,0.56099,0.501957,0,0" fill="#B8AF82"/>
   <polygon  points="1.74297,0.558951,0.56899,0.558951,0,0,2.29896,0" fill="#80795B"/>
   <polygon  points="1.74297,1.73785,1.74297,0.558951,2.29896,0,2.29896,2.2968" fill="#5E5B43"/>
   <polygon  points="0,2.2968,0.56699,1.73785,1.74297,1.73785,2.29896,2.2968" fill="#9A916C"/>
  </g>
 </g>
 <g transform="matrix(1, 0, 0, 1, 16.8505, 38.4516)">
  <g >
   <rect  x="0" height="2.2968" width="2.29896" y="0" fill="#8D8C8C" id="connector2pin"/>
   <rect  x="0.56099" height="1.18189" width="1.18398" y="0.556952" fill="#8C8663"/>
   <polygon  points="0,2.2968,0.56099,1.73785,0.56099,0.501957,0,0" fill="#B8AF82"/>
   <polygon  points="1.74297,0.558951,0.56899,0.558951,0,0,2.29896,0" fill="#80795B"/>
   <polygon  points="1.74297,1.73785,1.74297,0.558951,2.29896,0,2.29896,2.2968" fill="#5E5B43"/>
   <polygon  points="0,2.2968,0.56699,1.73785,1.74297,1.73785,2.29896,2.2968" fill="#9A916C"/>
  </g>
 </g>
 <g transform="matrix(1, 0, 0, 1, 16.8505, 2.4516)">
  <g >
   <rect  x="0" height="2.2968" width="2.29896" y="0" fill="#8D8C8C" id="connector41pin"/>
   <rect  x="0.56099" height="1.18189" width="1.18398" y="0.556952" fill="#8C8663"/>
   <polygon  points="0,2.2968,0.56099,1.73785,0.56099,0.501957,0,0" fill="#B8AF82"/>
   <polygon  points="1.74297,0.558951,0.56899,0.558951,0,0,2.29896,0" fill="#80795B"/>
   <polygon  points="1.74297,1.73785,1.74297,0.558951,2.29896,0,2.29896,2.2968" fill="#5E5B43"/>
   <polygon  points="0,2.2968,0.56699,1.73785,1.74297,1.73785,2.29896,2.2968" fill="#9A916C"/>
  </g>
 </g>
 <g transform="matrix(1, 0, 0, 1, 24.0505, 38.4516)">
  <g >
   <rect  x="0" height="2.2968" width="2.29896" y="0" fill="#8D8C8C" id="connector3pin"/>
   <rect  x="0.56099" height="1.18189" width="1.18398" y="0.556952" fill="#8C8663"/>
   <polygon  points="0,2.2968,0.56099,1.73785,0.56099,0.501957,0,0" fill="#B8AF82"/>
   <polygon  points="1.74297,0.558951,0.56899,0.558951,0,0,2.29896,0" fill="#80795B"/>
   <polygon  points="1.74297,1.73785,1.74297,0.558951,2.29896,0,2.29896,2.2968" fill="#5E5B43"/>
   <polygon  points="0,2.2968,0.56699,1.73785,1.74297,1.73785,2.29896,2.2968" fill="#9A916C"/>
  </g>
 </g>
 <g transform="matrix(1, 0, 0, 1, 24.0505, 2.4516)">
  <g >
   <rect  x="0" height="2.2968" width="2.29896" y="0" fill="#8D8C8C" id="connector40pin"/>
   <rect  x="0.56099" height="1.18189" width="1.18398" y="0.556952" fill="#8C8663"/>
   <polygon  points="0,2.2968,0.56099,1.73785,0.56099,0.501957,0,0" fill="#B8AF82"/>
   <polygon  points="1.74297,0.558951,0.56899,0.558951,0,0,2.29896,0" fill="#80795B"/>
   <polygon  points="1.74297,1.73785,1.74297,0.558951,2.29896,0,2.29896,2.2968" fill="#5E5B43"/>
   <polygon  points="0,2.2968,0.56699,1.73785,1.74297,1.73785,2.29896,2.2968" fill="#9A916C"/>
  </g>
 </g>
 <g transform="matrix(1, 0, 0, 1, 31.2505, 38.4516)">
  <g >
   <rect  x="0" height="2.2968" width="2.29896" y="0" fill="#8D8C8C" id="connector4pin"/>
   <rect  x="0.56099" height="1.18189" width="1.18398" y="0.556952" fill="#8C8663"/>
   <polygon  points="0,2.2968,0.56099,1.73785,0.56099,0.501957,0,0" fill="#B8AF82"/>
   <polygon  points="1.74297,0.558951,0.56899,0.558951,0,0,2.29896,0" fill="#80795B"/>
   <polygon  points="1.74297,1.73785,1.74297,0.558951,2.29896,0,2.29896,2.2968" fill="#5E5B43"/>
   <polygon  points="0,2.2968,0.56699,1.73785,1.74297,1.73785,2.29896,2.2968" fill="#9A916C"/>
  </g>
 </g>
 <g transform="matrix(1, 0, 0, 1, 31.2505, 2.4516)">
  <g >
   <rect  x="0" height="2.2968" width="2.29896" y="0" fill="#8D8C8C" id="connector39pin"/>
   <rect  x="0.56099" height="1.18189" width="1.18398" y="0.556952" fill="#8C8663"/>
   <polygon  points="0,2.2968,0.56099,1.73785,0.56099,0.501957,0,0" fill="#B8AF82"/>
   <polygon  points="1.74297,0.558951,0.56899,0.558951,0,0,2.29896,0" fill="#80795B"/>
   <polygon  points="1.74297,1.73785,1.74297,0.558951,2.29896,0,2.29896,2.2968" fill="#5E5B43"/>
   <polygon  points="0,2.2968,0.56699,1.73785,1.74297,1.73785,2.29896,2.2968" fill="#9A916C"/>
  </g>
 </g>
 <g transform="matrix(1, 0, 0, 1, 38.4505, 38.4516)">
  <g >
   <rect  x="0" height="2.2968" width="2.29896" y="0" fill="#8D8C8C" id="connector5pin"/>
   <rect  x="0.56099" height="1.18189" width="1.18398" y="0.556952" fill="#8C8663"/>
   <polygon  points="0,2.2968,0.56099,1.73785,0.56099,0.501957,0,0" fill="#B8AF82"/>
   <polygon  points="1.74297,0.558951,0.56899,0.558951,0,0,2.29896,0" fill="#80795B"/>
   <polygon  points="1.74297,1.73785,1.74297,0.558951,2.29896,0,2.29896,2.2968" fill="#5E5B43"/>
   <polygon  points="0,2.2968,0.56699,1.73785,1.74297,1.73785,2.29896,2.2968" fill="#9A916C"/>
  </g>
 </g>
 <g transform="matrix(1, 0, 0, 1, 38.4505, 2.4516)">
  <g >
   <rect  x="0" height="2.2968" width="2.29896" y="0" fill="#8D8C8C" id="connector38pin"/>
   <rect  x="0.56099" height="1.18189" width="1.18398" y="0.556952" fill="#8C8663"/>
   <polygon  points="0,2.2968,0.56099,1.73785,0.56099,0.501957,0,0" fill="#B8AF82"/>
   <polygon  points="1.74297,0.558951,0.56899,0.558951,0,0,2.29896,0" fill="#80795B"/>
   <polygon  points="1.74297,1.73785,1.74297,0.558951,2.29896,0,2.29896,2.2968" fill="#5E5B43"/>
   <polygon  points="0,2.2968,0.56699,1.73785,1.74297,1.73785,2.29896,2.2968" fill="#9A916C"/>
  </g>
 </g>
 <g transform="matrix(1, 0, 0, 1, 45.6505, 38.4516)">
  <g >
   <rect  x="0" height="2.2968" width="2.29896" y="0" fill="#8D8C8C" id="connector6pin"/>
   <rect  x="0.56099" height="1.18189" width="1.18398" y="0.556952" fill="#8C8663"/>
   <polygon  points="0,2.2968,0.56099,1.73785,0.56099,0.501957,0,0" fill="#B8AF82"/>
   <polygon  points="1.74297,0.558951,0.56899,0.558951,0,0,2.29896,0" fill="#80795B"/>
   <polygon  points="1.74297,1.73785,1.74297,0.558951,2.29896,0,2.29896,2.2968" fill="#5E5B43"/>
   <polygon  points="0,2.2968,0.56699,1.73785,1.74297,1.73785,2.29896,2.2968" fill="#9A916C"/>
  </g>
 </g>
 <g transform="matrix(1, 0, 0, 1, 45.6505, 2.4516)">
  <g >
   <rect  x="0" height="2.2968" width="2.29896" y="0" fill="#8D8C8C" id="connector37pin"/>
   <rect  x="0.56099" height="1.18189" width="1.18398" y="0.556952" fill="#8C8663"/>
   <polygon  points="0,2.2968,0.56099,1.73785,0.56099,0.501957,0,0" fill="#B8AF82"/>
   <polygon  points="1.74297,0.558951,0.56899,0.558951,0,0,2.29896,0" fill="#80795B"/>
   <polygon  points="1.74297,1.73785,1.74297,0.558951,2.29896,0,2.29896,2.2968" fill="#5E5B43"/>
   <polygon  points="0,2.2968,0.56699,1.73785,1.74297,1.73785,2.29896,2.2968" fill="#9A916C"/>
  </g>
 </g>
 <g transform="matrix(1, 0, 0, 1, 52.8505, 38.4516)">
  <g >
   <rect  x="0" height="2.2968" width="2.29896" y="0" fill="#8D8C8C" id="connector7pin"/>
   <rect  x="0.56099" height="1.18189" width="1.18398" y="0.556952" fill="#8C8663"/>
   <polygon  points="0,2.2968,0.56099,1.73785,0.56099,0.501957,0,0" fill="#B8AF82"/>
   <polygon  points="1.74297,0.558951,0.56899,0.558951,0,0,2.29896,0" fill="#80795B"/>
   <polygon  points="1.74297,1.73785,1.74297,0.558951,2.29896,0,2.29896,2.2968" fill="#5E5B43"/>
   <polygon  points="0,2.2968,0.56699,1.73785,1.74297,1.73785,2.29896,2.2968" fill="#9A916C"/>
  </g>
 </g>
 <g transform="matrix(1, 0, 0, 1, 52.8505, 2.4516)">
  <g >
   <rect  x="0" height="2.2968" width="2.29896" y="0" fill="#8D8C8C" id="connector36pin"/>
   <rect  x="0.56099" height="1.18189" width="1.18398" y="0.556952" fill="#8C8663"/>
   <polygon  points="0,2.2968,0.56099,1.73785,0.56099,0.501957,0,0" fill="#B8AF82"/>
   <polygon  points="1.74297,0.558951,0.56899,0.558951,0,0,2.29896,0" fill="#80795B"/>
   <polygon  points="1.74297,1.73785,1.74297,0.558951,2.29896,0,2.29896,2.2968" fill="#5E5B43"/>
   <polygon  points="0,2.2968,0.56699,1.73785,1.74297,1.73785,2.29896,2.2968" fill="#9A916C"/>
  </g>
 </g>
 <g transform="matrix(1, 0, 0, 1, 60.0505, 38.4516)">
  <g >
   <rect  x="0" height="2.2968" width="2.29896" y="0" fill="#8D8C8C" id="connector8pin"/>
   <rect  x="0.56099" height="1.18189" width="1.18398" y="0.556952" fill="#8C8663"/>
   <polygon  points="0,2.2968,0.56099,1.73785,0.56099,0.501957,0,0" fill="#B8AF82"/>
   <polygon  points="1.74297,0.558951,0.56899,0.558951,0,0,2.29896,0" fill="#80795B"/>
   <polygon  points="1.74297,1.73785,1.74297,0.558951,2.29896,0,2.29896,2.2968" fill="#5E5B43"/>
   <polygon  points="0,2.2968,0.56699,1.73785,1.74297,1.73785,2.29896,2.2968" fill="#9A916C"/>
  </g>
 </g>
 <g transform="matrix(1, 0, 0, 1, 60.0505, 2.4516)">
  <g >
   <rect  x="0" height="2.2968" width="2.29896" y="0" fill="#8D8C8C" id="connector35pin"/>
   <rect  x="0.56099" height="1.18189" width="1.18398" y="0.556952" fill="#8C8663"/>
   <polygon  points="0,2.2968,0.56099,1.73785,0.56099,0.501957,0,0" fill="#B8AF82"/>
   <polygon  points="1.74297,0.558951,0.56899,0.558951,0,0,2.29896,0" fill="#80795B"/>
   <polygon  points="1.74297,1.73785,1.74297,0.558951,2.29896,0,2.29896,2.2968" fill="#5E5B43"/>
   <polygon  points="0,2.2968,0.56699,1.73785,1.74297,1.73785,2.29896,2.2968" fill="#9A916C"/>
  </g>
 </g>
 <g transform="matrix(1, 0, 0, 1, 67.2505, 38.4516)">
  <g >
   <rect  x="0" height="2.2968" width="2.29896" y="0" fill="#8D8C8C" id="connector9pin"/>
   <rect  x="0.56099" height="1.18189" width="1.18398" y="0.556952" fill="#8C8663"/>
   <polygon  points="0,2.2968,0.56099,1.73785,0.56099,0.501957,0,0" fill="#B8AF82"/>
   <polygon  points="1.74297,0.558951,0.56899,0.558951,0,0,2.29896,0" fill="#80795B"/>
   <polygon  points="1.74297,1.73785,1.74297,0.558951,2.29896,0,2.29896,2.2968" fill="#5E5B43"/>
   <polygon  points="0,2.2968,0.56699,1.73785,1.74297,1.73785,2.29896,2.2968" fill="#9A916C"/>
  </g>
 </g>
 <g transform="matrix(1, 0, 0, 1, 67.2505, 2.4516)">
  <g >
   <rect  x="0" height="2.2968" width="2.29896" y="0" fill="#8D8C8C" id="connector34pin"/>
   <rect  x="0.56099" height="1.18189" width="1.18398" y="0.556952" fill="#8C8663"/>
   <polygon  points="0,2.2968,0.56099,1.73785,0.56099,0.501957,0,0" fill="#B8AF82"/>
   <polygon  points="1.74297,0.558951,0.56899,0.558951,0,0,2.29896,0" fill="#80795B"/>
   <polygon  points="1.74297,1.73785,1.74297,0.558951,2.29896,0,2.29896,2.2968" fill="#5E5B43"/>
   <polygon  points="0,2.2968,0.56699,1.73785,1.74297,1.73785,2.29896,2.2968" fill="#9A916C"/>
  </g>
 </g>
 <g transform="matrix(1, 0, 0, 1, 74.4509, 38.4516)">
  <g >
   <rect  x="0" height="2.2968" width="2.29896" y="0" fill="#8D8C8C" id="connector10pin"/>
   <rect  x="0.56099" height="1.18189" width="1.18398" y="0.556952" fill="#8C8663"/>
   <polygon  points="0,2.2968,0.56099,1.73785,0.56099,0.501957,0,0" fill="#B8AF82"/>
   <polygon  points="1.74297,0.558951,0.56899,0.558951,0,0,2.29896,0" fill="#80795B"/>
   <polygon  points="1.74297,1.73785,1.74297,0.558951,2.29896,0,2.29896,2.2968" fill="#5E5B43"/>
   <polygon  points="0,2.2968,0.56699,1.73785,1.74297,1.73785,2.29896,2.2968" fill="#9A916C"/>
  </g>
 </g>
 <g transform="matrix(1, 0, 0, 1, 74.4509, 2.4516)">
  <g >
   <rect  x="0" height="2.2968" width="2.29896" y="0" fill="#8D8C8C" id="connector33pin"/>
   <rect  x="0.56099" height="1.18189" width="1.18398" y="0.556952" fill="#8C8663"/>
   <polygon  points="0,2.2968,0.56099,1.73785,0.56099,0.501957,0,0" fill="#B8AF82"/>
   <polygon  points="1.74297,0.558951,0.56899,0.558951,0,0,2.29896,0" fill="#80795B"/>
   <polygon  points="1.74297,1.73785,1.74297,0.558951,2.29896,0,2.29896,2.2968" fill="#5E5B43"/>
   <polygon  points="0,2.2968,0.56699,1.73785,1.74297,1.73785,2.29896,2.2968" fill="#9A916C"/>
  </g>
 </g>
 <g transform="matrix(1, 0, 0, 1, 81.6509, 38.4516)">
  <g >
   <rect  x="0" height="2.2968" width="2.29896" y="0" fill="#8D8C8C" id="connector11pin"/>
   <rect  x="0.56099" height="1.18189" width="1.18398" y="0.556952" fill="#8C8663"/>
   <polygon  points="0,2.2968,0.56099,1.73785,0.56099,0.501957,0,0" fill="#B8AF82"/>
   <polygon  points="1.74297,0.558951,0.56899,0.558951,0,0,2.29896,0" fill="#80795B"/>
   <polygon  points="1.74297,1.73785,1.74297,0.558951,2.29896,0,2.29896,2.2968" fill="#5E5B43"/>
   <polygon  points="0,2.2968,0.56699,1.73785,1.74297,1.73785,2.29896,2.2968" fill="#9A916C"/>
  </g>
 </g>
 <g transform="matrix(1, 0, 0, 1, 81.6509, 2.4516)">
  <g >
   <rect  x="0" height="2.2968" width="2.29896" y="0" fill="#8D8C8C" id="connector32pin"/>
   <rect  x="0.56099" height="1.18189" width="1.18398" y="0.556952" fill="#8C8663"/>
   <polygon  points="0,2.2968,0.56099,1.73785,0.56099,0.501957,0,0" fill="#B8AF82"/>
   <polygon  points="1.74297,0.558951,0.56899,0.558951,0,0,2.29896,0" fill="#80795B"/>
   <polygon  points="1.74297,1.73785,1.74297,0.558951,2.29896,0,2.29896,2.2968" fill="#5E5B43"/>
   <polygon  points="0,2.2968,0.56699,1.73785,1.74297,1.73785,2.29896,2.2968" fill="#9A916C"/>
  </g>
 </g>
 <g transform="matrix(1, 0, 0, 1, 88.8509, 38.4516)">
  <g >
   <rect  x="0" height="2.2968" width="2.29896" y="0" fill="#8D8C8C" id="connector12pin"/>
   <rect  x="0.56099" height="1.18189" width="1.18398" y="0.556952" fill="#8C8663"/>
   <polygon  points="0,2.2968,0.56099,1.73785,0.56099,0.501957,0,0" fill="#B8AF82"/>
   <polygon  points="1.74297,0.558951,0.56899,0.558951,0,0,2.29896,0" fill="#80795B"/>
   <polygon  points="1.74297,1.73785,1.74297,0.558951,2.29896,0,2.29896,2.2968" fill="#5E5B43"/>
   <polygon  points="0,2.2968,0.56699,1.73785,1.74297,1.73785,2.29896,2.2968" fill="#9A916C"/>
  </g>
 </g>
 <g transform="matrix(1, 0, 0, 1, 88.8509, 2.4516)">
  <g >
   <rect  x="0" height="2.2968" width="2.29896" y="0" fill="#8D8C8C" id="connector31pin"/>
   <rect  x="0.56099" height="1.18189" width="1.18398" y="0.556952" fill="#8C8663"/>
   <polygon  points="0,2.2968,0.56099,1.73785,0.56099,0.501957,0,0" fill="#B8AF82"/>
   <polygon  points="1.74297,0.558951,0.56899,0.558951,0,0,2.29896,0" fill="#80795B"/>
   <polygon  points="1.74297,1.73785,1.74297,0.558951,2.29896,0,2.29896,2.2968" fill="#5E5B43"/>
   <polygon  points="0,2.2968,0.56699,1.73785,1.74297,1.73785,2.29896,2.2968" fill="#9A916C"/>
  </g>
 </g>
 <g transform="matrix(1, 0, 0, 1, 96.0509, 38.4516)">
  <g >
   <rect  x="0" height="2.2968" width="2.29896" y="0" fill="#8D8C8C" id="connector13pin"/>
   <rect  x="0.56099" height="1.18189" width="1.18398" y="0.556952" fill="#8C8663"/>
   <polygon  points="0,2.2968,0.56099,1.73785,0.56099,0.501957,0,0" fill="#B8AF82"/>
   <polygon  points="1.74297,0.558951,0.56899,0.558951,0,0,2.29896,0" fill="#80795B"/>
   <polygon  points="1.74297,1.73785,1.74297,0.558951,2.29896,0,2.29896,2.2968" fill="#5E5B43"/>
   <polygon  points="0,2.2968,0.56699,1.73785,1.74297,1.73785,2.29896,2.2968" fill="#9A916C"/>
  </g>
 </g>
 <g transform="matrix(1, 0, 0, 1, 96.0509, 2.4516)">
  <g >
   <rect  x="0" height="2.2968" width="2.29896" y="0" fill="#8D8C8C" id="connector30pin"/>
   <rect  x="0.56099" height="1.18189" width="1.18398" y="0.556952" fill="#8C8663"/>
   <polygon  points="0,2.2968,0.56099,1.73785,0.56099,0.501957,0,0" fill="#B8AF82"/>
   <polygon  points="1.74297,0.558951,0.56899,0.558951,0,0,2.29896,0" fill="#80795B"/>
   <polygon  points="1.74297,1.73785,1.74297,0.558951,2.29896,0,2.29896,2.2968" fill="#5E5B43"/>
   <polygon  points="0,2.2968,0.56699,1.73785,1.74297,1.73785,2.29896,2.2968" fill="#9A916C"/>
  </g>
 </g>
 <g transform="matrix(1, 0, 0, 1, 103.251, 38.4516)">
  <g >
   <rect  x="0" height="2.2968" width="2.29896" y="0" fill="#8D8C8C" id="connector14pin"/>
   <rect  x="0.56099" height="1.18189" width="1.18398" y="0.556952" fill="#8C8663"/>
   <polygon  points="0,2.2968,0.56099,1.73785,0.56099,0.501957,0,0" fill="#B8AF82"/>
   <polygon  points="1.74297,0.558951,0.56899,0.558951,0,0,2.29896,0" fill="#80795B"/>
   <polygon  points="1.74297,1.73785,1.74297,0.558951,2.29896,0,2.29896,2.2968" fill="#5E5B43"/>
   <polygon  points="0,2.2968,0.56699,1.73785,1.74297,1.73785,2.29896,2.2968" fill="#9A916C"/>
  </g>
 </g>
 <g transform="matrix(1, 0, 0, 1, 103.251, 2.4516)">
  <g >
   <rect  x="0" height="2.2968" width="2.29896" y="0" fill="#8D8C8C" id="connector29pin"/>
   <rect  x="0.56099" height="1.18189" width="1.18398" y="0.556952" fill="#8C8663"/>
   <polygon  points="0,2.2968,0.56099,1.73785,0.56099,0.501957,0,0" fill="#B8AF82"/>
   <polygon  points="1.74297,0.558951,0.56899,0.558951,0,0,2.29896,0" fill="#80795B"/>
   <polygon  points="1.74297,1.73785,1.74297,0.558951,2.29896,0,2.29896,2.2968" fill="#5E5B43"/>
   <polygon  points="0,2.2968,0.56699,1.73785,1.74297,1.73785,2.29896,2.2968" fill="#9A916C"/>
  </g>
 </g>
 <g transform="matrix(1, 0, 0, 1, 110.451, 38.4516)">
  <g >
   <rect  x="0" height="2.2968" width="2.29896" y="0" fill="#8D8C8C" id="connector15pin"/>
   <rect  x="0.56099" height="1.18189" width="1.18398" y="0.556952" fill="#8C8663"/>
   <polygon  points="0,2.2968,0.56099,1.73785,0.56099,0.501957,0,0" fill="#B8AF82"/>
   <polygon  points="1.74297,0.558951,0.56899,0.558951,0,0,2.29896,0" fill="#80795B"/>
   <polygon  points="1.74297,1.73785,1.74297,0.558951,2.29896,0,2.29896,2.2968" fill="#5E5B43"/>
   <polygon  points="0,2.2968,0.56699,1.73785,1.74297,1.73785,2.29896,2.2968" fill="#9A916C"/>
  </g>
 </g>
 <g transform="matrix(1, 0, 0, 1, 110.451, 2.4516)">
  <g >
   <rect  x="0" height="2.2968" width="2.29896" y="0" fill="#8D8C8C" id="connector28pin"/>
   <rect  x="0.56099" height="1.18189" width="1.18398" y="0.556952" fill="#8C8663"/>
   <polygon  points="0,2.2968,0.56099,1.73785,0.56099,0.501957,0,0" fill="#B8AF82"/>
   <polygon  points="1.74297,0.558951,0.56899,0.558951,0,0,2.29896,0" fill="#80795B"/>
   <polygon  points="1.74297,1.73785,1.74297,0.558951,2.29896,0,2.29896,2.2968" fill="#5E5B43"/>
   <polygon  points="0,2.2968,0.56699,1.73785,1.74297,1.73785,2.29896,2.2968" fill="#9A916C"/>
  </g>
 </g>
 <g transform="matrix(1, 0, 0, 1, 117.651, 38.4516)">
  <g >
   <rect  x="0" height="2.2968" width="2.29896" y="0" fill="#8D8C8C" id="connector16pin"/>
   <rect  x="0.56099" height="1.18189" width="1.18398" y="0.556952" fill="#8C8663"/>
   <polygon  points="0,2.2968,0.56099,1.73785,0.56099,0.501957,0,0" fill="#B8AF82"/>
   <polygon  points="1.74297,0.558951,0.56899,0.558951,0,0,2.29896,0" fill="#80795B"/>
   <polygon  points="1.74297,1.73785,1.74297,0.558951,2.29896,0,2.29896,2.2968" fill="#5E5B43"/>
   <polygon  points="0,2.2968,0.56699,1.73785,1.74297,1.73785,2.29896,2.2968" fill="#9A916C"/>
  </g>
 </g>
 <g transform="matrix(1, 0, 0, 1, 117.651, 2.4516)">
  <g >
   <rect  x="0" height="2.2968" width="2.29896" y="0" fill="#8D8C8C" id="connector27pin"/>
   <rect  x="0.56099" height="1.18189" width="1.18398" y="0.556952" fill="#8C8663"/>
   <polygon  points="0,2.2968,0.56099,1.73785,0.56099,0.501957,0,0" fill="#B8AF82"/>
   <polygon  points="1.74297,0.558951,0.56899,0.558951,0,0,2.29896,0" fill="#80795B"/>
   <polygon  points="1.74297,1.73785,1.74297,0.558951,2.29896,0,2.29896,2.2968" fill="#5E5B43"/>
   <polygon  points="0,2.2968,0.56699,1.73785,1.74297,1.73785,2.29896,2.2968" fill="#9A916C"/>
  </g>
 </g>
 <g transform="matrix(1, 0, 0, 1, 124.851, 38.4516)">
  <g >
   <rect  x="0" height="2.2968" width="2.29896" y="0" fill="#8D8C8C" id="connector17pin"/>
   <rect  x="0.56099" height="1.18189" width="1.18398" y="0.556952" fill="#8C8663"/>
   <polygon  points="0,2.2968,0.56099,1.73785,0.56099,0.501957,0,0" fill="#B8AF82"/>
   <polygon  points="1.74297,0.558951,0.56899,0.558951,0,0,2.29896,0" fill="#80795B"/>
   <polygon  points="1.74297,1.73785,1.74297,0.558951,2.29896,0,2.29896,2.2968" fill="#5E5B43"/>
   <polygon  points="0,2.2968,0.56699,1.73785,1.74297,1.73785,2.29896,2.2968" fill="#9A916C"/>
  </g>
 </g>
 <g transform="matrix(1, 0, 0, 1, 124.851, 2.4516)">
  <g >
   <rect  x="0" height="2.2968" width="2.29896" y="0" fill="#8D8C8C" id="connector26pin"/>
   <rect  x="0.56099" height="1.18189" width="1.18398" y="0.556952" fill="#8C8663"/>
   <polygon  points="0,2.2968,0.56099,1.73785,0.56099,0.501957,0,0" fill="#B8AF82"/>
   <polygon  points="1.74297,0.558951,0.56899,0.558951,0,0,2.29896,0" fill="#80795B"/>
   <polygon  points="1.74297,1.73785,1.74297,0.558951,2.29896,0,2.29896,2.2968" fill="#5E5B43"/>
   <polygon  points="0,2.2968,0.56699,1.73785,1.74297,1.73785,2.29896,2.2968" fill="#9A916C"/>
  </g>
 </g>
 <g transform="matrix(1, 0, 0, 1, 132.051, 38.4516)">
  <g >
   <rect  x="0" height="2.2968" width="2.29896" y="0" fill="#8D8C8C" id="connector18pin"/>
   <rect  x="0.56099" height="1.18189" width="1.18398" y="0.556952" fill="#8C8663"/>
   <polygon  points="0,2.2968,0.56099,1.73785,0.56099,0.501957,0,0" fill="#B8AF82"/>
   <polygon  points="1.74297,0.558951,0.56899,0.558951,0,0,2.29896,0" fill="#80795B"/>
   <polygon  points="1.74297,1.73785,1.74297,0.558951,2.29896,0,2.29896,2.2968" fill="#5E5B43"/>
   <polygon  points="0,2.2968,0.56699,1.73785,1.74297,1.73785,2.29896,2.2968" fill="#9A916C"/>
  </g>
 </g>
 <g transform="matrix(1, 0, 0, 1, 132.051, 2.4516)">
  <g >
   <rect  x="0" height="2.2968" width="2.29896" y="0" fill="#8D8C8C" id="connector25pin"/>
   <rect  x="0.56099" height="1.18189" width="1.18398" y="0.556952" fill="#8C8663"/>
   <polygon  points="0,2.2968,0.56099,1.73785,0.56099,0.501957,0,0" fill="#B8AF82"/>
   <polygon  points="1.74297,0.558951,0.56899,0.558951,0,0,2.29896,0" fill="#80795B"/>
   <polygon  points="1.74297,1.73785,1.74297,0.558951,2.29896,0,2.29896,2.2968" fill="#5E5B43"/>
   <polygon  points="0,2.2968,0.56699,1.73785,1.74297,1.73785,2.29896,2.2968" fill="#9A916C"/>
  </g>
 </g>
 <g transform="matrix(1, 0, 0, 1, 139.251, 38.4516)">
  <g >
   <rect  x="0" height="2.2968" width="2.29896" y="0" fill="#8D8C8C" id="connector19pin"/>
   <rect  x="0.56099" height="1.18189" width="1.18398" y="0.556952" fill="#8C8663"/>
   <polygon  points="0,2.2968,0.56099,1.73785,0.56099,0.501957,0,0" fill="#B8AF82"/>
   <polygon  points="1.74297,0.558951,0.56899,0.558951,0,0,2.29896,0" fill="#80795B"/>
   <polygon  points="1.74297,1.73785,1.74297,0.558951,2.29896,0,2.29896,2.2968" fill="#5E5B43"/>
   <polygon  points="0,2.2968,0.56699,1.73785,1.74297,1.73785,2.29896,2.2968" fill="#9A916C"/>
  </g>
 </g>
 <g transform="matrix(1, 0, 0, 1, 139.251, 2.4516)">
  <g >
   <rect  x="0" height="2.2968" width="2.29896" y="0" fill="#8D8C8C" id="connector24pin"/>
   <rect  x="0.56099" height="1.18189" width="1.18398" y="0.556952" fill="#8C8663"/>
   <polygon  points="0,2.2968,0.56099,1.73785,0.56099,0.501957,0,0" fill="#B8AF82"/>
   <polygon  points="1.74297,0.558951,0.56899,0.558951,0,0,2.29896,0" fill="#80795B"/>
   <polygon  points="1.74297,1.73785,1.74297,0.558951,2.29896,0,2.29896,2.2968" fill="#5E5B43"/>
   <polygon  points="0,2.2968,0.56699,1.73785,1.74297,1.73785,2.29896,2.2968" fill="#9A916C"/>
  </g>
 </g>
 <g transform="matrix(1, 0, 0, 1, 146.451, 38.4516)">
  <g >
   <rect  x="0" height="2.2968" width="2.29896" y="0" fill="#8D8C8C" id="connector20pin"/>
   <rect  x="0.56099" height="1.18189" width="1.18398" y="0.556952" fill="#8C8663"/>
   <polygon  points="0,2.2968,0.56099,1.73785,0.56099,0.501957,0,0" fill="#B8AF82"/>
   <polygon  points="1.74297,0.558951,0.56899,0.558951,0,0,2.29896,0" fill="#80795B"/>
   <polygon  points="1.74297,1.73785,1.74297,0.558951,2.29896,0,2.29896,2.2968" fill="#5E5B43"/>
   <polygon  points="0,2.2968,0.56699,1.73785,1.74297,1.73785,2.29896,2.2968" fill="#9A916C"/>
  </g>
 </g>
 <g transform="matrix(1, 0, 0, 1, 146.451, 2.4516)">
  <g >
   <rect  x="0" height="2.2968" width="2.29896" y="0" fill="#8D8C8C" id="connector23pin"/>
   <rect  x="0.56099" height="1.18189" width="1.18398" y="0.556952" fill="#8C8663"/>
   <polygon  points="0,2.2968,0.56099,1.73785,0.56099,0.501957,0,0" fill="#B8AF82"/>
   <polygon  points="1.74297,0.558951,0.56899,0.558951,0,0,2.29896,0" fill="#80795B"/>
   <polygon  points="1.74297,1.73785,1.74297,0.558951,2.29896,0,2.29896,2.2968" fill="#5E5B43"/>
   <polygon  points="0,2.2968,0.56699,1.73785,1.74297,1.73785,2.29896,2.2968" fill="#9A916C"/>
  </g>
 </g>
 <g transform="matrix(1, 0, 0, 1, 153.65, 38.4516)">
  <g >
   <rect  x="0" height="2.2968" width="2.29896" y="0" fill="#8D8C8C" id="connector21pin"/>
   <rect  x="0.56099" height="1.18189" width="1.18398" y="0.556952" fill="#8C8663"/>
   <polygon  points="0,2.2968,0.56099,1.73785,0.56099,0.501957,0,0" fill="#B8AF82"/>
   <polygon  points="1.74297,0.558951,0.56899,0.558951,0,0,2.29896,0" fill="#80795B"/>
   <polygon  points="1.74297,1.73785,1.74297,0.558951,2.29896,0,2.29896,2.2968" fill="#5E5B43"/>
   <polygon  points="0,2.2968,0.56699,1.73785,1.74297,1.73785,2.29896,2.2968" fill="#9A916C"/>
  </g>
 </g>
 <g transform="matrix(1, 0, 0, 1, 153.65, 2.4516)">
  <g >
   <rect  x="0" height="2.2968" width="2.29896" y="0" fill="#8D8C8C" id="connector22pin"/>
   <rect  x="0.56099" height="1.18189" width="1.18398" y="0.556952" fill="#8C8663"/>
   <polygon  points="0,2.2968,0.56099,1.73785,0.56099,0.501957,0,0" fill="#B8AF82"/>
   <polygon  points="1.74297,0.558951,0.56899,0.558951,0,0,2.29896,0" fill="#80795B"/>
   <polygon  points="1.74297,1.73785,1.74297,0.558951,2.29896,0,2.29896,2.2968" fill="#5E5B43"/>
   <polygon  points="0,2.2968,0.56699,1.73785,1.74297,1.73785,2.29896,2.2968" fill="#9A916C"/>
  </g>
 </g>
</g>
</g></svg>