G04 MADE WITH FRITZING*
G04 WWW.FRITZING.ORG*
G04 DOUBLE SIDED*
G04 HOLES PLATED*
G04 CONTOUR ON CENTER OF CONTOUR VECTOR*
%ASAXBY*%
%FSLAX23Y23*%
%MOIN*%
%OFA0B0*%
%SFA1.0B1.0*%
%ADD10C,0.075000*%
%ADD11C,0.074000*%
%ADD12C,0.039370*%
%ADD13C,0.078000*%
%ADD14C,0.065278*%
%ADD15R,0.078000X0.078000*%
%ADD16C,0.016000*%
%ADD17C,0.020000*%
%ADD18R,0.001000X0.001000*%
%LNCOPPER0*%
G90*
G70*
G54D10*
X588Y1912D03*
X2288Y1898D03*
G54D11*
X1571Y1854D03*
X1871Y1854D03*
G54D12*
X2323Y282D03*
G54D13*
X99Y1222D03*
X99Y1122D03*
X99Y1022D03*
X99Y922D03*
G54D14*
X2110Y105D03*
X2210Y105D03*
X2310Y105D03*
X2410Y105D03*
X2510Y105D03*
X1650Y2005D03*
X1550Y2005D03*
X1450Y2005D03*
X1350Y2005D03*
X1250Y2005D03*
X1150Y2005D03*
X1050Y2005D03*
X950Y2005D03*
X850Y2005D03*
X750Y2005D03*
X2510Y2005D03*
X2410Y2005D03*
X2310Y2005D03*
X2210Y2005D03*
X2110Y2005D03*
X2010Y2005D03*
X1910Y2005D03*
X1810Y2005D03*
X1210Y105D03*
X1110Y105D03*
X1310Y105D03*
X1410Y105D03*
X1510Y105D03*
X1610Y105D03*
X1710Y105D03*
X1810Y105D03*
X2010Y105D03*
G54D13*
X2233Y1520D03*
X2233Y1420D03*
X2233Y1320D03*
X2233Y1220D03*
X2233Y1120D03*
X2233Y1020D03*
X1253Y416D03*
X1153Y416D03*
X1053Y416D03*
X953Y416D03*
X853Y416D03*
X753Y416D03*
X1499Y1722D03*
X1399Y1722D03*
X1299Y1722D03*
X1199Y1722D03*
X1099Y1722D03*
X685Y1781D03*
X785Y1781D03*
X885Y1781D03*
X684Y1893D03*
X784Y1893D03*
X884Y1893D03*
X291Y2022D03*
X191Y2022D03*
X91Y2022D03*
X620Y2021D03*
X520Y2021D03*
X420Y2021D03*
X2099Y1422D03*
X2099Y1322D03*
X2099Y1222D03*
X2099Y1122D03*
X2099Y1022D03*
X2099Y922D03*
X2099Y822D03*
X2099Y722D03*
G54D12*
X1433Y255D03*
X1430Y328D03*
X1030Y1357D03*
X91Y1919D03*
X420Y1919D03*
X191Y1863D03*
X520Y1863D03*
X412Y1128D03*
X978Y1129D03*
X1018Y1483D03*
X668Y1399D03*
X315Y1219D03*
X849Y1531D03*
X416Y1641D03*
X412Y1253D03*
X466Y1397D03*
X644Y1630D03*
X1069Y1227D03*
X911Y564D03*
X1150Y881D03*
X1151Y550D03*
X1195Y1177D03*
X1166Y1419D03*
X840Y1179D03*
X685Y1682D03*
X540Y861D03*
X570Y1175D03*
X455Y1175D03*
X664Y1546D03*
X1610Y617D03*
X1252Y1390D03*
X1979Y1390D03*
G54D15*
X2233Y1520D03*
X1253Y416D03*
X1499Y1722D03*
X2099Y1422D03*
G54D16*
X2510Y282D02*
X2337Y282D01*
D02*
X2510Y131D02*
X2510Y282D01*
D02*
X1894Y1854D02*
X2210Y1854D01*
D02*
X2210Y1854D02*
X2210Y1979D01*
D02*
X1475Y1722D02*
X1424Y1722D01*
D02*
X1610Y197D02*
X1610Y131D01*
D02*
X1610Y509D02*
X1610Y197D01*
D02*
X1419Y255D02*
X173Y255D01*
D02*
X1417Y328D02*
X228Y328D01*
D02*
X228Y1122D02*
X124Y1122D01*
D02*
X228Y328D02*
X228Y1122D01*
D02*
X173Y1022D02*
X124Y1022D01*
D02*
X173Y255D02*
X173Y1022D01*
D02*
X1152Y509D02*
X1153Y441D01*
D02*
X1610Y509D02*
X1152Y509D01*
D02*
X1610Y197D02*
X99Y197D01*
D02*
X99Y197D02*
X99Y897D01*
D02*
X753Y441D02*
X753Y564D01*
D02*
X753Y564D02*
X897Y564D01*
D02*
X953Y1069D02*
X953Y441D01*
D02*
X1030Y1069D02*
X953Y1069D01*
D02*
X1030Y1344D02*
X1030Y1069D01*
D02*
X1550Y2061D02*
X1550Y2031D01*
D02*
X684Y2061D02*
X1550Y2061D01*
D02*
X104Y1919D02*
X407Y1919D01*
D02*
X507Y1863D02*
X204Y1863D01*
D02*
X540Y1129D02*
X964Y1129D01*
D02*
X426Y1128D02*
X540Y1129D01*
D02*
X668Y1483D02*
X668Y1412D01*
D02*
X664Y1483D02*
X668Y1483D01*
D02*
X664Y1532D02*
X664Y1483D01*
D02*
X664Y1546D02*
X664Y1546D01*
D02*
X1004Y1483D02*
X668Y1483D01*
D02*
X301Y1219D02*
X124Y1221D01*
D02*
X416Y1588D02*
X849Y1588D01*
D02*
X416Y1628D02*
X416Y1588D01*
D02*
X849Y1588D02*
X849Y1544D01*
D02*
X412Y1142D02*
X412Y1240D01*
D02*
X376Y1395D02*
X452Y1397D01*
D02*
X376Y1219D02*
X376Y1395D01*
D02*
X328Y1219D02*
X376Y1219D01*
D02*
X1069Y1630D02*
X1069Y1241D01*
D02*
X658Y1630D02*
X1069Y1630D01*
D02*
X595Y1720D02*
X885Y1720D01*
D02*
X595Y1919D02*
X595Y1720D01*
D02*
X434Y1919D02*
X595Y1919D01*
D02*
X1050Y1893D02*
X1050Y1979D01*
D02*
X909Y1893D02*
X1050Y1893D01*
D02*
X1152Y550D02*
X1164Y550D01*
D02*
X1152Y509D02*
X1152Y550D01*
D02*
X1151Y564D02*
X1150Y867D01*
D02*
X1195Y881D02*
X1163Y881D01*
D02*
X1195Y1164D02*
X1195Y881D01*
D02*
X1166Y1662D02*
X1166Y1432D01*
D02*
X1030Y1662D02*
X1166Y1662D01*
D02*
X1030Y1784D02*
X1030Y1662D01*
D02*
X885Y1720D02*
X885Y1757D01*
D02*
X785Y1806D02*
X784Y1869D01*
D02*
X885Y1806D02*
X884Y1869D01*
D02*
X1299Y1746D02*
X1299Y1911D01*
D02*
X1299Y1911D02*
X2110Y1911D01*
D02*
X2110Y1911D02*
X2110Y1979D01*
D02*
X1250Y1784D02*
X1030Y1784D01*
D02*
X1250Y1979D02*
X1250Y1784D01*
D02*
X977Y1682D02*
X698Y1682D01*
D02*
X977Y1842D02*
X977Y1682D01*
D02*
X1150Y1842D02*
X977Y1842D01*
D02*
X1150Y1979D02*
X1150Y1842D01*
D02*
X540Y1129D02*
X540Y874D01*
D02*
X469Y1175D02*
X557Y1175D01*
D02*
X668Y1179D02*
X827Y1179D01*
D02*
X668Y1386D02*
X668Y1179D01*
D02*
X684Y2061D02*
X684Y1918D01*
D02*
X1636Y105D02*
X1685Y105D01*
D02*
X2017Y617D02*
X2017Y1322D01*
D02*
X1624Y617D02*
X2017Y617D01*
D02*
X2017Y1322D02*
X2075Y1322D01*
D02*
X1610Y603D02*
X1610Y509D01*
D02*
X1266Y1390D02*
X1965Y1390D01*
G36*
X340Y2059D02*
X340Y1973D01*
X406Y1973D01*
X406Y1975D01*
X400Y1975D01*
X400Y1977D01*
X396Y1977D01*
X396Y1979D01*
X394Y1979D01*
X394Y1981D01*
X390Y1981D01*
X390Y1983D01*
X388Y1983D01*
X388Y1985D01*
X386Y1985D01*
X386Y1987D01*
X384Y1987D01*
X384Y1989D01*
X382Y1989D01*
X382Y1991D01*
X380Y1991D01*
X380Y1995D01*
X378Y1995D01*
X378Y1999D01*
X376Y1999D01*
X376Y2003D01*
X374Y2003D01*
X374Y2009D01*
X372Y2009D01*
X372Y2031D01*
X374Y2031D01*
X374Y2039D01*
X376Y2039D01*
X376Y2059D01*
X340Y2059D01*
G37*
D02*
G36*
X130Y1993D02*
X130Y1991D01*
X128Y1991D01*
X128Y1989D01*
X126Y1989D01*
X126Y1985D01*
X122Y1985D01*
X122Y1983D01*
X120Y1983D01*
X120Y1981D01*
X118Y1981D01*
X118Y1979D01*
X114Y1979D01*
X114Y1977D01*
X110Y1977D01*
X110Y1975D01*
X104Y1975D01*
X104Y1973D01*
X178Y1973D01*
X178Y1975D01*
X172Y1975D01*
X172Y1977D01*
X168Y1977D01*
X168Y1979D01*
X164Y1979D01*
X164Y1981D01*
X162Y1981D01*
X162Y1983D01*
X160Y1983D01*
X160Y1985D01*
X156Y1985D01*
X156Y1989D01*
X154Y1989D01*
X154Y1991D01*
X152Y1991D01*
X152Y1993D01*
X130Y1993D01*
G37*
D02*
G36*
X460Y1993D02*
X460Y1991D01*
X458Y1991D01*
X458Y1989D01*
X456Y1989D01*
X456Y1985D01*
X452Y1985D01*
X452Y1983D01*
X450Y1983D01*
X450Y1981D01*
X448Y1981D01*
X448Y1979D01*
X444Y1979D01*
X444Y1977D01*
X440Y1977D01*
X440Y1975D01*
X434Y1975D01*
X434Y1973D01*
X426Y1973D01*
X426Y1971D01*
X514Y1971D01*
X514Y1973D01*
X506Y1973D01*
X506Y1975D01*
X500Y1975D01*
X500Y1977D01*
X496Y1977D01*
X496Y1979D01*
X494Y1979D01*
X494Y1981D01*
X490Y1981D01*
X490Y1983D01*
X488Y1983D01*
X488Y1985D01*
X486Y1985D01*
X486Y1987D01*
X484Y1987D01*
X484Y1989D01*
X482Y1989D01*
X482Y1991D01*
X480Y1991D01*
X480Y1993D01*
X460Y1993D01*
G37*
D02*
G36*
X790Y1993D02*
X790Y1987D01*
X788Y1987D01*
X788Y1983D01*
X786Y1983D01*
X786Y1981D01*
X784Y1981D01*
X784Y1977D01*
X782Y1977D01*
X782Y1975D01*
X780Y1975D01*
X780Y1973D01*
X778Y1973D01*
X778Y1971D01*
X776Y1971D01*
X776Y1969D01*
X772Y1969D01*
X772Y1967D01*
X768Y1967D01*
X768Y1965D01*
X762Y1965D01*
X762Y1963D01*
X752Y1963D01*
X752Y1961D01*
X848Y1961D01*
X848Y1963D01*
X838Y1963D01*
X838Y1965D01*
X832Y1965D01*
X832Y1967D01*
X828Y1967D01*
X828Y1969D01*
X826Y1969D01*
X826Y1971D01*
X822Y1971D01*
X822Y1973D01*
X820Y1973D01*
X820Y1975D01*
X818Y1975D01*
X818Y1979D01*
X816Y1979D01*
X816Y1981D01*
X814Y1981D01*
X814Y1985D01*
X812Y1985D01*
X812Y1987D01*
X810Y1987D01*
X810Y1993D01*
X790Y1993D01*
G37*
D02*
G36*
X890Y1993D02*
X890Y1987D01*
X888Y1987D01*
X888Y1983D01*
X886Y1983D01*
X886Y1981D01*
X884Y1981D01*
X884Y1977D01*
X882Y1977D01*
X882Y1975D01*
X880Y1975D01*
X880Y1973D01*
X878Y1973D01*
X878Y1971D01*
X876Y1971D01*
X876Y1969D01*
X872Y1969D01*
X872Y1967D01*
X868Y1967D01*
X868Y1965D01*
X862Y1965D01*
X862Y1963D01*
X852Y1963D01*
X852Y1961D01*
X948Y1961D01*
X948Y1963D01*
X938Y1963D01*
X938Y1965D01*
X932Y1965D01*
X932Y1967D01*
X928Y1967D01*
X928Y1969D01*
X926Y1969D01*
X926Y1971D01*
X922Y1971D01*
X922Y1973D01*
X920Y1973D01*
X920Y1975D01*
X918Y1975D01*
X918Y1979D01*
X916Y1979D01*
X916Y1981D01*
X914Y1981D01*
X914Y1985D01*
X912Y1985D01*
X912Y1987D01*
X910Y1987D01*
X910Y1993D01*
X890Y1993D01*
G37*
D02*
G36*
X990Y1993D02*
X990Y1987D01*
X988Y1987D01*
X988Y1983D01*
X986Y1983D01*
X986Y1981D01*
X984Y1981D01*
X984Y1977D01*
X982Y1977D01*
X982Y1975D01*
X980Y1975D01*
X980Y1973D01*
X978Y1973D01*
X978Y1971D01*
X976Y1971D01*
X976Y1969D01*
X972Y1969D01*
X972Y1967D01*
X968Y1967D01*
X968Y1965D01*
X962Y1965D01*
X962Y1963D01*
X952Y1963D01*
X952Y1961D01*
X1048Y1961D01*
X1048Y1963D01*
X1038Y1963D01*
X1038Y1965D01*
X1032Y1965D01*
X1032Y1967D01*
X1028Y1967D01*
X1028Y1969D01*
X1026Y1969D01*
X1026Y1971D01*
X1024Y1971D01*
X1024Y1973D01*
X1020Y1973D01*
X1020Y1975D01*
X1018Y1975D01*
X1018Y1979D01*
X1016Y1979D01*
X1016Y1981D01*
X1014Y1981D01*
X1014Y1985D01*
X1012Y1985D01*
X1012Y1987D01*
X1010Y1987D01*
X1010Y1993D01*
X990Y1993D01*
G37*
D02*
G36*
X1090Y1993D02*
X1090Y1987D01*
X1088Y1987D01*
X1088Y1983D01*
X1086Y1983D01*
X1086Y1981D01*
X1084Y1981D01*
X1084Y1977D01*
X1082Y1977D01*
X1082Y1975D01*
X1080Y1975D01*
X1080Y1973D01*
X1078Y1973D01*
X1078Y1971D01*
X1076Y1971D01*
X1076Y1969D01*
X1072Y1969D01*
X1072Y1967D01*
X1068Y1967D01*
X1068Y1965D01*
X1062Y1965D01*
X1062Y1963D01*
X1052Y1963D01*
X1052Y1961D01*
X1132Y1961D01*
X1132Y1967D01*
X1128Y1967D01*
X1128Y1969D01*
X1126Y1969D01*
X1126Y1971D01*
X1124Y1971D01*
X1124Y1973D01*
X1120Y1973D01*
X1120Y1975D01*
X1118Y1975D01*
X1118Y1979D01*
X1116Y1979D01*
X1116Y1981D01*
X1114Y1981D01*
X1114Y1985D01*
X1112Y1985D01*
X1112Y1987D01*
X1110Y1987D01*
X1110Y1993D01*
X1090Y1993D01*
G37*
D02*
G36*
X222Y1985D02*
X222Y1983D01*
X220Y1983D01*
X220Y1981D01*
X218Y1981D01*
X218Y1979D01*
X214Y1979D01*
X214Y1977D01*
X210Y1977D01*
X210Y1975D01*
X204Y1975D01*
X204Y1973D01*
X242Y1973D01*
X242Y1985D01*
X222Y1985D01*
G37*
D02*
G36*
X552Y1985D02*
X552Y1983D01*
X550Y1983D01*
X550Y1981D01*
X548Y1981D01*
X548Y1979D01*
X544Y1979D01*
X544Y1977D01*
X540Y1977D01*
X540Y1975D01*
X534Y1975D01*
X534Y1973D01*
X526Y1973D01*
X526Y1971D01*
X572Y1971D01*
X572Y1985D01*
X552Y1985D01*
G37*
D02*
G36*
X52Y1977D02*
X52Y1973D01*
X78Y1973D01*
X78Y1975D01*
X72Y1975D01*
X72Y1977D01*
X52Y1977D01*
G37*
D02*
G36*
X52Y1973D02*
X52Y1971D01*
X414Y1971D01*
X414Y1973D01*
X52Y1973D01*
G37*
D02*
G36*
X52Y1973D02*
X52Y1971D01*
X414Y1971D01*
X414Y1973D01*
X52Y1973D01*
G37*
D02*
G36*
X52Y1973D02*
X52Y1971D01*
X414Y1971D01*
X414Y1973D01*
X52Y1973D01*
G37*
D02*
G36*
X52Y1973D02*
X52Y1971D01*
X414Y1971D01*
X414Y1973D01*
X52Y1973D01*
G37*
D02*
G36*
X702Y1973D02*
X702Y1961D01*
X748Y1961D01*
X748Y1963D01*
X738Y1963D01*
X738Y1965D01*
X732Y1965D01*
X732Y1967D01*
X728Y1967D01*
X728Y1969D01*
X726Y1969D01*
X726Y1971D01*
X722Y1971D01*
X722Y1973D01*
X702Y1973D01*
G37*
D02*
G36*
X52Y1971D02*
X52Y1969D01*
X666Y1969D01*
X666Y1971D01*
X52Y1971D01*
G37*
D02*
G36*
X52Y1971D02*
X52Y1969D01*
X666Y1969D01*
X666Y1971D01*
X52Y1971D01*
G37*
D02*
G36*
X52Y1971D02*
X52Y1969D01*
X666Y1969D01*
X666Y1971D01*
X52Y1971D01*
G37*
D02*
G36*
X52Y1969D02*
X52Y1947D01*
X430Y1947D01*
X430Y1945D01*
X434Y1945D01*
X434Y1943D01*
X438Y1943D01*
X438Y1941D01*
X440Y1941D01*
X440Y1939D01*
X442Y1939D01*
X442Y1937D01*
X444Y1937D01*
X444Y1935D01*
X446Y1935D01*
X446Y1931D01*
X448Y1931D01*
X448Y1925D01*
X450Y1925D01*
X450Y1911D01*
X448Y1911D01*
X448Y1905D01*
X446Y1905D01*
X446Y1901D01*
X444Y1901D01*
X444Y1893D01*
X524Y1893D01*
X524Y1891D01*
X532Y1891D01*
X532Y1889D01*
X536Y1889D01*
X536Y1887D01*
X538Y1887D01*
X538Y1885D01*
X542Y1885D01*
X542Y1881D01*
X544Y1881D01*
X544Y1879D01*
X546Y1879D01*
X546Y1875D01*
X548Y1875D01*
X548Y1871D01*
X550Y1871D01*
X550Y1855D01*
X548Y1855D01*
X548Y1849D01*
X546Y1849D01*
X546Y1847D01*
X544Y1847D01*
X544Y1843D01*
X542Y1843D01*
X542Y1841D01*
X540Y1841D01*
X540Y1839D01*
X536Y1839D01*
X536Y1837D01*
X534Y1837D01*
X534Y1835D01*
X528Y1835D01*
X528Y1833D01*
X636Y1833D01*
X636Y1941D01*
X666Y1941D01*
X666Y1969D01*
X52Y1969D01*
G37*
D02*
G36*
X702Y1961D02*
X702Y1959D01*
X1132Y1959D01*
X1132Y1961D01*
X702Y1961D01*
G37*
D02*
G36*
X702Y1961D02*
X702Y1959D01*
X1132Y1959D01*
X1132Y1961D01*
X702Y1961D01*
G37*
D02*
G36*
X702Y1961D02*
X702Y1959D01*
X1132Y1959D01*
X1132Y1961D01*
X702Y1961D01*
G37*
D02*
G36*
X702Y1961D02*
X702Y1959D01*
X1132Y1959D01*
X1132Y1961D01*
X702Y1961D01*
G37*
D02*
G36*
X702Y1961D02*
X702Y1959D01*
X1132Y1959D01*
X1132Y1961D01*
X702Y1961D01*
G37*
D02*
G36*
X702Y1959D02*
X702Y1941D01*
X896Y1941D01*
X896Y1939D01*
X904Y1939D01*
X904Y1937D01*
X906Y1937D01*
X906Y1935D01*
X910Y1935D01*
X910Y1933D01*
X914Y1933D01*
X914Y1931D01*
X916Y1931D01*
X916Y1929D01*
X918Y1929D01*
X918Y1927D01*
X920Y1927D01*
X920Y1925D01*
X922Y1925D01*
X922Y1923D01*
X924Y1923D01*
X924Y1919D01*
X926Y1919D01*
X926Y1915D01*
X928Y1915D01*
X928Y1913D01*
X930Y1913D01*
X930Y1907D01*
X932Y1907D01*
X932Y1895D01*
X934Y1895D01*
X934Y1891D01*
X932Y1891D01*
X932Y1879D01*
X930Y1879D01*
X930Y1873D01*
X928Y1873D01*
X928Y1869D01*
X926Y1869D01*
X926Y1867D01*
X924Y1867D01*
X924Y1863D01*
X922Y1863D01*
X922Y1861D01*
X920Y1861D01*
X920Y1859D01*
X918Y1859D01*
X918Y1857D01*
X916Y1857D01*
X916Y1855D01*
X914Y1855D01*
X914Y1853D01*
X910Y1853D01*
X910Y1851D01*
X908Y1851D01*
X908Y1849D01*
X904Y1849D01*
X904Y1847D01*
X898Y1847D01*
X898Y1827D01*
X904Y1827D01*
X904Y1825D01*
X908Y1825D01*
X908Y1823D01*
X912Y1823D01*
X912Y1821D01*
X914Y1821D01*
X914Y1819D01*
X916Y1819D01*
X916Y1817D01*
X918Y1817D01*
X918Y1815D01*
X920Y1815D01*
X920Y1813D01*
X922Y1813D01*
X922Y1811D01*
X924Y1811D01*
X924Y1809D01*
X926Y1809D01*
X926Y1805D01*
X928Y1805D01*
X928Y1801D01*
X930Y1801D01*
X930Y1797D01*
X932Y1797D01*
X932Y1789D01*
X934Y1789D01*
X934Y1773D01*
X932Y1773D01*
X932Y1765D01*
X930Y1765D01*
X930Y1761D01*
X928Y1761D01*
X928Y1757D01*
X926Y1757D01*
X926Y1753D01*
X924Y1753D01*
X924Y1751D01*
X922Y1751D01*
X922Y1749D01*
X920Y1749D01*
X920Y1747D01*
X918Y1747D01*
X918Y1745D01*
X916Y1745D01*
X916Y1743D01*
X914Y1743D01*
X914Y1741D01*
X912Y1741D01*
X912Y1739D01*
X908Y1739D01*
X908Y1737D01*
X904Y1737D01*
X904Y1735D01*
X898Y1735D01*
X898Y1733D01*
X960Y1733D01*
X960Y1849D01*
X962Y1849D01*
X962Y1853D01*
X964Y1853D01*
X964Y1855D01*
X968Y1855D01*
X968Y1857D01*
X972Y1857D01*
X972Y1859D01*
X1132Y1859D01*
X1132Y1959D01*
X702Y1959D01*
G37*
D02*
G36*
X52Y1947D02*
X52Y1941D01*
X74Y1941D01*
X74Y1943D01*
X76Y1943D01*
X76Y1945D01*
X80Y1945D01*
X80Y1947D01*
X52Y1947D01*
G37*
D02*
G36*
X102Y1947D02*
X102Y1945D01*
X106Y1945D01*
X106Y1943D01*
X108Y1943D01*
X108Y1941D01*
X112Y1941D01*
X112Y1939D01*
X114Y1939D01*
X114Y1935D01*
X116Y1935D01*
X116Y1933D01*
X118Y1933D01*
X118Y1927D01*
X120Y1927D01*
X120Y1909D01*
X118Y1909D01*
X118Y1905D01*
X116Y1905D01*
X116Y1901D01*
X114Y1901D01*
X114Y1899D01*
X112Y1899D01*
X112Y1897D01*
X110Y1897D01*
X110Y1895D01*
X108Y1895D01*
X108Y1893D01*
X196Y1893D01*
X196Y1891D01*
X202Y1891D01*
X202Y1889D01*
X206Y1889D01*
X206Y1887D01*
X210Y1887D01*
X210Y1885D01*
X212Y1885D01*
X212Y1883D01*
X214Y1883D01*
X214Y1881D01*
X398Y1881D01*
X398Y1901D01*
X396Y1901D01*
X396Y1903D01*
X394Y1903D01*
X394Y1907D01*
X392Y1907D01*
X392Y1917D01*
X390Y1917D01*
X390Y1921D01*
X392Y1921D01*
X392Y1929D01*
X394Y1929D01*
X394Y1933D01*
X396Y1933D01*
X396Y1937D01*
X398Y1937D01*
X398Y1939D01*
X400Y1939D01*
X400Y1941D01*
X402Y1941D01*
X402Y1943D01*
X406Y1943D01*
X406Y1945D01*
X410Y1945D01*
X410Y1947D01*
X102Y1947D01*
G37*
D02*
G36*
X734Y1941D02*
X734Y1931D01*
X756Y1931D01*
X756Y1933D01*
X758Y1933D01*
X758Y1935D01*
X762Y1935D01*
X762Y1937D01*
X766Y1937D01*
X766Y1939D01*
X772Y1939D01*
X772Y1941D01*
X734Y1941D01*
G37*
D02*
G36*
X796Y1941D02*
X796Y1939D01*
X804Y1939D01*
X804Y1937D01*
X806Y1937D01*
X806Y1935D01*
X810Y1935D01*
X810Y1933D01*
X814Y1933D01*
X814Y1931D01*
X816Y1931D01*
X816Y1929D01*
X818Y1929D01*
X818Y1927D01*
X820Y1927D01*
X820Y1925D01*
X822Y1925D01*
X822Y1923D01*
X824Y1923D01*
X824Y1919D01*
X844Y1919D01*
X844Y1923D01*
X846Y1923D01*
X846Y1925D01*
X848Y1925D01*
X848Y1927D01*
X850Y1927D01*
X850Y1929D01*
X852Y1929D01*
X852Y1931D01*
X856Y1931D01*
X856Y1933D01*
X858Y1933D01*
X858Y1935D01*
X862Y1935D01*
X862Y1937D01*
X866Y1937D01*
X866Y1939D01*
X872Y1939D01*
X872Y1941D01*
X796Y1941D01*
G37*
D02*
G36*
X52Y1897D02*
X52Y1889D01*
X82Y1889D01*
X82Y1891D01*
X78Y1891D01*
X78Y1893D01*
X74Y1893D01*
X74Y1895D01*
X72Y1895D01*
X72Y1897D01*
X52Y1897D01*
G37*
D02*
G36*
X104Y1893D02*
X104Y1891D01*
X100Y1891D01*
X100Y1889D01*
X180Y1889D01*
X180Y1891D01*
X186Y1891D01*
X186Y1893D01*
X104Y1893D01*
G37*
D02*
G36*
X444Y1893D02*
X444Y1881D01*
X498Y1881D01*
X498Y1883D01*
X500Y1883D01*
X500Y1885D01*
X502Y1885D01*
X502Y1887D01*
X506Y1887D01*
X506Y1889D01*
X508Y1889D01*
X508Y1891D01*
X516Y1891D01*
X516Y1893D01*
X444Y1893D01*
G37*
D02*
G36*
X52Y1889D02*
X52Y1887D01*
X176Y1887D01*
X176Y1889D01*
X52Y1889D01*
G37*
D02*
G36*
X52Y1889D02*
X52Y1887D01*
X176Y1887D01*
X176Y1889D01*
X52Y1889D01*
G37*
D02*
G36*
X52Y1887D02*
X52Y1833D01*
X184Y1833D01*
X184Y1835D01*
X178Y1835D01*
X178Y1837D01*
X174Y1837D01*
X174Y1839D01*
X172Y1839D01*
X172Y1841D01*
X170Y1841D01*
X170Y1843D01*
X168Y1843D01*
X168Y1845D01*
X166Y1845D01*
X166Y1849D01*
X164Y1849D01*
X164Y1853D01*
X162Y1853D01*
X162Y1873D01*
X164Y1873D01*
X164Y1877D01*
X166Y1877D01*
X166Y1881D01*
X168Y1881D01*
X168Y1883D01*
X170Y1883D01*
X170Y1885D01*
X172Y1885D01*
X172Y1887D01*
X52Y1887D01*
G37*
D02*
G36*
X214Y1845D02*
X214Y1843D01*
X212Y1843D01*
X212Y1841D01*
X210Y1841D01*
X210Y1839D01*
X208Y1839D01*
X208Y1837D01*
X204Y1837D01*
X204Y1835D01*
X198Y1835D01*
X198Y1833D01*
X514Y1833D01*
X514Y1835D01*
X508Y1835D01*
X508Y1837D01*
X504Y1837D01*
X504Y1839D01*
X502Y1839D01*
X502Y1841D01*
X500Y1841D01*
X500Y1843D01*
X498Y1843D01*
X498Y1845D01*
X214Y1845D01*
G37*
D02*
G36*
X52Y1833D02*
X52Y1831D01*
X636Y1831D01*
X636Y1833D01*
X52Y1833D01*
G37*
D02*
G36*
X52Y1833D02*
X52Y1831D01*
X636Y1831D01*
X636Y1833D01*
X52Y1833D01*
G37*
D02*
G36*
X52Y1833D02*
X52Y1831D01*
X636Y1831D01*
X636Y1833D01*
X52Y1833D01*
G37*
D02*
G36*
X52Y1831D02*
X52Y1733D01*
X636Y1733D01*
X636Y1831D01*
X52Y1831D01*
G37*
D02*
G36*
X824Y1753D02*
X824Y1751D01*
X822Y1751D01*
X822Y1749D01*
X820Y1749D01*
X820Y1747D01*
X818Y1747D01*
X818Y1745D01*
X816Y1745D01*
X816Y1743D01*
X814Y1743D01*
X814Y1741D01*
X812Y1741D01*
X812Y1739D01*
X808Y1739D01*
X808Y1737D01*
X804Y1737D01*
X804Y1735D01*
X798Y1735D01*
X798Y1733D01*
X872Y1733D01*
X872Y1735D01*
X866Y1735D01*
X866Y1737D01*
X862Y1737D01*
X862Y1739D01*
X858Y1739D01*
X858Y1741D01*
X856Y1741D01*
X856Y1743D01*
X852Y1743D01*
X852Y1745D01*
X850Y1745D01*
X850Y1747D01*
X848Y1747D01*
X848Y1751D01*
X846Y1751D01*
X846Y1753D01*
X824Y1753D01*
G37*
D02*
G36*
X734Y1743D02*
X734Y1733D01*
X772Y1733D01*
X772Y1735D01*
X766Y1735D01*
X766Y1737D01*
X762Y1737D01*
X762Y1739D01*
X758Y1739D01*
X758Y1741D01*
X756Y1741D01*
X756Y1743D01*
X734Y1743D01*
G37*
D02*
G36*
X52Y1733D02*
X52Y1731D01*
X960Y1731D01*
X960Y1733D01*
X52Y1733D01*
G37*
D02*
G36*
X52Y1733D02*
X52Y1731D01*
X960Y1731D01*
X960Y1733D01*
X52Y1733D01*
G37*
D02*
G36*
X52Y1733D02*
X52Y1731D01*
X960Y1731D01*
X960Y1733D01*
X52Y1733D01*
G37*
D02*
G36*
X52Y1733D02*
X52Y1731D01*
X960Y1731D01*
X960Y1733D01*
X52Y1733D01*
G37*
D02*
G36*
X52Y1731D02*
X52Y1711D01*
X692Y1711D01*
X692Y1709D01*
X698Y1709D01*
X698Y1707D01*
X700Y1707D01*
X700Y1705D01*
X704Y1705D01*
X704Y1703D01*
X706Y1703D01*
X706Y1701D01*
X708Y1701D01*
X708Y1699D01*
X960Y1699D01*
X960Y1731D01*
X52Y1731D01*
G37*
D02*
G36*
X52Y1711D02*
X52Y1671D01*
X420Y1671D01*
X420Y1669D01*
X428Y1669D01*
X428Y1667D01*
X432Y1667D01*
X432Y1665D01*
X434Y1665D01*
X434Y1663D01*
X436Y1663D01*
X436Y1661D01*
X438Y1661D01*
X438Y1659D01*
X440Y1659D01*
X440Y1657D01*
X442Y1657D01*
X442Y1653D01*
X444Y1653D01*
X444Y1645D01*
X446Y1645D01*
X446Y1637D01*
X444Y1637D01*
X444Y1629D01*
X442Y1629D01*
X442Y1625D01*
X440Y1625D01*
X440Y1605D01*
X616Y1605D01*
X616Y1625D01*
X614Y1625D01*
X614Y1633D01*
X616Y1633D01*
X616Y1641D01*
X618Y1641D01*
X618Y1645D01*
X620Y1645D01*
X620Y1647D01*
X622Y1647D01*
X622Y1649D01*
X624Y1649D01*
X624Y1651D01*
X626Y1651D01*
X626Y1653D01*
X628Y1653D01*
X628Y1655D01*
X632Y1655D01*
X632Y1657D01*
X638Y1657D01*
X638Y1659D01*
X656Y1659D01*
X656Y1691D01*
X658Y1691D01*
X658Y1695D01*
X660Y1695D01*
X660Y1699D01*
X662Y1699D01*
X662Y1701D01*
X664Y1701D01*
X664Y1703D01*
X666Y1703D01*
X666Y1705D01*
X668Y1705D01*
X668Y1707D01*
X672Y1707D01*
X672Y1709D01*
X678Y1709D01*
X678Y1711D01*
X52Y1711D01*
G37*
D02*
G36*
X52Y1671D02*
X52Y1515D01*
X660Y1515D01*
X660Y1517D01*
X652Y1517D01*
X652Y1519D01*
X648Y1519D01*
X648Y1521D01*
X646Y1521D01*
X646Y1523D01*
X644Y1523D01*
X644Y1525D01*
X642Y1525D01*
X642Y1527D01*
X640Y1527D01*
X640Y1529D01*
X638Y1529D01*
X638Y1533D01*
X636Y1533D01*
X636Y1541D01*
X634Y1541D01*
X634Y1549D01*
X636Y1549D01*
X636Y1569D01*
X412Y1569D01*
X412Y1571D01*
X406Y1571D01*
X406Y1573D01*
X404Y1573D01*
X404Y1575D01*
X402Y1575D01*
X402Y1577D01*
X400Y1577D01*
X400Y1581D01*
X398Y1581D01*
X398Y1619D01*
X394Y1619D01*
X394Y1623D01*
X392Y1623D01*
X392Y1625D01*
X390Y1625D01*
X390Y1629D01*
X388Y1629D01*
X388Y1635D01*
X386Y1635D01*
X386Y1647D01*
X388Y1647D01*
X388Y1653D01*
X390Y1653D01*
X390Y1657D01*
X392Y1657D01*
X392Y1659D01*
X394Y1659D01*
X394Y1661D01*
X396Y1661D01*
X396Y1663D01*
X398Y1663D01*
X398Y1665D01*
X400Y1665D01*
X400Y1667D01*
X404Y1667D01*
X404Y1669D01*
X412Y1669D01*
X412Y1671D01*
X52Y1671D01*
G37*
D02*
G36*
X866Y1611D02*
X866Y1591D01*
X868Y1591D01*
X868Y1553D01*
X870Y1553D01*
X870Y1551D01*
X872Y1551D01*
X872Y1547D01*
X874Y1547D01*
X874Y1545D01*
X876Y1545D01*
X876Y1541D01*
X878Y1541D01*
X878Y1531D01*
X880Y1531D01*
X880Y1529D01*
X878Y1529D01*
X878Y1519D01*
X876Y1519D01*
X876Y1515D01*
X874Y1515D01*
X874Y1513D01*
X1020Y1513D01*
X1020Y1511D01*
X1030Y1511D01*
X1030Y1509D01*
X1032Y1509D01*
X1032Y1507D01*
X1052Y1507D01*
X1052Y1611D01*
X866Y1611D01*
G37*
D02*
G36*
X694Y1569D02*
X694Y1539D01*
X692Y1539D01*
X692Y1533D01*
X690Y1533D01*
X690Y1529D01*
X688Y1529D01*
X688Y1527D01*
X686Y1527D01*
X686Y1525D01*
X684Y1525D01*
X684Y1523D01*
X682Y1523D01*
X682Y1521D01*
X680Y1521D01*
X680Y1519D01*
X676Y1519D01*
X676Y1517D01*
X668Y1517D01*
X668Y1515D01*
X824Y1515D01*
X824Y1517D01*
X822Y1517D01*
X822Y1523D01*
X820Y1523D01*
X820Y1539D01*
X822Y1539D01*
X822Y1543D01*
X824Y1543D01*
X824Y1547D01*
X826Y1547D01*
X826Y1549D01*
X828Y1549D01*
X828Y1569D01*
X694Y1569D01*
G37*
D02*
G36*
X52Y1515D02*
X52Y1513D01*
X824Y1513D01*
X824Y1515D01*
X52Y1515D01*
G37*
D02*
G36*
X52Y1515D02*
X52Y1513D01*
X824Y1513D01*
X824Y1515D01*
X52Y1515D01*
G37*
D02*
G36*
X52Y1513D02*
X52Y1501D01*
X840Y1501D01*
X840Y1503D01*
X836Y1503D01*
X836Y1505D01*
X832Y1505D01*
X832Y1507D01*
X830Y1507D01*
X830Y1509D01*
X828Y1509D01*
X828Y1511D01*
X826Y1511D01*
X826Y1513D01*
X52Y1513D01*
G37*
D02*
G36*
X872Y1513D02*
X872Y1509D01*
X870Y1509D01*
X870Y1507D01*
X866Y1507D01*
X866Y1505D01*
X864Y1505D01*
X864Y1503D01*
X858Y1503D01*
X858Y1501D01*
X996Y1501D01*
X996Y1503D01*
X998Y1503D01*
X998Y1505D01*
X1000Y1505D01*
X1000Y1507D01*
X1002Y1507D01*
X1002Y1509D01*
X1006Y1509D01*
X1006Y1511D01*
X1016Y1511D01*
X1016Y1513D01*
X872Y1513D01*
G37*
D02*
G36*
X52Y1501D02*
X52Y1499D01*
X994Y1499D01*
X994Y1501D01*
X52Y1501D01*
G37*
D02*
G36*
X52Y1501D02*
X52Y1499D01*
X994Y1499D01*
X994Y1501D01*
X52Y1501D01*
G37*
D02*
G36*
X52Y1499D02*
X52Y1453D01*
X1010Y1453D01*
X1010Y1455D01*
X1004Y1455D01*
X1004Y1457D01*
X1002Y1457D01*
X1002Y1459D01*
X998Y1459D01*
X998Y1461D01*
X996Y1461D01*
X996Y1463D01*
X994Y1463D01*
X994Y1467D01*
X992Y1467D01*
X992Y1471D01*
X990Y1471D01*
X990Y1477D01*
X988Y1477D01*
X988Y1489D01*
X990Y1489D01*
X990Y1495D01*
X992Y1495D01*
X992Y1499D01*
X52Y1499D01*
G37*
D02*
G36*
X1030Y1457D02*
X1030Y1455D01*
X1026Y1455D01*
X1026Y1453D01*
X1052Y1453D01*
X1052Y1457D01*
X1030Y1457D01*
G37*
D02*
G36*
X52Y1453D02*
X52Y1451D01*
X1052Y1451D01*
X1052Y1453D01*
X52Y1453D01*
G37*
D02*
G36*
X52Y1453D02*
X52Y1451D01*
X1052Y1451D01*
X1052Y1453D01*
X52Y1453D01*
G37*
D02*
G36*
X52Y1451D02*
X52Y1429D01*
X670Y1429D01*
X670Y1427D01*
X678Y1427D01*
X678Y1425D01*
X682Y1425D01*
X682Y1423D01*
X686Y1423D01*
X686Y1421D01*
X688Y1421D01*
X688Y1419D01*
X690Y1419D01*
X690Y1417D01*
X692Y1417D01*
X692Y1413D01*
X694Y1413D01*
X694Y1411D01*
X696Y1411D01*
X696Y1403D01*
X698Y1403D01*
X698Y1395D01*
X696Y1395D01*
X696Y1387D01*
X694Y1387D01*
X694Y1383D01*
X692Y1383D01*
X692Y1381D01*
X690Y1381D01*
X690Y1377D01*
X686Y1377D01*
X686Y1375D01*
X684Y1375D01*
X684Y1373D01*
X680Y1373D01*
X680Y1371D01*
X676Y1371D01*
X676Y1369D01*
X1004Y1369D01*
X1004Y1373D01*
X1006Y1373D01*
X1006Y1375D01*
X1008Y1375D01*
X1008Y1377D01*
X1010Y1377D01*
X1010Y1379D01*
X1012Y1379D01*
X1012Y1381D01*
X1014Y1381D01*
X1014Y1383D01*
X1018Y1383D01*
X1018Y1385D01*
X1026Y1385D01*
X1026Y1387D01*
X1052Y1387D01*
X1052Y1451D01*
X52Y1451D01*
G37*
D02*
G36*
X52Y1429D02*
X52Y1427D01*
X466Y1427D01*
X466Y1425D01*
X476Y1425D01*
X476Y1423D01*
X480Y1423D01*
X480Y1421D01*
X484Y1421D01*
X484Y1419D01*
X486Y1419D01*
X486Y1417D01*
X488Y1417D01*
X488Y1415D01*
X490Y1415D01*
X490Y1411D01*
X492Y1411D01*
X492Y1407D01*
X494Y1407D01*
X494Y1399D01*
X496Y1399D01*
X496Y1393D01*
X494Y1393D01*
X494Y1385D01*
X492Y1385D01*
X492Y1381D01*
X490Y1381D01*
X490Y1379D01*
X488Y1379D01*
X488Y1375D01*
X484Y1375D01*
X484Y1373D01*
X482Y1373D01*
X482Y1371D01*
X478Y1371D01*
X478Y1369D01*
X660Y1369D01*
X660Y1371D01*
X654Y1371D01*
X654Y1373D01*
X652Y1373D01*
X652Y1375D01*
X648Y1375D01*
X648Y1377D01*
X646Y1377D01*
X646Y1379D01*
X644Y1379D01*
X644Y1383D01*
X642Y1383D01*
X642Y1385D01*
X640Y1385D01*
X640Y1391D01*
X638Y1391D01*
X638Y1405D01*
X640Y1405D01*
X640Y1411D01*
X642Y1411D01*
X642Y1415D01*
X644Y1415D01*
X644Y1417D01*
X646Y1417D01*
X646Y1419D01*
X648Y1419D01*
X648Y1421D01*
X650Y1421D01*
X650Y1423D01*
X652Y1423D01*
X652Y1425D01*
X656Y1425D01*
X656Y1427D01*
X666Y1427D01*
X666Y1429D01*
X52Y1429D01*
G37*
D02*
G36*
X52Y1427D02*
X52Y1271D01*
X102Y1271D01*
X102Y1269D01*
X112Y1269D01*
X112Y1267D01*
X118Y1267D01*
X118Y1265D01*
X122Y1265D01*
X122Y1263D01*
X126Y1263D01*
X126Y1261D01*
X128Y1261D01*
X128Y1259D01*
X132Y1259D01*
X132Y1257D01*
X134Y1257D01*
X134Y1255D01*
X136Y1255D01*
X136Y1253D01*
X138Y1253D01*
X138Y1249D01*
X140Y1249D01*
X140Y1247D01*
X324Y1247D01*
X324Y1245D01*
X328Y1245D01*
X328Y1243D01*
X332Y1243D01*
X332Y1241D01*
X334Y1241D01*
X334Y1239D01*
X336Y1239D01*
X336Y1237D01*
X358Y1237D01*
X358Y1401D01*
X360Y1401D01*
X360Y1405D01*
X362Y1405D01*
X362Y1407D01*
X364Y1407D01*
X364Y1409D01*
X366Y1409D01*
X366Y1411D01*
X372Y1411D01*
X372Y1413D01*
X442Y1413D01*
X442Y1415D01*
X444Y1415D01*
X444Y1417D01*
X446Y1417D01*
X446Y1419D01*
X448Y1419D01*
X448Y1421D01*
X450Y1421D01*
X450Y1423D01*
X454Y1423D01*
X454Y1425D01*
X464Y1425D01*
X464Y1427D01*
X52Y1427D01*
G37*
D02*
G36*
X394Y1377D02*
X394Y1367D01*
X458Y1367D01*
X458Y1369D01*
X452Y1369D01*
X452Y1371D01*
X448Y1371D01*
X448Y1373D01*
X446Y1373D01*
X446Y1375D01*
X444Y1375D01*
X444Y1377D01*
X394Y1377D01*
G37*
D02*
G36*
X474Y1369D02*
X474Y1367D01*
X1002Y1367D01*
X1002Y1369D01*
X474Y1369D01*
G37*
D02*
G36*
X474Y1369D02*
X474Y1367D01*
X1002Y1367D01*
X1002Y1369D01*
X474Y1369D01*
G37*
D02*
G36*
X394Y1367D02*
X394Y1365D01*
X1002Y1365D01*
X1002Y1367D01*
X394Y1367D01*
G37*
D02*
G36*
X394Y1367D02*
X394Y1365D01*
X1002Y1365D01*
X1002Y1367D01*
X394Y1367D01*
G37*
D02*
G36*
X394Y1365D02*
X394Y1283D01*
X418Y1283D01*
X418Y1281D01*
X424Y1281D01*
X424Y1279D01*
X428Y1279D01*
X428Y1277D01*
X430Y1277D01*
X430Y1275D01*
X434Y1275D01*
X434Y1271D01*
X436Y1271D01*
X436Y1269D01*
X438Y1269D01*
X438Y1265D01*
X440Y1265D01*
X440Y1259D01*
X442Y1259D01*
X442Y1247D01*
X440Y1247D01*
X440Y1241D01*
X438Y1241D01*
X438Y1237D01*
X436Y1237D01*
X436Y1235D01*
X434Y1235D01*
X434Y1231D01*
X430Y1231D01*
X430Y1209D01*
X846Y1209D01*
X846Y1207D01*
X852Y1207D01*
X852Y1205D01*
X856Y1205D01*
X856Y1203D01*
X858Y1203D01*
X858Y1201D01*
X860Y1201D01*
X860Y1199D01*
X862Y1199D01*
X862Y1197D01*
X864Y1197D01*
X864Y1195D01*
X866Y1195D01*
X866Y1191D01*
X868Y1191D01*
X868Y1185D01*
X870Y1185D01*
X870Y1173D01*
X868Y1173D01*
X868Y1167D01*
X866Y1167D01*
X866Y1159D01*
X980Y1159D01*
X980Y1157D01*
X990Y1157D01*
X990Y1155D01*
X992Y1155D01*
X992Y1153D01*
X1012Y1153D01*
X1012Y1335D01*
X1008Y1335D01*
X1008Y1339D01*
X1006Y1339D01*
X1006Y1341D01*
X1004Y1341D01*
X1004Y1345D01*
X1002Y1345D01*
X1002Y1351D01*
X1000Y1351D01*
X1000Y1363D01*
X1002Y1363D01*
X1002Y1365D01*
X394Y1365D01*
G37*
D02*
G36*
X52Y1271D02*
X52Y1261D01*
X72Y1261D01*
X72Y1263D01*
X76Y1263D01*
X76Y1265D01*
X80Y1265D01*
X80Y1267D01*
X86Y1267D01*
X86Y1269D01*
X98Y1269D01*
X98Y1271D01*
X52Y1271D01*
G37*
D02*
G36*
X142Y1247D02*
X142Y1243D01*
X144Y1243D01*
X144Y1239D01*
X180Y1239D01*
X180Y1237D01*
X292Y1237D01*
X292Y1239D01*
X294Y1239D01*
X294Y1241D01*
X298Y1241D01*
X298Y1243D01*
X300Y1243D01*
X300Y1245D01*
X304Y1245D01*
X304Y1247D01*
X142Y1247D01*
G37*
D02*
G36*
X430Y1209D02*
X430Y1205D01*
X572Y1205D01*
X572Y1203D01*
X582Y1203D01*
X582Y1201D01*
X586Y1201D01*
X586Y1199D01*
X588Y1199D01*
X588Y1197D01*
X590Y1197D01*
X590Y1195D01*
X592Y1195D01*
X592Y1193D01*
X594Y1193D01*
X594Y1191D01*
X596Y1191D01*
X596Y1187D01*
X598Y1187D01*
X598Y1181D01*
X600Y1181D01*
X600Y1167D01*
X598Y1167D01*
X598Y1147D01*
X814Y1147D01*
X814Y1167D01*
X812Y1167D01*
X812Y1173D01*
X810Y1173D01*
X810Y1185D01*
X812Y1185D01*
X812Y1191D01*
X814Y1191D01*
X814Y1195D01*
X816Y1195D01*
X816Y1197D01*
X818Y1197D01*
X818Y1199D01*
X820Y1199D01*
X820Y1201D01*
X822Y1201D01*
X822Y1203D01*
X824Y1203D01*
X824Y1205D01*
X828Y1205D01*
X828Y1207D01*
X834Y1207D01*
X834Y1209D01*
X430Y1209D01*
G37*
D02*
G36*
X430Y1205D02*
X430Y1203D01*
X466Y1203D01*
X466Y1201D01*
X470Y1201D01*
X470Y1199D01*
X472Y1199D01*
X472Y1197D01*
X476Y1197D01*
X476Y1195D01*
X478Y1195D01*
X478Y1193D01*
X548Y1193D01*
X548Y1195D01*
X550Y1195D01*
X550Y1197D01*
X552Y1197D01*
X552Y1199D01*
X556Y1199D01*
X556Y1201D01*
X560Y1201D01*
X560Y1203D01*
X570Y1203D01*
X570Y1205D01*
X430Y1205D01*
G37*
D02*
G36*
X866Y1159D02*
X866Y1147D01*
X956Y1147D01*
X956Y1149D01*
X958Y1149D01*
X958Y1151D01*
X960Y1151D01*
X960Y1153D01*
X962Y1153D01*
X962Y1155D01*
X966Y1155D01*
X966Y1157D01*
X974Y1157D01*
X974Y1159D01*
X866Y1159D01*
G37*
D02*
G36*
X2250Y1993D02*
X2250Y1987D01*
X2248Y1987D01*
X2248Y1983D01*
X2246Y1983D01*
X2246Y1981D01*
X2244Y1981D01*
X2244Y1977D01*
X2242Y1977D01*
X2242Y1975D01*
X2240Y1975D01*
X2240Y1973D01*
X2238Y1973D01*
X2238Y1971D01*
X2236Y1971D01*
X2236Y1969D01*
X2232Y1969D01*
X2232Y1967D01*
X2228Y1967D01*
X2228Y1961D01*
X2308Y1961D01*
X2308Y1963D01*
X2298Y1963D01*
X2298Y1965D01*
X2292Y1965D01*
X2292Y1967D01*
X2288Y1967D01*
X2288Y1969D01*
X2286Y1969D01*
X2286Y1971D01*
X2284Y1971D01*
X2284Y1973D01*
X2280Y1973D01*
X2280Y1975D01*
X2278Y1975D01*
X2278Y1979D01*
X2276Y1979D01*
X2276Y1981D01*
X2274Y1981D01*
X2274Y1985D01*
X2272Y1985D01*
X2272Y1989D01*
X2270Y1989D01*
X2270Y1993D01*
X2250Y1993D01*
G37*
D02*
G36*
X2350Y1993D02*
X2350Y1987D01*
X2348Y1987D01*
X2348Y1983D01*
X2346Y1983D01*
X2346Y1979D01*
X2344Y1979D01*
X2344Y1977D01*
X2342Y1977D01*
X2342Y1975D01*
X2340Y1975D01*
X2340Y1973D01*
X2338Y1973D01*
X2338Y1971D01*
X2336Y1971D01*
X2336Y1969D01*
X2332Y1969D01*
X2332Y1967D01*
X2328Y1967D01*
X2328Y1965D01*
X2322Y1965D01*
X2322Y1963D01*
X2312Y1963D01*
X2312Y1961D01*
X2408Y1961D01*
X2408Y1963D01*
X2398Y1963D01*
X2398Y1965D01*
X2392Y1965D01*
X2392Y1967D01*
X2388Y1967D01*
X2388Y1969D01*
X2386Y1969D01*
X2386Y1971D01*
X2384Y1971D01*
X2384Y1973D01*
X2380Y1973D01*
X2380Y1975D01*
X2378Y1975D01*
X2378Y1979D01*
X2376Y1979D01*
X2376Y1981D01*
X2374Y1981D01*
X2374Y1985D01*
X2372Y1985D01*
X2372Y1989D01*
X2370Y1989D01*
X2370Y1993D01*
X2350Y1993D01*
G37*
D02*
G36*
X2450Y1993D02*
X2450Y1987D01*
X2448Y1987D01*
X2448Y1983D01*
X2446Y1983D01*
X2446Y1979D01*
X2444Y1979D01*
X2444Y1977D01*
X2442Y1977D01*
X2442Y1975D01*
X2440Y1975D01*
X2440Y1973D01*
X2438Y1973D01*
X2438Y1971D01*
X2436Y1971D01*
X2436Y1969D01*
X2432Y1969D01*
X2432Y1967D01*
X2428Y1967D01*
X2428Y1965D01*
X2422Y1965D01*
X2422Y1963D01*
X2412Y1963D01*
X2412Y1961D01*
X2508Y1961D01*
X2508Y1963D01*
X2498Y1963D01*
X2498Y1965D01*
X2492Y1965D01*
X2492Y1967D01*
X2488Y1967D01*
X2488Y1969D01*
X2486Y1969D01*
X2486Y1971D01*
X2484Y1971D01*
X2484Y1973D01*
X2480Y1973D01*
X2480Y1975D01*
X2478Y1975D01*
X2478Y1979D01*
X2476Y1979D01*
X2476Y1981D01*
X2474Y1981D01*
X2474Y1985D01*
X2472Y1985D01*
X2472Y1989D01*
X2470Y1989D01*
X2470Y1993D01*
X2450Y1993D01*
G37*
D02*
G36*
X2544Y1979D02*
X2544Y1977D01*
X2542Y1977D01*
X2542Y1975D01*
X2540Y1975D01*
X2540Y1973D01*
X2538Y1973D01*
X2538Y1971D01*
X2536Y1971D01*
X2536Y1969D01*
X2532Y1969D01*
X2532Y1967D01*
X2528Y1967D01*
X2528Y1965D01*
X2522Y1965D01*
X2522Y1963D01*
X2512Y1963D01*
X2512Y1961D01*
X2564Y1961D01*
X2564Y1979D01*
X2544Y1979D01*
G37*
D02*
G36*
X2228Y1961D02*
X2228Y1959D01*
X2564Y1959D01*
X2564Y1961D01*
X2228Y1961D01*
G37*
D02*
G36*
X2228Y1961D02*
X2228Y1959D01*
X2564Y1959D01*
X2564Y1961D01*
X2228Y1961D01*
G37*
D02*
G36*
X2228Y1961D02*
X2228Y1959D01*
X2564Y1959D01*
X2564Y1961D01*
X2228Y1961D01*
G37*
D02*
G36*
X2228Y1961D02*
X2228Y1959D01*
X2564Y1959D01*
X2564Y1961D01*
X2228Y1961D01*
G37*
D02*
G36*
X2228Y1959D02*
X2228Y1847D01*
X2226Y1847D01*
X2226Y1843D01*
X2224Y1843D01*
X2224Y1841D01*
X2222Y1841D01*
X2222Y1839D01*
X2218Y1839D01*
X2218Y1837D01*
X2212Y1837D01*
X2212Y1835D01*
X1914Y1835D01*
X1914Y1833D01*
X1912Y1833D01*
X1912Y1829D01*
X1910Y1829D01*
X1910Y1827D01*
X1908Y1827D01*
X1908Y1825D01*
X1906Y1825D01*
X1906Y1821D01*
X1904Y1821D01*
X1904Y1819D01*
X1900Y1819D01*
X1900Y1817D01*
X1898Y1817D01*
X1898Y1815D01*
X1896Y1815D01*
X1896Y1813D01*
X1892Y1813D01*
X1892Y1811D01*
X1888Y1811D01*
X1888Y1809D01*
X1880Y1809D01*
X1880Y1807D01*
X2564Y1807D01*
X2564Y1959D01*
X2228Y1959D01*
G37*
D02*
G36*
X1318Y1893D02*
X1318Y1807D01*
X1562Y1807D01*
X1562Y1809D01*
X1554Y1809D01*
X1554Y1811D01*
X1550Y1811D01*
X1550Y1813D01*
X1546Y1813D01*
X1546Y1815D01*
X1544Y1815D01*
X1544Y1817D01*
X1540Y1817D01*
X1540Y1819D01*
X1538Y1819D01*
X1538Y1821D01*
X1536Y1821D01*
X1536Y1823D01*
X1534Y1823D01*
X1534Y1827D01*
X1532Y1827D01*
X1532Y1829D01*
X1530Y1829D01*
X1530Y1833D01*
X1528Y1833D01*
X1528Y1837D01*
X1526Y1837D01*
X1526Y1843D01*
X1524Y1843D01*
X1524Y1863D01*
X1526Y1863D01*
X1526Y1871D01*
X1528Y1871D01*
X1528Y1893D01*
X1318Y1893D01*
G37*
D02*
G36*
X1614Y1893D02*
X1614Y1869D01*
X1616Y1869D01*
X1616Y1861D01*
X1618Y1861D01*
X1618Y1847D01*
X1616Y1847D01*
X1616Y1839D01*
X1614Y1839D01*
X1614Y1833D01*
X1612Y1833D01*
X1612Y1829D01*
X1610Y1829D01*
X1610Y1827D01*
X1608Y1827D01*
X1608Y1825D01*
X1606Y1825D01*
X1606Y1821D01*
X1604Y1821D01*
X1604Y1819D01*
X1600Y1819D01*
X1600Y1817D01*
X1598Y1817D01*
X1598Y1815D01*
X1596Y1815D01*
X1596Y1813D01*
X1592Y1813D01*
X1592Y1811D01*
X1588Y1811D01*
X1588Y1809D01*
X1580Y1809D01*
X1580Y1807D01*
X1862Y1807D01*
X1862Y1809D01*
X1854Y1809D01*
X1854Y1811D01*
X1850Y1811D01*
X1850Y1813D01*
X1846Y1813D01*
X1846Y1815D01*
X1844Y1815D01*
X1844Y1817D01*
X1840Y1817D01*
X1840Y1819D01*
X1838Y1819D01*
X1838Y1821D01*
X1836Y1821D01*
X1836Y1823D01*
X1834Y1823D01*
X1834Y1827D01*
X1832Y1827D01*
X1832Y1829D01*
X1830Y1829D01*
X1830Y1833D01*
X1828Y1833D01*
X1828Y1837D01*
X1826Y1837D01*
X1826Y1843D01*
X1824Y1843D01*
X1824Y1863D01*
X1826Y1863D01*
X1826Y1871D01*
X1828Y1871D01*
X1828Y1893D01*
X1614Y1893D01*
G37*
D02*
G36*
X1318Y1807D02*
X1318Y1805D01*
X2564Y1805D01*
X2564Y1807D01*
X1318Y1807D01*
G37*
D02*
G36*
X1318Y1807D02*
X1318Y1805D01*
X2564Y1805D01*
X2564Y1807D01*
X1318Y1807D01*
G37*
D02*
G36*
X1318Y1807D02*
X1318Y1805D01*
X2564Y1805D01*
X2564Y1807D01*
X1318Y1807D01*
G37*
D02*
G36*
X1318Y1805D02*
X1318Y1771D01*
X1548Y1771D01*
X1548Y1673D01*
X2564Y1673D01*
X2564Y1805D01*
X1318Y1805D01*
G37*
D02*
G36*
X1318Y1771D02*
X1318Y1765D01*
X1322Y1765D01*
X1322Y1763D01*
X1326Y1763D01*
X1326Y1761D01*
X1328Y1761D01*
X1328Y1759D01*
X1332Y1759D01*
X1332Y1757D01*
X1334Y1757D01*
X1334Y1755D01*
X1336Y1755D01*
X1336Y1753D01*
X1338Y1753D01*
X1338Y1749D01*
X1360Y1749D01*
X1360Y1751D01*
X1362Y1751D01*
X1362Y1753D01*
X1364Y1753D01*
X1364Y1755D01*
X1366Y1755D01*
X1366Y1757D01*
X1368Y1757D01*
X1368Y1759D01*
X1370Y1759D01*
X1370Y1761D01*
X1372Y1761D01*
X1372Y1763D01*
X1376Y1763D01*
X1376Y1765D01*
X1380Y1765D01*
X1380Y1767D01*
X1386Y1767D01*
X1386Y1769D01*
X1398Y1769D01*
X1398Y1771D01*
X1318Y1771D01*
G37*
D02*
G36*
X1402Y1771D02*
X1402Y1769D01*
X1412Y1769D01*
X1412Y1767D01*
X1418Y1767D01*
X1418Y1765D01*
X1422Y1765D01*
X1422Y1763D01*
X1426Y1763D01*
X1426Y1761D01*
X1428Y1761D01*
X1428Y1759D01*
X1450Y1759D01*
X1450Y1769D01*
X1452Y1769D01*
X1452Y1771D01*
X1402Y1771D01*
G37*
D02*
G36*
X1238Y1693D02*
X1238Y1691D01*
X1236Y1691D01*
X1236Y1687D01*
X1234Y1687D01*
X1234Y1685D01*
X1230Y1685D01*
X1230Y1683D01*
X1228Y1683D01*
X1228Y1681D01*
X1226Y1681D01*
X1226Y1679D01*
X1222Y1679D01*
X1222Y1677D01*
X1218Y1677D01*
X1218Y1675D01*
X1212Y1675D01*
X1212Y1673D01*
X1286Y1673D01*
X1286Y1675D01*
X1280Y1675D01*
X1280Y1677D01*
X1276Y1677D01*
X1276Y1679D01*
X1272Y1679D01*
X1272Y1681D01*
X1270Y1681D01*
X1270Y1683D01*
X1268Y1683D01*
X1268Y1685D01*
X1266Y1685D01*
X1266Y1687D01*
X1264Y1687D01*
X1264Y1689D01*
X1262Y1689D01*
X1262Y1691D01*
X1260Y1691D01*
X1260Y1693D01*
X1238Y1693D01*
G37*
D02*
G36*
X1338Y1693D02*
X1338Y1691D01*
X1336Y1691D01*
X1336Y1687D01*
X1334Y1687D01*
X1334Y1685D01*
X1330Y1685D01*
X1330Y1683D01*
X1328Y1683D01*
X1328Y1681D01*
X1326Y1681D01*
X1326Y1679D01*
X1322Y1679D01*
X1322Y1677D01*
X1318Y1677D01*
X1318Y1675D01*
X1312Y1675D01*
X1312Y1673D01*
X1386Y1673D01*
X1386Y1675D01*
X1380Y1675D01*
X1380Y1677D01*
X1376Y1677D01*
X1376Y1679D01*
X1372Y1679D01*
X1372Y1681D01*
X1370Y1681D01*
X1370Y1683D01*
X1368Y1683D01*
X1368Y1685D01*
X1366Y1685D01*
X1366Y1687D01*
X1364Y1687D01*
X1364Y1689D01*
X1362Y1689D01*
X1362Y1691D01*
X1360Y1691D01*
X1360Y1693D01*
X1338Y1693D01*
G37*
D02*
G36*
X1430Y1685D02*
X1430Y1683D01*
X1428Y1683D01*
X1428Y1681D01*
X1426Y1681D01*
X1426Y1679D01*
X1422Y1679D01*
X1422Y1677D01*
X1418Y1677D01*
X1418Y1675D01*
X1412Y1675D01*
X1412Y1673D01*
X1450Y1673D01*
X1450Y1685D01*
X1430Y1685D01*
G37*
D02*
G36*
X1184Y1673D02*
X1184Y1671D01*
X2564Y1671D01*
X2564Y1673D01*
X1184Y1673D01*
G37*
D02*
G36*
X1184Y1673D02*
X1184Y1671D01*
X2564Y1671D01*
X2564Y1673D01*
X1184Y1673D01*
G37*
D02*
G36*
X1184Y1673D02*
X1184Y1671D01*
X2564Y1671D01*
X2564Y1673D01*
X1184Y1673D01*
G37*
D02*
G36*
X1184Y1673D02*
X1184Y1671D01*
X2564Y1671D01*
X2564Y1673D01*
X1184Y1673D01*
G37*
D02*
G36*
X1184Y1671D02*
X1184Y1471D01*
X2148Y1471D01*
X2148Y1373D01*
X2136Y1373D01*
X2136Y1353D01*
X2138Y1353D01*
X2138Y1349D01*
X2140Y1349D01*
X2140Y1347D01*
X2142Y1347D01*
X2142Y1343D01*
X2144Y1343D01*
X2144Y1339D01*
X2146Y1339D01*
X2146Y1331D01*
X2148Y1331D01*
X2148Y1311D01*
X2146Y1311D01*
X2146Y1303D01*
X2144Y1303D01*
X2144Y1299D01*
X2142Y1299D01*
X2142Y1295D01*
X2140Y1295D01*
X2140Y1293D01*
X2138Y1293D01*
X2138Y1291D01*
X2136Y1291D01*
X2136Y1287D01*
X2134Y1287D01*
X2134Y1285D01*
X2130Y1285D01*
X2130Y1283D01*
X2128Y1283D01*
X2128Y1281D01*
X2126Y1281D01*
X2126Y1261D01*
X2128Y1261D01*
X2128Y1259D01*
X2132Y1259D01*
X2132Y1257D01*
X2134Y1257D01*
X2134Y1255D01*
X2136Y1255D01*
X2136Y1253D01*
X2138Y1253D01*
X2138Y1249D01*
X2140Y1249D01*
X2140Y1247D01*
X2142Y1247D01*
X2142Y1243D01*
X2144Y1243D01*
X2144Y1239D01*
X2146Y1239D01*
X2146Y1231D01*
X2148Y1231D01*
X2148Y1211D01*
X2146Y1211D01*
X2146Y1203D01*
X2144Y1203D01*
X2144Y1199D01*
X2142Y1199D01*
X2142Y1195D01*
X2140Y1195D01*
X2140Y1193D01*
X2138Y1193D01*
X2138Y1191D01*
X2136Y1191D01*
X2136Y1187D01*
X2134Y1187D01*
X2134Y1185D01*
X2130Y1185D01*
X2130Y1183D01*
X2128Y1183D01*
X2128Y1181D01*
X2126Y1181D01*
X2126Y1161D01*
X2128Y1161D01*
X2128Y1159D01*
X2132Y1159D01*
X2132Y1157D01*
X2134Y1157D01*
X2134Y1155D01*
X2136Y1155D01*
X2136Y1153D01*
X2138Y1153D01*
X2138Y1149D01*
X2140Y1149D01*
X2140Y1147D01*
X2142Y1147D01*
X2142Y1143D01*
X2144Y1143D01*
X2144Y1139D01*
X2146Y1139D01*
X2146Y1131D01*
X2148Y1131D01*
X2148Y1111D01*
X2146Y1111D01*
X2146Y1103D01*
X2144Y1103D01*
X2144Y1099D01*
X2142Y1099D01*
X2142Y1095D01*
X2140Y1095D01*
X2140Y1093D01*
X2138Y1093D01*
X2138Y1091D01*
X2136Y1091D01*
X2136Y1087D01*
X2134Y1087D01*
X2134Y1085D01*
X2130Y1085D01*
X2130Y1083D01*
X2128Y1083D01*
X2128Y1081D01*
X2126Y1081D01*
X2126Y1061D01*
X2128Y1061D01*
X2128Y1059D01*
X2132Y1059D01*
X2132Y1057D01*
X2134Y1057D01*
X2134Y1055D01*
X2136Y1055D01*
X2136Y1053D01*
X2138Y1053D01*
X2138Y1049D01*
X2140Y1049D01*
X2140Y1047D01*
X2142Y1047D01*
X2142Y1043D01*
X2144Y1043D01*
X2144Y1039D01*
X2146Y1039D01*
X2146Y1031D01*
X2148Y1031D01*
X2148Y1011D01*
X2146Y1011D01*
X2146Y1003D01*
X2144Y1003D01*
X2144Y999D01*
X2142Y999D01*
X2142Y995D01*
X2140Y995D01*
X2140Y993D01*
X2138Y993D01*
X2138Y991D01*
X2136Y991D01*
X2136Y987D01*
X2134Y987D01*
X2134Y985D01*
X2130Y985D01*
X2130Y983D01*
X2128Y983D01*
X2128Y981D01*
X2126Y981D01*
X2126Y961D01*
X2128Y961D01*
X2128Y959D01*
X2132Y959D01*
X2132Y957D01*
X2134Y957D01*
X2134Y955D01*
X2136Y955D01*
X2136Y953D01*
X2138Y953D01*
X2138Y949D01*
X2140Y949D01*
X2140Y947D01*
X2142Y947D01*
X2142Y943D01*
X2144Y943D01*
X2144Y939D01*
X2146Y939D01*
X2146Y931D01*
X2148Y931D01*
X2148Y911D01*
X2146Y911D01*
X2146Y903D01*
X2144Y903D01*
X2144Y899D01*
X2142Y899D01*
X2142Y895D01*
X2140Y895D01*
X2140Y893D01*
X2138Y893D01*
X2138Y891D01*
X2136Y891D01*
X2136Y887D01*
X2134Y887D01*
X2134Y885D01*
X2130Y885D01*
X2130Y883D01*
X2128Y883D01*
X2128Y881D01*
X2126Y881D01*
X2126Y861D01*
X2128Y861D01*
X2128Y859D01*
X2132Y859D01*
X2132Y857D01*
X2134Y857D01*
X2134Y855D01*
X2136Y855D01*
X2136Y853D01*
X2138Y853D01*
X2138Y849D01*
X2140Y849D01*
X2140Y847D01*
X2142Y847D01*
X2142Y843D01*
X2144Y843D01*
X2144Y839D01*
X2146Y839D01*
X2146Y831D01*
X2148Y831D01*
X2148Y811D01*
X2146Y811D01*
X2146Y803D01*
X2144Y803D01*
X2144Y799D01*
X2142Y799D01*
X2142Y795D01*
X2140Y795D01*
X2140Y793D01*
X2138Y793D01*
X2138Y791D01*
X2136Y791D01*
X2136Y787D01*
X2134Y787D01*
X2134Y785D01*
X2130Y785D01*
X2130Y783D01*
X2128Y783D01*
X2128Y781D01*
X2126Y781D01*
X2126Y761D01*
X2128Y761D01*
X2128Y759D01*
X2132Y759D01*
X2132Y757D01*
X2134Y757D01*
X2134Y755D01*
X2136Y755D01*
X2136Y753D01*
X2138Y753D01*
X2138Y749D01*
X2140Y749D01*
X2140Y747D01*
X2142Y747D01*
X2142Y743D01*
X2144Y743D01*
X2144Y739D01*
X2146Y739D01*
X2146Y731D01*
X2148Y731D01*
X2148Y711D01*
X2146Y711D01*
X2146Y703D01*
X2144Y703D01*
X2144Y699D01*
X2142Y699D01*
X2142Y695D01*
X2140Y695D01*
X2140Y693D01*
X2138Y693D01*
X2138Y691D01*
X2136Y691D01*
X2136Y687D01*
X2134Y687D01*
X2134Y685D01*
X2130Y685D01*
X2130Y683D01*
X2128Y683D01*
X2128Y681D01*
X2126Y681D01*
X2126Y679D01*
X2122Y679D01*
X2122Y677D01*
X2118Y677D01*
X2118Y675D01*
X2112Y675D01*
X2112Y673D01*
X2236Y673D01*
X2236Y971D01*
X2222Y971D01*
X2222Y973D01*
X2216Y973D01*
X2216Y975D01*
X2210Y975D01*
X2210Y977D01*
X2208Y977D01*
X2208Y979D01*
X2204Y979D01*
X2204Y981D01*
X2202Y981D01*
X2202Y983D01*
X2200Y983D01*
X2200Y985D01*
X2198Y985D01*
X2198Y987D01*
X2196Y987D01*
X2196Y989D01*
X2194Y989D01*
X2194Y991D01*
X2192Y991D01*
X2192Y995D01*
X2190Y995D01*
X2190Y997D01*
X2188Y997D01*
X2188Y1003D01*
X2186Y1003D01*
X2186Y1009D01*
X2184Y1009D01*
X2184Y1031D01*
X2186Y1031D01*
X2186Y1037D01*
X2188Y1037D01*
X2188Y1041D01*
X2190Y1041D01*
X2190Y1045D01*
X2192Y1045D01*
X2192Y1049D01*
X2194Y1049D01*
X2194Y1051D01*
X2196Y1051D01*
X2196Y1053D01*
X2198Y1053D01*
X2198Y1055D01*
X2200Y1055D01*
X2200Y1057D01*
X2202Y1057D01*
X2202Y1059D01*
X2206Y1059D01*
X2206Y1079D01*
X2204Y1079D01*
X2204Y1081D01*
X2202Y1081D01*
X2202Y1083D01*
X2200Y1083D01*
X2200Y1085D01*
X2198Y1085D01*
X2198Y1087D01*
X2196Y1087D01*
X2196Y1089D01*
X2194Y1089D01*
X2194Y1091D01*
X2192Y1091D01*
X2192Y1095D01*
X2190Y1095D01*
X2190Y1097D01*
X2188Y1097D01*
X2188Y1103D01*
X2186Y1103D01*
X2186Y1109D01*
X2184Y1109D01*
X2184Y1131D01*
X2186Y1131D01*
X2186Y1137D01*
X2188Y1137D01*
X2188Y1141D01*
X2190Y1141D01*
X2190Y1145D01*
X2192Y1145D01*
X2192Y1149D01*
X2194Y1149D01*
X2194Y1151D01*
X2196Y1151D01*
X2196Y1153D01*
X2198Y1153D01*
X2198Y1155D01*
X2200Y1155D01*
X2200Y1157D01*
X2202Y1157D01*
X2202Y1159D01*
X2206Y1159D01*
X2206Y1179D01*
X2204Y1179D01*
X2204Y1181D01*
X2202Y1181D01*
X2202Y1183D01*
X2200Y1183D01*
X2200Y1185D01*
X2198Y1185D01*
X2198Y1187D01*
X2196Y1187D01*
X2196Y1189D01*
X2194Y1189D01*
X2194Y1191D01*
X2192Y1191D01*
X2192Y1195D01*
X2190Y1195D01*
X2190Y1197D01*
X2188Y1197D01*
X2188Y1203D01*
X2186Y1203D01*
X2186Y1209D01*
X2184Y1209D01*
X2184Y1231D01*
X2186Y1231D01*
X2186Y1237D01*
X2188Y1237D01*
X2188Y1241D01*
X2190Y1241D01*
X2190Y1245D01*
X2192Y1245D01*
X2192Y1249D01*
X2194Y1249D01*
X2194Y1251D01*
X2196Y1251D01*
X2196Y1253D01*
X2198Y1253D01*
X2198Y1255D01*
X2200Y1255D01*
X2200Y1257D01*
X2202Y1257D01*
X2202Y1259D01*
X2206Y1259D01*
X2206Y1279D01*
X2204Y1279D01*
X2204Y1281D01*
X2202Y1281D01*
X2202Y1283D01*
X2200Y1283D01*
X2200Y1285D01*
X2198Y1285D01*
X2198Y1287D01*
X2196Y1287D01*
X2196Y1289D01*
X2194Y1289D01*
X2194Y1291D01*
X2192Y1291D01*
X2192Y1295D01*
X2190Y1295D01*
X2190Y1297D01*
X2188Y1297D01*
X2188Y1303D01*
X2186Y1303D01*
X2186Y1309D01*
X2184Y1309D01*
X2184Y1331D01*
X2186Y1331D01*
X2186Y1337D01*
X2188Y1337D01*
X2188Y1341D01*
X2190Y1341D01*
X2190Y1345D01*
X2192Y1345D01*
X2192Y1349D01*
X2194Y1349D01*
X2194Y1351D01*
X2196Y1351D01*
X2196Y1353D01*
X2198Y1353D01*
X2198Y1355D01*
X2200Y1355D01*
X2200Y1357D01*
X2202Y1357D01*
X2202Y1359D01*
X2206Y1359D01*
X2206Y1379D01*
X2204Y1379D01*
X2204Y1381D01*
X2202Y1381D01*
X2202Y1383D01*
X2200Y1383D01*
X2200Y1385D01*
X2198Y1385D01*
X2198Y1387D01*
X2196Y1387D01*
X2196Y1389D01*
X2194Y1389D01*
X2194Y1391D01*
X2192Y1391D01*
X2192Y1395D01*
X2190Y1395D01*
X2190Y1397D01*
X2188Y1397D01*
X2188Y1403D01*
X2186Y1403D01*
X2186Y1409D01*
X2184Y1409D01*
X2184Y1431D01*
X2186Y1431D01*
X2186Y1437D01*
X2188Y1437D01*
X2188Y1441D01*
X2190Y1441D01*
X2190Y1445D01*
X2192Y1445D01*
X2192Y1449D01*
X2194Y1449D01*
X2194Y1451D01*
X2196Y1451D01*
X2196Y1471D01*
X2184Y1471D01*
X2184Y1569D01*
X2236Y1569D01*
X2236Y1645D01*
X2564Y1645D01*
X2564Y1671D01*
X1184Y1671D01*
G37*
D02*
G36*
X1088Y1643D02*
X1088Y1389D01*
X1158Y1389D01*
X1158Y1391D01*
X1152Y1391D01*
X1152Y1393D01*
X1150Y1393D01*
X1150Y1395D01*
X1146Y1395D01*
X1146Y1397D01*
X1144Y1397D01*
X1144Y1399D01*
X1142Y1399D01*
X1142Y1403D01*
X1140Y1403D01*
X1140Y1407D01*
X1138Y1407D01*
X1138Y1413D01*
X1136Y1413D01*
X1136Y1425D01*
X1138Y1425D01*
X1138Y1431D01*
X1140Y1431D01*
X1140Y1435D01*
X1142Y1435D01*
X1142Y1437D01*
X1144Y1437D01*
X1144Y1439D01*
X1146Y1439D01*
X1146Y1441D01*
X1148Y1441D01*
X1148Y1643D01*
X1088Y1643D01*
G37*
D02*
G36*
X2558Y1539D02*
X2558Y369D01*
X2664Y369D01*
X2664Y1453D01*
X2662Y1453D01*
X2662Y1455D01*
X2660Y1455D01*
X2660Y1457D01*
X2658Y1457D01*
X2658Y1459D01*
X2656Y1459D01*
X2656Y1461D01*
X2654Y1461D01*
X2654Y1463D01*
X2652Y1463D01*
X2652Y1465D01*
X2650Y1465D01*
X2650Y1467D01*
X2648Y1467D01*
X2648Y1469D01*
X2646Y1469D01*
X2646Y1471D01*
X2644Y1471D01*
X2644Y1473D01*
X2642Y1473D01*
X2642Y1475D01*
X2640Y1475D01*
X2640Y1477D01*
X2638Y1477D01*
X2638Y1479D01*
X2636Y1479D01*
X2636Y1481D01*
X2634Y1481D01*
X2634Y1483D01*
X2632Y1483D01*
X2632Y1485D01*
X2630Y1485D01*
X2630Y1487D01*
X2628Y1487D01*
X2628Y1489D01*
X2626Y1489D01*
X2626Y1491D01*
X2624Y1491D01*
X2624Y1493D01*
X2622Y1493D01*
X2622Y1495D01*
X2620Y1495D01*
X2620Y1497D01*
X2618Y1497D01*
X2618Y1499D01*
X2616Y1499D01*
X2616Y1501D01*
X2614Y1501D01*
X2614Y1503D01*
X2612Y1503D01*
X2612Y1505D01*
X2610Y1505D01*
X2610Y1507D01*
X2608Y1507D01*
X2608Y1509D01*
X2606Y1509D01*
X2606Y1511D01*
X2604Y1511D01*
X2604Y1513D01*
X2602Y1513D01*
X2602Y1515D01*
X2600Y1515D01*
X2600Y1517D01*
X2598Y1517D01*
X2598Y1519D01*
X2596Y1519D01*
X2596Y1521D01*
X2594Y1521D01*
X2594Y1523D01*
X2592Y1523D01*
X2592Y1525D01*
X2590Y1525D01*
X2590Y1527D01*
X2588Y1527D01*
X2588Y1529D01*
X2586Y1529D01*
X2586Y1531D01*
X2584Y1531D01*
X2584Y1533D01*
X2582Y1533D01*
X2582Y1535D01*
X2580Y1535D01*
X2580Y1537D01*
X2578Y1537D01*
X2578Y1539D01*
X2558Y1539D01*
G37*
D02*
G36*
X1184Y1471D02*
X1184Y1441D01*
X1186Y1441D01*
X1186Y1439D01*
X1188Y1439D01*
X1188Y1437D01*
X1190Y1437D01*
X1190Y1435D01*
X1192Y1435D01*
X1192Y1431D01*
X1194Y1431D01*
X1194Y1425D01*
X1196Y1425D01*
X1196Y1419D01*
X1988Y1419D01*
X1988Y1417D01*
X1992Y1417D01*
X1992Y1415D01*
X1996Y1415D01*
X1996Y1413D01*
X1998Y1413D01*
X1998Y1411D01*
X2000Y1411D01*
X2000Y1409D01*
X2002Y1409D01*
X2002Y1407D01*
X2004Y1407D01*
X2004Y1403D01*
X2006Y1403D01*
X2006Y1399D01*
X2008Y1399D01*
X2008Y1381D01*
X2006Y1381D01*
X2006Y1377D01*
X2004Y1377D01*
X2004Y1373D01*
X2002Y1373D01*
X2002Y1371D01*
X2000Y1371D01*
X2000Y1369D01*
X1998Y1369D01*
X1998Y1367D01*
X1996Y1367D01*
X1996Y1365D01*
X1992Y1365D01*
X1992Y1363D01*
X1988Y1363D01*
X1988Y1361D01*
X2064Y1361D01*
X2064Y1373D01*
X2050Y1373D01*
X2050Y1469D01*
X2052Y1469D01*
X2052Y1471D01*
X1184Y1471D01*
G37*
D02*
G36*
X1196Y1419D02*
X1196Y1413D01*
X1194Y1413D01*
X1194Y1407D01*
X1192Y1407D01*
X1192Y1403D01*
X1190Y1403D01*
X1190Y1399D01*
X1188Y1399D01*
X1188Y1397D01*
X1186Y1397D01*
X1186Y1395D01*
X1182Y1395D01*
X1182Y1393D01*
X1180Y1393D01*
X1180Y1391D01*
X1174Y1391D01*
X1174Y1389D01*
X1222Y1389D01*
X1222Y1395D01*
X1224Y1395D01*
X1224Y1401D01*
X1226Y1401D01*
X1226Y1405D01*
X1228Y1405D01*
X1228Y1409D01*
X1230Y1409D01*
X1230Y1411D01*
X1232Y1411D01*
X1232Y1413D01*
X1234Y1413D01*
X1234Y1415D01*
X1238Y1415D01*
X1238Y1417D01*
X1242Y1417D01*
X1242Y1419D01*
X1196Y1419D01*
G37*
D02*
G36*
X1262Y1419D02*
X1262Y1417D01*
X1266Y1417D01*
X1266Y1415D01*
X1270Y1415D01*
X1270Y1413D01*
X1272Y1413D01*
X1272Y1411D01*
X1274Y1411D01*
X1274Y1409D01*
X1276Y1409D01*
X1276Y1407D01*
X1956Y1407D01*
X1956Y1409D01*
X1958Y1409D01*
X1958Y1411D01*
X1960Y1411D01*
X1960Y1413D01*
X1962Y1413D01*
X1962Y1415D01*
X1964Y1415D01*
X1964Y1417D01*
X1970Y1417D01*
X1970Y1419D01*
X1262Y1419D01*
G37*
D02*
G36*
X1088Y1389D02*
X1088Y1387D01*
X1222Y1387D01*
X1222Y1389D01*
X1088Y1389D01*
G37*
D02*
G36*
X1088Y1389D02*
X1088Y1387D01*
X1222Y1387D01*
X1222Y1389D01*
X1088Y1389D01*
G37*
D02*
G36*
X1088Y1387D02*
X1088Y1361D01*
X1242Y1361D01*
X1242Y1363D01*
X1238Y1363D01*
X1238Y1365D01*
X1234Y1365D01*
X1234Y1367D01*
X1232Y1367D01*
X1232Y1369D01*
X1230Y1369D01*
X1230Y1371D01*
X1228Y1371D01*
X1228Y1375D01*
X1226Y1375D01*
X1226Y1377D01*
X1224Y1377D01*
X1224Y1385D01*
X1222Y1385D01*
X1222Y1387D01*
X1088Y1387D01*
G37*
D02*
G36*
X1274Y1371D02*
X1274Y1369D01*
X1272Y1369D01*
X1272Y1367D01*
X1270Y1367D01*
X1270Y1365D01*
X1266Y1365D01*
X1266Y1363D01*
X1262Y1363D01*
X1262Y1361D01*
X1970Y1361D01*
X1970Y1363D01*
X1964Y1363D01*
X1964Y1365D01*
X1962Y1365D01*
X1962Y1367D01*
X1958Y1367D01*
X1958Y1369D01*
X1956Y1369D01*
X1956Y1371D01*
X1274Y1371D01*
G37*
D02*
G36*
X1088Y1361D02*
X1088Y1359D01*
X2064Y1359D01*
X2064Y1361D01*
X1088Y1361D01*
G37*
D02*
G36*
X1088Y1361D02*
X1088Y1359D01*
X2064Y1359D01*
X2064Y1361D01*
X1088Y1361D01*
G37*
D02*
G36*
X1088Y1361D02*
X1088Y1359D01*
X2064Y1359D01*
X2064Y1361D01*
X1088Y1361D01*
G37*
D02*
G36*
X1088Y1359D02*
X1088Y1249D01*
X1090Y1249D01*
X1090Y1247D01*
X1092Y1247D01*
X1092Y1245D01*
X1094Y1245D01*
X1094Y1241D01*
X1096Y1241D01*
X1096Y1237D01*
X1098Y1237D01*
X1098Y1217D01*
X1096Y1217D01*
X1096Y1213D01*
X1094Y1213D01*
X1094Y1209D01*
X1092Y1209D01*
X1092Y1207D01*
X1198Y1207D01*
X1198Y1205D01*
X1206Y1205D01*
X1206Y1203D01*
X1210Y1203D01*
X1210Y1201D01*
X1214Y1201D01*
X1214Y1199D01*
X1216Y1199D01*
X1216Y1197D01*
X1218Y1197D01*
X1218Y1195D01*
X1220Y1195D01*
X1220Y1191D01*
X1222Y1191D01*
X1222Y1187D01*
X1224Y1187D01*
X1224Y1167D01*
X1222Y1167D01*
X1222Y1163D01*
X1220Y1163D01*
X1220Y1159D01*
X1218Y1159D01*
X1218Y1157D01*
X1216Y1157D01*
X1216Y1155D01*
X1214Y1155D01*
X1214Y1153D01*
X1212Y1153D01*
X1212Y1151D01*
X1208Y1151D01*
X1208Y1149D01*
X1202Y1149D01*
X1202Y1147D01*
X2058Y1147D01*
X2058Y1149D01*
X2060Y1149D01*
X2060Y1151D01*
X2062Y1151D01*
X2062Y1153D01*
X2064Y1153D01*
X2064Y1155D01*
X2066Y1155D01*
X2066Y1157D01*
X2068Y1157D01*
X2068Y1159D01*
X2070Y1159D01*
X2070Y1161D01*
X2072Y1161D01*
X2072Y1181D01*
X2070Y1181D01*
X2070Y1183D01*
X2068Y1183D01*
X2068Y1185D01*
X2066Y1185D01*
X2066Y1187D01*
X2064Y1187D01*
X2064Y1189D01*
X2062Y1189D01*
X2062Y1191D01*
X2060Y1191D01*
X2060Y1193D01*
X2058Y1193D01*
X2058Y1197D01*
X2056Y1197D01*
X2056Y1201D01*
X2054Y1201D01*
X2054Y1205D01*
X2052Y1205D01*
X2052Y1213D01*
X2050Y1213D01*
X2050Y1229D01*
X2052Y1229D01*
X2052Y1237D01*
X2054Y1237D01*
X2054Y1241D01*
X2056Y1241D01*
X2056Y1245D01*
X2058Y1245D01*
X2058Y1249D01*
X2060Y1249D01*
X2060Y1251D01*
X2062Y1251D01*
X2062Y1253D01*
X2064Y1253D01*
X2064Y1255D01*
X2066Y1255D01*
X2066Y1257D01*
X2068Y1257D01*
X2068Y1259D01*
X2070Y1259D01*
X2070Y1261D01*
X2072Y1261D01*
X2072Y1281D01*
X2070Y1281D01*
X2070Y1283D01*
X2068Y1283D01*
X2068Y1285D01*
X2066Y1285D01*
X2066Y1287D01*
X2064Y1287D01*
X2064Y1289D01*
X2062Y1289D01*
X2062Y1291D01*
X2060Y1291D01*
X2060Y1293D01*
X2058Y1293D01*
X2058Y1297D01*
X2056Y1297D01*
X2056Y1301D01*
X2054Y1301D01*
X2054Y1305D01*
X2052Y1305D01*
X2052Y1313D01*
X2050Y1313D01*
X2050Y1329D01*
X2052Y1329D01*
X2052Y1337D01*
X2054Y1337D01*
X2054Y1341D01*
X2056Y1341D01*
X2056Y1345D01*
X2058Y1345D01*
X2058Y1349D01*
X2060Y1349D01*
X2060Y1351D01*
X2062Y1351D01*
X2062Y1353D01*
X2064Y1353D01*
X2064Y1359D01*
X1088Y1359D01*
G37*
D02*
G36*
X1090Y1207D02*
X1090Y1205D01*
X1088Y1205D01*
X1088Y1203D01*
X1086Y1203D01*
X1086Y1201D01*
X1082Y1201D01*
X1082Y1199D01*
X1076Y1199D01*
X1076Y1197D01*
X1048Y1197D01*
X1048Y1147D01*
X1188Y1147D01*
X1188Y1149D01*
X1182Y1149D01*
X1182Y1151D01*
X1178Y1151D01*
X1178Y1153D01*
X1176Y1153D01*
X1176Y1155D01*
X1174Y1155D01*
X1174Y1157D01*
X1172Y1157D01*
X1172Y1159D01*
X1170Y1159D01*
X1170Y1163D01*
X1168Y1163D01*
X1168Y1167D01*
X1166Y1167D01*
X1166Y1185D01*
X1168Y1185D01*
X1168Y1191D01*
X1170Y1191D01*
X1170Y1193D01*
X1172Y1193D01*
X1172Y1197D01*
X1174Y1197D01*
X1174Y1199D01*
X1178Y1199D01*
X1178Y1201D01*
X1180Y1201D01*
X1180Y1203D01*
X1184Y1203D01*
X1184Y1205D01*
X1192Y1205D01*
X1192Y1207D01*
X1090Y1207D01*
G37*
D02*
G36*
X144Y1203D02*
X144Y1199D01*
X142Y1199D01*
X142Y1195D01*
X140Y1195D01*
X140Y1193D01*
X138Y1193D01*
X138Y1191D01*
X136Y1191D01*
X136Y1189D01*
X306Y1189D01*
X306Y1191D01*
X300Y1191D01*
X300Y1193D01*
X298Y1193D01*
X298Y1195D01*
X296Y1195D01*
X296Y1197D01*
X292Y1197D01*
X292Y1201D01*
X180Y1201D01*
X180Y1203D01*
X144Y1203D01*
G37*
D02*
G36*
X338Y1201D02*
X338Y1199D01*
X336Y1199D01*
X336Y1197D01*
X334Y1197D01*
X334Y1195D01*
X332Y1195D01*
X332Y1193D01*
X328Y1193D01*
X328Y1191D01*
X324Y1191D01*
X324Y1189D01*
X394Y1189D01*
X394Y1201D01*
X338Y1201D01*
G37*
D02*
G36*
X136Y1189D02*
X136Y1187D01*
X394Y1187D01*
X394Y1189D01*
X136Y1189D01*
G37*
D02*
G36*
X136Y1189D02*
X136Y1187D01*
X394Y1187D01*
X394Y1189D01*
X136Y1189D01*
G37*
D02*
G36*
X134Y1187D02*
X134Y1185D01*
X130Y1185D01*
X130Y1183D01*
X128Y1183D01*
X128Y1181D01*
X126Y1181D01*
X126Y1161D01*
X128Y1161D01*
X128Y1159D01*
X132Y1159D01*
X132Y1157D01*
X134Y1157D01*
X134Y1155D01*
X136Y1155D01*
X136Y1153D01*
X138Y1153D01*
X138Y1149D01*
X140Y1149D01*
X140Y1147D01*
X142Y1147D01*
X142Y1143D01*
X144Y1143D01*
X144Y1139D01*
X234Y1139D01*
X234Y1137D01*
X238Y1137D01*
X238Y1135D01*
X240Y1135D01*
X240Y1133D01*
X242Y1133D01*
X242Y1131D01*
X244Y1131D01*
X244Y1127D01*
X246Y1127D01*
X246Y1099D01*
X402Y1099D01*
X402Y1101D01*
X398Y1101D01*
X398Y1103D01*
X394Y1103D01*
X394Y1105D01*
X392Y1105D01*
X392Y1107D01*
X390Y1107D01*
X390Y1109D01*
X388Y1109D01*
X388Y1113D01*
X386Y1113D01*
X386Y1115D01*
X384Y1115D01*
X384Y1123D01*
X382Y1123D01*
X382Y1133D01*
X384Y1133D01*
X384Y1139D01*
X386Y1139D01*
X386Y1143D01*
X388Y1143D01*
X388Y1145D01*
X390Y1145D01*
X390Y1149D01*
X392Y1149D01*
X392Y1151D01*
X394Y1151D01*
X394Y1187D01*
X134Y1187D01*
G37*
D02*
G36*
X1048Y1147D02*
X1048Y1145D01*
X2058Y1145D01*
X2058Y1147D01*
X1048Y1147D01*
G37*
D02*
G36*
X1048Y1147D02*
X1048Y1145D01*
X2058Y1145D01*
X2058Y1147D01*
X1048Y1147D01*
G37*
D02*
G36*
X1048Y1145D02*
X1048Y1063D01*
X1046Y1063D01*
X1046Y1059D01*
X1044Y1059D01*
X1044Y1057D01*
X1042Y1057D01*
X1042Y1055D01*
X1040Y1055D01*
X1040Y1053D01*
X1036Y1053D01*
X1036Y1051D01*
X972Y1051D01*
X972Y909D01*
X1160Y909D01*
X1160Y907D01*
X1164Y907D01*
X1164Y905D01*
X1168Y905D01*
X1168Y903D01*
X1170Y903D01*
X1170Y901D01*
X1172Y901D01*
X1172Y899D01*
X1174Y899D01*
X1174Y895D01*
X1176Y895D01*
X1176Y893D01*
X1178Y893D01*
X1178Y885D01*
X1180Y885D01*
X1180Y875D01*
X1178Y875D01*
X1178Y869D01*
X1176Y869D01*
X1176Y865D01*
X1174Y865D01*
X1174Y861D01*
X1172Y861D01*
X1172Y859D01*
X1170Y859D01*
X1170Y857D01*
X1166Y857D01*
X1166Y855D01*
X1164Y855D01*
X1164Y853D01*
X1158Y853D01*
X1158Y851D01*
X2062Y851D01*
X2062Y853D01*
X2064Y853D01*
X2064Y855D01*
X2066Y855D01*
X2066Y857D01*
X2068Y857D01*
X2068Y859D01*
X2070Y859D01*
X2070Y861D01*
X2072Y861D01*
X2072Y881D01*
X2070Y881D01*
X2070Y883D01*
X2068Y883D01*
X2068Y885D01*
X2066Y885D01*
X2066Y887D01*
X2064Y887D01*
X2064Y889D01*
X2062Y889D01*
X2062Y891D01*
X2060Y891D01*
X2060Y893D01*
X2058Y893D01*
X2058Y897D01*
X2056Y897D01*
X2056Y901D01*
X2054Y901D01*
X2054Y905D01*
X2052Y905D01*
X2052Y913D01*
X2050Y913D01*
X2050Y929D01*
X2052Y929D01*
X2052Y937D01*
X2054Y937D01*
X2054Y941D01*
X2056Y941D01*
X2056Y945D01*
X2058Y945D01*
X2058Y949D01*
X2060Y949D01*
X2060Y951D01*
X2062Y951D01*
X2062Y953D01*
X2064Y953D01*
X2064Y955D01*
X2066Y955D01*
X2066Y957D01*
X2068Y957D01*
X2068Y959D01*
X2070Y959D01*
X2070Y961D01*
X2072Y961D01*
X2072Y981D01*
X2070Y981D01*
X2070Y983D01*
X2068Y983D01*
X2068Y985D01*
X2066Y985D01*
X2066Y987D01*
X2064Y987D01*
X2064Y989D01*
X2062Y989D01*
X2062Y991D01*
X2060Y991D01*
X2060Y993D01*
X2058Y993D01*
X2058Y997D01*
X2056Y997D01*
X2056Y1001D01*
X2054Y1001D01*
X2054Y1005D01*
X2052Y1005D01*
X2052Y1013D01*
X2050Y1013D01*
X2050Y1029D01*
X2052Y1029D01*
X2052Y1037D01*
X2054Y1037D01*
X2054Y1041D01*
X2056Y1041D01*
X2056Y1045D01*
X2058Y1045D01*
X2058Y1049D01*
X2060Y1049D01*
X2060Y1051D01*
X2062Y1051D01*
X2062Y1053D01*
X2064Y1053D01*
X2064Y1055D01*
X2066Y1055D01*
X2066Y1057D01*
X2068Y1057D01*
X2068Y1059D01*
X2070Y1059D01*
X2070Y1061D01*
X2072Y1061D01*
X2072Y1081D01*
X2070Y1081D01*
X2070Y1083D01*
X2068Y1083D01*
X2068Y1085D01*
X2066Y1085D01*
X2066Y1087D01*
X2064Y1087D01*
X2064Y1089D01*
X2062Y1089D01*
X2062Y1091D01*
X2060Y1091D01*
X2060Y1093D01*
X2058Y1093D01*
X2058Y1097D01*
X2056Y1097D01*
X2056Y1101D01*
X2054Y1101D01*
X2054Y1105D01*
X2052Y1105D01*
X2052Y1113D01*
X2050Y1113D01*
X2050Y1129D01*
X2052Y1129D01*
X2052Y1137D01*
X2054Y1137D01*
X2054Y1141D01*
X2056Y1141D01*
X2056Y1145D01*
X1048Y1145D01*
G37*
D02*
G36*
X458Y1111D02*
X458Y1109D01*
X434Y1109D01*
X434Y1107D01*
X432Y1107D01*
X432Y1105D01*
X430Y1105D01*
X430Y1103D01*
X426Y1103D01*
X426Y1101D01*
X422Y1101D01*
X422Y1099D01*
X522Y1099D01*
X522Y1111D01*
X458Y1111D01*
G37*
D02*
G36*
X558Y1111D02*
X558Y883D01*
X560Y883D01*
X560Y881D01*
X562Y881D01*
X562Y879D01*
X564Y879D01*
X564Y877D01*
X566Y877D01*
X566Y873D01*
X568Y873D01*
X568Y867D01*
X570Y867D01*
X570Y855D01*
X568Y855D01*
X568Y849D01*
X566Y849D01*
X566Y845D01*
X564Y845D01*
X564Y841D01*
X562Y841D01*
X562Y839D01*
X560Y839D01*
X560Y837D01*
X556Y837D01*
X556Y835D01*
X554Y835D01*
X554Y833D01*
X548Y833D01*
X548Y831D01*
X936Y831D01*
X936Y1077D01*
X938Y1077D01*
X938Y1079D01*
X940Y1079D01*
X940Y1083D01*
X944Y1083D01*
X944Y1085D01*
X948Y1085D01*
X948Y1087D01*
X958Y1087D01*
X958Y1107D01*
X956Y1107D01*
X956Y1109D01*
X954Y1109D01*
X954Y1111D01*
X558Y1111D01*
G37*
D02*
G36*
X246Y1099D02*
X246Y1097D01*
X522Y1097D01*
X522Y1099D01*
X246Y1099D01*
G37*
D02*
G36*
X246Y1099D02*
X246Y1097D01*
X522Y1097D01*
X522Y1099D01*
X246Y1099D01*
G37*
D02*
G36*
X246Y1097D02*
X246Y831D01*
X532Y831D01*
X532Y833D01*
X526Y833D01*
X526Y835D01*
X524Y835D01*
X524Y837D01*
X520Y837D01*
X520Y839D01*
X518Y839D01*
X518Y841D01*
X516Y841D01*
X516Y845D01*
X514Y845D01*
X514Y849D01*
X512Y849D01*
X512Y855D01*
X510Y855D01*
X510Y865D01*
X512Y865D01*
X512Y873D01*
X514Y873D01*
X514Y877D01*
X516Y877D01*
X516Y879D01*
X518Y879D01*
X518Y881D01*
X520Y881D01*
X520Y883D01*
X522Y883D01*
X522Y1097D01*
X246Y1097D01*
G37*
D02*
G36*
X972Y909D02*
X972Y851D01*
X1142Y851D01*
X1142Y853D01*
X1136Y853D01*
X1136Y855D01*
X1132Y855D01*
X1132Y857D01*
X1130Y857D01*
X1130Y859D01*
X1128Y859D01*
X1128Y861D01*
X1126Y861D01*
X1126Y865D01*
X1124Y865D01*
X1124Y867D01*
X1122Y867D01*
X1122Y873D01*
X1120Y873D01*
X1120Y887D01*
X1122Y887D01*
X1122Y893D01*
X1124Y893D01*
X1124Y897D01*
X1126Y897D01*
X1126Y899D01*
X1128Y899D01*
X1128Y901D01*
X1130Y901D01*
X1130Y903D01*
X1132Y903D01*
X1132Y905D01*
X1136Y905D01*
X1136Y907D01*
X1140Y907D01*
X1140Y909D01*
X972Y909D01*
G37*
D02*
G36*
X134Y887D02*
X134Y885D01*
X130Y885D01*
X130Y883D01*
X128Y883D01*
X128Y881D01*
X126Y881D01*
X126Y879D01*
X122Y879D01*
X122Y877D01*
X118Y877D01*
X118Y875D01*
X112Y875D01*
X112Y873D01*
X154Y873D01*
X154Y887D01*
X134Y887D01*
G37*
D02*
G36*
X52Y881D02*
X52Y873D01*
X86Y873D01*
X86Y875D01*
X80Y875D01*
X80Y877D01*
X76Y877D01*
X76Y879D01*
X72Y879D01*
X72Y881D01*
X52Y881D01*
G37*
D02*
G36*
X52Y873D02*
X52Y871D01*
X154Y871D01*
X154Y873D01*
X52Y873D01*
G37*
D02*
G36*
X52Y873D02*
X52Y871D01*
X154Y871D01*
X154Y873D01*
X52Y873D01*
G37*
D02*
G36*
X52Y871D02*
X52Y225D01*
X1424Y225D01*
X1424Y227D01*
X1420Y227D01*
X1420Y229D01*
X1416Y229D01*
X1416Y231D01*
X1414Y231D01*
X1414Y233D01*
X1412Y233D01*
X1412Y235D01*
X1410Y235D01*
X1410Y237D01*
X166Y237D01*
X166Y239D01*
X162Y239D01*
X162Y241D01*
X160Y241D01*
X160Y243D01*
X158Y243D01*
X158Y245D01*
X156Y245D01*
X156Y251D01*
X154Y251D01*
X154Y871D01*
X52Y871D01*
G37*
D02*
G36*
X972Y851D02*
X972Y849D01*
X2060Y849D01*
X2060Y851D01*
X972Y851D01*
G37*
D02*
G36*
X972Y851D02*
X972Y849D01*
X2060Y849D01*
X2060Y851D01*
X972Y851D01*
G37*
D02*
G36*
X972Y849D02*
X972Y673D01*
X2086Y673D01*
X2086Y675D01*
X2080Y675D01*
X2080Y677D01*
X2076Y677D01*
X2076Y679D01*
X2072Y679D01*
X2072Y681D01*
X2070Y681D01*
X2070Y683D01*
X2068Y683D01*
X2068Y685D01*
X2066Y685D01*
X2066Y687D01*
X2064Y687D01*
X2064Y689D01*
X2062Y689D01*
X2062Y691D01*
X2060Y691D01*
X2060Y693D01*
X2058Y693D01*
X2058Y697D01*
X2056Y697D01*
X2056Y701D01*
X2054Y701D01*
X2054Y705D01*
X2052Y705D01*
X2052Y713D01*
X2050Y713D01*
X2050Y729D01*
X2052Y729D01*
X2052Y737D01*
X2054Y737D01*
X2054Y741D01*
X2056Y741D01*
X2056Y745D01*
X2058Y745D01*
X2058Y749D01*
X2060Y749D01*
X2060Y751D01*
X2062Y751D01*
X2062Y753D01*
X2064Y753D01*
X2064Y755D01*
X2066Y755D01*
X2066Y757D01*
X2068Y757D01*
X2068Y759D01*
X2070Y759D01*
X2070Y761D01*
X2072Y761D01*
X2072Y781D01*
X2070Y781D01*
X2070Y783D01*
X2068Y783D01*
X2068Y785D01*
X2066Y785D01*
X2066Y787D01*
X2064Y787D01*
X2064Y789D01*
X2062Y789D01*
X2062Y791D01*
X2060Y791D01*
X2060Y793D01*
X2058Y793D01*
X2058Y797D01*
X2056Y797D01*
X2056Y801D01*
X2054Y801D01*
X2054Y805D01*
X2052Y805D01*
X2052Y813D01*
X2050Y813D01*
X2050Y829D01*
X2052Y829D01*
X2052Y837D01*
X2054Y837D01*
X2054Y841D01*
X2056Y841D01*
X2056Y845D01*
X2058Y845D01*
X2058Y849D01*
X972Y849D01*
G37*
D02*
G36*
X246Y831D02*
X246Y829D01*
X936Y829D01*
X936Y831D01*
X246Y831D01*
G37*
D02*
G36*
X246Y831D02*
X246Y829D01*
X936Y829D01*
X936Y831D01*
X246Y831D01*
G37*
D02*
G36*
X246Y829D02*
X246Y367D01*
X742Y367D01*
X742Y369D01*
X736Y369D01*
X736Y371D01*
X732Y371D01*
X732Y373D01*
X728Y373D01*
X728Y375D01*
X724Y375D01*
X724Y377D01*
X722Y377D01*
X722Y379D01*
X720Y379D01*
X720Y381D01*
X718Y381D01*
X718Y383D01*
X716Y383D01*
X716Y385D01*
X714Y385D01*
X714Y387D01*
X712Y387D01*
X712Y391D01*
X710Y391D01*
X710Y395D01*
X708Y395D01*
X708Y399D01*
X706Y399D01*
X706Y407D01*
X704Y407D01*
X704Y425D01*
X706Y425D01*
X706Y431D01*
X708Y431D01*
X708Y437D01*
X710Y437D01*
X710Y441D01*
X712Y441D01*
X712Y443D01*
X714Y443D01*
X714Y447D01*
X716Y447D01*
X716Y449D01*
X718Y449D01*
X718Y451D01*
X720Y451D01*
X720Y453D01*
X724Y453D01*
X724Y455D01*
X726Y455D01*
X726Y457D01*
X730Y457D01*
X730Y459D01*
X732Y459D01*
X732Y461D01*
X736Y461D01*
X736Y573D01*
X738Y573D01*
X738Y575D01*
X740Y575D01*
X740Y577D01*
X742Y577D01*
X742Y579D01*
X746Y579D01*
X746Y581D01*
X888Y581D01*
X888Y585D01*
X890Y585D01*
X890Y587D01*
X894Y587D01*
X894Y589D01*
X896Y589D01*
X896Y591D01*
X902Y591D01*
X902Y593D01*
X936Y593D01*
X936Y829D01*
X246Y829D01*
G37*
D02*
G36*
X972Y673D02*
X972Y671D01*
X2236Y671D01*
X2236Y673D01*
X972Y673D01*
G37*
D02*
G36*
X972Y673D02*
X972Y671D01*
X2236Y671D01*
X2236Y673D01*
X972Y673D01*
G37*
D02*
G36*
X972Y671D02*
X972Y645D01*
X1620Y645D01*
X1620Y643D01*
X1624Y643D01*
X1624Y641D01*
X1628Y641D01*
X1628Y639D01*
X1630Y639D01*
X1630Y637D01*
X1632Y637D01*
X1632Y635D01*
X1634Y635D01*
X1634Y633D01*
X1636Y633D01*
X1636Y629D01*
X1638Y629D01*
X1638Y623D01*
X1640Y623D01*
X1640Y609D01*
X1638Y609D01*
X1638Y603D01*
X1636Y603D01*
X1636Y601D01*
X1634Y601D01*
X1634Y597D01*
X1632Y597D01*
X1632Y595D01*
X1630Y595D01*
X1630Y593D01*
X1628Y593D01*
X1628Y591D01*
X1624Y591D01*
X1624Y589D01*
X1618Y589D01*
X1618Y587D01*
X2236Y587D01*
X2236Y671D01*
X972Y671D01*
G37*
D02*
G36*
X972Y645D02*
X972Y587D01*
X1602Y587D01*
X1602Y589D01*
X1596Y589D01*
X1596Y591D01*
X1594Y591D01*
X1594Y593D01*
X1590Y593D01*
X1590Y595D01*
X1588Y595D01*
X1588Y599D01*
X1586Y599D01*
X1586Y601D01*
X1584Y601D01*
X1584Y605D01*
X1582Y605D01*
X1582Y613D01*
X1580Y613D01*
X1580Y619D01*
X1582Y619D01*
X1582Y627D01*
X1584Y627D01*
X1584Y631D01*
X1586Y631D01*
X1586Y635D01*
X1588Y635D01*
X1588Y637D01*
X1590Y637D01*
X1590Y639D01*
X1592Y639D01*
X1592Y641D01*
X1596Y641D01*
X1596Y643D01*
X1600Y643D01*
X1600Y645D01*
X972Y645D01*
G37*
D02*
G36*
X972Y587D02*
X972Y585D01*
X2236Y585D01*
X2236Y587D01*
X972Y587D01*
G37*
D02*
G36*
X972Y587D02*
X972Y585D01*
X2236Y585D01*
X2236Y587D01*
X972Y587D01*
G37*
D02*
G36*
X972Y585D02*
X972Y579D01*
X1158Y579D01*
X1158Y577D01*
X1164Y577D01*
X1164Y575D01*
X1168Y575D01*
X1168Y573D01*
X1170Y573D01*
X1170Y571D01*
X1172Y571D01*
X1172Y569D01*
X1174Y569D01*
X1174Y567D01*
X1176Y567D01*
X1176Y563D01*
X1178Y563D01*
X1178Y557D01*
X1180Y557D01*
X1180Y541D01*
X1178Y541D01*
X1178Y537D01*
X1176Y537D01*
X1176Y533D01*
X1174Y533D01*
X1174Y531D01*
X1172Y531D01*
X1172Y529D01*
X1170Y529D01*
X1170Y527D01*
X1168Y527D01*
X1168Y525D01*
X1166Y525D01*
X1166Y523D01*
X1162Y523D01*
X1162Y521D01*
X2236Y521D01*
X2236Y585D01*
X972Y585D01*
G37*
D02*
G36*
X972Y579D02*
X972Y521D01*
X1140Y521D01*
X1140Y523D01*
X1136Y523D01*
X1136Y525D01*
X1132Y525D01*
X1132Y527D01*
X1130Y527D01*
X1130Y529D01*
X1128Y529D01*
X1128Y531D01*
X1126Y531D01*
X1126Y535D01*
X1124Y535D01*
X1124Y539D01*
X1122Y539D01*
X1122Y549D01*
X1120Y549D01*
X1120Y551D01*
X1122Y551D01*
X1122Y561D01*
X1124Y561D01*
X1124Y565D01*
X1126Y565D01*
X1126Y567D01*
X1128Y567D01*
X1128Y569D01*
X1130Y569D01*
X1130Y571D01*
X1132Y571D01*
X1132Y573D01*
X1134Y573D01*
X1134Y575D01*
X1138Y575D01*
X1138Y577D01*
X1142Y577D01*
X1142Y579D01*
X972Y579D01*
G37*
D02*
G36*
X972Y521D02*
X972Y519D01*
X2236Y519D01*
X2236Y521D01*
X972Y521D01*
G37*
D02*
G36*
X972Y521D02*
X972Y519D01*
X2236Y519D01*
X2236Y521D01*
X972Y521D01*
G37*
D02*
G36*
X972Y519D02*
X972Y465D01*
X1302Y465D01*
X1302Y369D01*
X2236Y369D01*
X2236Y519D01*
X972Y519D01*
G37*
D02*
G36*
X972Y465D02*
X972Y461D01*
X974Y461D01*
X974Y459D01*
X976Y459D01*
X976Y457D01*
X980Y457D01*
X980Y455D01*
X982Y455D01*
X982Y453D01*
X986Y453D01*
X986Y451D01*
X988Y451D01*
X988Y449D01*
X990Y449D01*
X990Y447D01*
X992Y447D01*
X992Y443D01*
X1014Y443D01*
X1014Y447D01*
X1016Y447D01*
X1016Y449D01*
X1018Y449D01*
X1018Y451D01*
X1020Y451D01*
X1020Y453D01*
X1024Y453D01*
X1024Y455D01*
X1026Y455D01*
X1026Y457D01*
X1030Y457D01*
X1030Y459D01*
X1032Y459D01*
X1032Y461D01*
X1038Y461D01*
X1038Y463D01*
X1046Y463D01*
X1046Y465D01*
X972Y465D01*
G37*
D02*
G36*
X1060Y465D02*
X1060Y463D01*
X1068Y463D01*
X1068Y461D01*
X1074Y461D01*
X1074Y459D01*
X1076Y459D01*
X1076Y457D01*
X1080Y457D01*
X1080Y455D01*
X1082Y455D01*
X1082Y453D01*
X1086Y453D01*
X1086Y451D01*
X1088Y451D01*
X1088Y449D01*
X1090Y449D01*
X1090Y447D01*
X1092Y447D01*
X1092Y443D01*
X1114Y443D01*
X1114Y447D01*
X1116Y447D01*
X1116Y449D01*
X1118Y449D01*
X1118Y451D01*
X1120Y451D01*
X1120Y453D01*
X1124Y453D01*
X1124Y455D01*
X1126Y455D01*
X1126Y457D01*
X1130Y457D01*
X1130Y459D01*
X1132Y459D01*
X1132Y461D01*
X1138Y461D01*
X1138Y463D01*
X1146Y463D01*
X1146Y465D01*
X1060Y465D01*
G37*
D02*
G36*
X1160Y465D02*
X1160Y463D01*
X1168Y463D01*
X1168Y461D01*
X1174Y461D01*
X1174Y459D01*
X1176Y459D01*
X1176Y457D01*
X1180Y457D01*
X1180Y455D01*
X1182Y455D01*
X1182Y453D01*
X1204Y453D01*
X1204Y465D01*
X1160Y465D01*
G37*
D02*
G36*
X792Y387D02*
X792Y385D01*
X790Y385D01*
X790Y383D01*
X788Y383D01*
X788Y381D01*
X786Y381D01*
X786Y379D01*
X784Y379D01*
X784Y377D01*
X782Y377D01*
X782Y375D01*
X778Y375D01*
X778Y373D01*
X774Y373D01*
X774Y371D01*
X770Y371D01*
X770Y369D01*
X764Y369D01*
X764Y367D01*
X842Y367D01*
X842Y369D01*
X836Y369D01*
X836Y371D01*
X832Y371D01*
X832Y373D01*
X828Y373D01*
X828Y375D01*
X824Y375D01*
X824Y377D01*
X822Y377D01*
X822Y379D01*
X820Y379D01*
X820Y381D01*
X818Y381D01*
X818Y383D01*
X816Y383D01*
X816Y385D01*
X814Y385D01*
X814Y387D01*
X792Y387D01*
G37*
D02*
G36*
X892Y387D02*
X892Y385D01*
X890Y385D01*
X890Y383D01*
X888Y383D01*
X888Y381D01*
X886Y381D01*
X886Y379D01*
X884Y379D01*
X884Y377D01*
X882Y377D01*
X882Y375D01*
X878Y375D01*
X878Y373D01*
X874Y373D01*
X874Y371D01*
X870Y371D01*
X870Y369D01*
X864Y369D01*
X864Y367D01*
X942Y367D01*
X942Y369D01*
X936Y369D01*
X936Y371D01*
X932Y371D01*
X932Y373D01*
X928Y373D01*
X928Y375D01*
X924Y375D01*
X924Y377D01*
X922Y377D01*
X922Y379D01*
X920Y379D01*
X920Y381D01*
X918Y381D01*
X918Y383D01*
X916Y383D01*
X916Y385D01*
X914Y385D01*
X914Y387D01*
X892Y387D01*
G37*
D02*
G36*
X992Y387D02*
X992Y385D01*
X990Y385D01*
X990Y383D01*
X988Y383D01*
X988Y381D01*
X986Y381D01*
X986Y379D01*
X984Y379D01*
X984Y377D01*
X982Y377D01*
X982Y375D01*
X978Y375D01*
X978Y373D01*
X974Y373D01*
X974Y371D01*
X970Y371D01*
X970Y369D01*
X964Y369D01*
X964Y367D01*
X1042Y367D01*
X1042Y369D01*
X1036Y369D01*
X1036Y371D01*
X1032Y371D01*
X1032Y373D01*
X1028Y373D01*
X1028Y375D01*
X1024Y375D01*
X1024Y377D01*
X1022Y377D01*
X1022Y379D01*
X1020Y379D01*
X1020Y381D01*
X1018Y381D01*
X1018Y383D01*
X1016Y383D01*
X1016Y385D01*
X1014Y385D01*
X1014Y387D01*
X992Y387D01*
G37*
D02*
G36*
X1092Y387D02*
X1092Y385D01*
X1090Y385D01*
X1090Y383D01*
X1088Y383D01*
X1088Y381D01*
X1086Y381D01*
X1086Y379D01*
X1084Y379D01*
X1084Y377D01*
X1082Y377D01*
X1082Y375D01*
X1078Y375D01*
X1078Y373D01*
X1074Y373D01*
X1074Y371D01*
X1070Y371D01*
X1070Y369D01*
X1064Y369D01*
X1064Y367D01*
X1142Y367D01*
X1142Y369D01*
X1136Y369D01*
X1136Y371D01*
X1132Y371D01*
X1132Y373D01*
X1128Y373D01*
X1128Y375D01*
X1124Y375D01*
X1124Y377D01*
X1122Y377D01*
X1122Y379D01*
X1120Y379D01*
X1120Y381D01*
X1118Y381D01*
X1118Y383D01*
X1116Y383D01*
X1116Y385D01*
X1114Y385D01*
X1114Y387D01*
X1092Y387D01*
G37*
D02*
G36*
X1184Y379D02*
X1184Y377D01*
X1182Y377D01*
X1182Y375D01*
X1178Y375D01*
X1178Y373D01*
X1174Y373D01*
X1174Y371D01*
X1170Y371D01*
X1170Y369D01*
X1164Y369D01*
X1164Y367D01*
X1204Y367D01*
X1204Y379D01*
X1184Y379D01*
G37*
D02*
G36*
X1302Y369D02*
X1302Y367D01*
X2664Y367D01*
X2664Y369D01*
X1302Y369D01*
G37*
D02*
G36*
X1302Y369D02*
X1302Y367D01*
X2664Y367D01*
X2664Y369D01*
X1302Y369D01*
G37*
D02*
G36*
X246Y367D02*
X246Y365D01*
X2664Y365D01*
X2664Y367D01*
X246Y367D01*
G37*
D02*
G36*
X246Y367D02*
X246Y365D01*
X2664Y365D01*
X2664Y367D01*
X246Y367D01*
G37*
D02*
G36*
X246Y367D02*
X246Y365D01*
X2664Y365D01*
X2664Y367D01*
X246Y367D01*
G37*
D02*
G36*
X246Y367D02*
X246Y365D01*
X2664Y365D01*
X2664Y367D01*
X246Y367D01*
G37*
D02*
G36*
X246Y367D02*
X246Y365D01*
X2664Y365D01*
X2664Y367D01*
X246Y367D01*
G37*
D02*
G36*
X246Y367D02*
X246Y365D01*
X2664Y365D01*
X2664Y367D01*
X246Y367D01*
G37*
D02*
G36*
X246Y367D02*
X246Y365D01*
X2664Y365D01*
X2664Y367D01*
X246Y367D01*
G37*
D02*
G36*
X246Y365D02*
X246Y357D01*
X1440Y357D01*
X1440Y355D01*
X1444Y355D01*
X1444Y353D01*
X1448Y353D01*
X1448Y351D01*
X1450Y351D01*
X1450Y349D01*
X1452Y349D01*
X1452Y347D01*
X1454Y347D01*
X1454Y345D01*
X1456Y345D01*
X1456Y341D01*
X1458Y341D01*
X1458Y335D01*
X1460Y335D01*
X1460Y321D01*
X1458Y321D01*
X1458Y315D01*
X1456Y315D01*
X1456Y311D01*
X2330Y311D01*
X2330Y309D01*
X2336Y309D01*
X2336Y307D01*
X2340Y307D01*
X2340Y305D01*
X2342Y305D01*
X2342Y303D01*
X2344Y303D01*
X2344Y301D01*
X2346Y301D01*
X2346Y299D01*
X2518Y299D01*
X2518Y297D01*
X2520Y297D01*
X2520Y295D01*
X2524Y295D01*
X2524Y291D01*
X2526Y291D01*
X2526Y287D01*
X2528Y287D01*
X2528Y143D01*
X2530Y143D01*
X2530Y141D01*
X2534Y141D01*
X2534Y139D01*
X2536Y139D01*
X2536Y137D01*
X2538Y137D01*
X2538Y135D01*
X2540Y135D01*
X2540Y133D01*
X2542Y133D01*
X2542Y131D01*
X2544Y131D01*
X2544Y129D01*
X2564Y129D01*
X2564Y147D01*
X2566Y147D01*
X2566Y149D01*
X2568Y149D01*
X2568Y151D01*
X2570Y151D01*
X2570Y153D01*
X2572Y153D01*
X2572Y155D01*
X2574Y155D01*
X2574Y157D01*
X2576Y157D01*
X2576Y159D01*
X2578Y159D01*
X2578Y161D01*
X2580Y161D01*
X2580Y163D01*
X2582Y163D01*
X2582Y165D01*
X2584Y165D01*
X2584Y167D01*
X2586Y167D01*
X2586Y169D01*
X2588Y169D01*
X2588Y171D01*
X2590Y171D01*
X2590Y173D01*
X2592Y173D01*
X2592Y175D01*
X2594Y175D01*
X2594Y177D01*
X2596Y177D01*
X2596Y179D01*
X2598Y179D01*
X2598Y181D01*
X2600Y181D01*
X2600Y183D01*
X2602Y183D01*
X2602Y185D01*
X2604Y185D01*
X2604Y187D01*
X2606Y187D01*
X2606Y189D01*
X2608Y189D01*
X2608Y191D01*
X2610Y191D01*
X2610Y193D01*
X2612Y193D01*
X2612Y195D01*
X2614Y195D01*
X2614Y197D01*
X2616Y197D01*
X2616Y199D01*
X2618Y199D01*
X2618Y201D01*
X2620Y201D01*
X2620Y203D01*
X2622Y203D01*
X2622Y205D01*
X2624Y205D01*
X2624Y207D01*
X2626Y207D01*
X2626Y209D01*
X2628Y209D01*
X2628Y211D01*
X2630Y211D01*
X2630Y213D01*
X2632Y213D01*
X2632Y215D01*
X2634Y215D01*
X2634Y217D01*
X2636Y217D01*
X2636Y219D01*
X2638Y219D01*
X2638Y221D01*
X2640Y221D01*
X2640Y223D01*
X2642Y223D01*
X2642Y225D01*
X2644Y225D01*
X2644Y227D01*
X2646Y227D01*
X2646Y229D01*
X2648Y229D01*
X2648Y231D01*
X2650Y231D01*
X2650Y233D01*
X2652Y233D01*
X2652Y235D01*
X2654Y235D01*
X2654Y237D01*
X2656Y237D01*
X2656Y239D01*
X2658Y239D01*
X2658Y241D01*
X2660Y241D01*
X2660Y243D01*
X2662Y243D01*
X2662Y245D01*
X2664Y245D01*
X2664Y365D01*
X246Y365D01*
G37*
D02*
G36*
X246Y357D02*
X246Y345D01*
X1408Y345D01*
X1408Y349D01*
X1410Y349D01*
X1410Y351D01*
X1414Y351D01*
X1414Y353D01*
X1416Y353D01*
X1416Y355D01*
X1422Y355D01*
X1422Y357D01*
X246Y357D01*
G37*
D02*
G36*
X1454Y311D02*
X1454Y309D01*
X1452Y309D01*
X1452Y307D01*
X1450Y307D01*
X1450Y305D01*
X1448Y305D01*
X1448Y303D01*
X1444Y303D01*
X1444Y281D01*
X1448Y281D01*
X1448Y279D01*
X1450Y279D01*
X1450Y277D01*
X1452Y277D01*
X1452Y275D01*
X1454Y275D01*
X1454Y273D01*
X1456Y273D01*
X1456Y271D01*
X1458Y271D01*
X1458Y267D01*
X1460Y267D01*
X1460Y263D01*
X1462Y263D01*
X1462Y251D01*
X2320Y251D01*
X2320Y253D01*
X2312Y253D01*
X2312Y255D01*
X2308Y255D01*
X2308Y257D01*
X2306Y257D01*
X2306Y259D01*
X2302Y259D01*
X2302Y261D01*
X2300Y261D01*
X2300Y265D01*
X2298Y265D01*
X2298Y267D01*
X2296Y267D01*
X2296Y273D01*
X2294Y273D01*
X2294Y291D01*
X2296Y291D01*
X2296Y295D01*
X2298Y295D01*
X2298Y299D01*
X2300Y299D01*
X2300Y301D01*
X2302Y301D01*
X2302Y303D01*
X2304Y303D01*
X2304Y305D01*
X2306Y305D01*
X2306Y307D01*
X2310Y307D01*
X2310Y309D01*
X2316Y309D01*
X2316Y311D01*
X1454Y311D01*
G37*
D02*
G36*
X2346Y263D02*
X2346Y261D01*
X2344Y261D01*
X2344Y259D01*
X2342Y259D01*
X2342Y257D01*
X2338Y257D01*
X2338Y255D01*
X2334Y255D01*
X2334Y253D01*
X2326Y253D01*
X2326Y251D01*
X2492Y251D01*
X2492Y263D01*
X2346Y263D01*
G37*
D02*
G36*
X1462Y251D02*
X1462Y249D01*
X2492Y249D01*
X2492Y251D01*
X1462Y251D01*
G37*
D02*
G36*
X1462Y251D02*
X1462Y249D01*
X2492Y249D01*
X2492Y251D01*
X1462Y251D01*
G37*
D02*
G36*
X1462Y249D02*
X1462Y247D01*
X1460Y247D01*
X1460Y241D01*
X1458Y241D01*
X1458Y237D01*
X1456Y237D01*
X1456Y235D01*
X1454Y235D01*
X1454Y233D01*
X1452Y233D01*
X1452Y231D01*
X1450Y231D01*
X1450Y229D01*
X1446Y229D01*
X1446Y227D01*
X1440Y227D01*
X1440Y225D01*
X2492Y225D01*
X2492Y249D01*
X1462Y249D01*
G37*
D02*
G36*
X52Y225D02*
X52Y223D01*
X2492Y223D01*
X2492Y225D01*
X52Y225D01*
G37*
D02*
G36*
X52Y225D02*
X52Y223D01*
X2492Y223D01*
X2492Y225D01*
X52Y225D01*
G37*
D02*
G36*
X52Y223D02*
X52Y147D01*
X2420Y147D01*
X2420Y145D01*
X2426Y145D01*
X2426Y143D01*
X2430Y143D01*
X2430Y141D01*
X2434Y141D01*
X2434Y139D01*
X2436Y139D01*
X2436Y137D01*
X2438Y137D01*
X2438Y135D01*
X2440Y135D01*
X2440Y133D01*
X2442Y133D01*
X2442Y131D01*
X2444Y131D01*
X2444Y129D01*
X2446Y129D01*
X2446Y125D01*
X2448Y125D01*
X2448Y123D01*
X2450Y123D01*
X2450Y117D01*
X2470Y117D01*
X2470Y121D01*
X2472Y121D01*
X2472Y125D01*
X2474Y125D01*
X2474Y129D01*
X2476Y129D01*
X2476Y131D01*
X2478Y131D01*
X2478Y133D01*
X2480Y133D01*
X2480Y135D01*
X2482Y135D01*
X2482Y137D01*
X2484Y137D01*
X2484Y139D01*
X2486Y139D01*
X2486Y141D01*
X2490Y141D01*
X2490Y143D01*
X2492Y143D01*
X2492Y223D01*
X52Y223D01*
G37*
D02*
G36*
X52Y147D02*
X52Y71D01*
X54Y71D01*
X54Y67D01*
X56Y67D01*
X56Y63D01*
X58Y63D01*
X58Y61D01*
X60Y61D01*
X60Y59D01*
X62Y59D01*
X62Y57D01*
X64Y57D01*
X64Y55D01*
X66Y55D01*
X66Y53D01*
X70Y53D01*
X70Y51D01*
X74Y51D01*
X74Y49D01*
X80Y49D01*
X80Y47D01*
X1092Y47D01*
X1092Y67D01*
X1088Y67D01*
X1088Y69D01*
X1086Y69D01*
X1086Y71D01*
X1084Y71D01*
X1084Y73D01*
X1080Y73D01*
X1080Y75D01*
X1078Y75D01*
X1078Y79D01*
X1076Y79D01*
X1076Y81D01*
X1074Y81D01*
X1074Y85D01*
X1072Y85D01*
X1072Y87D01*
X1070Y87D01*
X1070Y95D01*
X1068Y95D01*
X1068Y115D01*
X1070Y115D01*
X1070Y121D01*
X1072Y121D01*
X1072Y125D01*
X1074Y125D01*
X1074Y129D01*
X1076Y129D01*
X1076Y131D01*
X1078Y131D01*
X1078Y133D01*
X1080Y133D01*
X1080Y135D01*
X1082Y135D01*
X1082Y137D01*
X1084Y137D01*
X1084Y139D01*
X1086Y139D01*
X1086Y141D01*
X1090Y141D01*
X1090Y143D01*
X1094Y143D01*
X1094Y145D01*
X1102Y145D01*
X1102Y147D01*
X52Y147D01*
G37*
D02*
G36*
X1120Y147D02*
X1120Y145D01*
X1126Y145D01*
X1126Y143D01*
X1130Y143D01*
X1130Y141D01*
X1134Y141D01*
X1134Y139D01*
X1136Y139D01*
X1136Y137D01*
X1138Y137D01*
X1138Y135D01*
X1140Y135D01*
X1140Y133D01*
X1142Y133D01*
X1142Y131D01*
X1144Y131D01*
X1144Y129D01*
X1146Y129D01*
X1146Y125D01*
X1148Y125D01*
X1148Y123D01*
X1150Y123D01*
X1150Y117D01*
X1170Y117D01*
X1170Y121D01*
X1172Y121D01*
X1172Y125D01*
X1174Y125D01*
X1174Y129D01*
X1176Y129D01*
X1176Y131D01*
X1178Y131D01*
X1178Y133D01*
X1180Y133D01*
X1180Y135D01*
X1182Y135D01*
X1182Y137D01*
X1184Y137D01*
X1184Y139D01*
X1186Y139D01*
X1186Y141D01*
X1190Y141D01*
X1190Y143D01*
X1194Y143D01*
X1194Y145D01*
X1202Y145D01*
X1202Y147D01*
X1120Y147D01*
G37*
D02*
G36*
X1220Y147D02*
X1220Y145D01*
X1226Y145D01*
X1226Y143D01*
X1230Y143D01*
X1230Y141D01*
X1234Y141D01*
X1234Y139D01*
X1236Y139D01*
X1236Y137D01*
X1238Y137D01*
X1238Y135D01*
X1240Y135D01*
X1240Y133D01*
X1242Y133D01*
X1242Y131D01*
X1244Y131D01*
X1244Y129D01*
X1246Y129D01*
X1246Y125D01*
X1248Y125D01*
X1248Y123D01*
X1250Y123D01*
X1250Y117D01*
X1270Y117D01*
X1270Y121D01*
X1272Y121D01*
X1272Y125D01*
X1274Y125D01*
X1274Y129D01*
X1276Y129D01*
X1276Y131D01*
X1278Y131D01*
X1278Y133D01*
X1280Y133D01*
X1280Y135D01*
X1282Y135D01*
X1282Y137D01*
X1284Y137D01*
X1284Y139D01*
X1286Y139D01*
X1286Y141D01*
X1290Y141D01*
X1290Y143D01*
X1294Y143D01*
X1294Y145D01*
X1302Y145D01*
X1302Y147D01*
X1220Y147D01*
G37*
D02*
G36*
X1320Y147D02*
X1320Y145D01*
X1326Y145D01*
X1326Y143D01*
X1330Y143D01*
X1330Y141D01*
X1334Y141D01*
X1334Y139D01*
X1336Y139D01*
X1336Y137D01*
X1338Y137D01*
X1338Y135D01*
X1340Y135D01*
X1340Y133D01*
X1342Y133D01*
X1342Y131D01*
X1344Y131D01*
X1344Y129D01*
X1346Y129D01*
X1346Y125D01*
X1348Y125D01*
X1348Y123D01*
X1350Y123D01*
X1350Y117D01*
X1370Y117D01*
X1370Y121D01*
X1372Y121D01*
X1372Y125D01*
X1374Y125D01*
X1374Y129D01*
X1376Y129D01*
X1376Y131D01*
X1378Y131D01*
X1378Y133D01*
X1380Y133D01*
X1380Y135D01*
X1382Y135D01*
X1382Y137D01*
X1384Y137D01*
X1384Y139D01*
X1386Y139D01*
X1386Y141D01*
X1390Y141D01*
X1390Y143D01*
X1394Y143D01*
X1394Y145D01*
X1402Y145D01*
X1402Y147D01*
X1320Y147D01*
G37*
D02*
G36*
X1420Y147D02*
X1420Y145D01*
X1426Y145D01*
X1426Y143D01*
X1430Y143D01*
X1430Y141D01*
X1434Y141D01*
X1434Y139D01*
X1436Y139D01*
X1436Y137D01*
X1438Y137D01*
X1438Y135D01*
X1440Y135D01*
X1440Y133D01*
X1442Y133D01*
X1442Y131D01*
X1444Y131D01*
X1444Y129D01*
X1446Y129D01*
X1446Y125D01*
X1448Y125D01*
X1448Y123D01*
X1450Y123D01*
X1450Y117D01*
X1470Y117D01*
X1470Y121D01*
X1472Y121D01*
X1472Y125D01*
X1474Y125D01*
X1474Y129D01*
X1476Y129D01*
X1476Y131D01*
X1478Y131D01*
X1478Y133D01*
X1480Y133D01*
X1480Y135D01*
X1482Y135D01*
X1482Y137D01*
X1484Y137D01*
X1484Y139D01*
X1486Y139D01*
X1486Y141D01*
X1490Y141D01*
X1490Y143D01*
X1494Y143D01*
X1494Y145D01*
X1502Y145D01*
X1502Y147D01*
X1420Y147D01*
G37*
D02*
G36*
X1520Y147D02*
X1520Y145D01*
X1526Y145D01*
X1526Y143D01*
X1530Y143D01*
X1530Y141D01*
X1534Y141D01*
X1534Y139D01*
X1536Y139D01*
X1536Y137D01*
X1538Y137D01*
X1538Y135D01*
X1540Y135D01*
X1540Y133D01*
X1542Y133D01*
X1542Y131D01*
X1544Y131D01*
X1544Y129D01*
X1546Y129D01*
X1546Y125D01*
X1548Y125D01*
X1548Y123D01*
X1550Y123D01*
X1550Y117D01*
X1570Y117D01*
X1570Y121D01*
X1572Y121D01*
X1572Y125D01*
X1574Y125D01*
X1574Y129D01*
X1576Y129D01*
X1576Y131D01*
X1578Y131D01*
X1578Y133D01*
X1580Y133D01*
X1580Y135D01*
X1582Y135D01*
X1582Y137D01*
X1584Y137D01*
X1584Y139D01*
X1586Y139D01*
X1586Y141D01*
X1590Y141D01*
X1590Y143D01*
X1594Y143D01*
X1594Y145D01*
X1602Y145D01*
X1602Y147D01*
X1520Y147D01*
G37*
D02*
G36*
X1620Y147D02*
X1620Y145D01*
X1626Y145D01*
X1626Y143D01*
X1630Y143D01*
X1630Y141D01*
X1634Y141D01*
X1634Y139D01*
X1636Y139D01*
X1636Y137D01*
X1638Y137D01*
X1638Y135D01*
X1640Y135D01*
X1640Y133D01*
X1642Y133D01*
X1642Y131D01*
X1644Y131D01*
X1644Y129D01*
X1646Y129D01*
X1646Y125D01*
X1648Y125D01*
X1648Y123D01*
X1650Y123D01*
X1650Y117D01*
X1670Y117D01*
X1670Y121D01*
X1672Y121D01*
X1672Y125D01*
X1674Y125D01*
X1674Y129D01*
X1676Y129D01*
X1676Y131D01*
X1678Y131D01*
X1678Y133D01*
X1680Y133D01*
X1680Y135D01*
X1682Y135D01*
X1682Y137D01*
X1684Y137D01*
X1684Y139D01*
X1686Y139D01*
X1686Y141D01*
X1690Y141D01*
X1690Y143D01*
X1694Y143D01*
X1694Y145D01*
X1702Y145D01*
X1702Y147D01*
X1620Y147D01*
G37*
D02*
G36*
X1720Y147D02*
X1720Y145D01*
X1726Y145D01*
X1726Y143D01*
X1730Y143D01*
X1730Y141D01*
X1734Y141D01*
X1734Y139D01*
X1736Y139D01*
X1736Y137D01*
X1738Y137D01*
X1738Y135D01*
X1740Y135D01*
X1740Y133D01*
X1742Y133D01*
X1742Y131D01*
X1744Y131D01*
X1744Y129D01*
X1746Y129D01*
X1746Y125D01*
X1748Y125D01*
X1748Y123D01*
X1750Y123D01*
X1750Y117D01*
X1770Y117D01*
X1770Y121D01*
X1772Y121D01*
X1772Y125D01*
X1774Y125D01*
X1774Y129D01*
X1776Y129D01*
X1776Y131D01*
X1778Y131D01*
X1778Y133D01*
X1780Y133D01*
X1780Y135D01*
X1782Y135D01*
X1782Y137D01*
X1784Y137D01*
X1784Y139D01*
X1786Y139D01*
X1786Y141D01*
X1790Y141D01*
X1790Y143D01*
X1794Y143D01*
X1794Y145D01*
X1802Y145D01*
X1802Y147D01*
X1720Y147D01*
G37*
D02*
G36*
X1820Y147D02*
X1820Y145D01*
X1826Y145D01*
X1826Y143D01*
X1830Y143D01*
X1830Y141D01*
X1834Y141D01*
X1834Y139D01*
X1836Y139D01*
X1836Y137D01*
X1838Y137D01*
X1838Y135D01*
X1840Y135D01*
X1840Y133D01*
X1842Y133D01*
X1842Y131D01*
X1844Y131D01*
X1844Y129D01*
X1846Y129D01*
X1846Y125D01*
X1848Y125D01*
X1848Y123D01*
X1850Y123D01*
X1850Y117D01*
X1852Y117D01*
X1852Y93D01*
X1850Y93D01*
X1850Y87D01*
X1848Y87D01*
X1848Y83D01*
X1846Y83D01*
X1846Y81D01*
X1844Y81D01*
X1844Y77D01*
X1842Y77D01*
X1842Y75D01*
X1840Y75D01*
X1840Y73D01*
X1838Y73D01*
X1838Y71D01*
X1836Y71D01*
X1836Y69D01*
X1832Y69D01*
X1832Y67D01*
X1828Y67D01*
X1828Y47D01*
X1992Y47D01*
X1992Y67D01*
X1988Y67D01*
X1988Y69D01*
X1986Y69D01*
X1986Y71D01*
X1984Y71D01*
X1984Y73D01*
X1980Y73D01*
X1980Y75D01*
X1978Y75D01*
X1978Y79D01*
X1976Y79D01*
X1976Y81D01*
X1974Y81D01*
X1974Y85D01*
X1972Y85D01*
X1972Y89D01*
X1970Y89D01*
X1970Y95D01*
X1968Y95D01*
X1968Y115D01*
X1970Y115D01*
X1970Y121D01*
X1972Y121D01*
X1972Y125D01*
X1974Y125D01*
X1974Y129D01*
X1976Y129D01*
X1976Y131D01*
X1978Y131D01*
X1978Y133D01*
X1980Y133D01*
X1980Y135D01*
X1982Y135D01*
X1982Y137D01*
X1984Y137D01*
X1984Y139D01*
X1986Y139D01*
X1986Y141D01*
X1990Y141D01*
X1990Y143D01*
X1994Y143D01*
X1994Y145D01*
X2002Y145D01*
X2002Y147D01*
X1820Y147D01*
G37*
D02*
G36*
X2020Y147D02*
X2020Y145D01*
X2026Y145D01*
X2026Y143D01*
X2030Y143D01*
X2030Y141D01*
X2034Y141D01*
X2034Y139D01*
X2036Y139D01*
X2036Y137D01*
X2038Y137D01*
X2038Y135D01*
X2040Y135D01*
X2040Y133D01*
X2042Y133D01*
X2042Y131D01*
X2044Y131D01*
X2044Y129D01*
X2046Y129D01*
X2046Y125D01*
X2048Y125D01*
X2048Y123D01*
X2050Y123D01*
X2050Y117D01*
X2070Y117D01*
X2070Y121D01*
X2072Y121D01*
X2072Y125D01*
X2074Y125D01*
X2074Y129D01*
X2076Y129D01*
X2076Y131D01*
X2078Y131D01*
X2078Y133D01*
X2080Y133D01*
X2080Y135D01*
X2082Y135D01*
X2082Y137D01*
X2084Y137D01*
X2084Y139D01*
X2086Y139D01*
X2086Y141D01*
X2090Y141D01*
X2090Y143D01*
X2094Y143D01*
X2094Y145D01*
X2102Y145D01*
X2102Y147D01*
X2020Y147D01*
G37*
D02*
G36*
X2120Y147D02*
X2120Y145D01*
X2126Y145D01*
X2126Y143D01*
X2130Y143D01*
X2130Y141D01*
X2134Y141D01*
X2134Y139D01*
X2136Y139D01*
X2136Y137D01*
X2138Y137D01*
X2138Y135D01*
X2140Y135D01*
X2140Y133D01*
X2142Y133D01*
X2142Y131D01*
X2144Y131D01*
X2144Y129D01*
X2146Y129D01*
X2146Y125D01*
X2148Y125D01*
X2148Y123D01*
X2150Y123D01*
X2150Y117D01*
X2170Y117D01*
X2170Y121D01*
X2172Y121D01*
X2172Y125D01*
X2174Y125D01*
X2174Y129D01*
X2176Y129D01*
X2176Y131D01*
X2178Y131D01*
X2178Y133D01*
X2180Y133D01*
X2180Y135D01*
X2182Y135D01*
X2182Y137D01*
X2184Y137D01*
X2184Y139D01*
X2186Y139D01*
X2186Y141D01*
X2190Y141D01*
X2190Y143D01*
X2194Y143D01*
X2194Y145D01*
X2202Y145D01*
X2202Y147D01*
X2120Y147D01*
G37*
D02*
G36*
X2220Y147D02*
X2220Y145D01*
X2226Y145D01*
X2226Y143D01*
X2230Y143D01*
X2230Y141D01*
X2234Y141D01*
X2234Y139D01*
X2236Y139D01*
X2236Y137D01*
X2238Y137D01*
X2238Y135D01*
X2240Y135D01*
X2240Y133D01*
X2242Y133D01*
X2242Y131D01*
X2244Y131D01*
X2244Y129D01*
X2246Y129D01*
X2246Y125D01*
X2248Y125D01*
X2248Y123D01*
X2250Y123D01*
X2250Y117D01*
X2270Y117D01*
X2270Y121D01*
X2272Y121D01*
X2272Y125D01*
X2274Y125D01*
X2274Y129D01*
X2276Y129D01*
X2276Y131D01*
X2278Y131D01*
X2278Y133D01*
X2280Y133D01*
X2280Y135D01*
X2282Y135D01*
X2282Y137D01*
X2284Y137D01*
X2284Y139D01*
X2286Y139D01*
X2286Y141D01*
X2290Y141D01*
X2290Y143D01*
X2294Y143D01*
X2294Y145D01*
X2302Y145D01*
X2302Y147D01*
X2220Y147D01*
G37*
D02*
G36*
X2320Y147D02*
X2320Y145D01*
X2326Y145D01*
X2326Y143D01*
X2330Y143D01*
X2330Y141D01*
X2334Y141D01*
X2334Y139D01*
X2336Y139D01*
X2336Y137D01*
X2338Y137D01*
X2338Y135D01*
X2340Y135D01*
X2340Y133D01*
X2342Y133D01*
X2342Y131D01*
X2344Y131D01*
X2344Y129D01*
X2346Y129D01*
X2346Y125D01*
X2348Y125D01*
X2348Y123D01*
X2350Y123D01*
X2350Y117D01*
X2370Y117D01*
X2370Y121D01*
X2372Y121D01*
X2372Y125D01*
X2374Y125D01*
X2374Y129D01*
X2376Y129D01*
X2376Y131D01*
X2378Y131D01*
X2378Y133D01*
X2380Y133D01*
X2380Y135D01*
X2382Y135D01*
X2382Y137D01*
X2384Y137D01*
X2384Y139D01*
X2386Y139D01*
X2386Y141D01*
X2390Y141D01*
X2390Y143D01*
X2394Y143D01*
X2394Y145D01*
X2402Y145D01*
X2402Y147D01*
X2320Y147D01*
G37*
D02*
G36*
X48Y946D02*
X78Y946D01*
X78Y901D01*
X48Y901D01*
X48Y946D01*
G37*
D02*
G36*
X1595Y649D02*
X1620Y649D01*
X1620Y627D01*
X1595Y627D01*
X1595Y649D01*
G37*
D02*
G36*
X1576Y632D02*
X1600Y632D01*
X1600Y607D01*
X1576Y607D01*
X1576Y632D01*
G37*
D02*
G36*
X1588Y87D02*
X1627Y87D01*
X1627Y61D01*
X1588Y61D01*
X1588Y87D01*
G37*
D02*
G36*
X1688Y151D02*
X1727Y151D01*
X1727Y129D01*
X1688Y129D01*
X1688Y151D01*
G37*
D02*
G36*
X1688Y87D02*
X1727Y87D01*
X1727Y61D01*
X1688Y61D01*
X1688Y87D01*
G37*
D02*
G36*
X1475Y1705D02*
X1520Y1705D01*
X1520Y1673D01*
X1475Y1673D01*
X1475Y1705D01*
G37*
D02*
G36*
X1516Y1746D02*
X1548Y1746D01*
X1548Y1701D01*
X1516Y1701D01*
X1516Y1746D01*
G37*
D02*
G36*
X1375Y1775D02*
X1420Y1775D01*
X1420Y1743D01*
X1375Y1743D01*
X1375Y1775D01*
G37*
D02*
G36*
X1375Y1705D02*
X1420Y1705D01*
X1420Y1673D01*
X1375Y1673D01*
X1375Y1705D01*
G37*
D02*
G36*
X1003Y1517D02*
X1028Y1517D01*
X1028Y1493D01*
X1003Y1493D01*
X1003Y1517D01*
G37*
D02*
G36*
X1003Y1479D02*
X1028Y1479D01*
X1028Y1453D01*
X1003Y1453D01*
X1003Y1479D01*
G37*
D02*
G36*
X1116Y564D02*
X1142Y564D01*
X1142Y539D01*
X1116Y539D01*
X1116Y564D01*
G37*
D02*
G36*
X1156Y564D02*
X1180Y564D01*
X1180Y539D01*
X1156Y539D01*
X1156Y564D01*
G37*
D02*
G36*
X397Y2069D02*
X442Y2069D01*
X442Y2041D01*
X397Y2041D01*
X397Y2069D01*
G37*
D02*
G36*
X634Y1414D02*
X658Y1414D01*
X658Y1389D01*
X634Y1389D01*
X634Y1414D01*
G37*
D02*
G36*
X672Y1414D02*
X698Y1414D01*
X698Y1389D01*
X672Y1389D01*
X672Y1414D01*
G37*
D02*
G36*
X1135Y913D02*
X1160Y913D01*
X1160Y891D01*
X1135Y891D01*
X1135Y913D01*
G37*
D02*
G36*
X1116Y896D02*
X1140Y896D01*
X1140Y871D01*
X1116Y871D01*
X1116Y896D01*
G37*
D02*
G36*
X67Y2069D02*
X112Y2069D01*
X112Y2043D01*
X67Y2043D01*
X67Y2069D01*
G37*
D02*
G36*
X44Y2046D02*
X70Y2046D01*
X70Y2001D01*
X44Y2001D01*
X44Y2046D01*
G37*
D02*
G36*
X77Y1913D02*
X102Y1913D01*
X102Y1889D01*
X77Y1889D01*
X77Y1913D01*
G37*
D02*
G36*
X58Y1932D02*
X82Y1932D01*
X82Y1907D01*
X58Y1907D01*
X58Y1932D01*
G37*
D02*
G36*
X825Y1213D02*
X850Y1213D01*
X850Y1189D01*
X825Y1189D01*
X825Y1213D01*
G37*
D02*
G36*
X844Y1194D02*
X870Y1194D01*
X870Y1169D01*
X844Y1169D01*
X844Y1194D01*
G37*
D02*
G36*
X630Y1560D02*
X654Y1560D01*
X654Y1535D01*
X630Y1535D01*
X630Y1560D01*
G37*
D02*
G36*
X668Y1560D02*
X694Y1560D01*
X694Y1535D01*
X668Y1535D01*
X668Y1560D01*
G37*
D02*
G36*
X1181Y1211D02*
X1206Y1211D01*
X1206Y1187D01*
X1181Y1187D01*
X1181Y1211D01*
G37*
D02*
G36*
X1162Y1192D02*
X1186Y1192D01*
X1186Y1167D01*
X1162Y1167D01*
X1162Y1192D01*
G37*
D02*
G36*
X1200Y1192D02*
X1224Y1192D01*
X1224Y1167D01*
X1200Y1167D01*
X1200Y1192D01*
G37*
D02*
G54D17*
X656Y1810D02*
X714Y1810D01*
X714Y1752D01*
X656Y1752D01*
X656Y1810D01*
D02*
X655Y1922D02*
X713Y1922D01*
X713Y1864D01*
X655Y1864D01*
X655Y1922D01*
D02*
X320Y1993D02*
X262Y1993D01*
X262Y2051D01*
X320Y2051D01*
X320Y1993D01*
D02*
X649Y1992D02*
X591Y1992D01*
X591Y2050D01*
X649Y2050D01*
X649Y1992D01*
D02*
G54D18*
X2427Y1619D02*
X2435Y1619D01*
X2426Y1618D02*
X2437Y1618D01*
X2425Y1617D02*
X2439Y1617D01*
X2425Y1616D02*
X2440Y1616D01*
X2424Y1615D02*
X2442Y1615D01*
X2424Y1614D02*
X2442Y1614D01*
X2424Y1613D02*
X2443Y1613D01*
X2425Y1612D02*
X2444Y1612D01*
X2426Y1611D02*
X2444Y1611D01*
X2427Y1610D02*
X2445Y1610D01*
X2434Y1609D02*
X2445Y1609D01*
X2435Y1608D02*
X2446Y1608D01*
X2436Y1607D02*
X2446Y1607D01*
X2437Y1606D02*
X2446Y1606D01*
X2437Y1605D02*
X2446Y1605D01*
X2437Y1604D02*
X2446Y1604D01*
X2437Y1603D02*
X2446Y1603D01*
X2437Y1602D02*
X2446Y1602D01*
X2437Y1601D02*
X2446Y1601D01*
X2437Y1600D02*
X2446Y1600D01*
X2437Y1599D02*
X2446Y1599D01*
X2437Y1598D02*
X2446Y1598D01*
X2437Y1597D02*
X2446Y1597D01*
X2437Y1596D02*
X2446Y1596D01*
X2436Y1595D02*
X2446Y1595D01*
X2435Y1594D02*
X2446Y1594D01*
X2434Y1593D02*
X2446Y1593D01*
X2433Y1592D02*
X2445Y1592D01*
X2432Y1591D02*
X2445Y1591D01*
X2431Y1590D02*
X2444Y1590D01*
X2431Y1589D02*
X2443Y1589D01*
X2430Y1588D02*
X2442Y1588D01*
X2429Y1587D02*
X2441Y1587D01*
X2428Y1586D02*
X2440Y1586D01*
X2427Y1585D02*
X2439Y1585D01*
X2426Y1584D02*
X2439Y1584D01*
X2425Y1583D02*
X2438Y1583D01*
X2425Y1582D02*
X2437Y1582D01*
X2424Y1581D02*
X2436Y1581D01*
X2423Y1580D02*
X2436Y1580D01*
X2393Y1579D02*
X2443Y1579D01*
X2392Y1578D02*
X2445Y1578D01*
X2391Y1577D02*
X2445Y1577D01*
X2390Y1576D02*
X2446Y1576D01*
X2390Y1575D02*
X2446Y1575D01*
X2390Y1574D02*
X2446Y1574D01*
X2391Y1573D02*
X2446Y1573D01*
X2391Y1572D02*
X2445Y1572D01*
X2392Y1571D02*
X2444Y1571D01*
X2394Y1570D02*
X2442Y1570D01*
X2394Y1547D02*
X2400Y1547D01*
X2392Y1546D02*
X2429Y1546D01*
X2391Y1545D02*
X2436Y1545D01*
X2391Y1544D02*
X2438Y1544D01*
X2390Y1543D02*
X2440Y1543D01*
X2390Y1542D02*
X2441Y1542D01*
X2390Y1541D02*
X2442Y1541D01*
X2391Y1540D02*
X2443Y1540D01*
X2391Y1539D02*
X2444Y1539D01*
X2393Y1538D02*
X2444Y1538D01*
X2395Y1537D02*
X2445Y1537D01*
X2395Y1536D02*
X2405Y1536D01*
X2413Y1536D02*
X2445Y1536D01*
X2394Y1535D02*
X2405Y1535D01*
X2414Y1535D02*
X2424Y1535D01*
X2434Y1535D02*
X2445Y1535D01*
X2393Y1534D02*
X2404Y1534D01*
X2415Y1534D02*
X2425Y1534D01*
X2436Y1534D02*
X2446Y1534D01*
X2393Y1533D02*
X2404Y1533D01*
X2415Y1533D02*
X2425Y1533D01*
X2437Y1533D02*
X2446Y1533D01*
X2392Y1532D02*
X2403Y1532D01*
X2416Y1532D02*
X2425Y1532D01*
X2437Y1532D02*
X2446Y1532D01*
X2392Y1531D02*
X2402Y1531D01*
X2416Y1531D02*
X2425Y1531D01*
X2437Y1531D02*
X2446Y1531D01*
X2391Y1530D02*
X2402Y1530D01*
X2416Y1530D02*
X2425Y1530D01*
X2437Y1530D02*
X2446Y1530D01*
X2391Y1529D02*
X2401Y1529D01*
X2416Y1529D02*
X2425Y1529D01*
X2437Y1529D02*
X2446Y1529D01*
X2390Y1528D02*
X2401Y1528D01*
X2416Y1528D02*
X2425Y1528D01*
X2437Y1528D02*
X2446Y1528D01*
X2390Y1527D02*
X2400Y1527D01*
X2416Y1527D02*
X2425Y1527D01*
X2437Y1527D02*
X2446Y1527D01*
X2390Y1526D02*
X2399Y1526D01*
X2416Y1526D02*
X2425Y1526D01*
X2437Y1526D02*
X2446Y1526D01*
X2390Y1525D02*
X2399Y1525D01*
X2416Y1525D02*
X2425Y1525D01*
X2437Y1525D02*
X2446Y1525D01*
X2390Y1524D02*
X2399Y1524D01*
X2416Y1524D02*
X2425Y1524D01*
X2437Y1524D02*
X2446Y1524D01*
X2390Y1523D02*
X2399Y1523D01*
X2416Y1523D02*
X2425Y1523D01*
X2437Y1523D02*
X2446Y1523D01*
X2390Y1522D02*
X2399Y1522D01*
X2416Y1522D02*
X2425Y1522D01*
X2437Y1522D02*
X2446Y1522D01*
X2390Y1521D02*
X2399Y1521D01*
X2416Y1521D02*
X2425Y1521D01*
X2437Y1521D02*
X2446Y1521D01*
X2390Y1520D02*
X2399Y1520D01*
X2416Y1520D02*
X2425Y1520D01*
X2437Y1520D02*
X2446Y1520D01*
X2390Y1519D02*
X2399Y1519D01*
X2416Y1519D02*
X2425Y1519D01*
X2437Y1519D02*
X2446Y1519D01*
X2390Y1518D02*
X2399Y1518D01*
X2416Y1518D02*
X2425Y1518D01*
X2437Y1518D02*
X2446Y1518D01*
X2390Y1517D02*
X2399Y1517D01*
X2416Y1517D02*
X2425Y1517D01*
X2437Y1517D02*
X2446Y1517D01*
X2390Y1516D02*
X2399Y1516D01*
X2416Y1516D02*
X2425Y1516D01*
X2437Y1516D02*
X2446Y1516D01*
X2390Y1515D02*
X2399Y1515D01*
X2416Y1515D02*
X2425Y1515D01*
X2437Y1515D02*
X2446Y1515D01*
X2390Y1514D02*
X2399Y1514D01*
X2416Y1514D02*
X2425Y1514D01*
X2437Y1514D02*
X2446Y1514D01*
X2390Y1513D02*
X2399Y1513D01*
X2416Y1513D02*
X2425Y1513D01*
X2437Y1513D02*
X2446Y1513D01*
X2390Y1512D02*
X2399Y1512D01*
X2416Y1512D02*
X2425Y1512D01*
X2437Y1512D02*
X2446Y1512D01*
X2390Y1511D02*
X2400Y1511D01*
X2415Y1511D02*
X2425Y1511D01*
X2437Y1511D02*
X2446Y1511D01*
X2390Y1510D02*
X2400Y1510D01*
X2415Y1510D02*
X2425Y1510D01*
X2438Y1510D02*
X2445Y1510D01*
X2391Y1509D02*
X2401Y1509D01*
X2414Y1509D02*
X2424Y1509D01*
X2438Y1509D02*
X2445Y1509D01*
X2391Y1508D02*
X2402Y1508D01*
X2413Y1508D02*
X2424Y1508D01*
X2439Y1508D02*
X2443Y1508D01*
X2391Y1507D02*
X2424Y1507D01*
X2392Y1506D02*
X2423Y1506D01*
X2392Y1505D02*
X2423Y1505D01*
X2393Y1504D02*
X2422Y1504D01*
X2394Y1503D02*
X2421Y1503D01*
X2394Y1502D02*
X2421Y1502D01*
X2396Y1501D02*
X2419Y1501D01*
X2397Y1500D02*
X2418Y1500D01*
X2399Y1499D02*
X2416Y1499D01*
X2401Y1498D02*
X2414Y1498D01*
X2393Y1474D02*
X2397Y1474D01*
X2460Y1474D02*
X2465Y1474D01*
X2391Y1473D02*
X2398Y1473D01*
X2459Y1473D02*
X2466Y1473D01*
X2391Y1472D02*
X2399Y1472D01*
X2459Y1472D02*
X2467Y1472D01*
X2390Y1471D02*
X2399Y1471D01*
X2458Y1471D02*
X2467Y1471D01*
X2390Y1470D02*
X2399Y1470D01*
X2458Y1470D02*
X2467Y1470D01*
X2390Y1469D02*
X2399Y1469D01*
X2458Y1469D02*
X2467Y1469D01*
X2390Y1468D02*
X2399Y1468D01*
X2458Y1468D02*
X2467Y1468D01*
X2390Y1467D02*
X2399Y1467D01*
X2458Y1467D02*
X2467Y1467D01*
X2390Y1466D02*
X2399Y1466D01*
X2458Y1466D02*
X2467Y1466D01*
X2390Y1465D02*
X2399Y1465D01*
X2458Y1465D02*
X2467Y1465D01*
X2390Y1464D02*
X2399Y1464D01*
X2458Y1464D02*
X2467Y1464D01*
X2390Y1463D02*
X2399Y1463D01*
X2458Y1463D02*
X2467Y1463D01*
X2390Y1462D02*
X2399Y1462D01*
X2458Y1462D02*
X2467Y1462D01*
X2390Y1461D02*
X2399Y1461D01*
X2458Y1461D02*
X2467Y1461D01*
X2390Y1460D02*
X2399Y1460D01*
X2458Y1460D02*
X2467Y1460D01*
X2390Y1459D02*
X2399Y1459D01*
X2458Y1459D02*
X2467Y1459D01*
X2390Y1458D02*
X2399Y1458D01*
X2458Y1458D02*
X2467Y1458D01*
X2390Y1457D02*
X2399Y1457D01*
X2458Y1457D02*
X2467Y1457D01*
X2390Y1456D02*
X2399Y1456D01*
X2458Y1456D02*
X2467Y1456D01*
X2390Y1455D02*
X2399Y1455D01*
X2458Y1455D02*
X2467Y1455D01*
X2390Y1454D02*
X2399Y1454D01*
X2458Y1454D02*
X2467Y1454D01*
X2390Y1453D02*
X2399Y1453D01*
X2458Y1453D02*
X2467Y1453D01*
X2390Y1452D02*
X2399Y1452D01*
X2458Y1452D02*
X2467Y1452D01*
X2390Y1451D02*
X2399Y1451D01*
X2458Y1451D02*
X2467Y1451D01*
X2390Y1450D02*
X2399Y1450D01*
X2458Y1450D02*
X2467Y1450D01*
X2390Y1449D02*
X2400Y1449D01*
X2458Y1449D02*
X2467Y1449D01*
X2391Y1448D02*
X2401Y1448D01*
X2457Y1448D02*
X2467Y1448D01*
X2391Y1447D02*
X2402Y1447D01*
X2456Y1447D02*
X2467Y1447D01*
X2391Y1446D02*
X2404Y1446D01*
X2454Y1446D02*
X2466Y1446D01*
X2392Y1445D02*
X2406Y1445D01*
X2452Y1445D02*
X2466Y1445D01*
X2392Y1444D02*
X2408Y1444D01*
X2450Y1444D02*
X2465Y1444D01*
X2393Y1443D02*
X2410Y1443D01*
X2448Y1443D02*
X2465Y1443D01*
X2394Y1442D02*
X2412Y1442D01*
X2446Y1442D02*
X2464Y1442D01*
X2394Y1441D02*
X2414Y1441D01*
X2444Y1441D02*
X2463Y1441D01*
X2395Y1440D02*
X2416Y1440D01*
X2442Y1440D02*
X2462Y1440D01*
X2397Y1439D02*
X2418Y1439D01*
X2440Y1439D02*
X2461Y1439D01*
X2398Y1438D02*
X2420Y1438D01*
X2438Y1438D02*
X2460Y1438D01*
X2400Y1437D02*
X2421Y1437D01*
X2436Y1437D02*
X2458Y1437D01*
X2402Y1436D02*
X2424Y1436D01*
X2433Y1436D02*
X2456Y1436D01*
X2404Y1435D02*
X2454Y1435D01*
X2406Y1434D02*
X2452Y1434D01*
X2408Y1433D02*
X2450Y1433D01*
X2410Y1432D02*
X2448Y1432D01*
X2412Y1431D02*
X2445Y1431D01*
X2414Y1430D02*
X2443Y1430D01*
X2416Y1429D02*
X2441Y1429D01*
X2418Y1428D02*
X2439Y1428D01*
X2420Y1427D02*
X2437Y1427D01*
X2423Y1426D02*
X2434Y1426D01*
X2394Y1330D02*
X2396Y1330D01*
X2415Y1330D02*
X2431Y1330D01*
X2392Y1329D02*
X2398Y1329D01*
X2413Y1329D02*
X2434Y1329D01*
X2391Y1328D02*
X2398Y1328D01*
X2412Y1328D02*
X2436Y1328D01*
X2391Y1327D02*
X2399Y1327D01*
X2412Y1327D02*
X2437Y1327D01*
X2390Y1326D02*
X2399Y1326D01*
X2412Y1326D02*
X2438Y1326D01*
X2390Y1325D02*
X2399Y1325D01*
X2411Y1325D02*
X2439Y1325D01*
X2390Y1324D02*
X2399Y1324D01*
X2411Y1324D02*
X2440Y1324D01*
X2390Y1323D02*
X2399Y1323D01*
X2411Y1323D02*
X2441Y1323D01*
X2390Y1322D02*
X2399Y1322D01*
X2411Y1322D02*
X2442Y1322D01*
X2390Y1321D02*
X2399Y1321D01*
X2411Y1321D02*
X2443Y1321D01*
X2390Y1320D02*
X2399Y1320D01*
X2411Y1320D02*
X2421Y1320D01*
X2430Y1320D02*
X2443Y1320D01*
X2390Y1319D02*
X2399Y1319D01*
X2411Y1319D02*
X2421Y1319D01*
X2432Y1319D02*
X2444Y1319D01*
X2390Y1318D02*
X2399Y1318D01*
X2411Y1318D02*
X2421Y1318D01*
X2433Y1318D02*
X2445Y1318D01*
X2390Y1317D02*
X2399Y1317D01*
X2411Y1317D02*
X2421Y1317D01*
X2434Y1317D02*
X2445Y1317D01*
X2390Y1316D02*
X2399Y1316D01*
X2411Y1316D02*
X2421Y1316D01*
X2435Y1316D02*
X2445Y1316D01*
X2390Y1315D02*
X2399Y1315D01*
X2411Y1315D02*
X2421Y1315D01*
X2436Y1315D02*
X2446Y1315D01*
X2390Y1314D02*
X2399Y1314D01*
X2411Y1314D02*
X2421Y1314D01*
X2436Y1314D02*
X2446Y1314D01*
X2390Y1313D02*
X2399Y1313D01*
X2411Y1313D02*
X2421Y1313D01*
X2437Y1313D02*
X2446Y1313D01*
X2390Y1312D02*
X2399Y1312D01*
X2411Y1312D02*
X2421Y1312D01*
X2437Y1312D02*
X2446Y1312D01*
X2390Y1311D02*
X2399Y1311D01*
X2411Y1311D02*
X2421Y1311D01*
X2437Y1311D02*
X2446Y1311D01*
X2390Y1310D02*
X2399Y1310D01*
X2411Y1310D02*
X2421Y1310D01*
X2437Y1310D02*
X2446Y1310D01*
X2390Y1309D02*
X2399Y1309D01*
X2411Y1309D02*
X2421Y1309D01*
X2437Y1309D02*
X2446Y1309D01*
X2390Y1308D02*
X2399Y1308D01*
X2411Y1308D02*
X2421Y1308D01*
X2437Y1308D02*
X2446Y1308D01*
X2390Y1307D02*
X2399Y1307D01*
X2411Y1307D02*
X2421Y1307D01*
X2437Y1307D02*
X2446Y1307D01*
X2390Y1306D02*
X2399Y1306D01*
X2411Y1306D02*
X2421Y1306D01*
X2437Y1306D02*
X2446Y1306D01*
X2390Y1305D02*
X2399Y1305D01*
X2411Y1305D02*
X2421Y1305D01*
X2437Y1305D02*
X2446Y1305D01*
X2390Y1304D02*
X2399Y1304D01*
X2411Y1304D02*
X2421Y1304D01*
X2437Y1304D02*
X2446Y1304D01*
X2390Y1303D02*
X2399Y1303D01*
X2411Y1303D02*
X2421Y1303D01*
X2437Y1303D02*
X2446Y1303D01*
X2390Y1302D02*
X2399Y1302D01*
X2411Y1302D02*
X2421Y1302D01*
X2437Y1302D02*
X2446Y1302D01*
X2390Y1301D02*
X2399Y1301D01*
X2411Y1301D02*
X2421Y1301D01*
X2437Y1301D02*
X2446Y1301D01*
X2390Y1300D02*
X2399Y1300D01*
X2411Y1300D02*
X2421Y1300D01*
X2437Y1300D02*
X2446Y1300D01*
X2390Y1299D02*
X2399Y1299D01*
X2411Y1299D02*
X2421Y1299D01*
X2437Y1299D02*
X2446Y1299D01*
X2390Y1298D02*
X2400Y1298D01*
X2411Y1298D02*
X2421Y1298D01*
X2437Y1298D02*
X2446Y1298D01*
X2390Y1297D02*
X2400Y1297D01*
X2411Y1297D02*
X2421Y1297D01*
X2436Y1297D02*
X2446Y1297D01*
X2391Y1296D02*
X2401Y1296D01*
X2411Y1296D02*
X2421Y1296D01*
X2436Y1296D02*
X2446Y1296D01*
X2391Y1295D02*
X2401Y1295D01*
X2411Y1295D02*
X2421Y1295D01*
X2435Y1295D02*
X2445Y1295D01*
X2391Y1294D02*
X2402Y1294D01*
X2411Y1294D02*
X2421Y1294D01*
X2434Y1294D02*
X2445Y1294D01*
X2392Y1293D02*
X2403Y1293D01*
X2411Y1293D02*
X2421Y1293D01*
X2433Y1293D02*
X2445Y1293D01*
X2392Y1292D02*
X2404Y1292D01*
X2411Y1292D02*
X2421Y1292D01*
X2432Y1292D02*
X2444Y1292D01*
X2393Y1291D02*
X2406Y1291D01*
X2411Y1291D02*
X2421Y1291D01*
X2431Y1291D02*
X2444Y1291D01*
X2393Y1290D02*
X2443Y1290D01*
X2394Y1289D02*
X2442Y1289D01*
X2395Y1288D02*
X2441Y1288D01*
X2396Y1287D02*
X2440Y1287D01*
X2397Y1286D02*
X2439Y1286D01*
X2398Y1285D02*
X2438Y1285D01*
X2399Y1284D02*
X2437Y1284D01*
X2400Y1283D02*
X2436Y1283D01*
X2402Y1282D02*
X2434Y1282D01*
X2405Y1281D02*
X2431Y1281D01*
X2395Y1258D02*
X2395Y1258D01*
X2441Y1258D02*
X2441Y1258D01*
X2392Y1257D02*
X2397Y1257D01*
X2439Y1257D02*
X2444Y1257D01*
X2391Y1256D02*
X2398Y1256D01*
X2438Y1256D02*
X2445Y1256D01*
X2391Y1255D02*
X2399Y1255D01*
X2437Y1255D02*
X2446Y1255D01*
X2390Y1254D02*
X2399Y1254D01*
X2437Y1254D02*
X2446Y1254D01*
X2390Y1253D02*
X2399Y1253D01*
X2437Y1253D02*
X2446Y1253D01*
X2390Y1252D02*
X2399Y1252D01*
X2437Y1252D02*
X2446Y1252D01*
X2390Y1251D02*
X2399Y1251D01*
X2437Y1251D02*
X2446Y1251D01*
X2390Y1250D02*
X2399Y1250D01*
X2437Y1250D02*
X2446Y1250D01*
X2390Y1249D02*
X2399Y1249D01*
X2437Y1249D02*
X2446Y1249D01*
X2390Y1248D02*
X2399Y1248D01*
X2437Y1248D02*
X2446Y1248D01*
X2390Y1247D02*
X2399Y1247D01*
X2437Y1247D02*
X2446Y1247D01*
X2390Y1246D02*
X2399Y1246D01*
X2437Y1246D02*
X2446Y1246D01*
X2390Y1245D02*
X2399Y1245D01*
X2437Y1245D02*
X2446Y1245D01*
X2390Y1244D02*
X2399Y1244D01*
X2437Y1244D02*
X2446Y1244D01*
X2390Y1243D02*
X2399Y1243D01*
X2437Y1243D02*
X2446Y1243D01*
X2390Y1242D02*
X2399Y1242D01*
X2437Y1242D02*
X2446Y1242D01*
X2390Y1241D02*
X2399Y1241D01*
X2437Y1241D02*
X2446Y1241D01*
X2390Y1240D02*
X2399Y1240D01*
X2437Y1240D02*
X2446Y1240D01*
X2390Y1239D02*
X2399Y1239D01*
X2437Y1239D02*
X2446Y1239D01*
X2390Y1238D02*
X2399Y1238D01*
X2437Y1238D02*
X2446Y1238D01*
X2390Y1237D02*
X2399Y1237D01*
X2437Y1237D02*
X2446Y1237D01*
X2390Y1236D02*
X2399Y1236D01*
X2437Y1236D02*
X2446Y1236D01*
X2390Y1235D02*
X2399Y1235D01*
X2437Y1235D02*
X2446Y1235D01*
X2390Y1234D02*
X2399Y1234D01*
X2437Y1234D02*
X2446Y1234D01*
X2390Y1233D02*
X2399Y1233D01*
X2437Y1233D02*
X2446Y1233D01*
X2390Y1232D02*
X2399Y1232D01*
X2437Y1232D02*
X2446Y1232D01*
X2390Y1231D02*
X2399Y1231D01*
X2437Y1231D02*
X2446Y1231D01*
X2390Y1230D02*
X2400Y1230D01*
X2436Y1230D02*
X2446Y1230D01*
X2390Y1229D02*
X2400Y1229D01*
X2436Y1229D02*
X2446Y1229D01*
X2391Y1228D02*
X2401Y1228D01*
X2435Y1228D02*
X2445Y1228D01*
X2391Y1227D02*
X2402Y1227D01*
X2434Y1227D02*
X2445Y1227D01*
X2391Y1226D02*
X2403Y1226D01*
X2433Y1226D02*
X2445Y1226D01*
X2392Y1225D02*
X2404Y1225D01*
X2433Y1225D02*
X2444Y1225D01*
X2392Y1224D02*
X2404Y1224D01*
X2432Y1224D02*
X2444Y1224D01*
X2393Y1223D02*
X2405Y1223D01*
X2431Y1223D02*
X2443Y1223D01*
X2394Y1222D02*
X2406Y1222D01*
X2430Y1222D02*
X2443Y1222D01*
X2395Y1221D02*
X2407Y1221D01*
X2429Y1221D02*
X2442Y1221D01*
X2396Y1220D02*
X2408Y1220D01*
X2428Y1220D02*
X2441Y1220D01*
X2396Y1219D02*
X2409Y1219D01*
X2427Y1219D02*
X2440Y1219D01*
X2397Y1218D02*
X2439Y1218D01*
X2398Y1217D02*
X2438Y1217D01*
X2399Y1216D02*
X2437Y1216D01*
X2400Y1215D02*
X2436Y1215D01*
X2401Y1214D02*
X2435Y1214D01*
X2402Y1213D02*
X2434Y1213D01*
X2403Y1212D02*
X2433Y1212D01*
X2404Y1211D02*
X2432Y1211D01*
X2406Y1210D02*
X2431Y1210D01*
X2408Y1209D02*
X2428Y1209D01*
X2393Y1185D02*
X2416Y1185D01*
X2392Y1184D02*
X2435Y1184D01*
X2391Y1183D02*
X2438Y1183D01*
X2390Y1182D02*
X2439Y1182D01*
X2390Y1181D02*
X2441Y1181D01*
X2390Y1180D02*
X2442Y1180D01*
X2391Y1179D02*
X2443Y1179D01*
X2391Y1178D02*
X2443Y1178D01*
X2392Y1177D02*
X2444Y1177D01*
X2394Y1176D02*
X2444Y1176D01*
X2415Y1175D02*
X2445Y1175D01*
X2434Y1174D02*
X2445Y1174D01*
X2435Y1173D02*
X2446Y1173D01*
X2436Y1172D02*
X2446Y1172D01*
X2437Y1171D02*
X2446Y1171D01*
X2437Y1170D02*
X2446Y1170D01*
X2437Y1169D02*
X2446Y1169D01*
X2437Y1168D02*
X2446Y1168D01*
X2437Y1167D02*
X2446Y1167D01*
X2437Y1166D02*
X2446Y1166D01*
X2437Y1165D02*
X2446Y1165D01*
X2437Y1164D02*
X2446Y1164D01*
X2437Y1163D02*
X2446Y1163D01*
X2437Y1162D02*
X2446Y1162D01*
X2436Y1161D02*
X2446Y1161D01*
X2435Y1160D02*
X2445Y1160D01*
X2435Y1159D02*
X2445Y1159D01*
X2434Y1158D02*
X2445Y1158D01*
X2433Y1157D02*
X2444Y1157D01*
X2433Y1156D02*
X2444Y1156D01*
X2432Y1155D02*
X2443Y1155D01*
X2431Y1154D02*
X2443Y1154D01*
X2431Y1153D02*
X2442Y1153D01*
X2430Y1152D02*
X2441Y1152D01*
X2430Y1151D02*
X2441Y1151D01*
X2429Y1150D02*
X2440Y1150D01*
X2428Y1149D02*
X2439Y1149D01*
X2428Y1148D02*
X2439Y1148D01*
X2427Y1147D02*
X2438Y1147D01*
X2395Y1146D02*
X2441Y1146D01*
X2392Y1145D02*
X2444Y1145D01*
X2391Y1144D02*
X2445Y1144D01*
X2391Y1143D02*
X2446Y1143D01*
X2390Y1142D02*
X2446Y1142D01*
X2390Y1141D02*
X2446Y1141D01*
X2390Y1140D02*
X2446Y1140D01*
X2391Y1139D02*
X2446Y1139D01*
X2391Y1138D02*
X2445Y1138D01*
X2392Y1137D02*
X2444Y1137D01*
X2393Y1113D02*
X2443Y1113D01*
X2392Y1112D02*
X2444Y1112D01*
X2391Y1111D02*
X2445Y1111D01*
X2391Y1110D02*
X2446Y1110D01*
X2390Y1109D02*
X2446Y1109D01*
X2390Y1108D02*
X2446Y1108D01*
X2390Y1107D02*
X2446Y1107D01*
X2391Y1106D02*
X2445Y1106D01*
X2392Y1105D02*
X2445Y1105D01*
X2393Y1104D02*
X2443Y1104D01*
X2398Y1103D02*
X2409Y1103D01*
X2398Y1102D02*
X2409Y1102D01*
X2397Y1101D02*
X2408Y1101D01*
X2397Y1100D02*
X2408Y1100D01*
X2396Y1099D02*
X2407Y1099D01*
X2395Y1098D02*
X2406Y1098D01*
X2395Y1097D02*
X2406Y1097D01*
X2394Y1096D02*
X2405Y1096D01*
X2393Y1095D02*
X2404Y1095D01*
X2393Y1094D02*
X2404Y1094D01*
X2392Y1093D02*
X2403Y1093D01*
X2392Y1092D02*
X2402Y1092D01*
X2391Y1091D02*
X2402Y1091D01*
X2391Y1090D02*
X2401Y1090D01*
X2391Y1089D02*
X2401Y1089D01*
X2390Y1088D02*
X2400Y1088D01*
X2390Y1087D02*
X2399Y1087D01*
X2390Y1086D02*
X2399Y1086D01*
X2390Y1085D02*
X2399Y1085D01*
X2390Y1084D02*
X2399Y1084D01*
X2390Y1083D02*
X2399Y1083D01*
X2390Y1082D02*
X2399Y1082D01*
X2390Y1081D02*
X2399Y1081D01*
X2390Y1080D02*
X2399Y1080D01*
X2390Y1079D02*
X2399Y1079D01*
X2390Y1078D02*
X2400Y1078D01*
X2391Y1077D02*
X2400Y1077D01*
X2391Y1076D02*
X2401Y1076D01*
X2391Y1075D02*
X2405Y1075D01*
X2391Y1074D02*
X2434Y1074D01*
X2392Y1073D02*
X2443Y1073D01*
X2393Y1072D02*
X2445Y1072D01*
X2393Y1071D02*
X2445Y1071D01*
X2394Y1070D02*
X2446Y1070D01*
X2395Y1069D02*
X2446Y1069D01*
X2396Y1068D02*
X2446Y1068D01*
X2398Y1067D02*
X2446Y1067D01*
X2400Y1066D02*
X2445Y1066D01*
X2404Y1065D02*
X2444Y1065D01*
X2434Y1064D02*
X2442Y1064D01*
X2405Y1041D02*
X2430Y1041D01*
X2402Y1040D02*
X2434Y1040D01*
X2289Y1039D02*
X2354Y1039D01*
X2401Y1039D02*
X2436Y1039D01*
X2288Y1038D02*
X2355Y1038D01*
X2399Y1038D02*
X2437Y1038D01*
X2288Y1037D02*
X2356Y1037D01*
X2398Y1037D02*
X2438Y1037D01*
X2288Y1036D02*
X2356Y1036D01*
X2397Y1036D02*
X2439Y1036D01*
X2287Y1035D02*
X2356Y1035D01*
X2396Y1035D02*
X2440Y1035D01*
X2287Y1034D02*
X2356Y1034D01*
X2395Y1034D02*
X2441Y1034D01*
X2287Y1033D02*
X2356Y1033D01*
X2394Y1033D02*
X2442Y1033D01*
X2287Y1032D02*
X2356Y1032D01*
X2394Y1032D02*
X2443Y1032D01*
X2287Y1031D02*
X2356Y1031D01*
X2393Y1031D02*
X2406Y1031D01*
X2430Y1031D02*
X2443Y1031D01*
X2288Y1030D02*
X2295Y1030D01*
X2325Y1030D02*
X2333Y1030D01*
X2348Y1030D02*
X2356Y1030D01*
X2392Y1030D02*
X2404Y1030D01*
X2432Y1030D02*
X2444Y1030D01*
X2288Y1029D02*
X2295Y1029D01*
X2325Y1029D02*
X2333Y1029D01*
X2348Y1029D02*
X2356Y1029D01*
X2392Y1029D02*
X2403Y1029D01*
X2433Y1029D02*
X2444Y1029D01*
X2289Y1028D02*
X2294Y1028D01*
X2325Y1028D02*
X2333Y1028D01*
X2348Y1028D02*
X2356Y1028D01*
X2391Y1028D02*
X2402Y1028D01*
X2434Y1028D02*
X2445Y1028D01*
X2290Y1027D02*
X2293Y1027D01*
X2325Y1027D02*
X2333Y1027D01*
X2348Y1027D02*
X2356Y1027D01*
X2391Y1027D02*
X2401Y1027D01*
X2435Y1027D02*
X2445Y1027D01*
X2325Y1026D02*
X2333Y1026D01*
X2348Y1026D02*
X2356Y1026D01*
X2391Y1026D02*
X2401Y1026D01*
X2436Y1026D02*
X2446Y1026D01*
X2325Y1025D02*
X2333Y1025D01*
X2348Y1025D02*
X2356Y1025D01*
X2390Y1025D02*
X2400Y1025D01*
X2436Y1025D02*
X2446Y1025D01*
X2325Y1024D02*
X2333Y1024D01*
X2348Y1024D02*
X2356Y1024D01*
X2390Y1024D02*
X2400Y1024D01*
X2437Y1024D02*
X2446Y1024D01*
X2325Y1023D02*
X2333Y1023D01*
X2348Y1023D02*
X2356Y1023D01*
X2390Y1023D02*
X2399Y1023D01*
X2437Y1023D02*
X2446Y1023D01*
X2325Y1022D02*
X2333Y1022D01*
X2348Y1022D02*
X2356Y1022D01*
X2390Y1022D02*
X2399Y1022D01*
X2437Y1022D02*
X2446Y1022D01*
X2325Y1021D02*
X2333Y1021D01*
X2348Y1021D02*
X2356Y1021D01*
X2390Y1021D02*
X2399Y1021D01*
X2437Y1021D02*
X2446Y1021D01*
X2325Y1020D02*
X2333Y1020D01*
X2348Y1020D02*
X2356Y1020D01*
X2390Y1020D02*
X2399Y1020D01*
X2437Y1020D02*
X2446Y1020D01*
X2325Y1019D02*
X2333Y1019D01*
X2348Y1019D02*
X2356Y1019D01*
X2390Y1019D02*
X2399Y1019D01*
X2437Y1019D02*
X2446Y1019D01*
X2325Y1018D02*
X2333Y1018D01*
X2348Y1018D02*
X2356Y1018D01*
X2390Y1018D02*
X2399Y1018D01*
X2437Y1018D02*
X2446Y1018D01*
X2325Y1017D02*
X2333Y1017D01*
X2348Y1017D02*
X2356Y1017D01*
X2390Y1017D02*
X2399Y1017D01*
X2437Y1017D02*
X2446Y1017D01*
X2325Y1016D02*
X2333Y1016D01*
X2348Y1016D02*
X2356Y1016D01*
X2390Y1016D02*
X2399Y1016D01*
X2437Y1016D02*
X2446Y1016D01*
X2325Y1015D02*
X2333Y1015D01*
X2348Y1015D02*
X2356Y1015D01*
X2390Y1015D02*
X2399Y1015D01*
X2437Y1015D02*
X2446Y1015D01*
X2325Y1014D02*
X2333Y1014D01*
X2348Y1014D02*
X2356Y1014D01*
X2390Y1014D02*
X2399Y1014D01*
X2437Y1014D02*
X2446Y1014D01*
X2325Y1013D02*
X2333Y1013D01*
X2348Y1013D02*
X2356Y1013D01*
X2390Y1013D02*
X2399Y1013D01*
X2437Y1013D02*
X2446Y1013D01*
X2325Y1012D02*
X2333Y1012D01*
X2348Y1012D02*
X2356Y1012D01*
X2390Y1012D02*
X2399Y1012D01*
X2437Y1012D02*
X2446Y1012D01*
X2325Y1011D02*
X2333Y1011D01*
X2348Y1011D02*
X2356Y1011D01*
X2390Y1011D02*
X2399Y1011D01*
X2437Y1011D02*
X2446Y1011D01*
X2325Y1010D02*
X2333Y1010D01*
X2348Y1010D02*
X2356Y1010D01*
X2390Y1010D02*
X2399Y1010D01*
X2437Y1010D02*
X2446Y1010D01*
X2325Y1009D02*
X2333Y1009D01*
X2348Y1009D02*
X2356Y1009D01*
X2390Y1009D02*
X2399Y1009D01*
X2437Y1009D02*
X2446Y1009D01*
X2325Y1008D02*
X2333Y1008D01*
X2348Y1008D02*
X2356Y1008D01*
X2390Y1008D02*
X2400Y1008D01*
X2436Y1008D02*
X2446Y1008D01*
X2325Y1007D02*
X2333Y1007D01*
X2348Y1007D02*
X2356Y1007D01*
X2391Y1007D02*
X2400Y1007D01*
X2436Y1007D02*
X2446Y1007D01*
X2325Y1006D02*
X2333Y1006D01*
X2348Y1006D02*
X2356Y1006D01*
X2391Y1006D02*
X2401Y1006D01*
X2435Y1006D02*
X2445Y1006D01*
X2325Y1005D02*
X2333Y1005D01*
X2348Y1005D02*
X2356Y1005D01*
X2391Y1005D02*
X2402Y1005D01*
X2434Y1005D02*
X2445Y1005D01*
X2325Y1004D02*
X2356Y1004D01*
X2392Y1004D02*
X2403Y1004D01*
X2433Y1004D02*
X2445Y1004D01*
X2325Y1003D02*
X2356Y1003D01*
X2392Y1003D02*
X2404Y1003D01*
X2432Y1003D02*
X2444Y1003D01*
X2325Y1002D02*
X2356Y1002D01*
X2393Y1002D02*
X2405Y1002D01*
X2431Y1002D02*
X2444Y1002D01*
X2325Y1001D02*
X2356Y1001D01*
X2393Y1001D02*
X2443Y1001D01*
X2325Y1000D02*
X2356Y1000D01*
X2394Y1000D02*
X2442Y1000D01*
X2325Y999D02*
X2356Y999D01*
X2395Y999D02*
X2441Y999D01*
X2326Y998D02*
X2355Y998D01*
X2396Y998D02*
X2440Y998D01*
X2326Y997D02*
X2355Y997D01*
X2397Y997D02*
X2439Y997D01*
X2328Y996D02*
X2353Y996D01*
X2398Y996D02*
X2439Y996D01*
X2399Y995D02*
X2437Y995D01*
X2400Y994D02*
X2436Y994D01*
X2401Y993D02*
X2434Y993D01*
X2404Y992D02*
X2432Y992D01*
X2290Y975D02*
X2315Y975D01*
X2289Y974D02*
X2317Y974D01*
X2288Y973D02*
X2318Y973D01*
X2288Y972D02*
X2318Y972D01*
X2287Y971D02*
X2318Y971D01*
X2287Y970D02*
X2318Y970D01*
X2287Y969D02*
X2318Y969D01*
X2287Y968D02*
X2317Y968D01*
X2405Y968D02*
X2419Y968D01*
X2438Y968D02*
X2453Y968D01*
X2287Y967D02*
X2316Y967D01*
X2402Y967D02*
X2422Y967D01*
X2436Y967D02*
X2455Y967D01*
X2287Y966D02*
X2295Y966D01*
X2400Y966D02*
X2423Y966D01*
X2434Y966D02*
X2457Y966D01*
X2287Y965D02*
X2295Y965D01*
X2399Y965D02*
X2425Y965D01*
X2433Y965D02*
X2459Y965D01*
X2287Y964D02*
X2295Y964D01*
X2397Y964D02*
X2426Y964D01*
X2431Y964D02*
X2460Y964D01*
X2287Y963D02*
X2295Y963D01*
X2396Y963D02*
X2427Y963D01*
X2430Y963D02*
X2461Y963D01*
X2287Y962D02*
X2295Y962D01*
X2395Y962D02*
X2462Y962D01*
X2287Y961D02*
X2295Y961D01*
X2395Y961D02*
X2463Y961D01*
X2287Y960D02*
X2295Y960D01*
X2394Y960D02*
X2464Y960D01*
X2287Y959D02*
X2295Y959D01*
X2393Y959D02*
X2464Y959D01*
X2287Y958D02*
X2296Y958D01*
X2393Y958D02*
X2405Y958D01*
X2418Y958D02*
X2439Y958D01*
X2452Y958D02*
X2465Y958D01*
X2287Y957D02*
X2356Y957D01*
X2392Y957D02*
X2404Y957D01*
X2420Y957D02*
X2438Y957D01*
X2454Y957D02*
X2465Y957D01*
X2287Y956D02*
X2356Y956D01*
X2392Y956D02*
X2403Y956D01*
X2421Y956D02*
X2436Y956D01*
X2455Y956D02*
X2466Y956D01*
X2287Y955D02*
X2356Y955D01*
X2391Y955D02*
X2402Y955D01*
X2422Y955D02*
X2436Y955D01*
X2456Y955D02*
X2466Y955D01*
X2287Y954D02*
X2356Y954D01*
X2391Y954D02*
X2401Y954D01*
X2423Y954D02*
X2435Y954D01*
X2457Y954D02*
X2466Y954D01*
X2287Y953D02*
X2356Y953D01*
X2391Y953D02*
X2400Y953D01*
X2423Y953D02*
X2434Y953D01*
X2457Y953D02*
X2467Y953D01*
X2287Y952D02*
X2356Y952D01*
X2391Y952D02*
X2400Y952D01*
X2424Y952D02*
X2434Y952D01*
X2458Y952D02*
X2467Y952D01*
X2287Y951D02*
X2356Y951D01*
X2390Y951D02*
X2400Y951D01*
X2424Y951D02*
X2434Y951D01*
X2458Y951D02*
X2467Y951D01*
X2287Y950D02*
X2356Y950D01*
X2390Y950D02*
X2399Y950D01*
X2424Y950D02*
X2433Y950D01*
X2458Y950D02*
X2467Y950D01*
X2287Y949D02*
X2356Y949D01*
X2390Y949D02*
X2399Y949D01*
X2424Y949D02*
X2433Y949D01*
X2458Y949D02*
X2467Y949D01*
X2287Y948D02*
X2295Y948D01*
X2348Y948D02*
X2356Y948D01*
X2390Y948D02*
X2399Y948D01*
X2424Y948D02*
X2433Y948D01*
X2458Y948D02*
X2467Y948D01*
X2287Y947D02*
X2295Y947D01*
X2348Y947D02*
X2356Y947D01*
X2390Y947D02*
X2399Y947D01*
X2424Y947D02*
X2433Y947D01*
X2458Y947D02*
X2467Y947D01*
X2287Y946D02*
X2295Y946D01*
X2348Y946D02*
X2356Y946D01*
X2390Y946D02*
X2399Y946D01*
X2424Y946D02*
X2433Y946D01*
X2458Y946D02*
X2467Y946D01*
X2287Y945D02*
X2295Y945D01*
X2348Y945D02*
X2356Y945D01*
X2390Y945D02*
X2399Y945D01*
X2424Y945D02*
X2433Y945D01*
X2458Y945D02*
X2467Y945D01*
X2287Y944D02*
X2295Y944D01*
X2348Y944D02*
X2356Y944D01*
X2390Y944D02*
X2399Y944D01*
X2424Y944D02*
X2433Y944D01*
X2458Y944D02*
X2467Y944D01*
X2287Y943D02*
X2295Y943D01*
X2348Y943D02*
X2356Y943D01*
X2390Y943D02*
X2399Y943D01*
X2424Y943D02*
X2433Y943D01*
X2458Y943D02*
X2467Y943D01*
X2287Y942D02*
X2295Y942D01*
X2348Y942D02*
X2356Y942D01*
X2390Y942D02*
X2399Y942D01*
X2424Y942D02*
X2433Y942D01*
X2458Y942D02*
X2467Y942D01*
X2287Y941D02*
X2295Y941D01*
X2348Y941D02*
X2356Y941D01*
X2390Y941D02*
X2399Y941D01*
X2424Y941D02*
X2433Y941D01*
X2458Y941D02*
X2467Y941D01*
X2287Y940D02*
X2295Y940D01*
X2348Y940D02*
X2356Y940D01*
X2390Y940D02*
X2399Y940D01*
X2424Y940D02*
X2433Y940D01*
X2458Y940D02*
X2467Y940D01*
X2287Y939D02*
X2295Y939D01*
X2348Y939D02*
X2356Y939D01*
X2390Y939D02*
X2399Y939D01*
X2424Y939D02*
X2433Y939D01*
X2458Y939D02*
X2467Y939D01*
X2287Y938D02*
X2295Y938D01*
X2348Y938D02*
X2356Y938D01*
X2390Y938D02*
X2399Y938D01*
X2424Y938D02*
X2433Y938D01*
X2458Y938D02*
X2467Y938D01*
X2287Y937D02*
X2295Y937D01*
X2348Y937D02*
X2356Y937D01*
X2390Y937D02*
X2399Y937D01*
X2424Y937D02*
X2433Y937D01*
X2458Y937D02*
X2467Y937D01*
X2287Y936D02*
X2295Y936D01*
X2348Y936D02*
X2356Y936D01*
X2390Y936D02*
X2399Y936D01*
X2424Y936D02*
X2433Y936D01*
X2458Y936D02*
X2467Y936D01*
X2288Y935D02*
X2295Y935D01*
X2348Y935D02*
X2356Y935D01*
X2390Y935D02*
X2399Y935D01*
X2424Y935D02*
X2433Y935D01*
X2458Y935D02*
X2467Y935D01*
X2288Y934D02*
X2295Y934D01*
X2348Y934D02*
X2356Y934D01*
X2390Y934D02*
X2399Y934D01*
X2424Y934D02*
X2433Y934D01*
X2458Y934D02*
X2467Y934D01*
X2288Y933D02*
X2295Y933D01*
X2349Y933D02*
X2355Y933D01*
X2390Y933D02*
X2399Y933D01*
X2424Y933D02*
X2433Y933D01*
X2458Y933D02*
X2467Y933D01*
X2289Y932D02*
X2294Y932D01*
X2350Y932D02*
X2354Y932D01*
X2390Y932D02*
X2399Y932D01*
X2424Y932D02*
X2433Y932D01*
X2458Y932D02*
X2467Y932D01*
X2390Y931D02*
X2399Y931D01*
X2424Y931D02*
X2433Y931D01*
X2458Y931D02*
X2467Y931D01*
X2390Y930D02*
X2399Y930D01*
X2424Y930D02*
X2433Y930D01*
X2458Y930D02*
X2467Y930D01*
X2390Y929D02*
X2467Y929D01*
X2390Y928D02*
X2467Y928D01*
X2390Y927D02*
X2467Y927D01*
X2390Y926D02*
X2467Y926D01*
X2390Y925D02*
X2467Y925D01*
X2390Y924D02*
X2467Y924D01*
X2390Y923D02*
X2467Y923D01*
X2390Y922D02*
X2467Y922D01*
X2390Y921D02*
X2467Y921D01*
X2390Y920D02*
X2467Y920D01*
X2293Y910D02*
X2351Y910D01*
X2291Y909D02*
X2352Y909D01*
X2290Y908D02*
X2353Y908D01*
X2289Y907D02*
X2354Y907D01*
X2288Y906D02*
X2355Y906D01*
X2288Y905D02*
X2355Y905D01*
X2288Y904D02*
X2356Y904D01*
X2288Y903D02*
X2356Y903D01*
X2287Y902D02*
X2356Y902D01*
X2287Y901D02*
X2295Y901D01*
X2348Y901D02*
X2356Y901D01*
X2287Y900D02*
X2295Y900D01*
X2348Y900D02*
X2356Y900D01*
X2287Y899D02*
X2295Y899D01*
X2348Y899D02*
X2356Y899D01*
X2287Y898D02*
X2295Y898D01*
X2348Y898D02*
X2356Y898D01*
X2287Y897D02*
X2295Y897D01*
X2348Y897D02*
X2356Y897D01*
X2287Y896D02*
X2295Y896D01*
X2348Y896D02*
X2356Y896D01*
X2287Y895D02*
X2295Y895D01*
X2348Y895D02*
X2356Y895D01*
X2287Y894D02*
X2295Y894D01*
X2348Y894D02*
X2356Y894D01*
X2287Y893D02*
X2295Y893D01*
X2348Y893D02*
X2356Y893D01*
X2287Y892D02*
X2295Y892D01*
X2348Y892D02*
X2356Y892D01*
X2287Y891D02*
X2295Y891D01*
X2348Y891D02*
X2356Y891D01*
X2287Y890D02*
X2295Y890D01*
X2348Y890D02*
X2356Y890D01*
X2287Y889D02*
X2295Y889D01*
X2348Y889D02*
X2356Y889D01*
X2287Y888D02*
X2295Y888D01*
X2348Y888D02*
X2356Y888D01*
X2287Y887D02*
X2295Y887D01*
X2348Y887D02*
X2356Y887D01*
X2287Y886D02*
X2295Y886D01*
X2348Y886D02*
X2356Y886D01*
X2287Y885D02*
X2295Y885D01*
X2348Y885D02*
X2356Y885D01*
X2287Y884D02*
X2295Y884D01*
X2348Y884D02*
X2356Y884D01*
X2287Y883D02*
X2295Y883D01*
X2348Y883D02*
X2356Y883D01*
X2287Y882D02*
X2295Y882D01*
X2348Y882D02*
X2356Y882D01*
X2287Y881D02*
X2295Y881D01*
X2348Y881D02*
X2356Y881D01*
X2287Y880D02*
X2295Y880D01*
X2348Y880D02*
X2356Y880D01*
X2287Y879D02*
X2295Y879D01*
X2348Y879D02*
X2356Y879D01*
X2287Y878D02*
X2295Y878D01*
X2348Y878D02*
X2356Y878D01*
X2287Y877D02*
X2295Y877D01*
X2348Y877D02*
X2356Y877D01*
X2287Y876D02*
X2295Y876D01*
X2348Y876D02*
X2356Y876D01*
X2287Y875D02*
X2356Y875D01*
X2288Y874D02*
X2356Y874D01*
X2288Y873D02*
X2356Y873D01*
X2288Y872D02*
X2355Y872D01*
X2289Y871D02*
X2355Y871D01*
X2289Y870D02*
X2354Y870D01*
X2290Y869D02*
X2353Y869D01*
X2292Y868D02*
X2352Y868D01*
X2294Y867D02*
X2350Y867D01*
X2290Y846D02*
X2293Y846D01*
X2324Y846D02*
X2350Y846D01*
X2289Y845D02*
X2294Y845D01*
X2322Y845D02*
X2352Y845D01*
X2288Y844D02*
X2295Y844D01*
X2321Y844D02*
X2353Y844D01*
X2288Y843D02*
X2295Y843D01*
X2320Y843D02*
X2354Y843D01*
X2287Y842D02*
X2295Y842D01*
X2319Y842D02*
X2355Y842D01*
X2287Y841D02*
X2295Y841D01*
X2318Y841D02*
X2355Y841D01*
X2287Y840D02*
X2295Y840D01*
X2318Y840D02*
X2356Y840D01*
X2287Y839D02*
X2295Y839D01*
X2318Y839D02*
X2356Y839D01*
X2287Y838D02*
X2295Y838D01*
X2318Y838D02*
X2356Y838D01*
X2287Y837D02*
X2295Y837D01*
X2318Y837D02*
X2326Y837D01*
X2348Y837D02*
X2356Y837D01*
X2287Y836D02*
X2295Y836D01*
X2318Y836D02*
X2326Y836D01*
X2348Y836D02*
X2356Y836D01*
X2287Y835D02*
X2295Y835D01*
X2318Y835D02*
X2326Y835D01*
X2348Y835D02*
X2356Y835D01*
X2287Y834D02*
X2295Y834D01*
X2318Y834D02*
X2326Y834D01*
X2348Y834D02*
X2356Y834D01*
X2287Y833D02*
X2295Y833D01*
X2318Y833D02*
X2326Y833D01*
X2348Y833D02*
X2356Y833D01*
X2287Y832D02*
X2295Y832D01*
X2318Y832D02*
X2326Y832D01*
X2348Y832D02*
X2356Y832D01*
X2287Y831D02*
X2295Y831D01*
X2318Y831D02*
X2326Y831D01*
X2348Y831D02*
X2356Y831D01*
X2287Y830D02*
X2295Y830D01*
X2318Y830D02*
X2326Y830D01*
X2348Y830D02*
X2356Y830D01*
X2287Y829D02*
X2295Y829D01*
X2318Y829D02*
X2326Y829D01*
X2348Y829D02*
X2356Y829D01*
X2287Y828D02*
X2295Y828D01*
X2318Y828D02*
X2326Y828D01*
X2348Y828D02*
X2356Y828D01*
X2287Y827D02*
X2295Y827D01*
X2318Y827D02*
X2326Y827D01*
X2348Y827D02*
X2356Y827D01*
X2287Y826D02*
X2295Y826D01*
X2318Y826D02*
X2326Y826D01*
X2348Y826D02*
X2356Y826D01*
X2287Y825D02*
X2295Y825D01*
X2318Y825D02*
X2326Y825D01*
X2348Y825D02*
X2356Y825D01*
X2287Y824D02*
X2295Y824D01*
X2318Y824D02*
X2326Y824D01*
X2348Y824D02*
X2356Y824D01*
X2432Y824D02*
X2443Y824D01*
X2287Y823D02*
X2295Y823D01*
X2318Y823D02*
X2326Y823D01*
X2348Y823D02*
X2356Y823D01*
X2429Y823D02*
X2444Y823D01*
X2287Y822D02*
X2295Y822D01*
X2318Y822D02*
X2326Y822D01*
X2348Y822D02*
X2356Y822D01*
X2427Y822D02*
X2445Y822D01*
X2287Y821D02*
X2295Y821D01*
X2318Y821D02*
X2326Y821D01*
X2348Y821D02*
X2356Y821D01*
X2425Y821D02*
X2446Y821D01*
X2287Y820D02*
X2295Y820D01*
X2318Y820D02*
X2326Y820D01*
X2348Y820D02*
X2356Y820D01*
X2423Y820D02*
X2446Y820D01*
X2287Y819D02*
X2295Y819D01*
X2318Y819D02*
X2326Y819D01*
X2348Y819D02*
X2356Y819D01*
X2420Y819D02*
X2446Y819D01*
X2287Y818D02*
X2295Y818D01*
X2318Y818D02*
X2326Y818D01*
X2348Y818D02*
X2356Y818D01*
X2418Y818D02*
X2446Y818D01*
X2287Y817D02*
X2295Y817D01*
X2318Y817D02*
X2326Y817D01*
X2348Y817D02*
X2356Y817D01*
X2416Y817D02*
X2445Y817D01*
X2287Y816D02*
X2295Y816D01*
X2318Y816D02*
X2326Y816D01*
X2348Y816D02*
X2356Y816D01*
X2413Y816D02*
X2445Y816D01*
X2287Y815D02*
X2295Y815D01*
X2318Y815D02*
X2326Y815D01*
X2348Y815D02*
X2356Y815D01*
X2411Y815D02*
X2443Y815D01*
X2287Y814D02*
X2295Y814D01*
X2318Y814D02*
X2326Y814D01*
X2348Y814D02*
X2356Y814D01*
X2409Y814D02*
X2433Y814D01*
X2287Y813D02*
X2295Y813D01*
X2318Y813D02*
X2326Y813D01*
X2348Y813D02*
X2356Y813D01*
X2407Y813D02*
X2431Y813D01*
X2287Y812D02*
X2295Y812D01*
X2318Y812D02*
X2326Y812D01*
X2348Y812D02*
X2356Y812D01*
X2404Y812D02*
X2428Y812D01*
X2287Y811D02*
X2326Y811D01*
X2348Y811D02*
X2356Y811D01*
X2402Y811D02*
X2426Y811D01*
X2287Y810D02*
X2326Y810D01*
X2348Y810D02*
X2356Y810D01*
X2400Y810D02*
X2424Y810D01*
X2287Y809D02*
X2325Y809D01*
X2348Y809D02*
X2356Y809D01*
X2397Y809D02*
X2422Y809D01*
X2287Y808D02*
X2325Y808D01*
X2348Y808D02*
X2356Y808D01*
X2395Y808D02*
X2419Y808D01*
X2287Y807D02*
X2325Y807D01*
X2348Y807D02*
X2356Y807D01*
X2393Y807D02*
X2417Y807D01*
X2287Y806D02*
X2324Y806D01*
X2348Y806D02*
X2356Y806D01*
X2391Y806D02*
X2415Y806D01*
X2287Y805D02*
X2323Y805D01*
X2348Y805D02*
X2356Y805D01*
X2388Y805D02*
X2413Y805D01*
X2287Y804D02*
X2322Y804D01*
X2349Y804D02*
X2355Y804D01*
X2386Y804D02*
X2410Y804D01*
X2287Y803D02*
X2321Y803D01*
X2350Y803D02*
X2354Y803D01*
X2384Y803D02*
X2408Y803D01*
X2381Y802D02*
X2406Y802D01*
X2379Y801D02*
X2404Y801D01*
X2377Y800D02*
X2404Y800D01*
X2375Y799D02*
X2404Y799D01*
X2372Y798D02*
X2404Y798D01*
X2371Y797D02*
X2405Y797D01*
X2370Y796D02*
X2392Y796D01*
X2394Y796D02*
X2408Y796D01*
X2369Y795D02*
X2390Y795D01*
X2394Y795D02*
X2410Y795D01*
X2369Y794D02*
X2387Y794D01*
X2394Y794D02*
X2412Y794D01*
X2369Y793D02*
X2385Y793D01*
X2395Y793D02*
X2415Y793D01*
X2369Y792D02*
X2383Y792D01*
X2395Y792D02*
X2417Y792D01*
X2369Y791D02*
X2381Y791D01*
X2396Y791D02*
X2419Y791D01*
X2369Y790D02*
X2378Y790D01*
X2397Y790D02*
X2421Y790D01*
X2369Y789D02*
X2378Y789D01*
X2400Y789D02*
X2424Y789D01*
X2369Y788D02*
X2378Y788D01*
X2402Y788D02*
X2426Y788D01*
X2369Y787D02*
X2378Y787D01*
X2404Y787D02*
X2428Y787D01*
X2369Y786D02*
X2378Y786D01*
X2406Y786D02*
X2431Y786D01*
X2369Y785D02*
X2378Y785D01*
X2409Y785D02*
X2433Y785D01*
X2369Y784D02*
X2378Y784D01*
X2411Y784D02*
X2443Y784D01*
X2369Y783D02*
X2378Y783D01*
X2413Y783D02*
X2445Y783D01*
X2369Y782D02*
X2378Y782D01*
X2415Y782D02*
X2445Y782D01*
X2369Y781D02*
X2378Y781D01*
X2418Y781D02*
X2446Y781D01*
X2369Y780D02*
X2378Y780D01*
X2420Y780D02*
X2446Y780D01*
X2369Y779D02*
X2378Y779D01*
X2422Y779D02*
X2446Y779D01*
X2369Y778D02*
X2378Y778D01*
X2425Y778D02*
X2446Y778D01*
X2370Y777D02*
X2377Y777D01*
X2427Y777D02*
X2445Y777D01*
X2371Y776D02*
X2376Y776D01*
X2429Y776D02*
X2444Y776D01*
X2372Y775D02*
X2375Y775D01*
X2431Y775D02*
X2443Y775D01*
X2395Y752D02*
X2395Y752D01*
X2416Y752D02*
X2429Y752D01*
X2392Y751D02*
X2397Y751D01*
X2413Y751D02*
X2434Y751D01*
X2391Y750D02*
X2398Y750D01*
X2412Y750D02*
X2435Y750D01*
X2391Y749D02*
X2399Y749D01*
X2412Y749D02*
X2437Y749D01*
X2390Y748D02*
X2399Y748D01*
X2412Y748D02*
X2438Y748D01*
X2390Y747D02*
X2399Y747D01*
X2411Y747D02*
X2439Y747D01*
X2390Y746D02*
X2399Y746D01*
X2411Y746D02*
X2440Y746D01*
X2390Y745D02*
X2399Y745D01*
X2411Y745D02*
X2441Y745D01*
X2390Y744D02*
X2399Y744D01*
X2411Y744D02*
X2442Y744D01*
X2390Y743D02*
X2399Y743D01*
X2411Y743D02*
X2443Y743D01*
X2390Y742D02*
X2399Y742D01*
X2411Y742D02*
X2421Y742D01*
X2429Y742D02*
X2443Y742D01*
X2390Y741D02*
X2399Y741D01*
X2411Y741D02*
X2421Y741D01*
X2432Y741D02*
X2444Y741D01*
X2390Y740D02*
X2399Y740D01*
X2411Y740D02*
X2421Y740D01*
X2433Y740D02*
X2444Y740D01*
X2390Y739D02*
X2399Y739D01*
X2411Y739D02*
X2421Y739D01*
X2434Y739D02*
X2445Y739D01*
X2390Y738D02*
X2399Y738D01*
X2411Y738D02*
X2421Y738D01*
X2435Y738D02*
X2445Y738D01*
X2390Y737D02*
X2399Y737D01*
X2411Y737D02*
X2421Y737D01*
X2436Y737D02*
X2446Y737D01*
X2390Y736D02*
X2399Y736D01*
X2411Y736D02*
X2421Y736D01*
X2436Y736D02*
X2446Y736D01*
X2390Y735D02*
X2399Y735D01*
X2411Y735D02*
X2421Y735D01*
X2437Y735D02*
X2446Y735D01*
X2390Y734D02*
X2399Y734D01*
X2411Y734D02*
X2421Y734D01*
X2437Y734D02*
X2446Y734D01*
X2390Y733D02*
X2399Y733D01*
X2411Y733D02*
X2421Y733D01*
X2437Y733D02*
X2446Y733D01*
X2390Y732D02*
X2399Y732D01*
X2411Y732D02*
X2421Y732D01*
X2437Y732D02*
X2446Y732D01*
X2390Y731D02*
X2399Y731D01*
X2411Y731D02*
X2421Y731D01*
X2437Y731D02*
X2446Y731D01*
X2390Y730D02*
X2399Y730D01*
X2411Y730D02*
X2421Y730D01*
X2437Y730D02*
X2446Y730D01*
X2390Y729D02*
X2399Y729D01*
X2411Y729D02*
X2421Y729D01*
X2437Y729D02*
X2446Y729D01*
X2390Y728D02*
X2399Y728D01*
X2411Y728D02*
X2421Y728D01*
X2437Y728D02*
X2446Y728D01*
X2390Y727D02*
X2399Y727D01*
X2411Y727D02*
X2421Y727D01*
X2437Y727D02*
X2446Y727D01*
X2390Y726D02*
X2399Y726D01*
X2411Y726D02*
X2421Y726D01*
X2437Y726D02*
X2446Y726D01*
X2390Y725D02*
X2399Y725D01*
X2411Y725D02*
X2421Y725D01*
X2437Y725D02*
X2446Y725D01*
X2390Y724D02*
X2399Y724D01*
X2411Y724D02*
X2421Y724D01*
X2437Y724D02*
X2446Y724D01*
X2390Y723D02*
X2399Y723D01*
X2411Y723D02*
X2421Y723D01*
X2437Y723D02*
X2446Y723D01*
X2390Y722D02*
X2399Y722D01*
X2411Y722D02*
X2421Y722D01*
X2437Y722D02*
X2446Y722D01*
X2390Y721D02*
X2399Y721D01*
X2411Y721D02*
X2421Y721D01*
X2437Y721D02*
X2446Y721D01*
X2390Y720D02*
X2399Y720D01*
X2411Y720D02*
X2421Y720D01*
X2437Y720D02*
X2446Y720D01*
X2390Y719D02*
X2400Y719D01*
X2411Y719D02*
X2421Y719D01*
X2437Y719D02*
X2446Y719D01*
X2390Y718D02*
X2400Y718D01*
X2411Y718D02*
X2421Y718D01*
X2436Y718D02*
X2446Y718D01*
X2317Y717D02*
X2323Y717D01*
X2391Y717D02*
X2401Y717D01*
X2411Y717D02*
X2421Y717D01*
X2435Y717D02*
X2445Y717D01*
X2315Y716D02*
X2324Y716D01*
X2391Y716D02*
X2402Y716D01*
X2411Y716D02*
X2421Y716D01*
X2434Y716D02*
X2445Y716D01*
X2314Y715D02*
X2325Y715D01*
X2391Y715D02*
X2403Y715D01*
X2411Y715D02*
X2421Y715D01*
X2433Y715D02*
X2445Y715D01*
X2314Y714D02*
X2326Y714D01*
X2392Y714D02*
X2404Y714D01*
X2411Y714D02*
X2421Y714D01*
X2432Y714D02*
X2444Y714D01*
X2314Y713D02*
X2326Y713D01*
X2392Y713D02*
X2405Y713D01*
X2411Y713D02*
X2421Y713D01*
X2431Y713D02*
X2444Y713D01*
X2314Y712D02*
X2326Y712D01*
X2393Y712D02*
X2443Y712D01*
X2314Y711D02*
X2326Y711D01*
X2394Y711D02*
X2442Y711D01*
X2314Y710D02*
X2326Y710D01*
X2395Y710D02*
X2441Y710D01*
X2314Y709D02*
X2326Y709D01*
X2396Y709D02*
X2440Y709D01*
X2314Y708D02*
X2326Y708D01*
X2396Y708D02*
X2440Y708D01*
X2314Y707D02*
X2326Y707D01*
X2397Y707D02*
X2439Y707D01*
X2314Y706D02*
X2326Y706D01*
X2398Y706D02*
X2438Y706D01*
X2314Y705D02*
X2326Y705D01*
X2400Y705D02*
X2436Y705D01*
X2314Y704D02*
X2326Y704D01*
X2401Y704D02*
X2435Y704D01*
X2314Y703D02*
X2326Y703D01*
X2404Y703D02*
X2432Y703D01*
X2314Y702D02*
X2326Y702D01*
X2314Y701D02*
X2326Y701D01*
X2314Y700D02*
X2326Y700D01*
X2314Y699D02*
X2326Y699D01*
X2314Y698D02*
X2326Y698D01*
X2314Y697D02*
X2326Y697D01*
X2314Y696D02*
X2326Y696D01*
X2314Y695D02*
X2326Y695D01*
X2314Y694D02*
X2326Y694D01*
X2314Y693D02*
X2326Y693D01*
X2314Y692D02*
X2326Y692D01*
X2314Y691D02*
X2326Y691D01*
X2314Y690D02*
X2326Y690D01*
X2314Y689D02*
X2326Y689D01*
X2314Y688D02*
X2326Y688D01*
X2314Y687D02*
X2326Y687D01*
X2314Y686D02*
X2326Y686D01*
X2314Y685D02*
X2326Y685D01*
X2314Y684D02*
X2326Y684D01*
X2314Y683D02*
X2326Y683D01*
X2314Y682D02*
X2326Y682D01*
X2314Y681D02*
X2326Y681D01*
X2314Y680D02*
X2326Y680D01*
X2314Y679D02*
X2326Y679D01*
X2393Y679D02*
X2397Y679D01*
X2314Y678D02*
X2326Y678D01*
X2391Y678D02*
X2398Y678D01*
X2314Y677D02*
X2326Y677D01*
X2391Y677D02*
X2399Y677D01*
X2314Y676D02*
X2325Y676D01*
X2390Y676D02*
X2400Y676D01*
X2315Y675D02*
X2325Y675D01*
X2390Y675D02*
X2401Y675D01*
X2316Y674D02*
X2324Y674D01*
X2390Y674D02*
X2402Y674D01*
X2439Y674D02*
X2444Y674D01*
X2391Y673D02*
X2402Y673D01*
X2438Y673D02*
X2445Y673D01*
X2391Y672D02*
X2403Y672D01*
X2437Y672D02*
X2445Y672D01*
X2392Y671D02*
X2404Y671D01*
X2436Y671D02*
X2446Y671D01*
X2393Y670D02*
X2405Y670D01*
X2435Y670D02*
X2446Y670D01*
X2394Y669D02*
X2406Y669D01*
X2435Y669D02*
X2446Y669D01*
X2394Y668D02*
X2407Y668D01*
X2434Y668D02*
X2446Y668D01*
X2395Y667D02*
X2408Y667D01*
X2433Y667D02*
X2445Y667D01*
X2396Y666D02*
X2408Y666D01*
X2432Y666D02*
X2444Y666D01*
X2397Y665D02*
X2409Y665D01*
X2431Y665D02*
X2443Y665D01*
X2398Y664D02*
X2410Y664D01*
X2430Y664D02*
X2443Y664D01*
X2399Y663D02*
X2411Y663D01*
X2429Y663D02*
X2442Y663D01*
X2399Y662D02*
X2412Y662D01*
X2429Y662D02*
X2441Y662D01*
X2400Y661D02*
X2413Y661D01*
X2428Y661D02*
X2440Y661D01*
X2401Y660D02*
X2414Y660D01*
X2427Y660D02*
X2439Y660D01*
X2402Y659D02*
X2414Y659D01*
X2426Y659D02*
X2438Y659D01*
X2403Y658D02*
X2415Y658D01*
X2425Y658D02*
X2438Y658D01*
X2404Y657D02*
X2416Y657D01*
X2424Y657D02*
X2437Y657D01*
X2405Y656D02*
X2417Y656D01*
X2423Y656D02*
X2436Y656D01*
X2405Y655D02*
X2418Y655D01*
X2423Y655D02*
X2435Y655D01*
X2406Y654D02*
X2419Y654D01*
X2422Y654D02*
X2434Y654D01*
X2407Y653D02*
X2433Y653D01*
X2408Y652D02*
X2432Y652D01*
X2409Y651D02*
X2432Y651D01*
X2410Y650D02*
X2431Y650D01*
X2411Y649D02*
X2430Y649D01*
X2411Y648D02*
X2429Y648D01*
X2412Y647D02*
X2428Y647D01*
X2413Y646D02*
X2427Y646D01*
X2414Y645D02*
X2426Y645D01*
X2413Y644D02*
X2426Y644D01*
X2412Y643D02*
X2425Y643D01*
X2412Y642D02*
X2424Y642D01*
X2411Y641D02*
X2423Y641D01*
X2395Y640D02*
X2463Y640D01*
X2392Y639D02*
X2465Y639D01*
X2391Y638D02*
X2466Y638D01*
X2391Y637D02*
X2467Y637D01*
X2390Y636D02*
X2467Y636D01*
X2390Y635D02*
X2467Y635D01*
X2390Y634D02*
X2467Y634D01*
X2391Y633D02*
X2467Y633D01*
X2391Y632D02*
X2466Y632D01*
X2392Y631D02*
X2465Y631D01*
X2393Y607D02*
X2408Y607D01*
X2392Y606D02*
X2434Y606D01*
X2391Y605D02*
X2437Y605D01*
X2391Y604D02*
X2439Y604D01*
X2390Y603D02*
X2440Y603D01*
X2390Y602D02*
X2441Y602D01*
X2390Y601D02*
X2442Y601D01*
X2391Y600D02*
X2443Y600D01*
X2392Y599D02*
X2444Y599D01*
X2393Y598D02*
X2444Y598D01*
X2408Y597D02*
X2445Y597D01*
X2433Y596D02*
X2445Y596D01*
X2435Y595D02*
X2445Y595D01*
X2436Y594D02*
X2446Y594D01*
X2437Y593D02*
X2446Y593D01*
X2437Y592D02*
X2446Y592D01*
X2437Y591D02*
X2446Y591D01*
X2437Y590D02*
X2446Y590D01*
X2437Y589D02*
X2446Y589D01*
X2290Y588D02*
X2293Y588D01*
X2437Y588D02*
X2446Y588D01*
X2289Y587D02*
X2294Y587D01*
X2437Y587D02*
X2446Y587D01*
X2288Y586D02*
X2295Y586D01*
X2437Y586D02*
X2446Y586D01*
X2288Y585D02*
X2295Y585D01*
X2437Y585D02*
X2446Y585D01*
X2287Y584D02*
X2295Y584D01*
X2437Y584D02*
X2446Y584D01*
X2287Y583D02*
X2295Y583D01*
X2436Y583D02*
X2446Y583D01*
X2287Y582D02*
X2295Y582D01*
X2436Y582D02*
X2446Y582D01*
X2287Y581D02*
X2295Y581D01*
X2435Y581D02*
X2445Y581D01*
X2287Y580D02*
X2295Y580D01*
X2434Y580D02*
X2445Y580D01*
X2287Y579D02*
X2295Y579D01*
X2434Y579D02*
X2444Y579D01*
X2287Y578D02*
X2295Y578D01*
X2433Y578D02*
X2444Y578D01*
X2287Y577D02*
X2295Y577D01*
X2432Y577D02*
X2443Y577D01*
X2287Y576D02*
X2295Y576D01*
X2432Y576D02*
X2443Y576D01*
X2287Y575D02*
X2295Y575D01*
X2431Y575D02*
X2442Y575D01*
X2287Y574D02*
X2295Y574D01*
X2430Y574D02*
X2441Y574D01*
X2287Y573D02*
X2295Y573D01*
X2430Y573D02*
X2441Y573D01*
X2287Y572D02*
X2295Y572D01*
X2429Y572D02*
X2440Y572D01*
X2287Y571D02*
X2295Y571D01*
X2428Y571D02*
X2439Y571D01*
X2287Y570D02*
X2295Y570D01*
X2428Y570D02*
X2439Y570D01*
X2287Y569D02*
X2295Y569D01*
X2427Y569D02*
X2438Y569D01*
X2287Y568D02*
X2295Y568D01*
X2426Y568D02*
X2438Y568D01*
X2287Y567D02*
X2295Y567D01*
X2393Y567D02*
X2444Y567D01*
X2287Y566D02*
X2295Y566D01*
X2391Y566D02*
X2445Y566D01*
X2287Y565D02*
X2295Y565D01*
X2391Y565D02*
X2445Y565D01*
X2287Y564D02*
X2295Y564D01*
X2390Y564D02*
X2446Y564D01*
X2287Y563D02*
X2295Y563D01*
X2390Y563D02*
X2446Y563D01*
X2287Y562D02*
X2295Y562D01*
X2390Y562D02*
X2446Y562D01*
X2287Y561D02*
X2295Y561D01*
X2391Y561D02*
X2446Y561D01*
X2287Y560D02*
X2295Y560D01*
X2391Y560D02*
X2445Y560D01*
X2287Y559D02*
X2295Y559D01*
X2392Y559D02*
X2444Y559D01*
X2287Y558D02*
X2295Y558D01*
X2394Y558D02*
X2442Y558D01*
X2287Y557D02*
X2295Y557D01*
X2287Y556D02*
X2295Y556D01*
X2287Y555D02*
X2295Y555D01*
X2287Y554D02*
X2295Y554D01*
X2287Y553D02*
X2352Y553D01*
X2287Y552D02*
X2354Y552D01*
X2287Y551D02*
X2355Y551D01*
X2287Y550D02*
X2356Y550D01*
X2287Y549D02*
X2356Y549D01*
X2287Y548D02*
X2356Y548D01*
X2287Y547D02*
X2356Y547D01*
X2287Y546D02*
X2355Y546D01*
X2287Y545D02*
X2354Y545D01*
X2405Y535D02*
X2431Y535D01*
X2402Y534D02*
X2434Y534D01*
X2401Y533D02*
X2436Y533D01*
X2399Y532D02*
X2437Y532D01*
X2398Y531D02*
X2438Y531D01*
X2397Y530D02*
X2439Y530D01*
X2396Y529D02*
X2440Y529D01*
X2395Y528D02*
X2441Y528D01*
X2394Y527D02*
X2442Y527D01*
X2394Y526D02*
X2443Y526D01*
X2393Y525D02*
X2406Y525D01*
X2430Y525D02*
X2443Y525D01*
X2392Y524D02*
X2404Y524D01*
X2432Y524D02*
X2444Y524D01*
X2289Y523D02*
X2294Y523D01*
X2350Y523D02*
X2354Y523D01*
X2392Y523D02*
X2403Y523D01*
X2433Y523D02*
X2444Y523D01*
X2288Y522D02*
X2295Y522D01*
X2349Y522D02*
X2355Y522D01*
X2391Y522D02*
X2402Y522D01*
X2434Y522D02*
X2445Y522D01*
X2288Y521D02*
X2296Y521D01*
X2348Y521D02*
X2356Y521D01*
X2391Y521D02*
X2401Y521D01*
X2435Y521D02*
X2445Y521D01*
X2288Y520D02*
X2296Y520D01*
X2347Y520D02*
X2356Y520D01*
X2391Y520D02*
X2401Y520D01*
X2436Y520D02*
X2446Y520D01*
X2287Y519D02*
X2297Y519D01*
X2346Y519D02*
X2356Y519D01*
X2390Y519D02*
X2400Y519D01*
X2436Y519D02*
X2446Y519D01*
X2288Y518D02*
X2298Y518D01*
X2345Y518D02*
X2356Y518D01*
X2390Y518D02*
X2400Y518D01*
X2437Y518D02*
X2446Y518D01*
X2288Y517D02*
X2299Y517D01*
X2344Y517D02*
X2355Y517D01*
X2390Y517D02*
X2399Y517D01*
X2437Y517D02*
X2446Y517D01*
X2289Y516D02*
X2300Y516D01*
X2344Y516D02*
X2354Y516D01*
X2390Y516D02*
X2399Y516D01*
X2437Y516D02*
X2446Y516D01*
X2290Y515D02*
X2301Y515D01*
X2343Y515D02*
X2354Y515D01*
X2390Y515D02*
X2399Y515D01*
X2437Y515D02*
X2446Y515D01*
X2291Y514D02*
X2302Y514D01*
X2342Y514D02*
X2353Y514D01*
X2390Y514D02*
X2399Y514D01*
X2437Y514D02*
X2446Y514D01*
X2291Y513D02*
X2302Y513D01*
X2341Y513D02*
X2352Y513D01*
X2390Y513D02*
X2399Y513D01*
X2437Y513D02*
X2446Y513D01*
X2292Y512D02*
X2303Y512D01*
X2340Y512D02*
X2351Y512D01*
X2390Y512D02*
X2399Y512D01*
X2437Y512D02*
X2446Y512D01*
X2293Y511D02*
X2304Y511D01*
X2339Y511D02*
X2350Y511D01*
X2390Y511D02*
X2399Y511D01*
X2437Y511D02*
X2446Y511D01*
X2294Y510D02*
X2305Y510D01*
X2338Y510D02*
X2349Y510D01*
X2390Y510D02*
X2399Y510D01*
X2437Y510D02*
X2446Y510D01*
X2295Y509D02*
X2306Y509D01*
X2338Y509D02*
X2348Y509D01*
X2390Y509D02*
X2399Y509D01*
X2437Y509D02*
X2446Y509D01*
X2296Y508D02*
X2307Y508D01*
X2337Y508D02*
X2348Y508D01*
X2390Y508D02*
X2399Y508D01*
X2437Y508D02*
X2446Y508D01*
X2297Y507D02*
X2308Y507D01*
X2336Y507D02*
X2347Y507D01*
X2390Y507D02*
X2399Y507D01*
X2437Y507D02*
X2446Y507D01*
X2297Y506D02*
X2308Y506D01*
X2335Y506D02*
X2346Y506D01*
X2390Y506D02*
X2399Y506D01*
X2437Y506D02*
X2446Y506D01*
X2298Y505D02*
X2309Y505D01*
X2334Y505D02*
X2345Y505D01*
X2390Y505D02*
X2399Y505D01*
X2437Y505D02*
X2446Y505D01*
X2299Y504D02*
X2310Y504D01*
X2333Y504D02*
X2344Y504D01*
X2390Y504D02*
X2399Y504D01*
X2437Y504D02*
X2446Y504D01*
X2300Y503D02*
X2311Y503D01*
X2332Y503D02*
X2343Y503D01*
X2390Y503D02*
X2400Y503D01*
X2437Y503D02*
X2446Y503D01*
X2301Y502D02*
X2312Y502D01*
X2332Y502D02*
X2342Y502D01*
X2390Y502D02*
X2400Y502D01*
X2436Y502D02*
X2446Y502D01*
X2302Y501D02*
X2313Y501D01*
X2331Y501D02*
X2342Y501D01*
X2391Y501D02*
X2400Y501D01*
X2436Y501D02*
X2446Y501D01*
X2303Y500D02*
X2313Y500D01*
X2330Y500D02*
X2341Y500D01*
X2391Y500D02*
X2401Y500D01*
X2435Y500D02*
X2445Y500D01*
X2303Y499D02*
X2314Y499D01*
X2329Y499D02*
X2340Y499D01*
X2391Y499D02*
X2402Y499D01*
X2434Y499D02*
X2445Y499D01*
X2304Y498D02*
X2315Y498D01*
X2328Y498D02*
X2339Y498D01*
X2392Y498D02*
X2403Y498D01*
X2433Y498D02*
X2445Y498D01*
X2305Y497D02*
X2316Y497D01*
X2327Y497D02*
X2338Y497D01*
X2392Y497D02*
X2404Y497D01*
X2432Y497D02*
X2444Y497D01*
X2306Y496D02*
X2317Y496D01*
X2326Y496D02*
X2337Y496D01*
X2393Y496D02*
X2405Y496D01*
X2431Y496D02*
X2444Y496D01*
X2307Y495D02*
X2318Y495D01*
X2326Y495D02*
X2337Y495D01*
X2393Y495D02*
X2443Y495D01*
X2308Y494D02*
X2319Y494D01*
X2325Y494D02*
X2336Y494D01*
X2394Y494D02*
X2442Y494D01*
X2309Y493D02*
X2319Y493D01*
X2324Y493D02*
X2335Y493D01*
X2395Y493D02*
X2441Y493D01*
X2309Y492D02*
X2320Y492D01*
X2323Y492D02*
X2334Y492D01*
X2396Y492D02*
X2440Y492D01*
X2310Y491D02*
X2333Y491D01*
X2397Y491D02*
X2439Y491D01*
X2311Y490D02*
X2332Y490D01*
X2398Y490D02*
X2439Y490D01*
X2312Y489D02*
X2331Y489D01*
X2399Y489D02*
X2437Y489D01*
X2290Y488D02*
X2354Y488D01*
X2400Y488D02*
X2436Y488D01*
X2289Y487D02*
X2355Y487D01*
X2402Y487D02*
X2434Y487D01*
X2288Y486D02*
X2355Y486D01*
X2404Y486D02*
X2432Y486D01*
X2288Y485D02*
X2356Y485D01*
X2287Y484D02*
X2356Y484D01*
X2288Y483D02*
X2356Y483D01*
X2288Y482D02*
X2355Y482D01*
X2289Y481D02*
X2355Y481D01*
X2290Y480D02*
X2353Y480D01*
X2423Y462D02*
X2435Y462D01*
X2420Y461D02*
X2437Y461D01*
X2418Y460D02*
X2439Y460D01*
X2318Y459D02*
X2325Y459D01*
X2416Y459D02*
X2441Y459D01*
X2315Y458D02*
X2329Y458D01*
X2414Y458D02*
X2443Y458D01*
X2312Y457D02*
X2331Y457D01*
X2412Y457D02*
X2445Y457D01*
X2310Y456D02*
X2333Y456D01*
X2410Y456D02*
X2447Y456D01*
X2308Y455D02*
X2335Y455D01*
X2408Y455D02*
X2449Y455D01*
X2306Y454D02*
X2337Y454D01*
X2406Y454D02*
X2451Y454D01*
X2304Y453D02*
X2339Y453D01*
X2404Y453D02*
X2453Y453D01*
X2302Y452D02*
X2341Y452D01*
X2402Y452D02*
X2424Y452D01*
X2434Y452D02*
X2455Y452D01*
X2300Y451D02*
X2343Y451D01*
X2400Y451D02*
X2421Y451D01*
X2436Y451D02*
X2457Y451D01*
X2298Y450D02*
X2318Y450D01*
X2325Y450D02*
X2345Y450D01*
X2398Y450D02*
X2419Y450D01*
X2438Y450D02*
X2459Y450D01*
X2296Y449D02*
X2316Y449D01*
X2328Y449D02*
X2347Y449D01*
X2396Y449D02*
X2418Y449D01*
X2440Y449D02*
X2461Y449D01*
X2294Y448D02*
X2314Y448D01*
X2330Y448D02*
X2349Y448D01*
X2395Y448D02*
X2416Y448D01*
X2442Y448D02*
X2462Y448D01*
X2293Y447D02*
X2312Y447D01*
X2332Y447D02*
X2350Y447D01*
X2394Y447D02*
X2414Y447D01*
X2444Y447D02*
X2463Y447D01*
X2292Y446D02*
X2310Y446D01*
X2334Y446D02*
X2352Y446D01*
X2393Y446D02*
X2412Y446D01*
X2446Y446D02*
X2464Y446D01*
X2291Y445D02*
X2308Y445D01*
X2336Y445D02*
X2352Y445D01*
X2393Y445D02*
X2410Y445D01*
X2448Y445D02*
X2465Y445D01*
X2290Y444D02*
X2306Y444D01*
X2338Y444D02*
X2353Y444D01*
X2392Y444D02*
X2408Y444D01*
X2450Y444D02*
X2465Y444D01*
X2289Y443D02*
X2304Y443D01*
X2340Y443D02*
X2354Y443D01*
X2391Y443D02*
X2406Y443D01*
X2452Y443D02*
X2466Y443D01*
X2289Y442D02*
X2302Y442D01*
X2342Y442D02*
X2355Y442D01*
X2391Y442D02*
X2404Y442D01*
X2454Y442D02*
X2466Y442D01*
X2288Y441D02*
X2300Y441D01*
X2344Y441D02*
X2355Y441D01*
X2391Y441D02*
X2402Y441D01*
X2456Y441D02*
X2467Y441D01*
X2288Y440D02*
X2298Y440D01*
X2346Y440D02*
X2355Y440D01*
X2391Y440D02*
X2401Y440D01*
X2457Y440D02*
X2467Y440D01*
X2288Y439D02*
X2296Y439D01*
X2347Y439D02*
X2356Y439D01*
X2390Y439D02*
X2400Y439D01*
X2458Y439D02*
X2467Y439D01*
X2288Y438D02*
X2296Y438D01*
X2348Y438D02*
X2356Y438D01*
X2390Y438D02*
X2399Y438D01*
X2458Y438D02*
X2467Y438D01*
X2287Y437D02*
X2296Y437D01*
X2348Y437D02*
X2356Y437D01*
X2390Y437D02*
X2399Y437D01*
X2458Y437D02*
X2467Y437D01*
X2287Y436D02*
X2295Y436D01*
X2348Y436D02*
X2356Y436D01*
X2390Y436D02*
X2399Y436D01*
X2458Y436D02*
X2467Y436D01*
X2287Y435D02*
X2295Y435D01*
X2348Y435D02*
X2356Y435D01*
X2390Y435D02*
X2399Y435D01*
X2458Y435D02*
X2467Y435D01*
X2287Y434D02*
X2295Y434D01*
X2348Y434D02*
X2356Y434D01*
X2390Y434D02*
X2399Y434D01*
X2458Y434D02*
X2467Y434D01*
X2287Y433D02*
X2296Y433D01*
X2348Y433D02*
X2356Y433D01*
X2390Y433D02*
X2467Y433D01*
X2287Y432D02*
X2356Y432D01*
X2390Y432D02*
X2467Y432D01*
X2287Y431D02*
X2356Y431D01*
X2390Y431D02*
X2467Y431D01*
X2287Y430D02*
X2356Y430D01*
X2390Y430D02*
X2467Y430D01*
X2287Y429D02*
X2356Y429D01*
X2390Y429D02*
X2467Y429D01*
X2287Y428D02*
X2356Y428D01*
X2390Y428D02*
X2467Y428D01*
X2287Y427D02*
X2356Y427D01*
X2390Y427D02*
X2467Y427D01*
X2287Y426D02*
X2356Y426D01*
X2390Y426D02*
X2467Y426D01*
X2287Y425D02*
X2356Y425D01*
X2390Y425D02*
X2467Y425D01*
X2287Y424D02*
X2356Y424D01*
X2390Y424D02*
X2467Y424D01*
X2287Y423D02*
X2295Y423D01*
X2348Y423D02*
X2356Y423D01*
X2390Y423D02*
X2400Y423D01*
X2458Y423D02*
X2467Y423D01*
X2287Y422D02*
X2295Y422D01*
X2348Y422D02*
X2356Y422D01*
X2390Y422D02*
X2399Y422D01*
X2458Y422D02*
X2467Y422D01*
X2287Y421D02*
X2295Y421D01*
X2348Y421D02*
X2356Y421D01*
X2390Y421D02*
X2399Y421D01*
X2458Y421D02*
X2467Y421D01*
X2287Y420D02*
X2295Y420D01*
X2348Y420D02*
X2356Y420D01*
X2390Y420D02*
X2399Y420D01*
X2458Y420D02*
X2467Y420D01*
X2288Y419D02*
X2295Y419D01*
X2348Y419D02*
X2356Y419D01*
X2390Y419D02*
X2399Y419D01*
X2458Y419D02*
X2467Y419D01*
X2288Y418D02*
X2295Y418D01*
X2348Y418D02*
X2356Y418D01*
X2390Y418D02*
X2399Y418D01*
X2458Y418D02*
X2467Y418D01*
X2288Y417D02*
X2295Y417D01*
X2349Y417D02*
X2355Y417D01*
X2390Y417D02*
X2399Y417D01*
X2458Y417D02*
X2467Y417D01*
X2289Y416D02*
X2294Y416D01*
X2350Y416D02*
X2354Y416D01*
X2391Y416D02*
X2399Y416D01*
X2459Y416D02*
X2467Y416D01*
X2391Y415D02*
X2398Y415D01*
X2459Y415D02*
X2466Y415D01*
X2393Y414D02*
X2397Y414D01*
X2461Y414D02*
X2465Y414D01*
D02*
G04 End of Copper0*
M02*