; NON-PLATED HOLES START AT T1
; THROUGH (PLATED) HOLES START AT T100
M48
INCH
T100C0.035433
T101C0.038000
T102C0.015748
T103C0.040278
%
T100
X015708Y018543
X018708Y018543
T101
X005204Y020210
X001910Y020215
X020993Y010215
X002910Y020215
X008841Y018933
X006841Y018933
X022326Y010201
X020993Y007215
X007841Y018933
X022326Y015201
X020993Y013215
X000993Y012215
X022326Y013201
X000993Y009215
X020993Y011215
X000993Y010215
X022326Y011201
X008846Y017814
X006846Y017814
X020993Y008215
X008530Y004160
X007846Y017814
X007530Y004160
X009530Y004160
X010993Y017215
X012993Y017215
X020993Y014215
X011993Y017215
X013993Y017215
X022326Y014201
X014993Y017215
X011530Y004160
X010530Y004160
X012530Y004160
X020993Y012215
X000993Y011215
X004204Y020210
X006204Y020210
X022326Y012201
X000910Y020215
X020993Y009215
T102
X004655Y013969
X009105Y005644
X006641Y015456
X019787Y013904
X004121Y012534
X016102Y006168
X006677Y013990
X010178Y014830
X006847Y016815
X001909Y018632
X011505Y005501
X014304Y003282
X011951Y011771
X004157Y016413
X011499Y008806
X005400Y008608
X004204Y019187
X010693Y012271
X009776Y011290
X012521Y013903
X014326Y002549
X005704Y011748
X005204Y018632
X011660Y014187
X000909Y019187
X006442Y016297
X004121Y011281
X023231Y002818
X008494Y015305
X003146Y012186
X004553Y011746
X008399Y011793
X010298Y013572
T103
X022102Y001049
X018102Y001049
X025102Y020049
X021102Y001049
X019102Y020049
X015102Y001049
X022102Y020049
X018102Y020049
X021102Y020049
X012102Y001049
X014502Y020049
X011102Y001049
X013502Y020049
X011502Y020049
X007502Y020049
X024102Y001049
X010502Y020049
X023102Y001049
X017102Y001049
X024102Y020049
X020102Y001049
X016102Y001049
X023102Y020049
X014102Y001049
X016502Y020049
X013102Y001049
X020102Y020049
X015502Y020049
X009502Y020049
X012502Y020049
X008502Y020049
X025102Y001049
T00
M30
