G04 MADE WITH FRITZING*
G04 WWW.FRITZING.ORG*
G04 DOUBLE SIDED*
G04 HOLES PLATED*
G04 CONTOUR ON CENTER OF CONTOUR VECTOR*
%ASAXBY*%
%FSLAX23Y23*%
%MOIN*%
%OFA0B0*%
%SFA1.0B1.0*%
%ADD10R,0.039370X0.070866*%
%ADD11R,0.039370X0.070865*%
%ADD12R,0.059055X0.019685*%
%ADD13R,0.019685X0.059055*%
%ADD14R,0.021654X0.047244*%
%ADD15R,0.043307X0.047244*%
%ADD16R,0.062992X0.070866*%
%ADD17R,0.070866X0.062992*%
%ADD18R,0.025000X0.050000*%
%ADD19R,0.031496X0.035433*%
%LNPASTEMASK1*%
G90*
G70*
G54D10*
X1512Y720D03*
X1453Y720D03*
G54D11*
X1866Y1389D03*
X1925Y1389D03*
G54D10*
X1748Y720D03*
G54D11*
X1807Y1389D03*
X1748Y1389D03*
X1689Y1389D03*
G54D10*
X1571Y720D03*
G54D11*
X1630Y1389D03*
X1571Y1389D03*
X1512Y1389D03*
G54D10*
X1394Y720D03*
X1866Y720D03*
X1630Y720D03*
X1689Y720D03*
G54D11*
X1453Y1389D03*
G54D10*
X1807Y720D03*
G54D11*
X1394Y1389D03*
G54D10*
X1925Y720D03*
G54D12*
X1134Y1225D03*
X1134Y1288D03*
X1134Y1351D03*
G54D13*
X1063Y1422D03*
X1000Y1422D03*
X937Y1422D03*
G54D14*
X1157Y715D03*
X1194Y715D03*
X1232Y715D03*
X1232Y817D03*
X1157Y817D03*
G54D15*
X218Y1492D03*
X218Y1559D03*
X90Y1660D03*
X90Y1727D03*
X596Y1548D03*
X596Y1481D03*
X406Y1429D03*
X406Y1496D03*
X283Y1608D03*
X283Y1675D03*
X468Y1679D03*
X468Y1612D03*
G54D16*
X1852Y1492D03*
X1962Y1492D03*
X803Y848D03*
X914Y848D03*
G54D17*
X1257Y1148D03*
X1257Y1038D03*
G54D16*
X1150Y625D03*
X1260Y625D03*
X1148Y950D03*
X1258Y950D03*
X915Y1545D03*
X1025Y1545D03*
G54D18*
X303Y1364D03*
X338Y1364D03*
X373Y1364D03*
X370Y860D03*
X405Y860D03*
X440Y860D03*
X161Y1496D03*
X126Y1496D03*
X91Y1496D03*
X467Y1505D03*
X502Y1505D03*
X537Y1505D03*
G54D19*
X332Y1551D03*
X407Y1551D03*
X369Y1634D03*
X407Y974D03*
X482Y974D03*
X444Y1057D03*
X524Y1597D03*
X599Y1597D03*
X562Y1680D03*
X143Y1642D03*
X217Y1642D03*
X180Y1725D03*
G36*
X738Y994D02*
X758Y994D01*
X758Y935D01*
X738Y935D01*
X738Y994D01*
G37*
D02*
G36*
X769Y994D02*
X789Y994D01*
X789Y935D01*
X769Y935D01*
X769Y994D01*
G37*
D02*
G36*
X801Y994D02*
X821Y994D01*
X821Y935D01*
X801Y935D01*
X801Y994D01*
G37*
D02*
G36*
X832Y994D02*
X852Y994D01*
X852Y935D01*
X832Y935D01*
X832Y994D01*
G37*
D02*
G36*
X864Y994D02*
X884Y994D01*
X884Y935D01*
X864Y935D01*
X864Y994D01*
G37*
D02*
G36*
X895Y994D02*
X915Y994D01*
X915Y935D01*
X895Y935D01*
X895Y994D01*
G37*
D02*
G36*
X927Y994D02*
X947Y994D01*
X947Y935D01*
X927Y935D01*
X927Y994D01*
G37*
D02*
G36*
X958Y994D02*
X978Y994D01*
X978Y935D01*
X958Y935D01*
X958Y994D01*
G37*
D02*
G36*
X990Y994D02*
X1010Y994D01*
X1010Y935D01*
X990Y935D01*
X990Y994D01*
G37*
D02*
G36*
X1021Y994D02*
X1041Y994D01*
X1041Y935D01*
X1021Y935D01*
X1021Y994D01*
G37*
D02*
G36*
X1053Y994D02*
X1073Y994D01*
X1073Y935D01*
X1053Y935D01*
X1053Y994D01*
G37*
D02*
G36*
X1104Y1046D02*
X1163Y1046D01*
X1163Y1026D01*
X1104Y1026D01*
X1104Y1046D01*
G37*
D02*
G36*
X1104Y1077D02*
X1163Y1077D01*
X1163Y1057D01*
X1104Y1057D01*
X1104Y1077D01*
G37*
D02*
G36*
X1104Y1109D02*
X1163Y1109D01*
X1163Y1089D01*
X1104Y1089D01*
X1104Y1109D01*
G37*
D02*
G36*
X1104Y1140D02*
X1163Y1140D01*
X1163Y1120D01*
X1104Y1120D01*
X1104Y1140D01*
G37*
D02*
G36*
X1104Y1172D02*
X1163Y1172D01*
X1163Y1152D01*
X1104Y1152D01*
X1104Y1172D01*
G37*
D02*
G36*
X1104Y1203D02*
X1163Y1203D01*
X1163Y1183D01*
X1104Y1183D01*
X1104Y1203D01*
G37*
D02*
G36*
X1104Y1266D02*
X1163Y1266D01*
X1163Y1246D01*
X1104Y1246D01*
X1104Y1266D01*
G37*
D02*
G36*
X1104Y1329D02*
X1163Y1329D01*
X1163Y1309D01*
X1104Y1309D01*
X1104Y1329D01*
G37*
D02*
G36*
X1021Y1451D02*
X1041Y1451D01*
X1041Y1392D01*
X1021Y1392D01*
X1021Y1451D01*
G37*
D02*
G36*
X958Y1451D02*
X978Y1451D01*
X978Y1392D01*
X958Y1392D01*
X958Y1451D01*
G37*
D02*
G36*
X895Y1451D02*
X915Y1451D01*
X915Y1392D01*
X895Y1392D01*
X895Y1451D01*
G37*
D02*
G36*
X864Y1451D02*
X884Y1451D01*
X884Y1392D01*
X864Y1392D01*
X864Y1451D01*
G37*
D02*
G36*
X832Y1451D02*
X852Y1451D01*
X852Y1392D01*
X832Y1392D01*
X832Y1451D01*
G37*
D02*
G36*
X801Y1451D02*
X821Y1451D01*
X821Y1392D01*
X801Y1392D01*
X801Y1451D01*
G37*
D02*
G36*
X769Y1451D02*
X789Y1451D01*
X789Y1392D01*
X769Y1392D01*
X769Y1451D01*
G37*
D02*
G36*
X738Y1451D02*
X758Y1451D01*
X758Y1392D01*
X738Y1392D01*
X738Y1451D01*
G37*
D02*
G36*
X647Y1361D02*
X706Y1361D01*
X706Y1341D01*
X647Y1341D01*
X647Y1361D01*
G37*
D02*
G36*
X647Y1329D02*
X706Y1329D01*
X706Y1309D01*
X647Y1309D01*
X647Y1329D01*
G37*
D02*
G36*
X647Y1298D02*
X706Y1298D01*
X706Y1278D01*
X647Y1278D01*
X647Y1298D01*
G37*
D02*
G36*
X647Y1266D02*
X706Y1266D01*
X706Y1246D01*
X647Y1246D01*
X647Y1266D01*
G37*
D02*
G36*
X647Y1235D02*
X706Y1235D01*
X706Y1215D01*
X647Y1215D01*
X647Y1235D01*
G37*
D02*
G36*
X647Y1203D02*
X706Y1203D01*
X706Y1183D01*
X647Y1183D01*
X647Y1203D01*
G37*
D02*
G36*
X647Y1172D02*
X706Y1172D01*
X706Y1152D01*
X647Y1152D01*
X647Y1172D01*
G37*
D02*
G36*
X647Y1140D02*
X706Y1140D01*
X706Y1120D01*
X647Y1120D01*
X647Y1140D01*
G37*
D02*
G36*
X647Y1109D02*
X706Y1109D01*
X706Y1089D01*
X647Y1089D01*
X647Y1109D01*
G37*
D02*
G36*
X647Y1077D02*
X706Y1077D01*
X706Y1057D01*
X647Y1057D01*
X647Y1077D01*
G37*
D02*
G36*
X647Y1046D02*
X706Y1046D01*
X706Y1026D01*
X647Y1026D01*
X647Y1046D01*
G37*
D02*
G36*
X369Y1035D02*
X326Y1035D01*
X326Y1082D01*
X369Y1082D01*
X369Y1035D01*
G37*
D02*
G36*
X369Y968D02*
X326Y968D01*
X326Y1015D01*
X369Y1015D01*
X369Y968D01*
G37*
D02*
G36*
X511Y904D02*
X467Y904D01*
X467Y952D01*
X511Y952D01*
X511Y904D01*
G37*
D02*
G36*
X511Y837D02*
X467Y837D01*
X467Y885D01*
X511Y885D01*
X511Y837D01*
G37*
D02*
G36*
X630Y1347D02*
X559Y1347D01*
X559Y1410D01*
X630Y1410D01*
X630Y1347D01*
G37*
D02*
G36*
X630Y1237D02*
X559Y1237D01*
X559Y1300D01*
X630Y1300D01*
X630Y1237D01*
G37*
D02*
G36*
X1378Y1497D02*
X1328Y1497D01*
X1328Y1522D01*
X1378Y1522D01*
X1378Y1497D01*
G37*
D02*
G36*
X1378Y1461D02*
X1328Y1461D01*
X1328Y1486D01*
X1378Y1486D01*
X1378Y1461D01*
G37*
D02*
G36*
X1477Y1497D02*
X1427Y1497D01*
X1427Y1522D01*
X1477Y1522D01*
X1477Y1497D01*
G37*
D02*
G36*
X1477Y1461D02*
X1427Y1461D01*
X1427Y1486D01*
X1477Y1486D01*
X1477Y1461D01*
G37*
D02*
G36*
X1277Y1497D02*
X1227Y1497D01*
X1227Y1522D01*
X1277Y1522D01*
X1277Y1497D01*
G37*
D02*
G36*
X1277Y1461D02*
X1227Y1461D01*
X1227Y1486D01*
X1277Y1486D01*
X1277Y1461D01*
G37*
D02*
G36*
X1710Y1535D02*
X1667Y1535D01*
X1667Y1582D01*
X1710Y1582D01*
X1710Y1535D01*
G37*
D02*
G36*
X1710Y1468D02*
X1667Y1468D01*
X1667Y1515D01*
X1710Y1515D01*
X1710Y1468D01*
G37*
D02*
G36*
X1776Y1535D02*
X1733Y1535D01*
X1733Y1582D01*
X1776Y1582D01*
X1776Y1535D01*
G37*
D02*
G36*
X1776Y1468D02*
X1733Y1468D01*
X1733Y1515D01*
X1776Y1515D01*
X1776Y1468D01*
G37*
D02*
G36*
X1274Y1610D02*
X1231Y1610D01*
X1231Y1658D01*
X1274Y1658D01*
X1274Y1610D01*
G37*
D02*
G36*
X1274Y1543D02*
X1231Y1543D01*
X1231Y1591D01*
X1274Y1591D01*
X1274Y1543D01*
G37*
D02*
G04 End of PasteMask1*
M02*