G04 MADE WITH FRITZING*
G04 WWW.FRITZING.ORG*
G04 DOUBLE SIDED*
G04 HOLES PLATED*
G04 CONTOUR ON CENTER OF CONTOUR VECTOR*
%ASAXBY*%
%FSLAX23Y23*%
%MOIN*%
%OFA0B0*%
%SFA1.0B1.0*%
%ADD10C,0.084000*%
%ADD11C,0.049370*%
%ADD12C,0.088000*%
%ADD13C,0.075278*%
%ADD14R,0.088000X0.088000*%
%ADD15C,0.030000*%
%LNMASK0*%
G90*
G70*
G54D10*
X1571Y1854D03*
X1871Y1854D03*
G54D11*
X2323Y282D03*
G54D12*
X99Y1222D03*
X99Y1122D03*
X99Y1022D03*
X99Y922D03*
G54D13*
X2110Y105D03*
X2210Y105D03*
X2310Y105D03*
X2410Y105D03*
X2510Y105D03*
X1650Y2005D03*
X1550Y2005D03*
X1450Y2005D03*
X1350Y2005D03*
X1250Y2005D03*
X1150Y2005D03*
X1050Y2005D03*
X950Y2005D03*
X850Y2005D03*
X750Y2005D03*
X2510Y2005D03*
X2410Y2005D03*
X2310Y2005D03*
X2210Y2005D03*
X2110Y2005D03*
X2010Y2005D03*
X1910Y2005D03*
X1810Y2005D03*
X1210Y105D03*
X1110Y105D03*
X1310Y105D03*
X1410Y105D03*
X1510Y105D03*
X1610Y105D03*
X1710Y105D03*
X1810Y105D03*
X2010Y105D03*
G54D12*
X2233Y1520D03*
X2233Y1420D03*
X2233Y1320D03*
X2233Y1220D03*
X2233Y1120D03*
X2233Y1020D03*
X1253Y416D03*
X1153Y416D03*
X1053Y416D03*
X953Y416D03*
X853Y416D03*
X753Y416D03*
X1499Y1722D03*
X1399Y1722D03*
X1299Y1722D03*
X1199Y1722D03*
X1099Y1722D03*
X685Y1781D03*
X785Y1781D03*
X885Y1781D03*
X684Y1893D03*
X784Y1893D03*
X884Y1893D03*
X291Y2022D03*
X191Y2022D03*
X91Y2022D03*
X620Y2021D03*
X520Y2021D03*
X420Y2021D03*
X2099Y1422D03*
X2099Y1322D03*
X2099Y1222D03*
X2099Y1122D03*
X2099Y1022D03*
X2099Y922D03*
X2099Y822D03*
X2099Y722D03*
G54D11*
X1433Y255D03*
X1430Y328D03*
X1030Y1357D03*
X91Y1919D03*
X420Y1919D03*
X191Y1863D03*
X520Y1863D03*
X412Y1128D03*
X978Y1129D03*
X1018Y1483D03*
X668Y1399D03*
X315Y1219D03*
X849Y1531D03*
X416Y1641D03*
X412Y1253D03*
X466Y1397D03*
X644Y1630D03*
X1069Y1227D03*
X911Y564D03*
X1150Y881D03*
X1151Y550D03*
X1195Y1177D03*
X1166Y1419D03*
X840Y1179D03*
X685Y1682D03*
X540Y861D03*
X570Y1175D03*
X455Y1175D03*
X664Y1546D03*
X1610Y617D03*
X1252Y1390D03*
X1979Y1390D03*
G54D14*
X2233Y1520D03*
X1253Y416D03*
X1499Y1722D03*
X2099Y1422D03*
G54D15*
G36*
X656Y1810D02*
X714Y1810D01*
X714Y1752D01*
X656Y1752D01*
X656Y1810D01*
G37*
D02*
G36*
X655Y1922D02*
X713Y1922D01*
X713Y1864D01*
X655Y1864D01*
X655Y1922D01*
G37*
D02*
G36*
X320Y1993D02*
X262Y1993D01*
X262Y2051D01*
X320Y2051D01*
X320Y1993D01*
G37*
D02*
G36*
X649Y1992D02*
X591Y1992D01*
X591Y2050D01*
X649Y2050D01*
X649Y1992D01*
G37*
D02*
G04 End of Mask0*
M02*