G04 MADE WITH FRITZING*
G04 WWW.FRITZING.ORG*
G04 DOUBLE SIDED*
G04 HOLES PLATED*
G04 CONTOUR ON CENTER OF CONTOUR VECTOR*
%ASAXBY*%
%FSLAX23Y23*%
%MOIN*%
%OFA0B0*%
%SFA1.0B1.0*%
%ADD10C,0.075000*%
%ADD11C,0.074000*%
%ADD12C,0.039370*%
%ADD13C,0.078000*%
%ADD14C,0.065278*%
%ADD15R,0.039370X0.070866*%
%ADD16R,0.039370X0.070865*%
%ADD17R,0.059055X0.019685*%
%ADD18R,0.019685X0.059055*%
%ADD19R,0.078000X0.078000*%
%ADD20R,0.021654X0.047244*%
%ADD21R,0.043307X0.047244*%
%ADD22R,0.062992X0.070866*%
%ADD23R,0.070866X0.062992*%
%ADD24R,0.025000X0.050000*%
%ADD25R,0.031496X0.035433*%
%ADD26C,0.016000*%
%ADD27C,0.020000*%
%LNCOPPER1*%
G90*
G70*
G54D10*
X722Y1600D03*
X1120Y1513D03*
X2332Y1419D03*
X705Y877D03*
X132Y791D03*
X764Y695D03*
X1990Y1898D03*
X2199Y897D03*
X786Y296D03*
G54D11*
X1571Y1854D03*
X1871Y1854D03*
X1571Y1854D03*
X1871Y1854D03*
G54D12*
X2323Y282D03*
G54D13*
X99Y1222D03*
X99Y1122D03*
X99Y1022D03*
X99Y922D03*
G54D14*
X2110Y105D03*
X2210Y105D03*
X2310Y105D03*
X2410Y105D03*
X2510Y105D03*
X1650Y2005D03*
X1550Y2005D03*
X1450Y2005D03*
X1350Y2005D03*
X1250Y2005D03*
X1150Y2005D03*
X1050Y2005D03*
X950Y2005D03*
X850Y2005D03*
X750Y2005D03*
X2510Y2005D03*
X2410Y2005D03*
X2310Y2005D03*
X2210Y2005D03*
X2110Y2005D03*
X2010Y2005D03*
X1910Y2005D03*
X1810Y2005D03*
X1210Y105D03*
X1110Y105D03*
X1310Y105D03*
X1410Y105D03*
X1510Y105D03*
X1610Y105D03*
X1710Y105D03*
X1810Y105D03*
X2010Y105D03*
G54D13*
X2233Y1520D03*
X2233Y1420D03*
X2233Y1320D03*
X2233Y1220D03*
X2233Y1120D03*
X2233Y1020D03*
X1253Y416D03*
X1153Y416D03*
X1053Y416D03*
X953Y416D03*
X853Y416D03*
X753Y416D03*
X1499Y1722D03*
X1399Y1722D03*
X1299Y1722D03*
X1199Y1722D03*
X1099Y1722D03*
X685Y1781D03*
X785Y1781D03*
X885Y1781D03*
X684Y1893D03*
X784Y1893D03*
X884Y1893D03*
X291Y2022D03*
X191Y2022D03*
X91Y2022D03*
X620Y2021D03*
X520Y2021D03*
X420Y2021D03*
X2099Y1422D03*
X2099Y1322D03*
X2099Y1222D03*
X2099Y1122D03*
X2099Y1022D03*
X2099Y922D03*
X2099Y822D03*
X2099Y722D03*
G54D12*
X1433Y255D03*
X1430Y328D03*
X1030Y1357D03*
X91Y1919D03*
X420Y1919D03*
X191Y1863D03*
X520Y1863D03*
X412Y1128D03*
X978Y1129D03*
X1018Y1483D03*
X668Y1399D03*
X315Y1219D03*
X849Y1531D03*
X416Y1641D03*
X412Y1253D03*
X466Y1397D03*
X644Y1630D03*
X1069Y1227D03*
X911Y564D03*
X1150Y881D03*
X1151Y550D03*
X1195Y1177D03*
X1166Y1419D03*
X840Y1179D03*
X685Y1682D03*
X540Y861D03*
X570Y1175D03*
X455Y1175D03*
X664Y1546D03*
X1610Y617D03*
X1252Y1390D03*
X1979Y1390D03*
G54D15*
X1512Y720D03*
X1453Y720D03*
G54D16*
X1866Y1389D03*
X1925Y1389D03*
G54D15*
X1748Y720D03*
G54D16*
X1807Y1389D03*
X1748Y1389D03*
X1689Y1389D03*
G54D15*
X1571Y720D03*
G54D16*
X1630Y1389D03*
X1571Y1389D03*
X1512Y1389D03*
G54D15*
X1394Y720D03*
X1866Y720D03*
X1630Y720D03*
X1689Y720D03*
G54D16*
X1453Y1389D03*
G54D15*
X1807Y720D03*
G54D16*
X1394Y1389D03*
G54D15*
X1925Y720D03*
G54D17*
X1134Y1225D03*
X1134Y1288D03*
X1134Y1351D03*
G54D18*
X1063Y1422D03*
X1000Y1422D03*
X937Y1422D03*
G54D19*
X2233Y1520D03*
X1253Y416D03*
X1499Y1722D03*
G54D20*
X1157Y715D03*
X1194Y715D03*
X1232Y715D03*
X1232Y817D03*
X1157Y817D03*
G54D19*
X2099Y1422D03*
G54D21*
X218Y1492D03*
X218Y1559D03*
X90Y1660D03*
X90Y1727D03*
X596Y1548D03*
X596Y1481D03*
X406Y1429D03*
X406Y1496D03*
X283Y1608D03*
X283Y1675D03*
X468Y1679D03*
X468Y1612D03*
G54D22*
X1852Y1492D03*
X1962Y1492D03*
X803Y848D03*
X914Y848D03*
G54D23*
X1257Y1148D03*
X1257Y1038D03*
G54D22*
X1150Y625D03*
X1260Y625D03*
X1148Y950D03*
X1258Y950D03*
X915Y1545D03*
X1025Y1545D03*
G54D24*
X303Y1364D03*
X338Y1364D03*
X373Y1364D03*
X370Y860D03*
X405Y860D03*
X440Y860D03*
X161Y1496D03*
X126Y1496D03*
X91Y1496D03*
X467Y1505D03*
X502Y1505D03*
X537Y1505D03*
G54D25*
X332Y1551D03*
X407Y1551D03*
X369Y1634D03*
X407Y974D03*
X482Y974D03*
X444Y1057D03*
X524Y1597D03*
X599Y1597D03*
X562Y1680D03*
X143Y1642D03*
X217Y1642D03*
X180Y1725D03*
G54D26*
X1454Y1419D02*
X1452Y1467D01*
D02*
X1453Y1389D02*
X1454Y1419D01*
D02*
X1199Y1854D02*
X1548Y1854D01*
D02*
X1199Y1746D02*
X1199Y1854D01*
D02*
X2163Y1220D02*
X2163Y1122D01*
D02*
X2208Y1220D02*
X2163Y1220D01*
D02*
X2099Y1520D02*
X2099Y1446D01*
D02*
X2208Y1520D02*
X2099Y1520D01*
D02*
X2124Y1321D02*
X2208Y1320D01*
D02*
X2163Y1122D02*
X2124Y1122D01*
D02*
X2396Y1220D02*
X2257Y1220D01*
D02*
X2396Y1123D02*
X2396Y1220D01*
D02*
X2569Y1520D02*
X2257Y1520D01*
D02*
X2015Y1222D02*
X2075Y1222D01*
D02*
X2015Y623D02*
X2015Y1222D01*
D02*
X2323Y623D02*
X2015Y623D01*
D02*
X2323Y623D02*
X2323Y295D01*
D02*
X2323Y1120D02*
X2323Y623D01*
D02*
X2257Y1120D02*
X2323Y1120D01*
D02*
X484Y1679D02*
X523Y1679D01*
D02*
X523Y1679D02*
X552Y1680D01*
D02*
X671Y1681D02*
X644Y1681D01*
D02*
X644Y1681D02*
X572Y1680D01*
D02*
X580Y1481D02*
X537Y1481D01*
D02*
X537Y1481D02*
X537Y1486D01*
D02*
X91Y1380D02*
X91Y1476D01*
D02*
X99Y1380D02*
X91Y1380D01*
D02*
X99Y1246D02*
X99Y1380D01*
D02*
X1018Y1545D02*
X1025Y1545D01*
D02*
X1018Y1496D02*
X1018Y1545D01*
D02*
X596Y1597D02*
X596Y1566D01*
D02*
X599Y1597D02*
X596Y1597D01*
D02*
X1252Y1516D02*
X1252Y1549D01*
D02*
X1199Y1634D02*
X1236Y1634D01*
D02*
X1394Y1474D02*
X1394Y1419D01*
D02*
X1372Y1474D02*
X1394Y1474D01*
D02*
X595Y1399D02*
X595Y1379D01*
D02*
X654Y1399D02*
X595Y1399D01*
D02*
X1704Y1558D02*
X1738Y1558D01*
D02*
X331Y1364D02*
X310Y1364D01*
D02*
X1000Y1483D02*
X1000Y1446D01*
D02*
X1004Y1483D02*
X1000Y1483D01*
D02*
X1689Y1419D02*
X1688Y1473D01*
D02*
X370Y1676D02*
X299Y1675D01*
D02*
X2410Y131D02*
X2396Y1123D01*
D02*
X338Y1551D02*
X332Y1551D01*
D02*
X338Y1384D02*
X338Y1551D01*
D02*
X406Y1514D02*
X407Y1539D01*
D02*
X297Y1608D02*
X283Y1608D01*
D02*
X297Y1497D02*
X297Y1608D01*
D02*
X303Y1497D02*
X297Y1497D01*
D02*
X303Y1384D02*
X303Y1497D01*
D02*
X855Y1519D02*
X873Y1484D01*
D02*
X416Y1551D02*
X416Y1628D01*
D02*
X407Y1551D02*
X416Y1551D01*
D02*
X370Y1676D02*
X369Y1646D01*
D02*
X369Y1781D02*
X370Y1676D01*
D02*
X1253Y190D02*
X1410Y190D01*
D02*
X399Y1253D02*
X408Y1253D01*
D02*
X1410Y190D02*
X1410Y131D01*
D02*
X408Y1364D02*
X380Y1364D01*
D02*
X639Y1320D02*
X653Y1319D01*
D02*
X617Y1295D02*
X639Y1320D01*
D02*
X1190Y1190D02*
X1188Y1194D01*
D02*
X1208Y1598D02*
X1098Y1598D01*
D02*
X1257Y1177D02*
X1209Y1177D01*
D02*
X1257Y1174D02*
X1257Y1177D01*
D02*
X1452Y1644D02*
X1452Y1516D01*
D02*
X1208Y1223D02*
X1317Y1223D01*
D02*
X1299Y1644D02*
X1452Y1644D01*
D02*
X1299Y1697D02*
X1299Y1644D01*
D02*
X1353Y1617D02*
X1353Y1516D01*
D02*
X1252Y1634D02*
X1252Y1617D01*
D02*
X1176Y652D02*
X1193Y671D01*
D02*
X1199Y1697D02*
X1199Y1634D01*
D02*
X1232Y697D02*
X1232Y663D01*
D02*
X1232Y663D02*
X1238Y655D01*
D02*
X2010Y131D02*
X2010Y255D01*
D02*
X1206Y884D02*
X1162Y824D01*
D02*
X1258Y884D02*
X1206Y884D01*
D02*
X2010Y255D02*
X1446Y255D01*
D02*
X2110Y328D02*
X1444Y328D01*
D02*
X1258Y920D02*
X1258Y884D01*
D02*
X2110Y131D02*
X2110Y328D01*
D02*
X1258Y950D02*
X1257Y953D01*
D02*
X1191Y1038D02*
X1227Y1038D01*
D02*
X1191Y1127D02*
X1191Y1038D01*
D02*
X1337Y1983D02*
X1283Y1890D01*
D02*
X1158Y1129D02*
X1191Y1127D01*
D02*
X505Y928D02*
X628Y928D01*
D02*
X660Y1781D02*
X369Y1781D01*
D02*
X1253Y190D02*
X1253Y391D01*
D02*
X1208Y1598D02*
X1208Y1567D01*
D02*
X1083Y1227D02*
X1110Y1226D01*
D02*
X1317Y1223D02*
X1317Y624D01*
D02*
X1317Y624D02*
X1286Y624D01*
D02*
X644Y1597D02*
X644Y1616D01*
D02*
X609Y1597D02*
X644Y1597D01*
D02*
X1031Y1398D02*
X1030Y1371D01*
D02*
X853Y609D02*
X853Y441D01*
D02*
X1000Y609D02*
X853Y609D01*
D02*
X1000Y941D02*
X1000Y609D01*
D02*
X468Y1594D02*
X468Y1525D01*
D02*
X503Y1568D02*
X502Y1525D01*
D02*
X515Y1585D02*
X503Y1568D01*
D02*
X914Y848D02*
X937Y848D01*
D02*
X1063Y528D02*
X1053Y528D01*
D02*
X1063Y941D02*
X1063Y528D01*
D02*
X1053Y528D02*
X1053Y441D01*
D02*
X474Y1505D02*
X495Y1505D01*
D02*
X466Y1410D02*
X467Y1486D01*
D02*
X426Y1253D02*
X507Y1253D01*
D02*
X507Y1253D02*
X507Y1458D01*
D02*
X620Y2077D02*
X620Y2046D01*
D02*
X1031Y564D02*
X1031Y941D01*
D02*
X924Y564D02*
X1031Y564D01*
D02*
X1450Y2077D02*
X620Y2077D01*
D02*
X1450Y2031D02*
X1450Y2077D01*
D02*
X520Y1996D02*
X520Y1877D01*
D02*
X191Y1877D02*
X191Y1997D01*
D02*
X420Y1932D02*
X420Y1996D01*
D02*
X91Y1997D02*
X91Y1932D01*
D02*
X687Y731D02*
X370Y731D01*
D02*
X687Y44D02*
X687Y731D01*
D02*
X1510Y44D02*
X687Y44D01*
D02*
X1510Y79D02*
X1510Y44D01*
D02*
X2569Y44D02*
X2569Y1520D01*
D02*
X1510Y44D02*
X2569Y44D01*
D02*
X161Y1492D02*
X161Y1496D01*
D02*
X202Y1492D02*
X161Y1492D01*
D02*
X218Y1577D02*
X217Y1630D01*
D02*
X570Y1161D02*
X570Y1162D01*
D02*
X266Y1547D02*
X266Y1175D01*
D02*
X218Y1547D02*
X266Y1547D01*
D02*
X266Y1175D02*
X442Y1175D01*
D02*
X218Y1559D02*
X218Y1547D01*
D02*
X291Y1725D02*
X291Y1997D01*
D02*
X190Y1725D02*
X291Y1725D01*
D02*
X106Y1726D02*
X170Y1725D01*
D02*
X91Y1515D02*
X90Y1642D01*
D02*
X98Y1496D02*
X119Y1496D01*
D02*
X126Y1594D02*
X143Y1594D01*
D02*
X143Y1594D02*
X143Y1630D01*
D02*
X126Y1515D02*
X126Y1594D01*
D02*
X218Y1128D02*
X399Y1128D01*
D02*
X991Y1129D02*
X1110Y1130D01*
D02*
X941Y1527D02*
X967Y1508D01*
D02*
X1150Y564D02*
X1150Y595D01*
D02*
X1150Y894D02*
X1149Y920D01*
D02*
X1181Y1419D02*
X1181Y1255D01*
D02*
X937Y1319D02*
X701Y1319D01*
D02*
X1098Y1598D02*
X1099Y1697D01*
D02*
X968Y1319D02*
X937Y1319D01*
D02*
X937Y989D02*
X937Y1319D01*
D02*
X840Y1166D02*
X842Y989D01*
D02*
X1181Y1255D02*
X1158Y1256D01*
D02*
X1179Y1419D02*
X1181Y1419D01*
D02*
X968Y1319D02*
X968Y1398D01*
D02*
X1098Y1598D02*
X915Y1598D01*
D02*
X915Y1598D02*
X915Y1575D01*
D02*
X484Y962D02*
X486Y946D01*
D02*
X440Y861D02*
X440Y860D01*
D02*
X473Y861D02*
X440Y861D01*
D02*
X407Y962D02*
X405Y880D01*
D02*
X370Y992D02*
X370Y880D01*
D02*
X364Y992D02*
X370Y992D01*
D02*
X434Y1057D02*
X364Y1058D01*
D02*
X533Y1057D02*
X455Y1057D01*
D02*
X533Y1429D02*
X533Y1057D01*
D02*
X625Y1429D02*
X533Y1429D01*
D02*
X789Y1494D02*
X694Y1494D01*
D02*
X789Y1665D02*
X789Y1494D01*
D02*
X694Y1494D02*
X625Y1429D01*
D02*
X979Y1665D02*
X789Y1665D01*
D02*
X628Y786D02*
X968Y786D01*
D02*
X628Y928D02*
X628Y786D01*
D02*
X968Y786D02*
X968Y941D01*
D02*
X527Y861D02*
X505Y861D01*
D02*
X173Y1219D02*
X124Y1221D01*
D02*
X173Y992D02*
X173Y1219D01*
D02*
X332Y992D02*
X173Y992D01*
D02*
X218Y1474D02*
X218Y1128D01*
D02*
X398Y860D02*
X377Y860D01*
D02*
X538Y1458D02*
X538Y1486D01*
D02*
X749Y1704D02*
X749Y1546D01*
D02*
X749Y1546D02*
X678Y1546D01*
D02*
X885Y1704D02*
X749Y1704D01*
D02*
X885Y1757D02*
X885Y1704D01*
D02*
X507Y1458D02*
X538Y1458D01*
D02*
X979Y1888D02*
X979Y1665D01*
D02*
X1283Y1890D02*
X979Y1888D01*
D02*
X303Y1219D02*
X301Y1219D01*
D02*
X303Y1345D02*
X303Y1219D01*
D02*
X570Y1162D02*
X653Y1162D01*
D02*
X370Y731D02*
X370Y841D01*
D02*
X841Y849D02*
X829Y848D01*
D02*
X842Y941D02*
X841Y849D01*
D02*
X937Y848D02*
X937Y941D01*
D02*
X1353Y1502D02*
X1353Y1481D01*
D02*
X1252Y1502D02*
X1252Y1481D01*
D02*
X1257Y953D02*
X1257Y1012D01*
D02*
X873Y1484D02*
X873Y1446D01*
D02*
X967Y1508D02*
X968Y1446D01*
D02*
X1188Y1194D02*
X1158Y1193D01*
D02*
X1252Y1404D02*
X1252Y1467D01*
D02*
X1452Y1481D02*
X1452Y1502D01*
D02*
X408Y1364D02*
X407Y1411D01*
D02*
X408Y1253D02*
X408Y1364D01*
D02*
X1193Y671D02*
X1194Y697D01*
D02*
X1252Y506D02*
X1096Y506D01*
D02*
X1096Y506D02*
X1096Y715D01*
D02*
X1096Y715D02*
X1151Y715D01*
D02*
X1260Y506D02*
X1260Y595D01*
D02*
X1252Y506D02*
X1260Y506D01*
D02*
X1253Y441D02*
X1252Y506D01*
D02*
X1849Y1564D02*
X1851Y1522D01*
D02*
X2018Y1564D02*
X1849Y1564D01*
D02*
X2075Y1322D02*
X2018Y1322D01*
D02*
X2018Y1322D02*
X2018Y1564D01*
D02*
X1866Y617D02*
X1866Y690D01*
D02*
X1624Y617D02*
X1866Y617D01*
D02*
X1453Y617D02*
X1597Y617D01*
D02*
X1453Y690D02*
X1453Y617D01*
D02*
X1807Y1492D02*
X1826Y1492D01*
D02*
X1770Y1492D02*
X1807Y1492D01*
D02*
X1807Y1419D02*
X1807Y1492D01*
D02*
X1252Y1617D02*
X1353Y1617D01*
D02*
X1939Y1389D02*
X1965Y1390D01*
D02*
X1979Y1404D02*
X1979Y1492D01*
D02*
X1979Y1492D02*
X1962Y1492D01*
D02*
X1849Y1722D02*
X1524Y1722D01*
D02*
X1849Y1564D02*
X1849Y1722D01*
D02*
X1499Y1591D02*
X1499Y1697D01*
D02*
X1512Y1591D02*
X1499Y1591D01*
D02*
X1512Y1419D02*
X1512Y1591D01*
D02*
X1208Y1567D02*
X1208Y1223D01*
D02*
X1208Y1567D02*
X1236Y1567D01*
G36*
X340Y2059D02*
X340Y1973D01*
X310Y1973D01*
X310Y1971D01*
X414Y1971D01*
X414Y1973D01*
X406Y1973D01*
X406Y1975D01*
X400Y1975D01*
X400Y1977D01*
X396Y1977D01*
X396Y1979D01*
X394Y1979D01*
X394Y1981D01*
X390Y1981D01*
X390Y1983D01*
X388Y1983D01*
X388Y1985D01*
X386Y1985D01*
X386Y1987D01*
X384Y1987D01*
X384Y1989D01*
X382Y1989D01*
X382Y1991D01*
X380Y1991D01*
X380Y1995D01*
X378Y1995D01*
X378Y1999D01*
X376Y1999D01*
X376Y2003D01*
X374Y2003D01*
X374Y2009D01*
X372Y2009D01*
X372Y2031D01*
X374Y2031D01*
X374Y2039D01*
X376Y2039D01*
X376Y2059D01*
X340Y2059D01*
G37*
D02*
G36*
X670Y2059D02*
X670Y1971D01*
X722Y1971D01*
X722Y1973D01*
X720Y1973D01*
X720Y1975D01*
X718Y1975D01*
X718Y1979D01*
X716Y1979D01*
X716Y1981D01*
X714Y1981D01*
X714Y1985D01*
X712Y1985D01*
X712Y1987D01*
X710Y1987D01*
X710Y1995D01*
X708Y1995D01*
X708Y2015D01*
X710Y2015D01*
X710Y2021D01*
X712Y2021D01*
X712Y2025D01*
X714Y2025D01*
X714Y2029D01*
X716Y2029D01*
X716Y2031D01*
X718Y2031D01*
X718Y2033D01*
X720Y2033D01*
X720Y2035D01*
X722Y2035D01*
X722Y2037D01*
X724Y2037D01*
X724Y2039D01*
X726Y2039D01*
X726Y2059D01*
X670Y2059D01*
G37*
D02*
G36*
X460Y1993D02*
X460Y1991D01*
X458Y1991D01*
X458Y1989D01*
X456Y1989D01*
X456Y1985D01*
X452Y1985D01*
X452Y1983D01*
X450Y1983D01*
X450Y1981D01*
X448Y1981D01*
X448Y1979D01*
X444Y1979D01*
X444Y1977D01*
X440Y1977D01*
X440Y1975D01*
X434Y1975D01*
X434Y1973D01*
X426Y1973D01*
X426Y1971D01*
X502Y1971D01*
X502Y1975D01*
X500Y1975D01*
X500Y1977D01*
X496Y1977D01*
X496Y1979D01*
X494Y1979D01*
X494Y1981D01*
X490Y1981D01*
X490Y1983D01*
X488Y1983D01*
X488Y1985D01*
X486Y1985D01*
X486Y1987D01*
X484Y1987D01*
X484Y1989D01*
X482Y1989D01*
X482Y1991D01*
X480Y1991D01*
X480Y1993D01*
X460Y1993D01*
G37*
D02*
G36*
X790Y1993D02*
X790Y1987D01*
X788Y1987D01*
X788Y1983D01*
X786Y1983D01*
X786Y1981D01*
X784Y1981D01*
X784Y1977D01*
X782Y1977D01*
X782Y1975D01*
X780Y1975D01*
X780Y1973D01*
X778Y1973D01*
X778Y1971D01*
X776Y1971D01*
X776Y1969D01*
X772Y1969D01*
X772Y1967D01*
X768Y1967D01*
X768Y1965D01*
X762Y1965D01*
X762Y1963D01*
X752Y1963D01*
X752Y1961D01*
X848Y1961D01*
X848Y1963D01*
X838Y1963D01*
X838Y1965D01*
X832Y1965D01*
X832Y1967D01*
X828Y1967D01*
X828Y1969D01*
X826Y1969D01*
X826Y1971D01*
X822Y1971D01*
X822Y1973D01*
X820Y1973D01*
X820Y1975D01*
X818Y1975D01*
X818Y1979D01*
X816Y1979D01*
X816Y1981D01*
X814Y1981D01*
X814Y1985D01*
X812Y1985D01*
X812Y1987D01*
X810Y1987D01*
X810Y1993D01*
X790Y1993D01*
G37*
D02*
G36*
X890Y1993D02*
X890Y1987D01*
X888Y1987D01*
X888Y1983D01*
X886Y1983D01*
X886Y1981D01*
X884Y1981D01*
X884Y1977D01*
X882Y1977D01*
X882Y1975D01*
X880Y1975D01*
X880Y1973D01*
X878Y1973D01*
X878Y1971D01*
X876Y1971D01*
X876Y1969D01*
X872Y1969D01*
X872Y1967D01*
X868Y1967D01*
X868Y1965D01*
X862Y1965D01*
X862Y1963D01*
X852Y1963D01*
X852Y1961D01*
X948Y1961D01*
X948Y1963D01*
X938Y1963D01*
X938Y1965D01*
X932Y1965D01*
X932Y1967D01*
X928Y1967D01*
X928Y1969D01*
X926Y1969D01*
X926Y1971D01*
X922Y1971D01*
X922Y1973D01*
X920Y1973D01*
X920Y1975D01*
X918Y1975D01*
X918Y1979D01*
X916Y1979D01*
X916Y1981D01*
X914Y1981D01*
X914Y1985D01*
X912Y1985D01*
X912Y1987D01*
X910Y1987D01*
X910Y1993D01*
X890Y1993D01*
G37*
D02*
G36*
X990Y1993D02*
X990Y1987D01*
X988Y1987D01*
X988Y1983D01*
X986Y1983D01*
X986Y1981D01*
X984Y1981D01*
X984Y1977D01*
X982Y1977D01*
X982Y1975D01*
X980Y1975D01*
X980Y1973D01*
X978Y1973D01*
X978Y1971D01*
X976Y1971D01*
X976Y1969D01*
X972Y1969D01*
X972Y1967D01*
X968Y1967D01*
X968Y1965D01*
X962Y1965D01*
X962Y1963D01*
X952Y1963D01*
X952Y1961D01*
X1048Y1961D01*
X1048Y1963D01*
X1038Y1963D01*
X1038Y1965D01*
X1032Y1965D01*
X1032Y1967D01*
X1028Y1967D01*
X1028Y1969D01*
X1026Y1969D01*
X1026Y1971D01*
X1024Y1971D01*
X1024Y1973D01*
X1020Y1973D01*
X1020Y1975D01*
X1018Y1975D01*
X1018Y1979D01*
X1016Y1979D01*
X1016Y1981D01*
X1014Y1981D01*
X1014Y1985D01*
X1012Y1985D01*
X1012Y1987D01*
X1010Y1987D01*
X1010Y1993D01*
X990Y1993D01*
G37*
D02*
G36*
X1090Y1993D02*
X1090Y1987D01*
X1088Y1987D01*
X1088Y1983D01*
X1086Y1983D01*
X1086Y1981D01*
X1084Y1981D01*
X1084Y1977D01*
X1082Y1977D01*
X1082Y1975D01*
X1080Y1975D01*
X1080Y1973D01*
X1078Y1973D01*
X1078Y1971D01*
X1076Y1971D01*
X1076Y1969D01*
X1072Y1969D01*
X1072Y1967D01*
X1068Y1967D01*
X1068Y1965D01*
X1062Y1965D01*
X1062Y1963D01*
X1052Y1963D01*
X1052Y1961D01*
X1148Y1961D01*
X1148Y1963D01*
X1138Y1963D01*
X1138Y1965D01*
X1132Y1965D01*
X1132Y1967D01*
X1128Y1967D01*
X1128Y1969D01*
X1126Y1969D01*
X1126Y1971D01*
X1124Y1971D01*
X1124Y1973D01*
X1120Y1973D01*
X1120Y1975D01*
X1118Y1975D01*
X1118Y1979D01*
X1116Y1979D01*
X1116Y1981D01*
X1114Y1981D01*
X1114Y1985D01*
X1112Y1985D01*
X1112Y1987D01*
X1110Y1987D01*
X1110Y1993D01*
X1090Y1993D01*
G37*
D02*
G36*
X1190Y1993D02*
X1190Y1987D01*
X1188Y1987D01*
X1188Y1983D01*
X1186Y1983D01*
X1186Y1981D01*
X1184Y1981D01*
X1184Y1977D01*
X1182Y1977D01*
X1182Y1975D01*
X1180Y1975D01*
X1180Y1973D01*
X1178Y1973D01*
X1178Y1971D01*
X1176Y1971D01*
X1176Y1969D01*
X1172Y1969D01*
X1172Y1967D01*
X1168Y1967D01*
X1168Y1965D01*
X1162Y1965D01*
X1162Y1963D01*
X1152Y1963D01*
X1152Y1961D01*
X1248Y1961D01*
X1248Y1963D01*
X1238Y1963D01*
X1238Y1965D01*
X1232Y1965D01*
X1232Y1967D01*
X1228Y1967D01*
X1228Y1969D01*
X1226Y1969D01*
X1226Y1971D01*
X1224Y1971D01*
X1224Y1973D01*
X1220Y1973D01*
X1220Y1975D01*
X1218Y1975D01*
X1218Y1979D01*
X1216Y1979D01*
X1216Y1981D01*
X1214Y1981D01*
X1214Y1985D01*
X1212Y1985D01*
X1212Y1987D01*
X1210Y1987D01*
X1210Y1993D01*
X1190Y1993D01*
G37*
D02*
G36*
X1290Y1993D02*
X1290Y1987D01*
X1288Y1987D01*
X1288Y1983D01*
X1286Y1983D01*
X1286Y1981D01*
X1284Y1981D01*
X1284Y1977D01*
X1282Y1977D01*
X1282Y1975D01*
X1280Y1975D01*
X1280Y1973D01*
X1278Y1973D01*
X1278Y1971D01*
X1276Y1971D01*
X1276Y1969D01*
X1272Y1969D01*
X1272Y1967D01*
X1268Y1967D01*
X1268Y1965D01*
X1262Y1965D01*
X1262Y1963D01*
X1252Y1963D01*
X1252Y1961D01*
X1304Y1961D01*
X1304Y1963D01*
X1306Y1963D01*
X1306Y1967D01*
X1308Y1967D01*
X1308Y1969D01*
X1310Y1969D01*
X1310Y1993D01*
X1290Y1993D01*
G37*
D02*
G36*
X552Y1985D02*
X552Y1983D01*
X550Y1983D01*
X550Y1981D01*
X548Y1981D01*
X548Y1979D01*
X544Y1979D01*
X544Y1977D01*
X540Y1977D01*
X540Y1975D01*
X538Y1975D01*
X538Y1971D01*
X572Y1971D01*
X572Y1985D01*
X552Y1985D01*
G37*
D02*
G36*
X310Y1971D02*
X310Y1969D01*
X502Y1969D01*
X502Y1971D01*
X310Y1971D01*
G37*
D02*
G36*
X310Y1971D02*
X310Y1969D01*
X502Y1969D01*
X502Y1971D01*
X310Y1971D01*
G37*
D02*
G36*
X538Y1971D02*
X538Y1969D01*
X726Y1969D01*
X726Y1971D01*
X538Y1971D01*
G37*
D02*
G36*
X538Y1971D02*
X538Y1969D01*
X726Y1969D01*
X726Y1971D01*
X538Y1971D01*
G37*
D02*
G36*
X310Y1969D02*
X310Y1947D01*
X430Y1947D01*
X430Y1945D01*
X434Y1945D01*
X434Y1943D01*
X438Y1943D01*
X438Y1941D01*
X440Y1941D01*
X440Y1939D01*
X442Y1939D01*
X442Y1937D01*
X444Y1937D01*
X444Y1935D01*
X446Y1935D01*
X446Y1931D01*
X448Y1931D01*
X448Y1925D01*
X450Y1925D01*
X450Y1911D01*
X448Y1911D01*
X448Y1905D01*
X446Y1905D01*
X446Y1901D01*
X444Y1901D01*
X444Y1899D01*
X442Y1899D01*
X442Y1897D01*
X440Y1897D01*
X440Y1895D01*
X438Y1895D01*
X438Y1893D01*
X434Y1893D01*
X434Y1891D01*
X428Y1891D01*
X428Y1889D01*
X502Y1889D01*
X502Y1969D01*
X310Y1969D01*
G37*
D02*
G36*
X538Y1969D02*
X538Y1961D01*
X748Y1961D01*
X748Y1963D01*
X738Y1963D01*
X738Y1965D01*
X732Y1965D01*
X732Y1967D01*
X728Y1967D01*
X728Y1969D01*
X538Y1969D01*
G37*
D02*
G36*
X538Y1961D02*
X538Y1959D01*
X1304Y1959D01*
X1304Y1961D01*
X538Y1961D01*
G37*
D02*
G36*
X538Y1961D02*
X538Y1959D01*
X1304Y1959D01*
X1304Y1961D01*
X538Y1961D01*
G37*
D02*
G36*
X538Y1961D02*
X538Y1959D01*
X1304Y1959D01*
X1304Y1961D01*
X538Y1961D01*
G37*
D02*
G36*
X538Y1961D02*
X538Y1959D01*
X1304Y1959D01*
X1304Y1961D01*
X538Y1961D01*
G37*
D02*
G36*
X538Y1961D02*
X538Y1959D01*
X1304Y1959D01*
X1304Y1961D01*
X538Y1961D01*
G37*
D02*
G36*
X538Y1961D02*
X538Y1959D01*
X1304Y1959D01*
X1304Y1961D01*
X538Y1961D01*
G37*
D02*
G36*
X538Y1961D02*
X538Y1959D01*
X1304Y1959D01*
X1304Y1961D01*
X538Y1961D01*
G37*
D02*
G36*
X538Y1959D02*
X538Y1941D01*
X896Y1941D01*
X896Y1939D01*
X904Y1939D01*
X904Y1937D01*
X906Y1937D01*
X906Y1935D01*
X910Y1935D01*
X910Y1933D01*
X914Y1933D01*
X914Y1931D01*
X916Y1931D01*
X916Y1929D01*
X918Y1929D01*
X918Y1927D01*
X920Y1927D01*
X920Y1925D01*
X922Y1925D01*
X922Y1923D01*
X924Y1923D01*
X924Y1919D01*
X926Y1919D01*
X926Y1915D01*
X928Y1915D01*
X928Y1913D01*
X930Y1913D01*
X930Y1907D01*
X932Y1907D01*
X932Y1895D01*
X934Y1895D01*
X934Y1891D01*
X932Y1891D01*
X932Y1879D01*
X930Y1879D01*
X930Y1873D01*
X928Y1873D01*
X928Y1869D01*
X926Y1869D01*
X926Y1867D01*
X924Y1867D01*
X924Y1863D01*
X922Y1863D01*
X922Y1861D01*
X920Y1861D01*
X920Y1859D01*
X918Y1859D01*
X918Y1857D01*
X916Y1857D01*
X916Y1855D01*
X914Y1855D01*
X914Y1853D01*
X910Y1853D01*
X910Y1851D01*
X908Y1851D01*
X908Y1849D01*
X904Y1849D01*
X904Y1847D01*
X898Y1847D01*
X898Y1827D01*
X904Y1827D01*
X904Y1825D01*
X908Y1825D01*
X908Y1823D01*
X912Y1823D01*
X912Y1821D01*
X914Y1821D01*
X914Y1819D01*
X916Y1819D01*
X916Y1817D01*
X918Y1817D01*
X918Y1815D01*
X920Y1815D01*
X920Y1813D01*
X922Y1813D01*
X922Y1811D01*
X924Y1811D01*
X924Y1809D01*
X926Y1809D01*
X926Y1805D01*
X928Y1805D01*
X928Y1801D01*
X930Y1801D01*
X930Y1797D01*
X932Y1797D01*
X932Y1789D01*
X934Y1789D01*
X934Y1773D01*
X932Y1773D01*
X932Y1765D01*
X930Y1765D01*
X930Y1761D01*
X928Y1761D01*
X928Y1757D01*
X926Y1757D01*
X926Y1753D01*
X924Y1753D01*
X924Y1751D01*
X922Y1751D01*
X922Y1749D01*
X920Y1749D01*
X920Y1747D01*
X918Y1747D01*
X918Y1745D01*
X916Y1745D01*
X916Y1743D01*
X914Y1743D01*
X914Y1741D01*
X912Y1741D01*
X912Y1739D01*
X908Y1739D01*
X908Y1737D01*
X904Y1737D01*
X904Y1735D01*
X898Y1735D01*
X898Y1733D01*
X960Y1733D01*
X960Y1889D01*
X962Y1889D01*
X962Y1895D01*
X964Y1895D01*
X964Y1899D01*
X966Y1899D01*
X966Y1901D01*
X968Y1901D01*
X968Y1903D01*
X972Y1903D01*
X972Y1905D01*
X1014Y1905D01*
X1014Y1907D01*
X1272Y1907D01*
X1272Y1909D01*
X1274Y1909D01*
X1274Y1913D01*
X1276Y1913D01*
X1276Y1915D01*
X1278Y1915D01*
X1278Y1919D01*
X1280Y1919D01*
X1280Y1923D01*
X1282Y1923D01*
X1282Y1925D01*
X1284Y1925D01*
X1284Y1929D01*
X1286Y1929D01*
X1286Y1933D01*
X1288Y1933D01*
X1288Y1935D01*
X1290Y1935D01*
X1290Y1939D01*
X1292Y1939D01*
X1292Y1943D01*
X1294Y1943D01*
X1294Y1947D01*
X1296Y1947D01*
X1296Y1949D01*
X1298Y1949D01*
X1298Y1953D01*
X1300Y1953D01*
X1300Y1957D01*
X1302Y1957D01*
X1302Y1959D01*
X538Y1959D01*
G37*
D02*
G36*
X310Y1947D02*
X310Y1889D01*
X412Y1889D01*
X412Y1891D01*
X408Y1891D01*
X408Y1893D01*
X404Y1893D01*
X404Y1895D01*
X402Y1895D01*
X402Y1897D01*
X398Y1897D01*
X398Y1901D01*
X396Y1901D01*
X396Y1903D01*
X394Y1903D01*
X394Y1907D01*
X392Y1907D01*
X392Y1917D01*
X390Y1917D01*
X390Y1921D01*
X392Y1921D01*
X392Y1929D01*
X394Y1929D01*
X394Y1933D01*
X396Y1933D01*
X396Y1937D01*
X398Y1937D01*
X398Y1939D01*
X400Y1939D01*
X400Y1941D01*
X402Y1941D01*
X402Y1943D01*
X406Y1943D01*
X406Y1945D01*
X410Y1945D01*
X410Y1947D01*
X310Y1947D01*
G37*
D02*
G36*
X538Y1941D02*
X538Y1885D01*
X542Y1885D01*
X542Y1881D01*
X544Y1881D01*
X544Y1879D01*
X546Y1879D01*
X546Y1875D01*
X548Y1875D01*
X548Y1871D01*
X550Y1871D01*
X550Y1855D01*
X548Y1855D01*
X548Y1849D01*
X546Y1849D01*
X546Y1847D01*
X544Y1847D01*
X544Y1843D01*
X542Y1843D01*
X542Y1841D01*
X540Y1841D01*
X540Y1839D01*
X536Y1839D01*
X536Y1837D01*
X534Y1837D01*
X534Y1835D01*
X528Y1835D01*
X528Y1833D01*
X636Y1833D01*
X636Y1941D01*
X538Y1941D01*
G37*
D02*
G36*
X734Y1941D02*
X734Y1931D01*
X756Y1931D01*
X756Y1933D01*
X758Y1933D01*
X758Y1935D01*
X762Y1935D01*
X762Y1937D01*
X766Y1937D01*
X766Y1939D01*
X772Y1939D01*
X772Y1941D01*
X734Y1941D01*
G37*
D02*
G36*
X796Y1941D02*
X796Y1939D01*
X804Y1939D01*
X804Y1937D01*
X806Y1937D01*
X806Y1935D01*
X810Y1935D01*
X810Y1933D01*
X814Y1933D01*
X814Y1931D01*
X816Y1931D01*
X816Y1929D01*
X818Y1929D01*
X818Y1927D01*
X820Y1927D01*
X820Y1925D01*
X822Y1925D01*
X822Y1923D01*
X824Y1923D01*
X824Y1919D01*
X844Y1919D01*
X844Y1923D01*
X846Y1923D01*
X846Y1925D01*
X848Y1925D01*
X848Y1927D01*
X850Y1927D01*
X850Y1929D01*
X852Y1929D01*
X852Y1931D01*
X856Y1931D01*
X856Y1933D01*
X858Y1933D01*
X858Y1935D01*
X862Y1935D01*
X862Y1937D01*
X866Y1937D01*
X866Y1939D01*
X872Y1939D01*
X872Y1941D01*
X796Y1941D01*
G37*
D02*
G36*
X310Y1889D02*
X310Y1887D01*
X502Y1887D01*
X502Y1889D01*
X310Y1889D01*
G37*
D02*
G36*
X310Y1889D02*
X310Y1887D01*
X502Y1887D01*
X502Y1889D01*
X310Y1889D01*
G37*
D02*
G36*
X310Y1887D02*
X310Y1833D01*
X514Y1833D01*
X514Y1835D01*
X508Y1835D01*
X508Y1837D01*
X504Y1837D01*
X504Y1839D01*
X502Y1839D01*
X502Y1841D01*
X500Y1841D01*
X500Y1843D01*
X498Y1843D01*
X498Y1845D01*
X496Y1845D01*
X496Y1847D01*
X494Y1847D01*
X494Y1851D01*
X492Y1851D01*
X492Y1861D01*
X490Y1861D01*
X490Y1865D01*
X492Y1865D01*
X492Y1873D01*
X494Y1873D01*
X494Y1877D01*
X496Y1877D01*
X496Y1881D01*
X498Y1881D01*
X498Y1883D01*
X500Y1883D01*
X500Y1885D01*
X502Y1885D01*
X502Y1887D01*
X310Y1887D01*
G37*
D02*
G36*
X310Y1833D02*
X310Y1831D01*
X636Y1831D01*
X636Y1833D01*
X310Y1833D01*
G37*
D02*
G36*
X310Y1833D02*
X310Y1831D01*
X636Y1831D01*
X636Y1833D01*
X310Y1833D01*
G37*
D02*
G36*
X310Y1831D02*
X310Y1709D01*
X314Y1709D01*
X314Y1693D01*
X352Y1693D01*
X352Y1789D01*
X354Y1789D01*
X354Y1791D01*
X356Y1791D01*
X356Y1795D01*
X360Y1795D01*
X360Y1797D01*
X364Y1797D01*
X364Y1799D01*
X636Y1799D01*
X636Y1831D01*
X310Y1831D01*
G37*
D02*
G36*
X388Y1763D02*
X388Y1733D01*
X636Y1733D01*
X636Y1763D01*
X388Y1763D01*
G37*
D02*
G36*
X824Y1753D02*
X824Y1751D01*
X822Y1751D01*
X822Y1749D01*
X820Y1749D01*
X820Y1747D01*
X818Y1747D01*
X818Y1745D01*
X816Y1745D01*
X816Y1743D01*
X814Y1743D01*
X814Y1741D01*
X812Y1741D01*
X812Y1739D01*
X808Y1739D01*
X808Y1737D01*
X804Y1737D01*
X804Y1735D01*
X798Y1735D01*
X798Y1733D01*
X872Y1733D01*
X872Y1735D01*
X866Y1735D01*
X866Y1737D01*
X862Y1737D01*
X862Y1739D01*
X858Y1739D01*
X858Y1741D01*
X856Y1741D01*
X856Y1743D01*
X852Y1743D01*
X852Y1745D01*
X850Y1745D01*
X850Y1747D01*
X848Y1747D01*
X848Y1751D01*
X846Y1751D01*
X846Y1753D01*
X824Y1753D01*
G37*
D02*
G36*
X734Y1743D02*
X734Y1733D01*
X772Y1733D01*
X772Y1735D01*
X766Y1735D01*
X766Y1737D01*
X762Y1737D01*
X762Y1739D01*
X758Y1739D01*
X758Y1741D01*
X756Y1741D01*
X756Y1743D01*
X734Y1743D01*
G37*
D02*
G36*
X388Y1733D02*
X388Y1731D01*
X960Y1731D01*
X960Y1733D01*
X388Y1733D01*
G37*
D02*
G36*
X388Y1733D02*
X388Y1731D01*
X960Y1731D01*
X960Y1733D01*
X388Y1733D01*
G37*
D02*
G36*
X388Y1733D02*
X388Y1731D01*
X960Y1731D01*
X960Y1733D01*
X388Y1733D01*
G37*
D02*
G36*
X388Y1733D02*
X388Y1731D01*
X960Y1731D01*
X960Y1733D01*
X388Y1733D01*
G37*
D02*
G36*
X388Y1731D02*
X388Y1713D01*
X500Y1713D01*
X500Y1711D01*
X692Y1711D01*
X692Y1709D01*
X698Y1709D01*
X698Y1707D01*
X700Y1707D01*
X700Y1705D01*
X704Y1705D01*
X704Y1703D01*
X706Y1703D01*
X706Y1701D01*
X708Y1701D01*
X708Y1699D01*
X710Y1699D01*
X710Y1695D01*
X712Y1695D01*
X712Y1689D01*
X714Y1689D01*
X714Y1673D01*
X712Y1673D01*
X712Y1667D01*
X710Y1667D01*
X710Y1665D01*
X708Y1665D01*
X708Y1661D01*
X706Y1661D01*
X706Y1659D01*
X704Y1659D01*
X704Y1657D01*
X700Y1657D01*
X700Y1655D01*
X696Y1655D01*
X696Y1653D01*
X690Y1653D01*
X690Y1651D01*
X674Y1651D01*
X674Y1623D01*
X672Y1623D01*
X672Y1617D01*
X670Y1617D01*
X670Y1613D01*
X668Y1613D01*
X668Y1611D01*
X666Y1611D01*
X666Y1609D01*
X664Y1609D01*
X664Y1607D01*
X662Y1607D01*
X662Y1575D01*
X670Y1575D01*
X670Y1573D01*
X676Y1573D01*
X676Y1571D01*
X680Y1571D01*
X680Y1569D01*
X682Y1569D01*
X682Y1567D01*
X686Y1567D01*
X686Y1563D01*
X688Y1563D01*
X688Y1561D01*
X690Y1561D01*
X690Y1557D01*
X692Y1557D01*
X692Y1551D01*
X694Y1551D01*
X694Y1539D01*
X692Y1539D01*
X692Y1533D01*
X690Y1533D01*
X690Y1511D01*
X772Y1511D01*
X772Y1671D01*
X774Y1671D01*
X774Y1675D01*
X776Y1675D01*
X776Y1677D01*
X778Y1677D01*
X778Y1679D01*
X780Y1679D01*
X780Y1681D01*
X786Y1681D01*
X786Y1683D01*
X960Y1683D01*
X960Y1731D01*
X388Y1731D01*
G37*
D02*
G36*
X388Y1713D02*
X388Y1683D01*
X436Y1683D01*
X436Y1711D01*
X438Y1711D01*
X438Y1713D01*
X388Y1713D01*
G37*
D02*
G36*
X500Y1711D02*
X500Y1707D01*
X588Y1707D01*
X588Y1699D01*
X662Y1699D01*
X662Y1701D01*
X664Y1701D01*
X664Y1703D01*
X666Y1703D01*
X666Y1705D01*
X668Y1705D01*
X668Y1707D01*
X672Y1707D01*
X672Y1709D01*
X678Y1709D01*
X678Y1711D01*
X500Y1711D01*
G37*
D02*
G36*
X500Y1707D02*
X500Y1697D01*
X536Y1697D01*
X536Y1707D01*
X500Y1707D01*
G37*
D02*
G36*
X1066Y1579D02*
X1066Y1499D01*
X1048Y1499D01*
X1048Y1461D01*
X1082Y1461D01*
X1082Y1389D01*
X1100Y1389D01*
X1100Y1371D01*
X1158Y1371D01*
X1158Y1391D01*
X1152Y1391D01*
X1152Y1393D01*
X1150Y1393D01*
X1150Y1395D01*
X1146Y1395D01*
X1146Y1397D01*
X1144Y1397D01*
X1144Y1399D01*
X1142Y1399D01*
X1142Y1403D01*
X1140Y1403D01*
X1140Y1407D01*
X1138Y1407D01*
X1138Y1413D01*
X1136Y1413D01*
X1136Y1425D01*
X1138Y1425D01*
X1138Y1431D01*
X1140Y1431D01*
X1140Y1435D01*
X1142Y1435D01*
X1142Y1437D01*
X1144Y1437D01*
X1144Y1439D01*
X1146Y1439D01*
X1146Y1441D01*
X1148Y1441D01*
X1148Y1443D01*
X1152Y1443D01*
X1152Y1445D01*
X1156Y1445D01*
X1156Y1447D01*
X1190Y1447D01*
X1190Y1579D01*
X1066Y1579D01*
G37*
D02*
G36*
X2282Y1501D02*
X2282Y1471D01*
X2270Y1471D01*
X2270Y1449D01*
X2272Y1449D01*
X2272Y1447D01*
X2274Y1447D01*
X2274Y1443D01*
X2276Y1443D01*
X2276Y1441D01*
X2278Y1441D01*
X2278Y1435D01*
X2280Y1435D01*
X2280Y1427D01*
X2282Y1427D01*
X2282Y1413D01*
X2280Y1413D01*
X2280Y1405D01*
X2278Y1405D01*
X2278Y1399D01*
X2276Y1399D01*
X2276Y1395D01*
X2274Y1395D01*
X2274Y1393D01*
X2272Y1393D01*
X2272Y1389D01*
X2270Y1389D01*
X2270Y1387D01*
X2268Y1387D01*
X2268Y1385D01*
X2266Y1385D01*
X2266Y1383D01*
X2264Y1383D01*
X2264Y1381D01*
X2262Y1381D01*
X2262Y1379D01*
X2260Y1379D01*
X2260Y1359D01*
X2262Y1359D01*
X2262Y1357D01*
X2266Y1357D01*
X2266Y1355D01*
X2268Y1355D01*
X2268Y1353D01*
X2270Y1353D01*
X2270Y1349D01*
X2272Y1349D01*
X2272Y1347D01*
X2274Y1347D01*
X2274Y1343D01*
X2276Y1343D01*
X2276Y1341D01*
X2278Y1341D01*
X2278Y1335D01*
X2280Y1335D01*
X2280Y1327D01*
X2282Y1327D01*
X2282Y1313D01*
X2280Y1313D01*
X2280Y1305D01*
X2278Y1305D01*
X2278Y1299D01*
X2276Y1299D01*
X2276Y1295D01*
X2274Y1295D01*
X2274Y1293D01*
X2272Y1293D01*
X2272Y1289D01*
X2270Y1289D01*
X2270Y1287D01*
X2268Y1287D01*
X2268Y1285D01*
X2266Y1285D01*
X2266Y1283D01*
X2264Y1283D01*
X2264Y1281D01*
X2262Y1281D01*
X2262Y1279D01*
X2260Y1279D01*
X2260Y1259D01*
X2262Y1259D01*
X2262Y1257D01*
X2266Y1257D01*
X2266Y1255D01*
X2268Y1255D01*
X2268Y1253D01*
X2270Y1253D01*
X2270Y1249D01*
X2272Y1249D01*
X2272Y1247D01*
X2274Y1247D01*
X2274Y1243D01*
X2276Y1243D01*
X2276Y1241D01*
X2278Y1241D01*
X2278Y1237D01*
X2404Y1237D01*
X2404Y1235D01*
X2406Y1235D01*
X2406Y1233D01*
X2410Y1233D01*
X2410Y1229D01*
X2412Y1229D01*
X2412Y1225D01*
X2414Y1225D01*
X2414Y1063D01*
X2416Y1063D01*
X2416Y917D01*
X2418Y917D01*
X2418Y773D01*
X2420Y773D01*
X2420Y629D01*
X2422Y629D01*
X2422Y485D01*
X2424Y485D01*
X2424Y341D01*
X2426Y341D01*
X2426Y195D01*
X2428Y195D01*
X2428Y147D01*
X2520Y147D01*
X2520Y145D01*
X2526Y145D01*
X2526Y143D01*
X2530Y143D01*
X2530Y141D01*
X2550Y141D01*
X2550Y1501D01*
X2282Y1501D01*
G37*
D02*
G36*
X2428Y147D02*
X2428Y143D01*
X2430Y143D01*
X2430Y141D01*
X2434Y141D01*
X2434Y139D01*
X2436Y139D01*
X2436Y137D01*
X2438Y137D01*
X2438Y135D01*
X2440Y135D01*
X2440Y133D01*
X2442Y133D01*
X2442Y131D01*
X2444Y131D01*
X2444Y129D01*
X2446Y129D01*
X2446Y125D01*
X2448Y125D01*
X2448Y123D01*
X2450Y123D01*
X2450Y117D01*
X2470Y117D01*
X2470Y121D01*
X2472Y121D01*
X2472Y125D01*
X2474Y125D01*
X2474Y129D01*
X2476Y129D01*
X2476Y131D01*
X2478Y131D01*
X2478Y133D01*
X2480Y133D01*
X2480Y135D01*
X2482Y135D01*
X2482Y137D01*
X2484Y137D01*
X2484Y139D01*
X2486Y139D01*
X2486Y141D01*
X2490Y141D01*
X2490Y143D01*
X2494Y143D01*
X2494Y145D01*
X2502Y145D01*
X2502Y147D01*
X2428Y147D01*
G37*
D02*
G36*
X550Y1143D02*
X550Y1049D01*
X548Y1049D01*
X548Y1045D01*
X546Y1045D01*
X546Y1043D01*
X544Y1043D01*
X544Y1041D01*
X540Y1041D01*
X540Y1039D01*
X518Y1039D01*
X518Y961D01*
X520Y961D01*
X520Y945D01*
X636Y945D01*
X636Y943D01*
X638Y943D01*
X638Y941D01*
X642Y941D01*
X642Y937D01*
X644Y937D01*
X644Y933D01*
X646Y933D01*
X646Y803D01*
X762Y803D01*
X762Y893D01*
X918Y893D01*
X918Y925D01*
X728Y925D01*
X728Y989D01*
X702Y989D01*
X702Y1015D01*
X638Y1015D01*
X638Y1143D01*
X550Y1143D01*
G37*
D02*
G36*
X136Y991D02*
X136Y987D01*
X134Y987D01*
X134Y985D01*
X130Y985D01*
X130Y983D01*
X128Y983D01*
X128Y981D01*
X126Y981D01*
X126Y961D01*
X128Y961D01*
X128Y959D01*
X132Y959D01*
X132Y957D01*
X134Y957D01*
X134Y955D01*
X136Y955D01*
X136Y953D01*
X138Y953D01*
X138Y949D01*
X140Y949D01*
X140Y947D01*
X142Y947D01*
X142Y943D01*
X144Y943D01*
X144Y939D01*
X146Y939D01*
X146Y931D01*
X148Y931D01*
X148Y911D01*
X146Y911D01*
X146Y903D01*
X144Y903D01*
X144Y899D01*
X142Y899D01*
X142Y895D01*
X140Y895D01*
X140Y893D01*
X138Y893D01*
X138Y891D01*
X136Y891D01*
X136Y887D01*
X134Y887D01*
X134Y885D01*
X130Y885D01*
X130Y883D01*
X128Y883D01*
X128Y881D01*
X126Y881D01*
X126Y879D01*
X122Y879D01*
X122Y877D01*
X118Y877D01*
X118Y875D01*
X112Y875D01*
X112Y873D01*
X348Y873D01*
X348Y895D01*
X352Y895D01*
X352Y957D01*
X316Y957D01*
X316Y973D01*
X168Y973D01*
X168Y975D01*
X164Y975D01*
X164Y977D01*
X162Y977D01*
X162Y979D01*
X160Y979D01*
X160Y981D01*
X158Y981D01*
X158Y983D01*
X156Y983D01*
X156Y991D01*
X136Y991D01*
G37*
D02*
G36*
X52Y881D02*
X52Y873D01*
X86Y873D01*
X86Y875D01*
X80Y875D01*
X80Y877D01*
X76Y877D01*
X76Y879D01*
X72Y879D01*
X72Y881D01*
X52Y881D01*
G37*
D02*
G36*
X52Y873D02*
X52Y871D01*
X348Y871D01*
X348Y873D01*
X52Y873D01*
G37*
D02*
G36*
X52Y873D02*
X52Y871D01*
X348Y871D01*
X348Y873D01*
X52Y873D01*
G37*
D02*
G36*
X52Y871D02*
X52Y71D01*
X54Y71D01*
X54Y67D01*
X56Y67D01*
X56Y63D01*
X58Y63D01*
X58Y61D01*
X60Y61D01*
X60Y59D01*
X62Y59D01*
X62Y57D01*
X64Y57D01*
X64Y55D01*
X66Y55D01*
X66Y53D01*
X70Y53D01*
X70Y51D01*
X74Y51D01*
X74Y49D01*
X80Y49D01*
X80Y47D01*
X668Y47D01*
X668Y713D01*
X364Y713D01*
X364Y715D01*
X360Y715D01*
X360Y717D01*
X358Y717D01*
X358Y719D01*
X356Y719D01*
X356Y721D01*
X354Y721D01*
X354Y725D01*
X352Y725D01*
X352Y825D01*
X348Y825D01*
X348Y871D01*
X52Y871D01*
G37*
D02*
G36*
X692Y767D02*
X692Y747D01*
X696Y747D01*
X696Y745D01*
X700Y745D01*
X700Y743D01*
X702Y743D01*
X702Y739D01*
X704Y739D01*
X704Y731D01*
X706Y731D01*
X706Y465D01*
X760Y465D01*
X760Y463D01*
X768Y463D01*
X768Y461D01*
X774Y461D01*
X774Y459D01*
X776Y459D01*
X776Y457D01*
X780Y457D01*
X780Y455D01*
X782Y455D01*
X782Y453D01*
X786Y453D01*
X786Y451D01*
X788Y451D01*
X788Y449D01*
X790Y449D01*
X790Y447D01*
X792Y447D01*
X792Y443D01*
X814Y443D01*
X814Y447D01*
X816Y447D01*
X816Y449D01*
X818Y449D01*
X818Y451D01*
X820Y451D01*
X820Y453D01*
X824Y453D01*
X824Y455D01*
X826Y455D01*
X826Y457D01*
X830Y457D01*
X830Y459D01*
X832Y459D01*
X832Y461D01*
X836Y461D01*
X836Y617D01*
X838Y617D01*
X838Y619D01*
X840Y619D01*
X840Y621D01*
X842Y621D01*
X842Y623D01*
X844Y623D01*
X844Y625D01*
X850Y625D01*
X850Y627D01*
X982Y627D01*
X982Y767D01*
X692Y767D01*
G37*
D02*
G36*
X706Y465D02*
X706Y455D01*
X726Y455D01*
X726Y457D01*
X730Y457D01*
X730Y459D01*
X732Y459D01*
X732Y461D01*
X738Y461D01*
X738Y463D01*
X746Y463D01*
X746Y465D01*
X706Y465D01*
G37*
D02*
G36*
X1674Y2059D02*
X1674Y2039D01*
X1676Y2039D01*
X1676Y2037D01*
X1678Y2037D01*
X1678Y2035D01*
X1680Y2035D01*
X1680Y2033D01*
X1682Y2033D01*
X1682Y2031D01*
X1684Y2031D01*
X1684Y2029D01*
X1686Y2029D01*
X1686Y2025D01*
X1688Y2025D01*
X1688Y2023D01*
X1690Y2023D01*
X1690Y2017D01*
X1692Y2017D01*
X1692Y1993D01*
X1690Y1993D01*
X1690Y1987D01*
X1688Y1987D01*
X1688Y1983D01*
X1686Y1983D01*
X1686Y1981D01*
X1684Y1981D01*
X1684Y1977D01*
X1682Y1977D01*
X1682Y1975D01*
X1680Y1975D01*
X1680Y1973D01*
X1678Y1973D01*
X1678Y1971D01*
X1676Y1971D01*
X1676Y1969D01*
X1672Y1969D01*
X1672Y1967D01*
X1668Y1967D01*
X1668Y1965D01*
X1662Y1965D01*
X1662Y1963D01*
X1652Y1963D01*
X1652Y1961D01*
X1808Y1961D01*
X1808Y1963D01*
X1798Y1963D01*
X1798Y1965D01*
X1792Y1965D01*
X1792Y1967D01*
X1788Y1967D01*
X1788Y1969D01*
X1786Y1969D01*
X1786Y1971D01*
X1784Y1971D01*
X1784Y1973D01*
X1780Y1973D01*
X1780Y1975D01*
X1778Y1975D01*
X1778Y1979D01*
X1776Y1979D01*
X1776Y1981D01*
X1774Y1981D01*
X1774Y1985D01*
X1772Y1985D01*
X1772Y1987D01*
X1770Y1987D01*
X1770Y1995D01*
X1768Y1995D01*
X1768Y2015D01*
X1770Y2015D01*
X1770Y2021D01*
X1772Y2021D01*
X1772Y2025D01*
X1774Y2025D01*
X1774Y2029D01*
X1776Y2029D01*
X1776Y2031D01*
X1778Y2031D01*
X1778Y2033D01*
X1780Y2033D01*
X1780Y2035D01*
X1782Y2035D01*
X1782Y2037D01*
X1784Y2037D01*
X1784Y2039D01*
X1786Y2039D01*
X1786Y2059D01*
X1674Y2059D01*
G37*
D02*
G36*
X1390Y1993D02*
X1390Y1987D01*
X1388Y1987D01*
X1388Y1983D01*
X1386Y1983D01*
X1386Y1981D01*
X1384Y1981D01*
X1384Y1977D01*
X1382Y1977D01*
X1382Y1975D01*
X1380Y1975D01*
X1380Y1973D01*
X1378Y1973D01*
X1378Y1971D01*
X1376Y1971D01*
X1376Y1969D01*
X1372Y1969D01*
X1372Y1967D01*
X1368Y1967D01*
X1368Y1965D01*
X1362Y1965D01*
X1362Y1963D01*
X1352Y1963D01*
X1352Y1961D01*
X1448Y1961D01*
X1448Y1963D01*
X1438Y1963D01*
X1438Y1965D01*
X1432Y1965D01*
X1432Y1967D01*
X1428Y1967D01*
X1428Y1969D01*
X1426Y1969D01*
X1426Y1971D01*
X1424Y1971D01*
X1424Y1973D01*
X1420Y1973D01*
X1420Y1975D01*
X1418Y1975D01*
X1418Y1979D01*
X1416Y1979D01*
X1416Y1981D01*
X1414Y1981D01*
X1414Y1985D01*
X1412Y1985D01*
X1412Y1987D01*
X1410Y1987D01*
X1410Y1993D01*
X1390Y1993D01*
G37*
D02*
G36*
X1490Y1993D02*
X1490Y1987D01*
X1488Y1987D01*
X1488Y1983D01*
X1486Y1983D01*
X1486Y1981D01*
X1484Y1981D01*
X1484Y1977D01*
X1482Y1977D01*
X1482Y1975D01*
X1480Y1975D01*
X1480Y1973D01*
X1478Y1973D01*
X1478Y1971D01*
X1476Y1971D01*
X1476Y1969D01*
X1472Y1969D01*
X1472Y1967D01*
X1468Y1967D01*
X1468Y1965D01*
X1462Y1965D01*
X1462Y1963D01*
X1452Y1963D01*
X1452Y1961D01*
X1548Y1961D01*
X1548Y1963D01*
X1538Y1963D01*
X1538Y1965D01*
X1532Y1965D01*
X1532Y1967D01*
X1528Y1967D01*
X1528Y1969D01*
X1526Y1969D01*
X1526Y1971D01*
X1524Y1971D01*
X1524Y1973D01*
X1520Y1973D01*
X1520Y1975D01*
X1518Y1975D01*
X1518Y1979D01*
X1516Y1979D01*
X1516Y1981D01*
X1514Y1981D01*
X1514Y1985D01*
X1512Y1985D01*
X1512Y1989D01*
X1510Y1989D01*
X1510Y1993D01*
X1490Y1993D01*
G37*
D02*
G36*
X1590Y1993D02*
X1590Y1987D01*
X1588Y1987D01*
X1588Y1983D01*
X1586Y1983D01*
X1586Y1979D01*
X1584Y1979D01*
X1584Y1977D01*
X1582Y1977D01*
X1582Y1975D01*
X1580Y1975D01*
X1580Y1973D01*
X1578Y1973D01*
X1578Y1971D01*
X1576Y1971D01*
X1576Y1969D01*
X1572Y1969D01*
X1572Y1967D01*
X1568Y1967D01*
X1568Y1965D01*
X1562Y1965D01*
X1562Y1963D01*
X1552Y1963D01*
X1552Y1961D01*
X1648Y1961D01*
X1648Y1963D01*
X1638Y1963D01*
X1638Y1965D01*
X1632Y1965D01*
X1632Y1967D01*
X1628Y1967D01*
X1628Y1969D01*
X1626Y1969D01*
X1626Y1971D01*
X1622Y1971D01*
X1622Y1973D01*
X1620Y1973D01*
X1620Y1975D01*
X1618Y1975D01*
X1618Y1979D01*
X1616Y1979D01*
X1616Y1981D01*
X1614Y1981D01*
X1614Y1985D01*
X1612Y1985D01*
X1612Y1987D01*
X1610Y1987D01*
X1610Y1993D01*
X1590Y1993D01*
G37*
D02*
G36*
X1850Y1993D02*
X1850Y1987D01*
X1848Y1987D01*
X1848Y1983D01*
X1846Y1983D01*
X1846Y1981D01*
X1844Y1981D01*
X1844Y1977D01*
X1842Y1977D01*
X1842Y1975D01*
X1840Y1975D01*
X1840Y1973D01*
X1838Y1973D01*
X1838Y1971D01*
X1836Y1971D01*
X1836Y1969D01*
X1832Y1969D01*
X1832Y1967D01*
X1828Y1967D01*
X1828Y1965D01*
X1822Y1965D01*
X1822Y1963D01*
X1812Y1963D01*
X1812Y1961D01*
X1908Y1961D01*
X1908Y1963D01*
X1898Y1963D01*
X1898Y1965D01*
X1892Y1965D01*
X1892Y1967D01*
X1888Y1967D01*
X1888Y1969D01*
X1886Y1969D01*
X1886Y1971D01*
X1884Y1971D01*
X1884Y1973D01*
X1880Y1973D01*
X1880Y1975D01*
X1878Y1975D01*
X1878Y1979D01*
X1876Y1979D01*
X1876Y1981D01*
X1874Y1981D01*
X1874Y1985D01*
X1872Y1985D01*
X1872Y1989D01*
X1870Y1989D01*
X1870Y1993D01*
X1850Y1993D01*
G37*
D02*
G36*
X1950Y1993D02*
X1950Y1987D01*
X1948Y1987D01*
X1948Y1983D01*
X1946Y1983D01*
X1946Y1979D01*
X1944Y1979D01*
X1944Y1977D01*
X1942Y1977D01*
X1942Y1975D01*
X1940Y1975D01*
X1940Y1973D01*
X1938Y1973D01*
X1938Y1971D01*
X1936Y1971D01*
X1936Y1969D01*
X1932Y1969D01*
X1932Y1967D01*
X1928Y1967D01*
X1928Y1965D01*
X1922Y1965D01*
X1922Y1963D01*
X1912Y1963D01*
X1912Y1961D01*
X2008Y1961D01*
X2008Y1963D01*
X1998Y1963D01*
X1998Y1965D01*
X1992Y1965D01*
X1992Y1967D01*
X1988Y1967D01*
X1988Y1969D01*
X1986Y1969D01*
X1986Y1971D01*
X1984Y1971D01*
X1984Y1973D01*
X1980Y1973D01*
X1980Y1975D01*
X1978Y1975D01*
X1978Y1979D01*
X1976Y1979D01*
X1976Y1981D01*
X1974Y1981D01*
X1974Y1985D01*
X1972Y1985D01*
X1972Y1989D01*
X1970Y1989D01*
X1970Y1993D01*
X1950Y1993D01*
G37*
D02*
G36*
X2050Y1993D02*
X2050Y1987D01*
X2048Y1987D01*
X2048Y1983D01*
X2046Y1983D01*
X2046Y1979D01*
X2044Y1979D01*
X2044Y1977D01*
X2042Y1977D01*
X2042Y1975D01*
X2040Y1975D01*
X2040Y1973D01*
X2038Y1973D01*
X2038Y1971D01*
X2036Y1971D01*
X2036Y1969D01*
X2032Y1969D01*
X2032Y1967D01*
X2028Y1967D01*
X2028Y1965D01*
X2022Y1965D01*
X2022Y1963D01*
X2012Y1963D01*
X2012Y1961D01*
X2108Y1961D01*
X2108Y1963D01*
X2098Y1963D01*
X2098Y1965D01*
X2092Y1965D01*
X2092Y1967D01*
X2088Y1967D01*
X2088Y1969D01*
X2086Y1969D01*
X2086Y1971D01*
X2084Y1971D01*
X2084Y1973D01*
X2080Y1973D01*
X2080Y1975D01*
X2078Y1975D01*
X2078Y1979D01*
X2076Y1979D01*
X2076Y1981D01*
X2074Y1981D01*
X2074Y1985D01*
X2072Y1985D01*
X2072Y1987D01*
X2070Y1987D01*
X2070Y1993D01*
X2050Y1993D01*
G37*
D02*
G36*
X2150Y1993D02*
X2150Y1987D01*
X2148Y1987D01*
X2148Y1983D01*
X2146Y1983D01*
X2146Y1981D01*
X2144Y1981D01*
X2144Y1977D01*
X2142Y1977D01*
X2142Y1975D01*
X2140Y1975D01*
X2140Y1973D01*
X2138Y1973D01*
X2138Y1971D01*
X2136Y1971D01*
X2136Y1969D01*
X2132Y1969D01*
X2132Y1967D01*
X2128Y1967D01*
X2128Y1965D01*
X2122Y1965D01*
X2122Y1963D01*
X2112Y1963D01*
X2112Y1961D01*
X2208Y1961D01*
X2208Y1963D01*
X2198Y1963D01*
X2198Y1965D01*
X2192Y1965D01*
X2192Y1967D01*
X2188Y1967D01*
X2188Y1969D01*
X2186Y1969D01*
X2186Y1971D01*
X2182Y1971D01*
X2182Y1973D01*
X2180Y1973D01*
X2180Y1975D01*
X2178Y1975D01*
X2178Y1979D01*
X2176Y1979D01*
X2176Y1981D01*
X2174Y1981D01*
X2174Y1985D01*
X2172Y1985D01*
X2172Y1987D01*
X2170Y1987D01*
X2170Y1993D01*
X2150Y1993D01*
G37*
D02*
G36*
X2250Y1993D02*
X2250Y1987D01*
X2248Y1987D01*
X2248Y1983D01*
X2246Y1983D01*
X2246Y1981D01*
X2244Y1981D01*
X2244Y1977D01*
X2242Y1977D01*
X2242Y1975D01*
X2240Y1975D01*
X2240Y1973D01*
X2238Y1973D01*
X2238Y1971D01*
X2236Y1971D01*
X2236Y1969D01*
X2232Y1969D01*
X2232Y1967D01*
X2228Y1967D01*
X2228Y1965D01*
X2222Y1965D01*
X2222Y1963D01*
X2212Y1963D01*
X2212Y1961D01*
X2308Y1961D01*
X2308Y1963D01*
X2298Y1963D01*
X2298Y1965D01*
X2292Y1965D01*
X2292Y1967D01*
X2288Y1967D01*
X2288Y1969D01*
X2286Y1969D01*
X2286Y1971D01*
X2284Y1971D01*
X2284Y1973D01*
X2280Y1973D01*
X2280Y1975D01*
X2278Y1975D01*
X2278Y1979D01*
X2276Y1979D01*
X2276Y1981D01*
X2274Y1981D01*
X2274Y1985D01*
X2272Y1985D01*
X2272Y1989D01*
X2270Y1989D01*
X2270Y1993D01*
X2250Y1993D01*
G37*
D02*
G36*
X2350Y1993D02*
X2350Y1987D01*
X2348Y1987D01*
X2348Y1983D01*
X2346Y1983D01*
X2346Y1979D01*
X2344Y1979D01*
X2344Y1977D01*
X2342Y1977D01*
X2342Y1975D01*
X2340Y1975D01*
X2340Y1973D01*
X2338Y1973D01*
X2338Y1971D01*
X2336Y1971D01*
X2336Y1969D01*
X2332Y1969D01*
X2332Y1967D01*
X2328Y1967D01*
X2328Y1965D01*
X2322Y1965D01*
X2322Y1963D01*
X2312Y1963D01*
X2312Y1961D01*
X2408Y1961D01*
X2408Y1963D01*
X2398Y1963D01*
X2398Y1965D01*
X2392Y1965D01*
X2392Y1967D01*
X2388Y1967D01*
X2388Y1969D01*
X2386Y1969D01*
X2386Y1971D01*
X2384Y1971D01*
X2384Y1973D01*
X2380Y1973D01*
X2380Y1975D01*
X2378Y1975D01*
X2378Y1979D01*
X2376Y1979D01*
X2376Y1981D01*
X2374Y1981D01*
X2374Y1985D01*
X2372Y1985D01*
X2372Y1989D01*
X2370Y1989D01*
X2370Y1993D01*
X2350Y1993D01*
G37*
D02*
G36*
X2450Y1993D02*
X2450Y1987D01*
X2448Y1987D01*
X2448Y1983D01*
X2446Y1983D01*
X2446Y1979D01*
X2444Y1979D01*
X2444Y1977D01*
X2442Y1977D01*
X2442Y1975D01*
X2440Y1975D01*
X2440Y1973D01*
X2438Y1973D01*
X2438Y1971D01*
X2436Y1971D01*
X2436Y1969D01*
X2432Y1969D01*
X2432Y1967D01*
X2428Y1967D01*
X2428Y1965D01*
X2422Y1965D01*
X2422Y1963D01*
X2412Y1963D01*
X2412Y1961D01*
X2508Y1961D01*
X2508Y1963D01*
X2498Y1963D01*
X2498Y1965D01*
X2492Y1965D01*
X2492Y1967D01*
X2488Y1967D01*
X2488Y1969D01*
X2486Y1969D01*
X2486Y1971D01*
X2484Y1971D01*
X2484Y1973D01*
X2480Y1973D01*
X2480Y1975D01*
X2478Y1975D01*
X2478Y1979D01*
X2476Y1979D01*
X2476Y1981D01*
X2474Y1981D01*
X2474Y1985D01*
X2472Y1985D01*
X2472Y1989D01*
X2470Y1989D01*
X2470Y1993D01*
X2450Y1993D01*
G37*
D02*
G36*
X2544Y1979D02*
X2544Y1977D01*
X2542Y1977D01*
X2542Y1975D01*
X2540Y1975D01*
X2540Y1973D01*
X2538Y1973D01*
X2538Y1971D01*
X2536Y1971D01*
X2536Y1969D01*
X2532Y1969D01*
X2532Y1967D01*
X2528Y1967D01*
X2528Y1965D01*
X2522Y1965D01*
X2522Y1963D01*
X2512Y1963D01*
X2512Y1961D01*
X2564Y1961D01*
X2564Y1979D01*
X2544Y1979D01*
G37*
D02*
G36*
X1344Y1961D02*
X1344Y1959D01*
X2564Y1959D01*
X2564Y1961D01*
X1344Y1961D01*
G37*
D02*
G36*
X1344Y1961D02*
X1344Y1959D01*
X2564Y1959D01*
X2564Y1961D01*
X1344Y1961D01*
G37*
D02*
G36*
X1344Y1961D02*
X1344Y1959D01*
X2564Y1959D01*
X2564Y1961D01*
X1344Y1961D01*
G37*
D02*
G36*
X1344Y1961D02*
X1344Y1959D01*
X2564Y1959D01*
X2564Y1961D01*
X1344Y1961D01*
G37*
D02*
G36*
X1344Y1961D02*
X1344Y1959D01*
X2564Y1959D01*
X2564Y1961D01*
X1344Y1961D01*
G37*
D02*
G36*
X1344Y1961D02*
X1344Y1959D01*
X2564Y1959D01*
X2564Y1961D01*
X1344Y1961D01*
G37*
D02*
G36*
X1344Y1961D02*
X1344Y1959D01*
X2564Y1959D01*
X2564Y1961D01*
X1344Y1961D01*
G37*
D02*
G36*
X1344Y1961D02*
X1344Y1959D01*
X2564Y1959D01*
X2564Y1961D01*
X1344Y1961D01*
G37*
D02*
G36*
X1344Y1961D02*
X1344Y1959D01*
X2564Y1959D01*
X2564Y1961D01*
X1344Y1961D01*
G37*
D02*
G36*
X1344Y1961D02*
X1344Y1959D01*
X2564Y1959D01*
X2564Y1961D01*
X1344Y1961D01*
G37*
D02*
G36*
X1344Y1961D02*
X1344Y1959D01*
X2564Y1959D01*
X2564Y1961D01*
X1344Y1961D01*
G37*
D02*
G36*
X1344Y1961D02*
X1344Y1959D01*
X2564Y1959D01*
X2564Y1961D01*
X1344Y1961D01*
G37*
D02*
G36*
X1344Y1959D02*
X1344Y1957D01*
X1342Y1957D01*
X1342Y1953D01*
X1340Y1953D01*
X1340Y1949D01*
X1338Y1949D01*
X1338Y1947D01*
X1336Y1947D01*
X1336Y1943D01*
X1334Y1943D01*
X1334Y1939D01*
X1332Y1939D01*
X1332Y1937D01*
X1330Y1937D01*
X1330Y1933D01*
X1328Y1933D01*
X1328Y1929D01*
X1326Y1929D01*
X1326Y1927D01*
X1324Y1927D01*
X1324Y1923D01*
X1322Y1923D01*
X1322Y1919D01*
X1320Y1919D01*
X1320Y1915D01*
X1318Y1915D01*
X1318Y1913D01*
X1316Y1913D01*
X1316Y1909D01*
X1314Y1909D01*
X1314Y1905D01*
X1312Y1905D01*
X1312Y1903D01*
X1310Y1903D01*
X1310Y1901D01*
X1880Y1901D01*
X1880Y1899D01*
X1886Y1899D01*
X1886Y1897D01*
X1892Y1897D01*
X1892Y1895D01*
X1894Y1895D01*
X1894Y1893D01*
X1898Y1893D01*
X1898Y1891D01*
X1900Y1891D01*
X1900Y1889D01*
X1902Y1889D01*
X1902Y1887D01*
X1904Y1887D01*
X1904Y1885D01*
X1906Y1885D01*
X1906Y1883D01*
X1908Y1883D01*
X1908Y1881D01*
X1910Y1881D01*
X1910Y1877D01*
X1912Y1877D01*
X1912Y1875D01*
X1914Y1875D01*
X1914Y1869D01*
X1916Y1869D01*
X1916Y1861D01*
X1918Y1861D01*
X1918Y1847D01*
X1916Y1847D01*
X1916Y1839D01*
X1914Y1839D01*
X1914Y1833D01*
X1912Y1833D01*
X1912Y1829D01*
X1910Y1829D01*
X1910Y1827D01*
X1908Y1827D01*
X1908Y1825D01*
X1906Y1825D01*
X1906Y1821D01*
X1904Y1821D01*
X1904Y1819D01*
X1900Y1819D01*
X1900Y1817D01*
X1898Y1817D01*
X1898Y1815D01*
X1896Y1815D01*
X1896Y1813D01*
X1892Y1813D01*
X1892Y1811D01*
X1888Y1811D01*
X1888Y1809D01*
X1880Y1809D01*
X1880Y1807D01*
X2564Y1807D01*
X2564Y1959D01*
X1344Y1959D01*
G37*
D02*
G36*
X1310Y1901D02*
X1310Y1899D01*
X1308Y1899D01*
X1308Y1895D01*
X1306Y1895D01*
X1306Y1893D01*
X1304Y1893D01*
X1304Y1871D01*
X1528Y1871D01*
X1528Y1875D01*
X1530Y1875D01*
X1530Y1879D01*
X1532Y1879D01*
X1532Y1881D01*
X1534Y1881D01*
X1534Y1883D01*
X1536Y1883D01*
X1536Y1887D01*
X1538Y1887D01*
X1538Y1889D01*
X1542Y1889D01*
X1542Y1891D01*
X1544Y1891D01*
X1544Y1893D01*
X1546Y1893D01*
X1546Y1895D01*
X1550Y1895D01*
X1550Y1897D01*
X1556Y1897D01*
X1556Y1899D01*
X1562Y1899D01*
X1562Y1901D01*
X1310Y1901D01*
G37*
D02*
G36*
X1580Y1901D02*
X1580Y1899D01*
X1586Y1899D01*
X1586Y1897D01*
X1592Y1897D01*
X1592Y1895D01*
X1594Y1895D01*
X1594Y1893D01*
X1598Y1893D01*
X1598Y1891D01*
X1600Y1891D01*
X1600Y1889D01*
X1602Y1889D01*
X1602Y1887D01*
X1604Y1887D01*
X1604Y1885D01*
X1606Y1885D01*
X1606Y1883D01*
X1608Y1883D01*
X1608Y1881D01*
X1610Y1881D01*
X1610Y1877D01*
X1612Y1877D01*
X1612Y1875D01*
X1614Y1875D01*
X1614Y1869D01*
X1616Y1869D01*
X1616Y1861D01*
X1618Y1861D01*
X1618Y1847D01*
X1616Y1847D01*
X1616Y1839D01*
X1614Y1839D01*
X1614Y1833D01*
X1612Y1833D01*
X1612Y1829D01*
X1610Y1829D01*
X1610Y1827D01*
X1608Y1827D01*
X1608Y1825D01*
X1606Y1825D01*
X1606Y1821D01*
X1604Y1821D01*
X1604Y1819D01*
X1600Y1819D01*
X1600Y1817D01*
X1598Y1817D01*
X1598Y1815D01*
X1596Y1815D01*
X1596Y1813D01*
X1592Y1813D01*
X1592Y1811D01*
X1588Y1811D01*
X1588Y1809D01*
X1580Y1809D01*
X1580Y1807D01*
X1862Y1807D01*
X1862Y1809D01*
X1854Y1809D01*
X1854Y1811D01*
X1850Y1811D01*
X1850Y1813D01*
X1846Y1813D01*
X1846Y1815D01*
X1844Y1815D01*
X1844Y1817D01*
X1840Y1817D01*
X1840Y1819D01*
X1838Y1819D01*
X1838Y1821D01*
X1836Y1821D01*
X1836Y1823D01*
X1834Y1823D01*
X1834Y1827D01*
X1832Y1827D01*
X1832Y1829D01*
X1830Y1829D01*
X1830Y1833D01*
X1828Y1833D01*
X1828Y1837D01*
X1826Y1837D01*
X1826Y1843D01*
X1824Y1843D01*
X1824Y1863D01*
X1826Y1863D01*
X1826Y1871D01*
X1828Y1871D01*
X1828Y1875D01*
X1830Y1875D01*
X1830Y1879D01*
X1832Y1879D01*
X1832Y1881D01*
X1834Y1881D01*
X1834Y1883D01*
X1836Y1883D01*
X1836Y1887D01*
X1838Y1887D01*
X1838Y1889D01*
X1842Y1889D01*
X1842Y1891D01*
X1844Y1891D01*
X1844Y1893D01*
X1846Y1893D01*
X1846Y1895D01*
X1850Y1895D01*
X1850Y1897D01*
X1856Y1897D01*
X1856Y1899D01*
X1862Y1899D01*
X1862Y1901D01*
X1580Y1901D01*
G37*
D02*
G36*
X1218Y1835D02*
X1218Y1807D01*
X1562Y1807D01*
X1562Y1809D01*
X1554Y1809D01*
X1554Y1811D01*
X1550Y1811D01*
X1550Y1813D01*
X1546Y1813D01*
X1546Y1815D01*
X1544Y1815D01*
X1544Y1817D01*
X1540Y1817D01*
X1540Y1819D01*
X1538Y1819D01*
X1538Y1821D01*
X1536Y1821D01*
X1536Y1823D01*
X1534Y1823D01*
X1534Y1827D01*
X1532Y1827D01*
X1532Y1829D01*
X1530Y1829D01*
X1530Y1833D01*
X1528Y1833D01*
X1528Y1835D01*
X1218Y1835D01*
G37*
D02*
G36*
X1218Y1807D02*
X1218Y1805D01*
X2564Y1805D01*
X2564Y1807D01*
X1218Y1807D01*
G37*
D02*
G36*
X1218Y1807D02*
X1218Y1805D01*
X2564Y1805D01*
X2564Y1807D01*
X1218Y1807D01*
G37*
D02*
G36*
X1218Y1807D02*
X1218Y1805D01*
X2564Y1805D01*
X2564Y1807D01*
X1218Y1807D01*
G37*
D02*
G36*
X1218Y1805D02*
X1218Y1771D01*
X1548Y1771D01*
X1548Y1673D01*
X1466Y1673D01*
X1466Y1653D01*
X1468Y1653D01*
X1468Y1649D01*
X1470Y1649D01*
X1470Y1591D01*
X1786Y1591D01*
X1786Y1569D01*
X2282Y1569D01*
X2282Y1537D01*
X2564Y1537D01*
X2564Y1805D01*
X1218Y1805D01*
G37*
D02*
G36*
X1218Y1771D02*
X1218Y1765D01*
X1222Y1765D01*
X1222Y1763D01*
X1226Y1763D01*
X1226Y1761D01*
X1228Y1761D01*
X1228Y1759D01*
X1232Y1759D01*
X1232Y1757D01*
X1234Y1757D01*
X1234Y1755D01*
X1236Y1755D01*
X1236Y1753D01*
X1238Y1753D01*
X1238Y1749D01*
X1260Y1749D01*
X1260Y1751D01*
X1262Y1751D01*
X1262Y1753D01*
X1264Y1753D01*
X1264Y1755D01*
X1266Y1755D01*
X1266Y1757D01*
X1268Y1757D01*
X1268Y1759D01*
X1270Y1759D01*
X1270Y1761D01*
X1272Y1761D01*
X1272Y1763D01*
X1276Y1763D01*
X1276Y1765D01*
X1280Y1765D01*
X1280Y1767D01*
X1286Y1767D01*
X1286Y1769D01*
X1298Y1769D01*
X1298Y1771D01*
X1218Y1771D01*
G37*
D02*
G36*
X1302Y1771D02*
X1302Y1769D01*
X1312Y1769D01*
X1312Y1767D01*
X1318Y1767D01*
X1318Y1765D01*
X1322Y1765D01*
X1322Y1763D01*
X1326Y1763D01*
X1326Y1761D01*
X1328Y1761D01*
X1328Y1759D01*
X1332Y1759D01*
X1332Y1757D01*
X1334Y1757D01*
X1334Y1755D01*
X1336Y1755D01*
X1336Y1753D01*
X1338Y1753D01*
X1338Y1749D01*
X1360Y1749D01*
X1360Y1751D01*
X1362Y1751D01*
X1362Y1753D01*
X1364Y1753D01*
X1364Y1755D01*
X1366Y1755D01*
X1366Y1757D01*
X1368Y1757D01*
X1368Y1759D01*
X1370Y1759D01*
X1370Y1761D01*
X1372Y1761D01*
X1372Y1763D01*
X1376Y1763D01*
X1376Y1765D01*
X1380Y1765D01*
X1380Y1767D01*
X1386Y1767D01*
X1386Y1769D01*
X1398Y1769D01*
X1398Y1771D01*
X1302Y1771D01*
G37*
D02*
G36*
X1402Y1771D02*
X1402Y1769D01*
X1412Y1769D01*
X1412Y1767D01*
X1418Y1767D01*
X1418Y1765D01*
X1422Y1765D01*
X1422Y1763D01*
X1426Y1763D01*
X1426Y1761D01*
X1428Y1761D01*
X1428Y1759D01*
X1450Y1759D01*
X1450Y1769D01*
X1452Y1769D01*
X1452Y1771D01*
X1402Y1771D01*
G37*
D02*
G36*
X1470Y1591D02*
X1470Y1531D01*
X1488Y1531D01*
X1488Y1433D01*
X1670Y1433D01*
X1670Y1457D01*
X1656Y1457D01*
X1656Y1591D01*
X1470Y1591D01*
G37*
D02*
G36*
X1786Y1569D02*
X1786Y1547D01*
X2000Y1547D01*
X2000Y1537D01*
X2004Y1537D01*
X2004Y1447D01*
X2000Y1447D01*
X2000Y1439D01*
X1996Y1439D01*
X1996Y1413D01*
X1998Y1413D01*
X1998Y1411D01*
X2000Y1411D01*
X2000Y1409D01*
X2002Y1409D01*
X2002Y1407D01*
X2004Y1407D01*
X2004Y1403D01*
X2006Y1403D01*
X2006Y1399D01*
X2008Y1399D01*
X2008Y1381D01*
X2006Y1381D01*
X2006Y1377D01*
X2004Y1377D01*
X2004Y1373D01*
X2002Y1373D01*
X2002Y1371D01*
X2000Y1371D01*
X2000Y1369D01*
X1998Y1369D01*
X1998Y1367D01*
X1996Y1367D01*
X1996Y1365D01*
X1992Y1365D01*
X1992Y1363D01*
X1988Y1363D01*
X1988Y1361D01*
X1972Y1361D01*
X1972Y749D01*
X1954Y749D01*
X1954Y673D01*
X1998Y673D01*
X1998Y1229D01*
X2000Y1229D01*
X2000Y1233D01*
X2002Y1233D01*
X2002Y1235D01*
X2006Y1235D01*
X2006Y1237D01*
X2010Y1237D01*
X2010Y1239D01*
X2054Y1239D01*
X2054Y1241D01*
X2056Y1241D01*
X2056Y1245D01*
X2058Y1245D01*
X2058Y1249D01*
X2060Y1249D01*
X2060Y1251D01*
X2062Y1251D01*
X2062Y1253D01*
X2064Y1253D01*
X2064Y1255D01*
X2066Y1255D01*
X2066Y1257D01*
X2068Y1257D01*
X2068Y1259D01*
X2070Y1259D01*
X2070Y1261D01*
X2072Y1261D01*
X2072Y1281D01*
X2070Y1281D01*
X2070Y1283D01*
X2068Y1283D01*
X2068Y1285D01*
X2066Y1285D01*
X2066Y1287D01*
X2064Y1287D01*
X2064Y1289D01*
X2062Y1289D01*
X2062Y1291D01*
X2060Y1291D01*
X2060Y1293D01*
X2058Y1293D01*
X2058Y1297D01*
X2056Y1297D01*
X2056Y1301D01*
X2054Y1301D01*
X2054Y1305D01*
X2052Y1305D01*
X2052Y1313D01*
X2050Y1313D01*
X2050Y1329D01*
X2052Y1329D01*
X2052Y1337D01*
X2054Y1337D01*
X2054Y1341D01*
X2056Y1341D01*
X2056Y1345D01*
X2058Y1345D01*
X2058Y1349D01*
X2060Y1349D01*
X2060Y1351D01*
X2062Y1351D01*
X2062Y1353D01*
X2064Y1353D01*
X2064Y1373D01*
X2050Y1373D01*
X2050Y1469D01*
X2052Y1469D01*
X2052Y1471D01*
X2082Y1471D01*
X2082Y1527D01*
X2084Y1527D01*
X2084Y1531D01*
X2086Y1531D01*
X2086Y1533D01*
X2088Y1533D01*
X2088Y1535D01*
X2092Y1535D01*
X2092Y1537D01*
X2184Y1537D01*
X2184Y1569D01*
X1786Y1569D01*
G37*
D02*
G36*
X1786Y1547D02*
X1786Y1457D01*
X1706Y1457D01*
X1706Y1433D01*
X1810Y1433D01*
X1810Y1537D01*
X1820Y1537D01*
X1820Y1547D01*
X1786Y1547D01*
G37*
D02*
G36*
X2278Y1201D02*
X2278Y1199D01*
X2276Y1199D01*
X2276Y1195D01*
X2274Y1195D01*
X2274Y1193D01*
X2272Y1193D01*
X2272Y1189D01*
X2270Y1189D01*
X2270Y1187D01*
X2268Y1187D01*
X2268Y1185D01*
X2266Y1185D01*
X2266Y1183D01*
X2264Y1183D01*
X2264Y1181D01*
X2262Y1181D01*
X2262Y1179D01*
X2260Y1179D01*
X2260Y1159D01*
X2262Y1159D01*
X2262Y1157D01*
X2266Y1157D01*
X2266Y1155D01*
X2268Y1155D01*
X2268Y1153D01*
X2270Y1153D01*
X2270Y1149D01*
X2272Y1149D01*
X2272Y1147D01*
X2274Y1147D01*
X2274Y1143D01*
X2276Y1143D01*
X2276Y1141D01*
X2278Y1141D01*
X2278Y1137D01*
X2330Y1137D01*
X2330Y1135D01*
X2334Y1135D01*
X2334Y1133D01*
X2336Y1133D01*
X2336Y1131D01*
X2338Y1131D01*
X2338Y1129D01*
X2340Y1129D01*
X2340Y1121D01*
X2342Y1121D01*
X2342Y303D01*
X2344Y303D01*
X2344Y301D01*
X2346Y301D01*
X2346Y299D01*
X2348Y299D01*
X2348Y295D01*
X2350Y295D01*
X2350Y291D01*
X2352Y291D01*
X2352Y271D01*
X2350Y271D01*
X2350Y267D01*
X2348Y267D01*
X2348Y263D01*
X2346Y263D01*
X2346Y261D01*
X2344Y261D01*
X2344Y259D01*
X2342Y259D01*
X2342Y257D01*
X2338Y257D01*
X2338Y255D01*
X2334Y255D01*
X2334Y253D01*
X2326Y253D01*
X2326Y251D01*
X2390Y251D01*
X2390Y339D01*
X2388Y339D01*
X2388Y483D01*
X2386Y483D01*
X2386Y627D01*
X2384Y627D01*
X2384Y773D01*
X2382Y773D01*
X2382Y917D01*
X2380Y917D01*
X2380Y1061D01*
X2378Y1061D01*
X2378Y1201D01*
X2278Y1201D01*
G37*
D02*
G36*
X1334Y749D02*
X1334Y673D01*
X1364Y673D01*
X1364Y749D01*
X1334Y749D01*
G37*
D02*
G36*
X1334Y673D02*
X1334Y671D01*
X1998Y671D01*
X1998Y673D01*
X1334Y673D01*
G37*
D02*
G36*
X1334Y673D02*
X1334Y671D01*
X1998Y671D01*
X1998Y673D01*
X1334Y673D01*
G37*
D02*
G36*
X1334Y671D02*
X1334Y645D01*
X1620Y645D01*
X1620Y643D01*
X1624Y643D01*
X1624Y641D01*
X1628Y641D01*
X1628Y639D01*
X1630Y639D01*
X1630Y637D01*
X1632Y637D01*
X1632Y635D01*
X1634Y635D01*
X1634Y633D01*
X1636Y633D01*
X1636Y629D01*
X1638Y629D01*
X1638Y623D01*
X1640Y623D01*
X1640Y609D01*
X1638Y609D01*
X1638Y603D01*
X1636Y603D01*
X1636Y601D01*
X1634Y601D01*
X1634Y597D01*
X1632Y597D01*
X1632Y595D01*
X1630Y595D01*
X1630Y593D01*
X1628Y593D01*
X1628Y591D01*
X1624Y591D01*
X1624Y589D01*
X1618Y589D01*
X1618Y587D01*
X2306Y587D01*
X2306Y605D01*
X2008Y605D01*
X2008Y607D01*
X2004Y607D01*
X2004Y609D01*
X2002Y609D01*
X2002Y611D01*
X2000Y611D01*
X2000Y615D01*
X1998Y615D01*
X1998Y671D01*
X1334Y671D01*
G37*
D02*
G36*
X1334Y645D02*
X1334Y615D01*
X1332Y615D01*
X1332Y613D01*
X1330Y613D01*
X1330Y609D01*
X1326Y609D01*
X1326Y607D01*
X1322Y607D01*
X1322Y605D01*
X1308Y605D01*
X1308Y587D01*
X1602Y587D01*
X1602Y589D01*
X1596Y589D01*
X1596Y591D01*
X1594Y591D01*
X1594Y593D01*
X1590Y593D01*
X1590Y595D01*
X1588Y595D01*
X1588Y599D01*
X1586Y599D01*
X1586Y601D01*
X1584Y601D01*
X1584Y605D01*
X1582Y605D01*
X1582Y613D01*
X1580Y613D01*
X1580Y619D01*
X1582Y619D01*
X1582Y627D01*
X1584Y627D01*
X1584Y631D01*
X1586Y631D01*
X1586Y635D01*
X1588Y635D01*
X1588Y637D01*
X1590Y637D01*
X1590Y639D01*
X1592Y639D01*
X1592Y641D01*
X1596Y641D01*
X1596Y643D01*
X1600Y643D01*
X1600Y645D01*
X1334Y645D01*
G37*
D02*
G36*
X1308Y587D02*
X1308Y585D01*
X2306Y585D01*
X2306Y587D01*
X1308Y587D01*
G37*
D02*
G36*
X1308Y587D02*
X1308Y585D01*
X2306Y585D01*
X2306Y587D01*
X1308Y587D01*
G37*
D02*
G36*
X1308Y585D02*
X1308Y545D01*
X1278Y545D01*
X1278Y501D01*
X1276Y501D01*
X1276Y495D01*
X1274Y495D01*
X1274Y493D01*
X1272Y493D01*
X1272Y491D01*
X1270Y491D01*
X1270Y465D01*
X1302Y465D01*
X1302Y367D01*
X1272Y367D01*
X1272Y357D01*
X1440Y357D01*
X1440Y355D01*
X1444Y355D01*
X1444Y353D01*
X1448Y353D01*
X1448Y351D01*
X1450Y351D01*
X1450Y349D01*
X1452Y349D01*
X1452Y347D01*
X1454Y347D01*
X1454Y345D01*
X2118Y345D01*
X2118Y343D01*
X2122Y343D01*
X2122Y341D01*
X2124Y341D01*
X2124Y339D01*
X2126Y339D01*
X2126Y335D01*
X2128Y335D01*
X2128Y251D01*
X2320Y251D01*
X2320Y253D01*
X2312Y253D01*
X2312Y255D01*
X2308Y255D01*
X2308Y257D01*
X2306Y257D01*
X2306Y259D01*
X2302Y259D01*
X2302Y261D01*
X2300Y261D01*
X2300Y265D01*
X2298Y265D01*
X2298Y267D01*
X2296Y267D01*
X2296Y273D01*
X2294Y273D01*
X2294Y291D01*
X2296Y291D01*
X2296Y295D01*
X2298Y295D01*
X2298Y299D01*
X2300Y299D01*
X2300Y301D01*
X2302Y301D01*
X2302Y303D01*
X2304Y303D01*
X2304Y305D01*
X2306Y305D01*
X2306Y585D01*
X1308Y585D01*
G37*
D02*
G36*
X1272Y357D02*
X1272Y225D01*
X1424Y225D01*
X1424Y227D01*
X1420Y227D01*
X1420Y229D01*
X1416Y229D01*
X1416Y231D01*
X1414Y231D01*
X1414Y233D01*
X1412Y233D01*
X1412Y235D01*
X1410Y235D01*
X1410Y237D01*
X1408Y237D01*
X1408Y239D01*
X1406Y239D01*
X1406Y243D01*
X1404Y243D01*
X1404Y265D01*
X1406Y265D01*
X1406Y269D01*
X1408Y269D01*
X1408Y273D01*
X1410Y273D01*
X1410Y275D01*
X1412Y275D01*
X1412Y277D01*
X1414Y277D01*
X1414Y279D01*
X1418Y279D01*
X1418Y281D01*
X1420Y281D01*
X1420Y301D01*
X1416Y301D01*
X1416Y303D01*
X1412Y303D01*
X1412Y305D01*
X1410Y305D01*
X1410Y307D01*
X1408Y307D01*
X1408Y309D01*
X1406Y309D01*
X1406Y313D01*
X1404Y313D01*
X1404Y317D01*
X1402Y317D01*
X1402Y325D01*
X1400Y325D01*
X1400Y331D01*
X1402Y331D01*
X1402Y339D01*
X1404Y339D01*
X1404Y343D01*
X1406Y343D01*
X1406Y345D01*
X1408Y345D01*
X1408Y349D01*
X1410Y349D01*
X1410Y351D01*
X1414Y351D01*
X1414Y353D01*
X1416Y353D01*
X1416Y355D01*
X1422Y355D01*
X1422Y357D01*
X1272Y357D01*
G37*
D02*
G36*
X2128Y251D02*
X2128Y249D01*
X2390Y249D01*
X2390Y251D01*
X2128Y251D01*
G37*
D02*
G36*
X2128Y251D02*
X2128Y249D01*
X2390Y249D01*
X2390Y251D01*
X2128Y251D01*
G37*
D02*
G36*
X2128Y249D02*
X2128Y147D01*
X2320Y147D01*
X2320Y145D01*
X2326Y145D01*
X2326Y143D01*
X2330Y143D01*
X2330Y141D01*
X2334Y141D01*
X2334Y139D01*
X2336Y139D01*
X2336Y137D01*
X2338Y137D01*
X2338Y135D01*
X2340Y135D01*
X2340Y133D01*
X2342Y133D01*
X2342Y131D01*
X2344Y131D01*
X2344Y129D01*
X2346Y129D01*
X2346Y125D01*
X2348Y125D01*
X2348Y123D01*
X2350Y123D01*
X2350Y117D01*
X2370Y117D01*
X2370Y121D01*
X2372Y121D01*
X2372Y125D01*
X2374Y125D01*
X2374Y129D01*
X2376Y129D01*
X2376Y131D01*
X2378Y131D01*
X2378Y133D01*
X2380Y133D01*
X2380Y135D01*
X2382Y135D01*
X2382Y137D01*
X2384Y137D01*
X2384Y139D01*
X2386Y139D01*
X2386Y141D01*
X2390Y141D01*
X2390Y143D01*
X2392Y143D01*
X2392Y195D01*
X2390Y195D01*
X2390Y249D01*
X2128Y249D01*
G37*
D02*
G36*
X1456Y237D02*
X1456Y235D01*
X1454Y235D01*
X1454Y233D01*
X1452Y233D01*
X1452Y231D01*
X1450Y231D01*
X1450Y229D01*
X1446Y229D01*
X1446Y227D01*
X1440Y227D01*
X1440Y225D01*
X1992Y225D01*
X1992Y237D01*
X1456Y237D01*
G37*
D02*
G36*
X1272Y225D02*
X1272Y223D01*
X1992Y223D01*
X1992Y225D01*
X1272Y225D01*
G37*
D02*
G36*
X1272Y225D02*
X1272Y223D01*
X1992Y223D01*
X1992Y225D01*
X1272Y225D01*
G37*
D02*
G36*
X1272Y223D02*
X1272Y207D01*
X1418Y207D01*
X1418Y205D01*
X1420Y205D01*
X1420Y203D01*
X1424Y203D01*
X1424Y199D01*
X1426Y199D01*
X1426Y197D01*
X1428Y197D01*
X1428Y147D01*
X1820Y147D01*
X1820Y145D01*
X1826Y145D01*
X1826Y143D01*
X1830Y143D01*
X1830Y141D01*
X1834Y141D01*
X1834Y139D01*
X1836Y139D01*
X1836Y137D01*
X1838Y137D01*
X1838Y135D01*
X1840Y135D01*
X1840Y133D01*
X1842Y133D01*
X1842Y131D01*
X1844Y131D01*
X1844Y129D01*
X1846Y129D01*
X1846Y125D01*
X1848Y125D01*
X1848Y123D01*
X1850Y123D01*
X1850Y117D01*
X1852Y117D01*
X1852Y93D01*
X1850Y93D01*
X1850Y87D01*
X1848Y87D01*
X1848Y83D01*
X1846Y83D01*
X1846Y81D01*
X1844Y81D01*
X1844Y61D01*
X1976Y61D01*
X1976Y81D01*
X1974Y81D01*
X1974Y85D01*
X1972Y85D01*
X1972Y89D01*
X1970Y89D01*
X1970Y95D01*
X1968Y95D01*
X1968Y115D01*
X1970Y115D01*
X1970Y121D01*
X1972Y121D01*
X1972Y125D01*
X1974Y125D01*
X1974Y129D01*
X1976Y129D01*
X1976Y131D01*
X1978Y131D01*
X1978Y133D01*
X1980Y133D01*
X1980Y135D01*
X1982Y135D01*
X1982Y137D01*
X1984Y137D01*
X1984Y139D01*
X1986Y139D01*
X1986Y141D01*
X1990Y141D01*
X1990Y143D01*
X1992Y143D01*
X1992Y223D01*
X1272Y223D01*
G37*
D02*
G36*
X1428Y147D02*
X1428Y143D01*
X1430Y143D01*
X1430Y141D01*
X1434Y141D01*
X1434Y139D01*
X1436Y139D01*
X1436Y137D01*
X1438Y137D01*
X1438Y135D01*
X1440Y135D01*
X1440Y133D01*
X1442Y133D01*
X1442Y131D01*
X1444Y131D01*
X1444Y129D01*
X1446Y129D01*
X1446Y125D01*
X1448Y125D01*
X1448Y123D01*
X1450Y123D01*
X1450Y117D01*
X1470Y117D01*
X1470Y121D01*
X1472Y121D01*
X1472Y125D01*
X1474Y125D01*
X1474Y129D01*
X1476Y129D01*
X1476Y131D01*
X1478Y131D01*
X1478Y133D01*
X1480Y133D01*
X1480Y135D01*
X1482Y135D01*
X1482Y137D01*
X1484Y137D01*
X1484Y139D01*
X1486Y139D01*
X1486Y141D01*
X1490Y141D01*
X1490Y143D01*
X1494Y143D01*
X1494Y145D01*
X1502Y145D01*
X1502Y147D01*
X1428Y147D01*
G37*
D02*
G36*
X1520Y147D02*
X1520Y145D01*
X1526Y145D01*
X1526Y143D01*
X1530Y143D01*
X1530Y141D01*
X1534Y141D01*
X1534Y139D01*
X1536Y139D01*
X1536Y137D01*
X1538Y137D01*
X1538Y135D01*
X1540Y135D01*
X1540Y133D01*
X1542Y133D01*
X1542Y131D01*
X1544Y131D01*
X1544Y129D01*
X1546Y129D01*
X1546Y125D01*
X1548Y125D01*
X1548Y123D01*
X1550Y123D01*
X1550Y117D01*
X1570Y117D01*
X1570Y121D01*
X1572Y121D01*
X1572Y125D01*
X1574Y125D01*
X1574Y129D01*
X1576Y129D01*
X1576Y131D01*
X1578Y131D01*
X1578Y133D01*
X1580Y133D01*
X1580Y135D01*
X1582Y135D01*
X1582Y137D01*
X1584Y137D01*
X1584Y139D01*
X1586Y139D01*
X1586Y141D01*
X1590Y141D01*
X1590Y143D01*
X1594Y143D01*
X1594Y145D01*
X1602Y145D01*
X1602Y147D01*
X1520Y147D01*
G37*
D02*
G36*
X1620Y147D02*
X1620Y145D01*
X1626Y145D01*
X1626Y143D01*
X1630Y143D01*
X1630Y141D01*
X1634Y141D01*
X1634Y139D01*
X1636Y139D01*
X1636Y137D01*
X1638Y137D01*
X1638Y135D01*
X1640Y135D01*
X1640Y133D01*
X1642Y133D01*
X1642Y131D01*
X1644Y131D01*
X1644Y129D01*
X1646Y129D01*
X1646Y125D01*
X1648Y125D01*
X1648Y123D01*
X1650Y123D01*
X1650Y117D01*
X1670Y117D01*
X1670Y121D01*
X1672Y121D01*
X1672Y125D01*
X1674Y125D01*
X1674Y129D01*
X1676Y129D01*
X1676Y131D01*
X1678Y131D01*
X1678Y133D01*
X1680Y133D01*
X1680Y135D01*
X1682Y135D01*
X1682Y137D01*
X1684Y137D01*
X1684Y139D01*
X1686Y139D01*
X1686Y141D01*
X1690Y141D01*
X1690Y143D01*
X1694Y143D01*
X1694Y145D01*
X1702Y145D01*
X1702Y147D01*
X1620Y147D01*
G37*
D02*
G36*
X1720Y147D02*
X1720Y145D01*
X1726Y145D01*
X1726Y143D01*
X1730Y143D01*
X1730Y141D01*
X1734Y141D01*
X1734Y139D01*
X1736Y139D01*
X1736Y137D01*
X1738Y137D01*
X1738Y135D01*
X1740Y135D01*
X1740Y133D01*
X1742Y133D01*
X1742Y131D01*
X1744Y131D01*
X1744Y129D01*
X1746Y129D01*
X1746Y125D01*
X1748Y125D01*
X1748Y123D01*
X1750Y123D01*
X1750Y117D01*
X1770Y117D01*
X1770Y121D01*
X1772Y121D01*
X1772Y125D01*
X1774Y125D01*
X1774Y129D01*
X1776Y129D01*
X1776Y131D01*
X1778Y131D01*
X1778Y133D01*
X1780Y133D01*
X1780Y135D01*
X1782Y135D01*
X1782Y137D01*
X1784Y137D01*
X1784Y139D01*
X1786Y139D01*
X1786Y141D01*
X1790Y141D01*
X1790Y143D01*
X1794Y143D01*
X1794Y145D01*
X1802Y145D01*
X1802Y147D01*
X1720Y147D01*
G37*
D02*
G36*
X2128Y147D02*
X2128Y143D01*
X2130Y143D01*
X2130Y141D01*
X2134Y141D01*
X2134Y139D01*
X2136Y139D01*
X2136Y137D01*
X2138Y137D01*
X2138Y135D01*
X2140Y135D01*
X2140Y133D01*
X2142Y133D01*
X2142Y131D01*
X2144Y131D01*
X2144Y129D01*
X2146Y129D01*
X2146Y125D01*
X2148Y125D01*
X2148Y123D01*
X2150Y123D01*
X2150Y117D01*
X2170Y117D01*
X2170Y121D01*
X2172Y121D01*
X2172Y125D01*
X2174Y125D01*
X2174Y129D01*
X2176Y129D01*
X2176Y131D01*
X2178Y131D01*
X2178Y133D01*
X2180Y133D01*
X2180Y135D01*
X2182Y135D01*
X2182Y137D01*
X2184Y137D01*
X2184Y139D01*
X2186Y139D01*
X2186Y141D01*
X2190Y141D01*
X2190Y143D01*
X2194Y143D01*
X2194Y145D01*
X2202Y145D01*
X2202Y147D01*
X2128Y147D01*
G37*
D02*
G36*
X2220Y147D02*
X2220Y145D01*
X2226Y145D01*
X2226Y143D01*
X2230Y143D01*
X2230Y141D01*
X2234Y141D01*
X2234Y139D01*
X2236Y139D01*
X2236Y137D01*
X2238Y137D01*
X2238Y135D01*
X2240Y135D01*
X2240Y133D01*
X2242Y133D01*
X2242Y131D01*
X2244Y131D01*
X2244Y129D01*
X2246Y129D01*
X2246Y125D01*
X2248Y125D01*
X2248Y123D01*
X2250Y123D01*
X2250Y117D01*
X2270Y117D01*
X2270Y121D01*
X2272Y121D01*
X2272Y125D01*
X2274Y125D01*
X2274Y129D01*
X2276Y129D01*
X2276Y131D01*
X2278Y131D01*
X2278Y133D01*
X2280Y133D01*
X2280Y135D01*
X2282Y135D01*
X2282Y137D01*
X2284Y137D01*
X2284Y139D01*
X2286Y139D01*
X2286Y141D01*
X2290Y141D01*
X2290Y143D01*
X2294Y143D01*
X2294Y145D01*
X2302Y145D01*
X2302Y147D01*
X2220Y147D01*
G37*
D02*
G36*
X2144Y1103D02*
X2144Y1101D01*
X2188Y1101D01*
X2188Y1103D01*
X2144Y1103D01*
G37*
D02*
G36*
X2144Y1101D02*
X2144Y1099D01*
X2142Y1099D01*
X2142Y1095D01*
X2140Y1095D01*
X2140Y1093D01*
X2138Y1093D01*
X2138Y1091D01*
X2136Y1091D01*
X2136Y1087D01*
X2134Y1087D01*
X2134Y1085D01*
X2130Y1085D01*
X2130Y1083D01*
X2128Y1083D01*
X2128Y1081D01*
X2126Y1081D01*
X2126Y1061D01*
X2128Y1061D01*
X2128Y1059D01*
X2132Y1059D01*
X2132Y1057D01*
X2134Y1057D01*
X2134Y1055D01*
X2136Y1055D01*
X2136Y1053D01*
X2138Y1053D01*
X2138Y1049D01*
X2140Y1049D01*
X2140Y1047D01*
X2142Y1047D01*
X2142Y1043D01*
X2144Y1043D01*
X2144Y1039D01*
X2146Y1039D01*
X2146Y1031D01*
X2148Y1031D01*
X2148Y1011D01*
X2146Y1011D01*
X2146Y1003D01*
X2144Y1003D01*
X2144Y999D01*
X2142Y999D01*
X2142Y995D01*
X2140Y995D01*
X2140Y993D01*
X2138Y993D01*
X2138Y991D01*
X2136Y991D01*
X2136Y987D01*
X2134Y987D01*
X2134Y985D01*
X2130Y985D01*
X2130Y983D01*
X2128Y983D01*
X2128Y981D01*
X2126Y981D01*
X2126Y971D01*
X2222Y971D01*
X2222Y973D01*
X2216Y973D01*
X2216Y975D01*
X2210Y975D01*
X2210Y977D01*
X2208Y977D01*
X2208Y979D01*
X2204Y979D01*
X2204Y981D01*
X2202Y981D01*
X2202Y983D01*
X2200Y983D01*
X2200Y985D01*
X2198Y985D01*
X2198Y987D01*
X2196Y987D01*
X2196Y989D01*
X2194Y989D01*
X2194Y991D01*
X2192Y991D01*
X2192Y995D01*
X2190Y995D01*
X2190Y997D01*
X2188Y997D01*
X2188Y1003D01*
X2186Y1003D01*
X2186Y1009D01*
X2184Y1009D01*
X2184Y1031D01*
X2186Y1031D01*
X2186Y1037D01*
X2188Y1037D01*
X2188Y1041D01*
X2190Y1041D01*
X2190Y1045D01*
X2192Y1045D01*
X2192Y1049D01*
X2194Y1049D01*
X2194Y1051D01*
X2196Y1051D01*
X2196Y1053D01*
X2198Y1053D01*
X2198Y1055D01*
X2200Y1055D01*
X2200Y1057D01*
X2202Y1057D01*
X2202Y1059D01*
X2206Y1059D01*
X2206Y1079D01*
X2204Y1079D01*
X2204Y1081D01*
X2202Y1081D01*
X2202Y1083D01*
X2200Y1083D01*
X2200Y1085D01*
X2198Y1085D01*
X2198Y1087D01*
X2196Y1087D01*
X2196Y1089D01*
X2194Y1089D01*
X2194Y1091D01*
X2192Y1091D01*
X2192Y1095D01*
X2190Y1095D01*
X2190Y1097D01*
X2188Y1097D01*
X2188Y1101D01*
X2144Y1101D01*
G37*
D02*
G36*
X2278Y1101D02*
X2278Y1099D01*
X2276Y1099D01*
X2276Y1095D01*
X2274Y1095D01*
X2274Y1093D01*
X2272Y1093D01*
X2272Y1089D01*
X2270Y1089D01*
X2270Y1087D01*
X2268Y1087D01*
X2268Y1085D01*
X2266Y1085D01*
X2266Y1083D01*
X2264Y1083D01*
X2264Y1081D01*
X2262Y1081D01*
X2262Y1079D01*
X2260Y1079D01*
X2260Y1059D01*
X2262Y1059D01*
X2262Y1057D01*
X2266Y1057D01*
X2266Y1055D01*
X2268Y1055D01*
X2268Y1053D01*
X2270Y1053D01*
X2270Y1049D01*
X2272Y1049D01*
X2272Y1047D01*
X2274Y1047D01*
X2274Y1043D01*
X2276Y1043D01*
X2276Y1041D01*
X2278Y1041D01*
X2278Y1035D01*
X2280Y1035D01*
X2280Y1027D01*
X2282Y1027D01*
X2282Y1013D01*
X2280Y1013D01*
X2280Y1005D01*
X2278Y1005D01*
X2278Y999D01*
X2276Y999D01*
X2276Y995D01*
X2274Y995D01*
X2274Y993D01*
X2272Y993D01*
X2272Y989D01*
X2270Y989D01*
X2270Y987D01*
X2268Y987D01*
X2268Y985D01*
X2266Y985D01*
X2266Y983D01*
X2264Y983D01*
X2264Y981D01*
X2262Y981D01*
X2262Y979D01*
X2258Y979D01*
X2258Y977D01*
X2254Y977D01*
X2254Y975D01*
X2250Y975D01*
X2250Y973D01*
X2244Y973D01*
X2244Y971D01*
X2306Y971D01*
X2306Y1101D01*
X2278Y1101D01*
G37*
D02*
G36*
X2126Y971D02*
X2126Y969D01*
X2306Y969D01*
X2306Y971D01*
X2126Y971D01*
G37*
D02*
G36*
X2126Y971D02*
X2126Y969D01*
X2306Y969D01*
X2306Y971D01*
X2126Y971D01*
G37*
D02*
G36*
X2126Y969D02*
X2126Y961D01*
X2128Y961D01*
X2128Y959D01*
X2132Y959D01*
X2132Y957D01*
X2134Y957D01*
X2134Y955D01*
X2136Y955D01*
X2136Y953D01*
X2138Y953D01*
X2138Y949D01*
X2140Y949D01*
X2140Y947D01*
X2142Y947D01*
X2142Y943D01*
X2144Y943D01*
X2144Y939D01*
X2146Y939D01*
X2146Y931D01*
X2148Y931D01*
X2148Y911D01*
X2146Y911D01*
X2146Y903D01*
X2144Y903D01*
X2144Y899D01*
X2142Y899D01*
X2142Y895D01*
X2140Y895D01*
X2140Y893D01*
X2138Y893D01*
X2138Y891D01*
X2136Y891D01*
X2136Y887D01*
X2134Y887D01*
X2134Y885D01*
X2130Y885D01*
X2130Y883D01*
X2128Y883D01*
X2128Y881D01*
X2126Y881D01*
X2126Y861D01*
X2128Y861D01*
X2128Y859D01*
X2132Y859D01*
X2132Y857D01*
X2134Y857D01*
X2134Y855D01*
X2136Y855D01*
X2136Y853D01*
X2138Y853D01*
X2138Y849D01*
X2140Y849D01*
X2140Y847D01*
X2142Y847D01*
X2142Y843D01*
X2144Y843D01*
X2144Y839D01*
X2146Y839D01*
X2146Y831D01*
X2148Y831D01*
X2148Y811D01*
X2146Y811D01*
X2146Y803D01*
X2144Y803D01*
X2144Y799D01*
X2142Y799D01*
X2142Y795D01*
X2140Y795D01*
X2140Y793D01*
X2138Y793D01*
X2138Y791D01*
X2136Y791D01*
X2136Y787D01*
X2134Y787D01*
X2134Y785D01*
X2130Y785D01*
X2130Y783D01*
X2128Y783D01*
X2128Y781D01*
X2126Y781D01*
X2126Y761D01*
X2128Y761D01*
X2128Y759D01*
X2132Y759D01*
X2132Y757D01*
X2134Y757D01*
X2134Y755D01*
X2136Y755D01*
X2136Y753D01*
X2138Y753D01*
X2138Y749D01*
X2140Y749D01*
X2140Y747D01*
X2142Y747D01*
X2142Y743D01*
X2144Y743D01*
X2144Y739D01*
X2146Y739D01*
X2146Y731D01*
X2148Y731D01*
X2148Y711D01*
X2146Y711D01*
X2146Y703D01*
X2144Y703D01*
X2144Y699D01*
X2142Y699D01*
X2142Y695D01*
X2140Y695D01*
X2140Y693D01*
X2138Y693D01*
X2138Y691D01*
X2136Y691D01*
X2136Y687D01*
X2134Y687D01*
X2134Y685D01*
X2130Y685D01*
X2130Y683D01*
X2128Y683D01*
X2128Y681D01*
X2126Y681D01*
X2126Y679D01*
X2122Y679D01*
X2122Y677D01*
X2118Y677D01*
X2118Y675D01*
X2112Y675D01*
X2112Y673D01*
X2306Y673D01*
X2306Y969D01*
X2126Y969D01*
G37*
D02*
G36*
X2034Y705D02*
X2034Y673D01*
X2086Y673D01*
X2086Y675D01*
X2080Y675D01*
X2080Y677D01*
X2076Y677D01*
X2076Y679D01*
X2072Y679D01*
X2072Y681D01*
X2070Y681D01*
X2070Y683D01*
X2068Y683D01*
X2068Y685D01*
X2066Y685D01*
X2066Y687D01*
X2064Y687D01*
X2064Y689D01*
X2062Y689D01*
X2062Y691D01*
X2060Y691D01*
X2060Y693D01*
X2058Y693D01*
X2058Y697D01*
X2056Y697D01*
X2056Y701D01*
X2054Y701D01*
X2054Y705D01*
X2034Y705D01*
G37*
D02*
G36*
X2034Y673D02*
X2034Y671D01*
X2306Y671D01*
X2306Y673D01*
X2034Y673D01*
G37*
D02*
G36*
X2034Y673D02*
X2034Y671D01*
X2306Y671D01*
X2306Y673D01*
X2034Y673D01*
G37*
D02*
G36*
X2034Y671D02*
X2034Y641D01*
X2306Y641D01*
X2306Y671D01*
X2034Y671D01*
G37*
D02*
G36*
X792Y387D02*
X792Y385D01*
X790Y385D01*
X790Y383D01*
X788Y383D01*
X788Y381D01*
X786Y381D01*
X786Y379D01*
X784Y379D01*
X784Y377D01*
X782Y377D01*
X782Y375D01*
X778Y375D01*
X778Y373D01*
X774Y373D01*
X774Y371D01*
X770Y371D01*
X770Y369D01*
X764Y369D01*
X764Y367D01*
X842Y367D01*
X842Y369D01*
X836Y369D01*
X836Y371D01*
X832Y371D01*
X832Y373D01*
X828Y373D01*
X828Y375D01*
X824Y375D01*
X824Y377D01*
X822Y377D01*
X822Y379D01*
X820Y379D01*
X820Y381D01*
X818Y381D01*
X818Y383D01*
X816Y383D01*
X816Y385D01*
X814Y385D01*
X814Y387D01*
X792Y387D01*
G37*
D02*
G36*
X892Y387D02*
X892Y385D01*
X890Y385D01*
X890Y383D01*
X888Y383D01*
X888Y381D01*
X886Y381D01*
X886Y379D01*
X884Y379D01*
X884Y377D01*
X882Y377D01*
X882Y375D01*
X878Y375D01*
X878Y373D01*
X874Y373D01*
X874Y371D01*
X870Y371D01*
X870Y369D01*
X864Y369D01*
X864Y367D01*
X942Y367D01*
X942Y369D01*
X936Y369D01*
X936Y371D01*
X932Y371D01*
X932Y373D01*
X928Y373D01*
X928Y375D01*
X924Y375D01*
X924Y377D01*
X922Y377D01*
X922Y379D01*
X920Y379D01*
X920Y381D01*
X918Y381D01*
X918Y383D01*
X916Y383D01*
X916Y385D01*
X914Y385D01*
X914Y387D01*
X892Y387D01*
G37*
D02*
G36*
X992Y387D02*
X992Y385D01*
X990Y385D01*
X990Y383D01*
X988Y383D01*
X988Y381D01*
X986Y381D01*
X986Y379D01*
X984Y379D01*
X984Y377D01*
X982Y377D01*
X982Y375D01*
X978Y375D01*
X978Y373D01*
X974Y373D01*
X974Y371D01*
X970Y371D01*
X970Y369D01*
X964Y369D01*
X964Y367D01*
X1042Y367D01*
X1042Y369D01*
X1036Y369D01*
X1036Y371D01*
X1032Y371D01*
X1032Y373D01*
X1028Y373D01*
X1028Y375D01*
X1024Y375D01*
X1024Y377D01*
X1022Y377D01*
X1022Y379D01*
X1020Y379D01*
X1020Y381D01*
X1018Y381D01*
X1018Y383D01*
X1016Y383D01*
X1016Y385D01*
X1014Y385D01*
X1014Y387D01*
X992Y387D01*
G37*
D02*
G36*
X1092Y387D02*
X1092Y385D01*
X1090Y385D01*
X1090Y383D01*
X1088Y383D01*
X1088Y381D01*
X1086Y381D01*
X1086Y379D01*
X1084Y379D01*
X1084Y377D01*
X1082Y377D01*
X1082Y375D01*
X1078Y375D01*
X1078Y373D01*
X1074Y373D01*
X1074Y371D01*
X1070Y371D01*
X1070Y369D01*
X1064Y369D01*
X1064Y367D01*
X1142Y367D01*
X1142Y369D01*
X1136Y369D01*
X1136Y371D01*
X1132Y371D01*
X1132Y373D01*
X1128Y373D01*
X1128Y375D01*
X1124Y375D01*
X1124Y377D01*
X1122Y377D01*
X1122Y379D01*
X1120Y379D01*
X1120Y381D01*
X1118Y381D01*
X1118Y383D01*
X1116Y383D01*
X1116Y385D01*
X1114Y385D01*
X1114Y387D01*
X1092Y387D01*
G37*
D02*
G36*
X1184Y379D02*
X1184Y377D01*
X1182Y377D01*
X1182Y375D01*
X1178Y375D01*
X1178Y373D01*
X1174Y373D01*
X1174Y371D01*
X1170Y371D01*
X1170Y369D01*
X1164Y369D01*
X1164Y367D01*
X1204Y367D01*
X1204Y379D01*
X1184Y379D01*
G37*
D02*
G36*
X706Y375D02*
X706Y367D01*
X742Y367D01*
X742Y369D01*
X736Y369D01*
X736Y371D01*
X732Y371D01*
X732Y373D01*
X728Y373D01*
X728Y375D01*
X706Y375D01*
G37*
D02*
G36*
X706Y367D02*
X706Y365D01*
X1236Y365D01*
X1236Y367D01*
X706Y367D01*
G37*
D02*
G36*
X706Y367D02*
X706Y365D01*
X1236Y365D01*
X1236Y367D01*
X706Y367D01*
G37*
D02*
G36*
X706Y367D02*
X706Y365D01*
X1236Y365D01*
X1236Y367D01*
X706Y367D01*
G37*
D02*
G36*
X706Y367D02*
X706Y365D01*
X1236Y365D01*
X1236Y367D01*
X706Y367D01*
G37*
D02*
G36*
X706Y367D02*
X706Y365D01*
X1236Y365D01*
X1236Y367D01*
X706Y367D01*
G37*
D02*
G36*
X706Y367D02*
X706Y365D01*
X1236Y365D01*
X1236Y367D01*
X706Y367D01*
G37*
D02*
G36*
X706Y365D02*
X706Y147D01*
X1320Y147D01*
X1320Y145D01*
X1326Y145D01*
X1326Y143D01*
X1330Y143D01*
X1330Y141D01*
X1334Y141D01*
X1334Y139D01*
X1336Y139D01*
X1336Y137D01*
X1338Y137D01*
X1338Y135D01*
X1340Y135D01*
X1340Y133D01*
X1342Y133D01*
X1342Y131D01*
X1344Y131D01*
X1344Y129D01*
X1346Y129D01*
X1346Y125D01*
X1348Y125D01*
X1348Y123D01*
X1350Y123D01*
X1350Y117D01*
X1370Y117D01*
X1370Y121D01*
X1372Y121D01*
X1372Y125D01*
X1374Y125D01*
X1374Y129D01*
X1376Y129D01*
X1376Y131D01*
X1378Y131D01*
X1378Y133D01*
X1380Y133D01*
X1380Y135D01*
X1382Y135D01*
X1382Y137D01*
X1384Y137D01*
X1384Y139D01*
X1386Y139D01*
X1386Y141D01*
X1390Y141D01*
X1390Y143D01*
X1392Y143D01*
X1392Y171D01*
X1250Y171D01*
X1250Y173D01*
X1244Y173D01*
X1244Y175D01*
X1242Y175D01*
X1242Y177D01*
X1240Y177D01*
X1240Y179D01*
X1238Y179D01*
X1238Y181D01*
X1236Y181D01*
X1236Y365D01*
X706Y365D01*
G37*
D02*
G36*
X706Y147D02*
X706Y61D01*
X1076Y61D01*
X1076Y81D01*
X1074Y81D01*
X1074Y85D01*
X1072Y85D01*
X1072Y87D01*
X1070Y87D01*
X1070Y95D01*
X1068Y95D01*
X1068Y115D01*
X1070Y115D01*
X1070Y121D01*
X1072Y121D01*
X1072Y125D01*
X1074Y125D01*
X1074Y129D01*
X1076Y129D01*
X1076Y131D01*
X1078Y131D01*
X1078Y133D01*
X1080Y133D01*
X1080Y135D01*
X1082Y135D01*
X1082Y137D01*
X1084Y137D01*
X1084Y139D01*
X1086Y139D01*
X1086Y141D01*
X1090Y141D01*
X1090Y143D01*
X1094Y143D01*
X1094Y145D01*
X1102Y145D01*
X1102Y147D01*
X706Y147D01*
G37*
D02*
G36*
X1120Y147D02*
X1120Y145D01*
X1126Y145D01*
X1126Y143D01*
X1130Y143D01*
X1130Y141D01*
X1134Y141D01*
X1134Y139D01*
X1136Y139D01*
X1136Y137D01*
X1138Y137D01*
X1138Y135D01*
X1140Y135D01*
X1140Y133D01*
X1142Y133D01*
X1142Y131D01*
X1144Y131D01*
X1144Y129D01*
X1146Y129D01*
X1146Y125D01*
X1148Y125D01*
X1148Y123D01*
X1150Y123D01*
X1150Y117D01*
X1170Y117D01*
X1170Y121D01*
X1172Y121D01*
X1172Y125D01*
X1174Y125D01*
X1174Y129D01*
X1176Y129D01*
X1176Y131D01*
X1178Y131D01*
X1178Y133D01*
X1180Y133D01*
X1180Y135D01*
X1182Y135D01*
X1182Y137D01*
X1184Y137D01*
X1184Y139D01*
X1186Y139D01*
X1186Y141D01*
X1190Y141D01*
X1190Y143D01*
X1194Y143D01*
X1194Y145D01*
X1202Y145D01*
X1202Y147D01*
X1120Y147D01*
G37*
D02*
G36*
X1220Y147D02*
X1220Y145D01*
X1226Y145D01*
X1226Y143D01*
X1230Y143D01*
X1230Y141D01*
X1234Y141D01*
X1234Y139D01*
X1236Y139D01*
X1236Y137D01*
X1238Y137D01*
X1238Y135D01*
X1240Y135D01*
X1240Y133D01*
X1242Y133D01*
X1242Y131D01*
X1244Y131D01*
X1244Y129D01*
X1246Y129D01*
X1246Y125D01*
X1248Y125D01*
X1248Y123D01*
X1250Y123D01*
X1250Y117D01*
X1270Y117D01*
X1270Y121D01*
X1272Y121D01*
X1272Y125D01*
X1274Y125D01*
X1274Y129D01*
X1276Y129D01*
X1276Y131D01*
X1278Y131D01*
X1278Y133D01*
X1280Y133D01*
X1280Y135D01*
X1282Y135D01*
X1282Y137D01*
X1284Y137D01*
X1284Y139D01*
X1286Y139D01*
X1286Y141D01*
X1290Y141D01*
X1290Y143D01*
X1294Y143D01*
X1294Y145D01*
X1302Y145D01*
X1302Y147D01*
X1220Y147D01*
G37*
D02*
G36*
X2248Y1344D02*
X2282Y1344D01*
X2282Y1299D01*
X2248Y1299D01*
X2248Y1344D01*
G37*
D02*
G36*
X75Y905D02*
X120Y905D01*
X120Y873D01*
X75Y873D01*
X75Y905D01*
G37*
D02*
G36*
X48Y946D02*
X78Y946D01*
X78Y901D01*
X48Y901D01*
X48Y946D01*
G37*
D02*
G36*
X116Y946D02*
X148Y946D01*
X148Y901D01*
X116Y901D01*
X116Y946D01*
G37*
D02*
G36*
X1595Y613D02*
X1620Y613D01*
X1620Y587D01*
X1595Y587D01*
X1595Y613D01*
G37*
D02*
G36*
X1588Y151D02*
X1627Y151D01*
X1627Y129D01*
X1588Y129D01*
X1588Y151D01*
G37*
D02*
G36*
X1688Y151D02*
X1727Y151D01*
X1727Y129D01*
X1688Y129D01*
X1688Y151D01*
G37*
D02*
G36*
X1024Y1568D02*
X1066Y1568D01*
X1066Y1527D01*
X1024Y1527D01*
X1024Y1568D01*
G37*
D02*
G36*
X1129Y399D02*
X1174Y399D01*
X1174Y367D01*
X1129Y367D01*
X1129Y399D01*
G37*
D02*
G36*
X758Y870D02*
X800Y870D01*
X800Y829D01*
X758Y829D01*
X758Y870D01*
G37*
D02*
G36*
X397Y2069D02*
X442Y2069D01*
X442Y2041D01*
X397Y2041D01*
X397Y2069D01*
G37*
D02*
G36*
X67Y2069D02*
X112Y2069D01*
X112Y2043D01*
X67Y2043D01*
X67Y2069D01*
G37*
D02*
G36*
X44Y2046D02*
X70Y2046D01*
X70Y2001D01*
X44Y2001D01*
X44Y2046D01*
G37*
D02*
G36*
X407Y1913D02*
X432Y1913D01*
X432Y1889D01*
X407Y1889D01*
X407Y1913D01*
G37*
D02*
G36*
X386Y1932D02*
X412Y1932D01*
X412Y1907D01*
X386Y1907D01*
X386Y1932D01*
G37*
D02*
G36*
X426Y1932D02*
X450Y1932D01*
X450Y1907D01*
X426Y1907D01*
X426Y1932D01*
G37*
D02*
G36*
X1114Y896D02*
X1140Y896D01*
X1140Y871D01*
X1114Y871D01*
X1114Y896D01*
G37*
D02*
G36*
X77Y1913D02*
X102Y1913D01*
X102Y1889D01*
X77Y1889D01*
X77Y1913D01*
G37*
D02*
G36*
X58Y1932D02*
X82Y1932D01*
X82Y1907D01*
X58Y1907D01*
X58Y1932D01*
G37*
D02*
G36*
X96Y1932D02*
X120Y1932D01*
X120Y1907D01*
X96Y1907D01*
X96Y1932D01*
G37*
D02*
G36*
X738Y994D02*
X758Y994D01*
X758Y935D01*
X738Y935D01*
X738Y994D01*
G37*
D02*
G36*
X769Y994D02*
X789Y994D01*
X789Y935D01*
X769Y935D01*
X769Y994D01*
G37*
D02*
G36*
X801Y994D02*
X821Y994D01*
X821Y935D01*
X801Y935D01*
X801Y994D01*
G37*
D02*
G36*
X832Y994D02*
X852Y994D01*
X852Y935D01*
X832Y935D01*
X832Y994D01*
G37*
D02*
G36*
X864Y994D02*
X884Y994D01*
X884Y935D01*
X864Y935D01*
X864Y994D01*
G37*
D02*
G36*
X895Y994D02*
X915Y994D01*
X915Y935D01*
X895Y935D01*
X895Y994D01*
G37*
D02*
G36*
X927Y994D02*
X947Y994D01*
X947Y935D01*
X927Y935D01*
X927Y994D01*
G37*
D02*
G36*
X958Y994D02*
X978Y994D01*
X978Y935D01*
X958Y935D01*
X958Y994D01*
G37*
D02*
G36*
X990Y994D02*
X1010Y994D01*
X1010Y935D01*
X990Y935D01*
X990Y994D01*
G37*
D02*
G36*
X1021Y994D02*
X1041Y994D01*
X1041Y935D01*
X1021Y935D01*
X1021Y994D01*
G37*
D02*
G36*
X1053Y994D02*
X1073Y994D01*
X1073Y935D01*
X1053Y935D01*
X1053Y994D01*
G37*
D02*
G36*
X1104Y1046D02*
X1163Y1046D01*
X1163Y1026D01*
X1104Y1026D01*
X1104Y1046D01*
G37*
D02*
G36*
X1104Y1077D02*
X1163Y1077D01*
X1163Y1057D01*
X1104Y1057D01*
X1104Y1077D01*
G37*
D02*
G36*
X1104Y1109D02*
X1163Y1109D01*
X1163Y1089D01*
X1104Y1089D01*
X1104Y1109D01*
G37*
D02*
G36*
X1104Y1140D02*
X1163Y1140D01*
X1163Y1120D01*
X1104Y1120D01*
X1104Y1140D01*
G37*
D02*
G36*
X1104Y1172D02*
X1163Y1172D01*
X1163Y1152D01*
X1104Y1152D01*
X1104Y1172D01*
G37*
D02*
G36*
X1104Y1203D02*
X1163Y1203D01*
X1163Y1183D01*
X1104Y1183D01*
X1104Y1203D01*
G37*
D02*
G36*
X1104Y1266D02*
X1163Y1266D01*
X1163Y1246D01*
X1104Y1246D01*
X1104Y1266D01*
G37*
D02*
G36*
X1104Y1329D02*
X1163Y1329D01*
X1163Y1309D01*
X1104Y1309D01*
X1104Y1329D01*
G37*
D02*
G36*
X1021Y1451D02*
X1041Y1451D01*
X1041Y1392D01*
X1021Y1392D01*
X1021Y1451D01*
G37*
D02*
G36*
X958Y1451D02*
X978Y1451D01*
X978Y1392D01*
X958Y1392D01*
X958Y1451D01*
G37*
D02*
G36*
X895Y1451D02*
X915Y1451D01*
X915Y1392D01*
X895Y1392D01*
X895Y1451D01*
G37*
D02*
G36*
X864Y1451D02*
X884Y1451D01*
X884Y1392D01*
X864Y1392D01*
X864Y1451D01*
G37*
D02*
G36*
X832Y1451D02*
X852Y1451D01*
X852Y1392D01*
X832Y1392D01*
X832Y1451D01*
G37*
D02*
G36*
X801Y1451D02*
X821Y1451D01*
X821Y1392D01*
X801Y1392D01*
X801Y1451D01*
G37*
D02*
G36*
X769Y1451D02*
X789Y1451D01*
X789Y1392D01*
X769Y1392D01*
X769Y1451D01*
G37*
D02*
G36*
X738Y1451D02*
X758Y1451D01*
X758Y1392D01*
X738Y1392D01*
X738Y1451D01*
G37*
D02*
G36*
X647Y1361D02*
X706Y1361D01*
X706Y1341D01*
X647Y1341D01*
X647Y1361D01*
G37*
D02*
G36*
X647Y1329D02*
X706Y1329D01*
X706Y1309D01*
X647Y1309D01*
X647Y1329D01*
G37*
D02*
G36*
X647Y1298D02*
X706Y1298D01*
X706Y1278D01*
X647Y1278D01*
X647Y1298D01*
G37*
D02*
G36*
X647Y1266D02*
X706Y1266D01*
X706Y1246D01*
X647Y1246D01*
X647Y1266D01*
G37*
D02*
G36*
X647Y1235D02*
X706Y1235D01*
X706Y1215D01*
X647Y1215D01*
X647Y1235D01*
G37*
D02*
G36*
X647Y1203D02*
X706Y1203D01*
X706Y1183D01*
X647Y1183D01*
X647Y1203D01*
G37*
D02*
G36*
X647Y1172D02*
X706Y1172D01*
X706Y1152D01*
X647Y1152D01*
X647Y1172D01*
G37*
D02*
G36*
X647Y1140D02*
X706Y1140D01*
X706Y1120D01*
X647Y1120D01*
X647Y1140D01*
G37*
D02*
G36*
X647Y1109D02*
X706Y1109D01*
X706Y1089D01*
X647Y1089D01*
X647Y1109D01*
G37*
D02*
G36*
X647Y1077D02*
X706Y1077D01*
X706Y1057D01*
X647Y1057D01*
X647Y1077D01*
G37*
D02*
G36*
X647Y1046D02*
X706Y1046D01*
X706Y1026D01*
X647Y1026D01*
X647Y1046D01*
G37*
D02*
G54D27*
X656Y1810D02*
X714Y1810D01*
X714Y1752D01*
X656Y1752D01*
X656Y1810D01*
D02*
X655Y1922D02*
X713Y1922D01*
X713Y1864D01*
X655Y1864D01*
X655Y1922D01*
D02*
X320Y1993D02*
X262Y1993D01*
X262Y2051D01*
X320Y2051D01*
X320Y1993D01*
D02*
X649Y1992D02*
X591Y1992D01*
X591Y2050D01*
X649Y2050D01*
X649Y1992D01*
D02*
G36*
X369Y1035D02*
X326Y1035D01*
X326Y1082D01*
X369Y1082D01*
X369Y1035D01*
G37*
D02*
G36*
X369Y968D02*
X326Y968D01*
X326Y1015D01*
X369Y1015D01*
X369Y968D01*
G37*
D02*
G36*
X511Y904D02*
X467Y904D01*
X467Y952D01*
X511Y952D01*
X511Y904D01*
G37*
D02*
G36*
X511Y837D02*
X467Y837D01*
X467Y885D01*
X511Y885D01*
X511Y837D01*
G37*
D02*
G36*
X630Y1347D02*
X559Y1347D01*
X559Y1410D01*
X630Y1410D01*
X630Y1347D01*
G37*
D02*
G36*
X630Y1237D02*
X559Y1237D01*
X559Y1300D01*
X630Y1300D01*
X630Y1237D01*
G37*
D02*
G36*
X1378Y1497D02*
X1328Y1497D01*
X1328Y1522D01*
X1378Y1522D01*
X1378Y1497D01*
G37*
D02*
G36*
X1378Y1461D02*
X1328Y1461D01*
X1328Y1486D01*
X1378Y1486D01*
X1378Y1461D01*
G37*
D02*
G36*
X1477Y1497D02*
X1427Y1497D01*
X1427Y1522D01*
X1477Y1522D01*
X1477Y1497D01*
G37*
D02*
G36*
X1477Y1461D02*
X1427Y1461D01*
X1427Y1486D01*
X1477Y1486D01*
X1477Y1461D01*
G37*
D02*
G36*
X1277Y1497D02*
X1227Y1497D01*
X1227Y1522D01*
X1277Y1522D01*
X1277Y1497D01*
G37*
D02*
G36*
X1277Y1461D02*
X1227Y1461D01*
X1227Y1486D01*
X1277Y1486D01*
X1277Y1461D01*
G37*
D02*
G36*
X1710Y1535D02*
X1667Y1535D01*
X1667Y1582D01*
X1710Y1582D01*
X1710Y1535D01*
G37*
D02*
G36*
X1710Y1468D02*
X1667Y1468D01*
X1667Y1515D01*
X1710Y1515D01*
X1710Y1468D01*
G37*
D02*
G36*
X1776Y1535D02*
X1733Y1535D01*
X1733Y1582D01*
X1776Y1582D01*
X1776Y1535D01*
G37*
D02*
G36*
X1776Y1468D02*
X1733Y1468D01*
X1733Y1515D01*
X1776Y1515D01*
X1776Y1468D01*
G37*
D02*
G36*
X1274Y1610D02*
X1231Y1610D01*
X1231Y1658D01*
X1274Y1658D01*
X1274Y1610D01*
G37*
D02*
G36*
X1274Y1543D02*
X1231Y1543D01*
X1231Y1591D01*
X1274Y1591D01*
X1274Y1543D01*
G37*
D02*
G04 End of Copper1*
M02*